<?xml version="1.0" encoding="utf-8" ?>
<svg baseProfile="full" height="1080" version="1.1" width="1920" xmlns="http://www.w3.org/2000/svg" xmlns:ev="http://www.w3.org/2001/xml-events" xmlns:xlink="http://www.w3.org/1999/xlink"><defs /><rect fill="#000000" height="100%" width="100%" x="0" y="0" /><g id="grid" opacity="0.25" stroke="#333333" stroke-width="1"><line x1="0" x2="1920" y1="75" y2="75" /><line x1="0" x2="1920" y1="151" y2="151" /><line x1="0" x2="1920" y1="226" y2="226" /><line x1="0" x2="1920" y1="302" y2="302" /><line x1="0" x2="1920" y1="378" y2="378" /><line x1="0" x2="1920" y1="453" y2="453" /><line x1="0" x2="1920" y1="529" y2="529" /><line x1="0" x2="1920" y1="604" y2="604" /><line x1="0" x2="1920" y1="680" y2="680" /><line x1="0" x2="0" y1="0" y2="1080" /><line x1="172" x2="172" y1="0" y2="1080" /><line x1="345" x2="345" y1="0" y2="1080" /><line x1="518" x2="518" y1="0" y2="1080" /><line x1="691" x2="691" y1="0" y2="1080" /><line x1="864" x2="864" y1="0" y2="1080" /><line x1="1036" x2="1036" y1="0" y2="1080" /><line x1="1209" x2="1209" y1="0" y2="1080" /><line x1="1382" x2="1382" y1="0" y2="1080" /><line x1="1555" x2="1555" y1="0" y2="1080" /><line x1="1728" x2="1728" y1="0" y2="1080" /></g><g id="line"><polyline fill="none" points="9.504950495049505,236.98116251995032 28.51485148514851,242.52508441279224 47.524752475247524,216.55500655680612 66.53465346534654,155.48675905640175 85.54455445544554,164.87550227801137 104.55445544554455,174.26358720346752 123.56435643564356,110.94259670058727 142.57425742574256,80.17110933733511 161.58415841584159,98.99541397900009 180.59405940594058,77.24062638496014 199.60396039603958,95.8220785092683 218.6138613861386,114.4962363005069 237.6237623762376,104.7943832320426 256.63366336633663,181.510326144651 275.6435643564356,250.67358559788295 294.65346534653463,273.2193773678895 313.66336633663366,313.8304141590973 332.6732673267327,301.23017930320975 351.68316831683165,337.6388148574948 370.6930693069307,394.2673252021893 389.7029702970297,335.4998615227475 408.7128712871287,344.5527129424531 427.7227722772277,341.84506469787704 446.73267326732673,398.9725559912098 465.7425742574257,420.8004268083014 484.7524752475247,416.35281330073457 503.76237623762376,462.5036883880909 522.7722772277227,447.43949284838214 541.7821782178218,471.5230339687036 560.7920792079208,483.218947894323 579.8019801980198,507.345309018271 598.8118811881188,433.07533844923233 617.8217821782177,433.6165306375516 636.8316831683168,476.0270930579751 655.8415841584158,443.0458773180661 674.8514851485148,491.9974995479547 693.8613861386139,483.6227893215535 712.8712871287129,562.1988064893856 731.8811881188118,615.4544889170475 750.8910891089108,607.5610319209751 769.9009900990098,577.951067488436 788.9108910891089,571.0797901031657 807.9207920792079,575.7168875981142 826.9306930693069,587.7901079149501 845.940594059406,647.0737434015804 864.9504950495049,675.9370149225058 883.9603960396039,694.4070418592056 902.9702970297029,652.0200843893318 921.980198019802,638.2421753977627 940.990099009901,708.9340085931839 960.0,695.9393585076032 979.0099009900989,711.3798306096703 998.0198019801979,738.522069535076 1017.029702970297,713.9959587435515 1036.0396039603959,672.6564316504506 1055.049504950495,635.3153089094151 1074.059405940594,668.9650388862818 1093.069306930693,681.3633893317578 1112.079207920792,668.0808675665598 1131.0891089108911,628.9648705818224 1150.09900990099,648.1781058506091 1169.108910891089,655.6223908656891 1188.118811881188,699.9826098900846 1207.128712871287,747.9463723032953 1226.1386138613861,715.3668875258511 1245.148514851485,660.9863372127719 1264.1584158415842,663.873694875985 1283.1683168316831,623.6354847546139 1302.178217821782,609.1351266757799 1321.1881188118812,635.0022051679506 1340.19801980198,620.5114870839358 1359.2079207920792,558.841522236935 1378.2178217821781,560.2780229162361 1397.2277227722773,497.5412054985288 1416.2376237623762,602.583954156021 1435.247524752475,569.628496751684 1454.2574257425742,566.1382093584414 1473.2673267326732,578.1273734617339 1492.2772277227723,574.4480826134799 1511.2871287128712,654.142745124705 1530.2970297029701,662.9508306385244 1549.3069306930693,648.631847454558 1568.3168316831682,589.3733904230571 1587.3267326732673,610.1542397468306 1606.3366336633662,642.572046420968 1625.3465346534654,662.6907743590777 1644.3564356435643,625.9863047447618 1663.3663366336632,612.8045184217552 1682.3762376237623,634.0460765589078 1701.3861386138612,613.4658216759291 1720.3960396039604,609.5733465643114 1739.4059405940593,570.7340212726858 1758.4158415841584,598.8839304257739 1777.4257425742574,612.0220530835516 1796.4356435643563,627.7442384639975 1815.4455445544554,686.4261432848639 1834.4554455445543,674.5527408734912 1853.4653465346535,664.0853242921997 1872.4752475247524,663.8802923064444 1891.4851485148513,673.2864277548658" stroke="#00FF00" stroke-linecap="round" stroke-linejoin="round" stroke-width="2" /></g><g id="volume"><rect fill="#00FF00" height="167.7864761866391" opacity="0.5" width="15.207920792079207" x="1.900990099009901" y="912.2135238133609" /><rect fill="#00FF00" height="63.07405824340984" opacity="0.5" width="15.207920792079207" x="20.910891089108908" y="1016.9259417565902" /><rect fill="#00FF00" height="0.5518104838698715" opacity="0.5" width="15.207920792079207" x="39.92079207920792" y="1079.4481895161302" /><rect fill="#00FF00" height="4.943910897094322" opacity="0.5" width="15.207920792079207" x="58.930693069306926" y="1075.0560891029056" /><rect fill="#00FF00" height="47.361759623438495" opacity="0.5" width="15.207920792079207" x="77.94059405940594" y="1032.6382403765615" /><rect fill="#00FF00" height="65.54439441968528" opacity="0.5" width="15.207920792079207" x="96.95049504950495" y="1014.4556055803147" /><rect fill="#00FF00" height="112.34894776375349" opacity="0.5" width="15.207920792079207" x="115.96039603960395" y="967.6510522362465" /><rect fill="#00FF00" height="14.983026631045293" opacity="0.5" width="15.207920792079207" x="134.97029702970298" y="1065.0169733689547" /><rect fill="#00FF00" height="12.65907552108537" opacity="0.5" width="15.207920792079207" x="153.98019801980197" y="1067.3409244789145" /><rect fill="#00FF00" height="54.13596452883212" opacity="0.5" width="15.207920792079207" x="172.99009900990097" y="1025.8640354711679" /><rect fill="#00FF00" height="74.88539987245574" opacity="0.5" width="15.207920792079207" x="192.0" y="1005.1146001275442" /><rect fill="#00FF00" height="118.34951088551281" opacity="0.5" width="15.207920792079207" x="211.009900990099" y="961.6504891144872" /><rect fill="#00FF00" height="161.43950423586787" opacity="0.5" width="15.207920792079207" x="230.019801980198" y="918.5604957641322" /><rect fill="#00FF00" height="134.45382138804396" opacity="0.5" width="15.207920792079207" x="249.02970297029702" y="945.5461786119561" /><rect fill="#00FF00" height="34.97041508904941" opacity="0.5" width="15.207920792079207" x="268.03960396039605" y="1045.0295849109507" /><rect fill="#00FF00" height="78.76551673528323" opacity="0.5" width="15.207920792079207" x="287.049504950495" y="1001.2344832647168" /><rect fill="#00FF00" height="163.23244429895703" opacity="0.5" width="15.207920792079207" x="306.05940594059405" y="916.767555701043" /><rect fill="#00FF00" height="12.172793895743654" opacity="0.5" width="15.207920792079207" x="325.0693069306931" y="1067.8272061042564" /><rect fill="#00FF00" height="124.10103261788376" opacity="0.5" width="15.207920792079207" x="344.07920792079204" y="955.8989673821162" /><rect fill="#00FF00" height="7.105175334101715" opacity="0.5" width="15.207920792079207" x="363.08910891089107" y="1072.8948246658983" /><rect fill="#00FF00" height="216.85877732849266" opacity="0.5" width="15.207920792079207" x="382.0990099009901" y="863.1412226715073" /><rect fill="#00FF00" height="184.71986034332602" opacity="0.5" width="15.207920792079207" x="401.10891089108907" y="895.280139656674" /><rect fill="#00FF00" height="26.199255224722855" opacity="0.5" width="15.207920792079207" x="420.1188118811881" y="1053.800744775277" /><rect fill="#00FF00" height="102.2413687612512" opacity="0.5" width="15.207920792079207" x="439.1287128712871" y="977.7586312387488" /><rect fill="#00FF00" height="67.91487578582172" opacity="0.5" width="15.207920792079207" x="458.1386138613861" y="1012.0851242141782" /><rect fill="#00FF00" height="144.02526509721102" opacity="0.5" width="15.207920792079207" x="477.1485148514851" y="935.974734902789" /><rect fill="#00FF00" height="101.54183311331622" opacity="0.5" width="15.207920792079207" x="496.15841584158414" y="978.4581668866838" /><rect fill="#00FF00" height="72.19528356832329" opacity="0.5" width="15.207920792079207" x="515.1683168316831" y="1007.8047164316768" /><rect fill="#00FF00" height="111.38123073732237" opacity="0.5" width="15.207920792079207" x="534.1782178217821" y="968.6187692626777" /><rect fill="#00FF00" height="185.0775099952602" opacity="0.5" width="15.207920792079207" x="553.188118811881" y="894.9224900047398" /><rect fill="#00FF00" height="124.51789528548255" opacity="0.5" width="15.207920792079207" x="572.1980198019801" y="955.4821047145174" /><rect fill="#00FF00" height="214.59460976203565" opacity="0.5" width="15.207920792079207" x="591.2079207920791" y="865.4053902379644" /><rect fill="#00FF00" height="28.350501299149517" opacity="0.5" width="15.207920792079207" x="610.2178217821781" y="1051.6494987008505" /><rect fill="#00FF00" height="75.50915587230396" opacity="0.5" width="15.207920792079207" x="629.2277227722772" y="1004.490844127696" /><rect fill="#00FF00" height="158.09760596849358" opacity="0.5" width="15.207920792079207" x="648.2376237623762" y="921.9023940315064" /><rect fill="#00FF00" height="7.797219298025379" opacity="0.5" width="15.207920792079207" x="667.2475247524752" y="1072.2027807019747" /><rect fill="#00FF00" height="171.38417158468903" opacity="0.5" width="15.207920792079207" x="686.2574257425741" y="908.615828415311" /><rect fill="#00FF00" height="145.2322776619515" opacity="0.5" width="15.207920792079207" x="705.2673267326732" y="934.7677223380485" /><rect fill="#00FF00" height="179.25211941802064" opacity="0.5" width="15.207920792079207" x="724.2772277227722" y="900.7478805819794" /><rect fill="#00FF00" height="5.845453449539127" opacity="0.5" width="15.207920792079207" x="743.2871287128712" y="1074.154546550461" /><rect fill="#00FF00" height="40.41637633863757" opacity="0.5" width="15.207920792079207" x="762.2970297029702" y="1039.5836236613625" /><rect fill="#00FF00" height="3.440567869141069" opacity="0.5" width="15.207920792079207" x="781.3069306930693" y="1076.559432130859" /><rect fill="#00FF00" height="217.56322575832465" opacity="0.5" width="15.207920792079207" x="800.3168316831682" y="862.4367742416754" /><rect fill="#00FF00" height="9.378373051287685" opacity="0.5" width="15.207920792079207" x="819.3267326732672" y="1070.6216269487122" /><rect fill="#00FF00" height="137.27329651829785" opacity="0.5" width="15.207920792079207" x="838.3366336633662" y="942.7267034817021" /><rect fill="#00FF00" height="70.47168088646941" opacity="0.5" width="15.207920792079207" x="857.3465346534653" y="1009.5283191135306" /><rect fill="#00FF00" height="38.578249411016685" opacity="0.5" width="15.207920792079207" x="876.3564356435643" y="1041.4217505889833" /><rect fill="#00FF00" height="98.90641103539502" opacity="0.5" width="15.207920792079207" x="895.3663366336633" y="981.093588964605" /><rect fill="#00FF00" height="54.07577999117898" opacity="0.5" width="15.207920792079207" x="914.3762376237622" y="1025.924220008821" /><rect fill="#00FF00" height="111.46426329644312" opacity="0.5" width="15.207920792079207" x="933.3861386138612" y="968.5357367035568" /><rect fill="#00FF00" height="6.595912209637243" opacity="0.5" width="15.207920792079207" x="952.3960396039603" y="1073.4040877903628" /><rect fill="#00FF00" height="100.51253396771443" opacity="0.5" width="15.207920792079207" x="971.4059405940593" y="979.4874660322855" /><rect fill="#00FF00" height="103.73095253822308" opacity="0.5" width="15.207920792079207" x="990.4158415841583" y="976.269047461777" /><rect fill="#00FF00" height="53.042349213160804" opacity="0.5" width="15.207920792079207" x="1009.4257425742574" y="1026.9576507868392" /><rect fill="#00FF00" height="55.80062335666366" opacity="0.5" width="15.207920792079207" x="1028.4356435643565" y="1024.1993766433363" /><rect fill="#00FF00" height="83.43642175024273" opacity="0.5" width="15.207920792079207" x="1047.4455445544554" y="996.5635782497573" /><rect fill="#00FF00" height="11.263130592793425" opacity="0.5" width="15.207920792079207" x="1066.4554455445545" y="1068.7368694072065" /><rect fill="#00FF00" height="108.94170100471226" opacity="0.5" width="15.207920792079207" x="1085.4653465346535" y="971.0582989952877" /><rect fill="#00FF00" height="58.262201784449154" opacity="0.5" width="15.207920792079207" x="1104.4752475247524" y="1021.7377982155508" /><rect fill="#00FF00" height="126.05633713814143" opacity="0.5" width="15.207920792079207" x="1123.4851485148515" y="953.9436628618586" /><rect fill="#00FF00" height="206.75400662369125" opacity="0.5" width="15.207920792079207" x="1142.4950495049504" y="873.2459933763088" /><rect fill="#00FF00" height="3.710890920968296" opacity="0.5" width="15.207920792079207" x="1161.5049504950496" y="1076.2891090790317" /><rect fill="#00FF00" height="73.63424526438395" opacity="0.5" width="15.207920792079207" x="1180.5148514851485" y="1006.3657547356161" /><rect fill="#00FF00" height="22.517757390118817" opacity="0.5" width="15.207920792079207" x="1199.5247524752476" y="1057.4822426098813" /><rect fill="#00FF00" height="11.82062261061964" opacity="0.5" width="15.207920792079207" x="1218.5346534653465" y="1068.1793773893803" /><rect fill="#00FF00" height="23.25330361998816" opacity="0.5" width="15.207920792079207" x="1237.5445544554455" y="1056.7466963800118" /><rect fill="#00FF00" height="64.63063145140352" opacity="0.5" width="15.207920792079207" x="1256.5544554455446" y="1015.3693685485965" /><rect fill="#00FF00" height="79.71484228337742" opacity="0.5" width="15.207920792079207" x="1275.5643564356435" y="1000.2851577166226" /><rect fill="#00FF00" height="55.82625067972319" opacity="0.5" width="15.207920792079207" x="1294.5742574257426" y="1024.1737493202768" /><rect fill="#00FF00" height="60.59510633101817" opacity="0.5" width="15.207920792079207" x="1313.5841584158416" y="1019.4048936689818" /><rect fill="#00FF00" height="28.94452738553562" opacity="0.5" width="15.207920792079207" x="1332.5940594059407" y="1051.0554726144644" /><rect fill="#00FF00" height="242.2381715219856" opacity="0.5" width="15.207920792079207" x="1351.6039603960396" y="837.7618284780144" /><rect fill="#00FF00" height="159.4481679200308" opacity="0.5" width="15.207920792079207" x="1370.6138613861385" y="920.5518320799692" /><rect fill="#00FF00" height="143.8403401118425" opacity="0.5" width="15.207920792079207" x="1389.6237623762377" y="936.1596598881575" /><rect fill="#00FF00" height="173.10495999415514" opacity="0.5" width="15.207920792079207" x="1408.6336633663366" y="906.8950400058449" /><rect fill="#00FF00" height="26.20682054163373" opacity="0.5" width="15.207920792079207" x="1427.6435643564357" y="1053.7931794583662" /><rect fill="#00FF00" height="60.67284433910692" opacity="0.5" width="15.207920792079207" x="1446.6534653465346" y="1019.327155660893" /><rect fill="#00FF00" height="32.753801249845246" opacity="0.5" width="15.207920792079207" x="1465.6633663366335" y="1047.2461987501547" /><rect fill="#00FF00" height="324.0" opacity="0.5" width="15.207920792079207" x="1484.6732673267327" y="756.0" /><rect fill="#00FF00" height="117.81627606649738" opacity="0.5" width="15.207920792079207" x="1503.6831683168316" y="962.1837239335026" /><rect fill="#00FF00" height="13.461157549831443" opacity="0.5" width="15.207920792079207" x="1522.6930693069307" y="1066.5388424501687" /><rect fill="#00FF00" height="100.55442935768295" opacity="0.5" width="15.207920792079207" x="1541.7029702970297" y="979.4455706423171" /><rect fill="#00FF00" height="169.0512365188302" opacity="0.5" width="15.207920792079207" x="1560.7128712871288" y="910.9487634811699" /><rect fill="#00FF00" height="21.411097772912925" opacity="0.5" width="15.207920792079207" x="1579.7227722772277" y="1058.5889022270871" /><rect fill="#00FF00" height="79.59309135941079" opacity="0.5" width="15.207920792079207" x="1598.7326732673266" y="1000.4069086405892" /><rect fill="#00FF00" height="149.66808739207025" opacity="0.5" width="15.207920792079207" x="1617.7425742574258" y="930.3319126079298" /><rect fill="#00FF00" height="68.04083286344739" opacity="0.5" width="15.207920792079207" x="1636.7524752475247" y="1011.9591671365527" /><rect fill="#00FF00" height="113.8145887975704" opacity="0.5" width="15.207920792079207" x="1655.7623762376238" y="966.1854112024296" /><rect fill="#00FF00" height="177.5430501441765" opacity="0.5" width="15.207920792079207" x="1674.7722772277227" y="902.4569498558235" /><rect fill="#00FF00" height="92.77763545349498" opacity="0.5" width="15.207920792079207" x="1693.7821782178219" y="987.222364546505" /><rect fill="#00FF00" height="0.8389853155374538" opacity="0.5" width="15.207920792079207" x="1712.7920792079208" y="1079.1610146844625" /><rect fill="#00FF00" height="155.73902688391118" opacity="0.5" width="15.207920792079207" x="1731.8019801980197" y="924.2609731160888" /><rect fill="#00FF00" height="8.141702533267381" opacity="0.5" width="15.207920792079207" x="1750.8118811881188" y="1071.8582974667327" /><rect fill="#00FF00" height="90.6355583704352" opacity="0.5" width="15.207920792079207" x="1769.8217821782177" y="989.3644416295648" /><rect fill="#00FF00" height="160.2829832451254" opacity="0.5" width="15.207920792079207" x="1788.8316831683169" y="919.7170167548746" /><rect fill="#00FF00" height="56.71114441141184" opacity="0.5" width="15.207920792079207" x="1807.8415841584158" y="1023.2888555885881" /><rect fill="#00FF00" height="109.15257033622768" opacity="0.5" width="15.207920792079207" x="1826.8514851485147" y="970.8474296637723" /><rect fill="#00FF00" height="20.029918511210738" opacity="0.5" width="15.207920792079207" x="1845.8613861386139" y="1059.9700814887892" /><rect fill="#00FF00" height="92.14397430311759" opacity="0.5" width="15.207920792079207" x="1864.8712871287128" y="987.8560256968824" /><rect fill="#00FF00" height="145.51622511727982" opacity="0.5" width="15.207920792079207" x="1883.881188118812" y="934.4837748827201" /></g></svg>