<?xml version="1.0" encoding="utf-8" ?>
<svg baseProfile="full" height="1080" version="1.1" width="1920" xmlns="http://www.w3.org/2000/svg" xmlns:ev="http://www.w3.org/2001/xml-events" xmlns:xlink="http://www.w3.org/1999/xlink"><defs /><rect fill="#000000" height="100%" width="100%" x="0" y="0" /><g id="grid" opacity="0.25" stroke="#333333" stroke-width="1"><line x1="0" x2="1920" y1="75" y2="75" /><line x1="0" x2="1920" y1="151" y2="151" /><line x1="0" x2="1920" y1="226" y2="226" /><line x1="0" x2="1920" y1="302" y2="302" /><line x1="0" x2="1920" y1="378" y2="378" /><line x1="0" x2="1920" y1="453" y2="453" /><line x1="0" x2="1920" y1="529" y2="529" /><line x1="0" x2="1920" y1="604" y2="604" /><line x1="0" x2="1920" y1="680" y2="680" /><line x1="0" x2="0" y1="0" y2="1080" /><line x1="236" x2="236" y1="0" y2="1080" /><line x1="473" x2="473" y1="0" y2="1080" /><line x1="710" x2="710" y1="0" y2="1080" /><line x1="947" x2="947" y1="0" y2="1080" /><line x1="1184" x2="1184" y1="0" y2="1080" /><line x1="1421" x2="1421" y1="0" y2="1080" /><line x1="1658" x2="1658" y1="0" y2="1080" /></g><g id="bricks"><rect fill="#00FF00" height="34.363636363636225" stroke="#00FF00" width="22.441558441558442" x="1.246753246753247" y="206.18181818181813" /><rect fill="#00FF00" height="34.363636363636225" stroke="#00FF00" width="22.441558441558442" x="26.181818181818183" y="171.81818181818187" /><rect fill="#00FF00" height="34.363636363636225" stroke="#00FF00" width="22.441558441558442" x="51.116883116883116" y="137.45454545454538" /><rect fill="#00FF00" height="34.363636363636225" stroke="#00FF00" width="22.441558441558442" x="76.05194805194806" y="103.09090909090912" /><rect fill="#00FF00" height="34.363636363636225" stroke="#00FF00" width="22.441558441558442" x="100.98701298701299" y="68.72727272727275" /><rect fill="#00FF00" height="34.363636363636225" stroke="#00FF00" width="22.441558441558442" x="125.92207792207792" y="34.363636363636374" /><rect fill="#FF0000" height="34.363636363636225" stroke="#FF0000" width="22.441558441558442" x="150.8571428571429" y="34.36363636363652" /><rect fill="#FF0000" height="34.363636363636225" stroke="#FF0000" width="22.441558441558442" x="175.79220779220782" y="68.72727272727289" /><rect fill="#FF0000" height="34.363636363636225" stroke="#FF0000" width="22.441558441558442" x="200.72727272727275" y="103.09090909090915" /><rect fill="#00FF00" height="34.363636363636225" stroke="#00FF00" width="22.441558441558442" x="225.66233766233768" y="103.09090909090912" /><rect fill="#FF0000" height="34.363636363636225" stroke="#FF0000" width="22.441558441558442" x="250.5974025974026" y="103.09090909090915" /><rect fill="#FF0000" height="34.363636363636225" stroke="#FF0000" width="22.441558441558442" x="275.53246753246754" y="137.45454545454564" /><rect fill="#FF0000" height="34.363636363636225" stroke="#FF0000" width="22.441558441558442" x="300.4675324675325" y="171.8181818181819" /><rect fill="#FF0000" height="34.363636363636225" stroke="#FF0000" width="22.441558441558442" x="325.40259740259745" y="206.1818181818184" /><rect fill="#FF0000" height="34.363636363636225" stroke="#FF0000" width="22.441558441558442" x="350.3376623376624" y="240.5454545454547" /><rect fill="#FF0000" height="34.363636363636225" stroke="#FF0000" width="22.441558441558442" x="375.2727272727273" y="274.90909090909105" /><rect fill="#FF0000" height="34.363636363636225" stroke="#FF0000" width="22.441558441558442" x="400.20779220779224" y="309.2727272727275" /><rect fill="#FF0000" height="34.363636363636225" stroke="#FF0000" width="22.441558441558442" x="425.14285714285717" y="343.6363636363638" /><rect fill="#00FF00" height="34.363636363636225" stroke="#00FF00" width="22.441558441558442" x="450.0779220779221" y="343.6363636363637" /><rect fill="#00FF00" height="34.363636363636225" stroke="#00FF00" width="22.441558441558442" x="475.012987012987" y="309.27272727272725" /><rect fill="#FF0000" height="34.363636363636225" stroke="#FF0000" width="22.441558441558442" x="499.94805194805195" y="309.2727272727275" /><rect fill="#FF0000" height="34.363636363636225" stroke="#FF0000" width="22.441558441558442" x="524.8831168831168" y="343.6363636363638" /><rect fill="#FF0000" height="34.363636363636225" stroke="#FF0000" width="22.441558441558442" x="549.8181818181818" y="378.00000000000017" /><rect fill="#FF0000" height="34.363636363636225" stroke="#FF0000" width="22.441558441558442" x="574.7532467532467" y="412.3636363636365" /><rect fill="#FF0000" height="34.363636363636225" stroke="#FF0000" width="22.441558441558442" x="599.6883116883117" y="446.72727272727286" /><rect fill="#00FF00" height="34.363636363636225" stroke="#00FF00" width="22.441558441558442" x="624.6233766233767" y="446.7272727272727" /><rect fill="#FF0000" height="34.363636363636225" stroke="#FF0000" width="22.441558441558442" x="649.5584415584416" y="446.72727272727286" /><rect fill="#00FF00" height="34.363636363636225" stroke="#00FF00" width="22.441558441558442" x="674.4935064935065" y="446.7272727272727" /><rect fill="#FF0000" height="34.363636363636225" stroke="#FF0000" width="22.441558441558442" x="699.4285714285714" y="446.72727272727286" /><rect fill="#00FF00" height="34.363636363636225" stroke="#00FF00" width="22.441558441558442" x="724.3636363636364" y="446.7272727272727" /><rect fill="#00FF00" height="34.363636363636225" stroke="#00FF00" width="22.441558441558442" x="749.2987012987013" y="412.3636363636364" /><rect fill="#FF0000" height="34.363636363636225" stroke="#FF0000" width="22.441558441558442" x="774.2337662337662" y="412.3636363636365" /><rect fill="#FF0000" height="34.363636363636225" stroke="#FF0000" width="22.441558441558442" x="799.1688311688312" y="446.72727272727286" /><rect fill="#00FF00" height="34.363636363636225" stroke="#00FF00" width="22.441558441558442" x="824.1038961038961" y="446.7272727272727" /><rect fill="#FF0000" height="34.363636363636225" stroke="#FF0000" width="22.441558441558442" x="849.038961038961" y="446.72727272727286" /><rect fill="#FF0000" height="34.363636363636225" stroke="#FF0000" width="22.441558441558442" x="873.974025974026" y="481.0909090909093" /><rect fill="#FF0000" height="34.363636363636225" stroke="#FF0000" width="22.441558441558442" x="898.9090909090909" y="515.4545454545456" /><rect fill="#FF0000" height="34.363636363636225" stroke="#FF0000" width="22.441558441558442" x="923.8441558441558" y="549.818181818182" /><rect fill="#FF0000" height="34.363636363636225" stroke="#FF0000" width="22.441558441558442" x="948.7792207792207" y="584.1818181818182" /><rect fill="#FF0000" height="34.363636363636225" stroke="#FF0000" width="22.441558441558442" x="973.7142857142857" y="618.5454545454546" /><rect fill="#FF0000" height="34.363636363636225" stroke="#FF0000" width="22.441558441558442" x="998.6493506493506" y="652.909090909091" /><rect fill="#00FF00" height="34.363636363636225" stroke="#00FF00" width="22.441558441558442" x="1023.5844155844156" y="652.9090909090909" /><rect fill="#00FF00" height="34.363636363636225" stroke="#00FF00" width="22.441558441558442" x="1048.5194805194806" y="618.5454545454545" /><rect fill="#FF0000" height="34.363636363636225" stroke="#FF0000" width="22.441558441558442" x="1073.4545454545455" y="618.5454545454546" /><rect fill="#FF0000" height="34.363636363636225" stroke="#FF0000" width="22.441558441558442" x="1098.3896103896104" y="652.909090909091" /><rect fill="#FF0000" height="34.363636363636225" stroke="#FF0000" width="22.441558441558442" x="1123.3246753246754" y="687.2727272727274" /><rect fill="#00FF00" height="34.363636363636225" stroke="#00FF00" width="22.441558441558442" x="1148.2597402597403" y="687.2727272727273" /><rect fill="#00FF00" height="34.363636363636225" stroke="#00FF00" width="22.441558441558442" x="1173.1948051948052" y="652.9090909090909" /><rect fill="#00FF00" height="34.363636363636225" stroke="#00FF00" width="22.441558441558442" x="1198.1298701298704" y="618.5454545454545" /><rect fill="#FF0000" height="34.363636363636225" stroke="#FF0000" width="22.441558441558442" x="1223.0649350649353" y="618.5454545454546" /><rect fill="#00FF00" height="34.363636363636225" stroke="#00FF00" width="22.441558441558442" x="1248.0000000000002" y="618.5454545454545" /><rect fill="#FF0000" height="34.363636363636225" stroke="#FF0000" width="22.441558441558442" x="1272.9350649350652" y="618.5454545454546" /><rect fill="#FF0000" height="34.363636363636225" stroke="#FF0000" width="22.441558441558442" x="1297.87012987013" y="652.909090909091" /><rect fill="#FF0000" height="34.363636363636225" stroke="#FF0000" width="22.441558441558442" x="1322.805194805195" y="687.2727272727274" /><rect fill="#00FF00" height="34.363636363636225" stroke="#00FF00" width="22.441558441558442" x="1347.74025974026" y="687.2727272727273" /><rect fill="#00FF00" height="34.363636363636225" stroke="#00FF00" width="22.441558441558442" x="1372.6753246753249" y="652.9090909090909" /><rect fill="#00FF00" height="34.363636363636225" stroke="#00FF00" width="22.441558441558442" x="1397.6103896103898" y="618.5454545454545" /><rect fill="#00FF00" height="34.363636363636225" stroke="#00FF00" width="22.441558441558442" x="1422.5454545454547" y="584.1818181818182" /><rect fill="#00FF00" height="34.363636363636225" stroke="#00FF00" width="22.441558441558442" x="1447.4805194805197" y="549.8181818181819" /><rect fill="#00FF00" height="34.363636363636225" stroke="#00FF00" width="22.441558441558442" x="1472.4155844155846" y="515.4545454545455" /><rect fill="#FF0000" height="34.363636363636225" stroke="#FF0000" width="22.441558441558442" x="1497.3506493506495" y="515.4545454545456" /><rect fill="#FF0000" height="34.363636363636225" stroke="#FF0000" width="22.441558441558442" x="1522.2857142857144" y="549.818181818182" /><rect fill="#FF0000" height="34.363636363636225" stroke="#FF0000" width="22.441558441558442" x="1547.2207792207794" y="584.1818181818182" /><rect fill="#00FF00" height="34.363636363636225" stroke="#00FF00" width="22.441558441558442" x="1572.1558441558443" y="584.1818181818182" /><rect fill="#FF0000" height="34.363636363636225" stroke="#FF0000" width="22.441558441558442" x="1597.0909090909092" y="584.1818181818182" /><rect fill="#FF0000" height="34.363636363636225" stroke="#FF0000" width="22.441558441558442" x="1622.0259740259742" y="618.5454545454546" /><rect fill="#00FF00" height="34.363636363636225" stroke="#00FF00" width="22.441558441558442" x="1646.961038961039" y="618.5454545454545" /><rect fill="#00FF00" height="34.363636363636225" stroke="#00FF00" width="22.441558441558442" x="1671.896103896104" y="584.1818181818182" /><rect fill="#FF0000" height="34.363636363636225" stroke="#FF0000" width="22.441558441558442" x="1696.831168831169" y="584.1818181818182" /><rect fill="#FF0000" height="34.363636363636225" stroke="#FF0000" width="22.441558441558442" x="1721.7662337662339" y="618.5454545454546" /><rect fill="#00FF00" height="34.363636363636225" stroke="#00FF00" width="22.441558441558442" x="1746.7012987012988" y="618.5454545454545" /><rect fill="#00FF00" height="34.363636363636225" stroke="#00FF00" width="22.441558441558442" x="1771.6363636363637" y="584.1818181818182" /><rect fill="#FF0000" height="34.363636363636225" stroke="#FF0000" width="22.441558441558442" x="1796.5714285714287" y="584.1818181818182" /><rect fill="#FF0000" height="34.363636363636225" stroke="#FF0000" width="22.441558441558442" x="1821.5064935064936" y="618.5454545454546" /><rect fill="#FF0000" height="34.363636363636225" stroke="#FF0000" width="22.441558441558442" x="1846.4415584415585" y="652.909090909091" /><rect fill="#00FF00" height="34.363636363636225" stroke="#00FF00" width="22.441558441558442" x="1871.3766233766235" y="652.9090909090909" /></g><g id="volume"><rect fill="#00FF00" height="162" opacity="0.5" width="22.441558441558442" x="1.246753246753247" y="918" /><rect fill="#00FF00" height="162" opacity="0.5" width="22.441558441558442" x="26.181818181818183" y="918" /><rect fill="#00FF00" height="162" opacity="0.5" width="22.441558441558442" x="51.116883116883116" y="918" /><rect fill="#00FF00" height="162" opacity="0.5" width="22.441558441558442" x="76.05194805194806" y="918" /><rect fill="#00FF00" height="162" opacity="0.5" width="22.441558441558442" x="100.98701298701299" y="918" /><rect fill="#00FF00" height="162" opacity="0.5" width="22.441558441558442" x="125.92207792207792" y="918" /><rect fill="#FF0000" height="162" opacity="0.5" width="22.441558441558442" x="150.8571428571429" y="918" /><rect fill="#FF0000" height="162" opacity="0.5" width="22.441558441558442" x="175.79220779220782" y="918" /><rect fill="#FF0000" height="162" opacity="0.5" width="22.441558441558442" x="200.72727272727275" y="918" /><rect fill="#00FF00" height="162" opacity="0.5" width="22.441558441558442" x="225.66233766233768" y="918" /><rect fill="#FF0000" height="162" opacity="0.5" width="22.441558441558442" x="250.5974025974026" y="918" /><rect fill="#FF0000" height="162" opacity="0.5" width="22.441558441558442" x="275.53246753246754" y="918" /><rect fill="#FF0000" height="162" opacity="0.5" width="22.441558441558442" x="300.4675324675325" y="918" /><rect fill="#FF0000" height="162" opacity="0.5" width="22.441558441558442" x="325.40259740259745" y="918" /><rect fill="#FF0000" height="162" opacity="0.5" width="22.441558441558442" x="350.3376623376624" y="918" /><rect fill="#FF0000" height="162" opacity="0.5" width="22.441558441558442" x="375.2727272727273" y="918" /><rect fill="#FF0000" height="162" opacity="0.5" width="22.441558441558442" x="400.20779220779224" y="918" /><rect fill="#FF0000" height="162" opacity="0.5" width="22.441558441558442" x="425.14285714285717" y="918" /><rect fill="#00FF00" height="162" opacity="0.5" width="22.441558441558442" x="450.0779220779221" y="918" /><rect fill="#00FF00" height="162" opacity="0.5" width="22.441558441558442" x="475.012987012987" y="918" /><rect fill="#FF0000" height="162" opacity="0.5" width="22.441558441558442" x="499.94805194805195" y="918" /><rect fill="#FF0000" height="162" opacity="0.5" width="22.441558441558442" x="524.8831168831168" y="918" /><rect fill="#FF0000" height="162" opacity="0.5" width="22.441558441558442" x="549.8181818181818" y="918" /><rect fill="#FF0000" height="162" opacity="0.5" width="22.441558441558442" x="574.7532467532467" y="918" /><rect fill="#FF0000" height="162" opacity="0.5" width="22.441558441558442" x="599.6883116883117" y="918" /><rect fill="#00FF00" height="162" opacity="0.5" width="22.441558441558442" x="624.6233766233767" y="918" /><rect fill="#FF0000" height="162" opacity="0.5" width="22.441558441558442" x="649.5584415584416" y="918" /><rect fill="#00FF00" height="162" opacity="0.5" width="22.441558441558442" x="674.4935064935065" y="918" /><rect fill="#FF0000" height="162" opacity="0.5" width="22.441558441558442" x="699.4285714285714" y="918" /><rect fill="#00FF00" height="162" opacity="0.5" width="22.441558441558442" x="724.3636363636364" y="918" /><rect fill="#00FF00" height="162" opacity="0.5" width="22.441558441558442" x="749.2987012987013" y="918" /><rect fill="#FF0000" height="162" opacity="0.5" width="22.441558441558442" x="774.2337662337662" y="918" /><rect fill="#FF0000" height="162" opacity="0.5" width="22.441558441558442" x="799.1688311688312" y="918" /><rect fill="#00FF00" height="162" opacity="0.5" width="22.441558441558442" x="824.1038961038961" y="918" /><rect fill="#FF0000" height="162" opacity="0.5" width="22.441558441558442" x="849.038961038961" y="918" /><rect fill="#FF0000" height="162" opacity="0.5" width="22.441558441558442" x="873.974025974026" y="918" /><rect fill="#FF0000" height="162" opacity="0.5" width="22.441558441558442" x="898.9090909090909" y="918" /><rect fill="#FF0000" height="162" opacity="0.5" width="22.441558441558442" x="923.8441558441558" y="918" /><rect fill="#FF0000" height="162" opacity="0.5" width="22.441558441558442" x="948.7792207792207" y="918" /><rect fill="#FF0000" height="162" opacity="0.5" width="22.441558441558442" x="973.7142857142857" y="918" /><rect fill="#FF0000" height="162" opacity="0.5" width="22.441558441558442" x="998.6493506493506" y="918" /><rect fill="#00FF00" height="162" opacity="0.5" width="22.441558441558442" x="1023.5844155844156" y="918" /><rect fill="#00FF00" height="162" opacity="0.5" width="22.441558441558442" x="1048.5194805194806" y="918" /><rect fill="#FF0000" height="162" opacity="0.5" width="22.441558441558442" x="1073.4545454545455" y="918" /><rect fill="#FF0000" height="162" opacity="0.5" width="22.441558441558442" x="1098.3896103896104" y="918" /><rect fill="#FF0000" height="162" opacity="0.5" width="22.441558441558442" x="1123.3246753246754" y="918" /><rect fill="#00FF00" height="162" opacity="0.5" width="22.441558441558442" x="1148.2597402597403" y="918" /><rect fill="#00FF00" height="162" opacity="0.5" width="22.441558441558442" x="1173.1948051948052" y="918" /><rect fill="#00FF00" height="162" opacity="0.5" width="22.441558441558442" x="1198.1298701298704" y="918" /><rect fill="#FF0000" height="162" opacity="0.5" width="22.441558441558442" x="1223.0649350649353" y="918" /><rect fill="#00FF00" height="162" opacity="0.5" width="22.441558441558442" x="1248.0000000000002" y="918" /><rect fill="#FF0000" height="162" opacity="0.5" width="22.441558441558442" x="1272.9350649350652" y="918" /><rect fill="#FF0000" height="162" opacity="0.5" width="22.441558441558442" x="1297.87012987013" y="918" /><rect fill="#FF0000" height="162" opacity="0.5" width="22.441558441558442" x="1322.805194805195" y="918" /><rect fill="#00FF00" height="162" opacity="0.5" width="22.441558441558442" x="1347.74025974026" y="918" /><rect fill="#00FF00" height="162" opacity="0.5" width="22.441558441558442" x="1372.6753246753249" y="918" /><rect fill="#00FF00" height="162" opacity="0.5" width="22.441558441558442" x="1397.6103896103898" y="918" /><rect fill="#00FF00" height="162" opacity="0.5" width="22.441558441558442" x="1422.5454545454547" y="918" /><rect fill="#00FF00" height="162" opacity="0.5" width="22.441558441558442" x="1447.4805194805197" y="918" /><rect fill="#00FF00" height="162" opacity="0.5" width="22.441558441558442" x="1472.4155844155846" y="918" /><rect fill="#FF0000" height="162" opacity="0.5" width="22.441558441558442" x="1497.3506493506495" y="918" /><rect fill="#FF0000" height="162" opacity="0.5" width="22.441558441558442" x="1522.2857142857144" y="918" /><rect fill="#FF0000" height="162" opacity="0.5" width="22.441558441558442" x="1547.2207792207794" y="918" /><rect fill="#00FF00" height="162" opacity="0.5" width="22.441558441558442" x="1572.1558441558443" y="918" /><rect fill="#FF0000" height="162" opacity="0.5" width="22.441558441558442" x="1597.0909090909092" y="918" /><rect fill="#FF0000" height="162" opacity="0.5" width="22.441558441558442" x="1622.0259740259742" y="918" /><rect fill="#00FF00" height="162" opacity="0.5" width="22.441558441558442" x="1646.961038961039" y="918" /><rect fill="#00FF00" height="162" opacity="0.5" width="22.441558441558442" x="1671.896103896104" y="918" /><rect fill="#FF0000" height="162" opacity="0.5" width="22.441558441558442" x="1696.831168831169" y="918" /><rect fill="#FF0000" height="162" opacity="0.5" width="22.441558441558442" x="1721.7662337662339" y="918" /><rect fill="#00FF00" height="162" opacity="0.5" width="22.441558441558442" x="1746.7012987012988" y="918" /><rect fill="#00FF00" height="162" opacity="0.5" width="22.441558441558442" x="1771.6363636363637" y="918" /><rect fill="#FF0000" height="162" opacity="0.5" width="22.441558441558442" x="1796.5714285714287" y="918" /><rect fill="#FF0000" height="162" opacity="0.5" width="22.441558441558442" x="1821.5064935064936" y="918" /><rect fill="#FF0000" height="162" opacity="0.5" width="22.441558441558442" x="1846.4415584415585" y="918" /><rect fill="#00FF00" height="162" opacity="0.5" width="22.441558441558442" x="1871.3766233766235" y="918" /></g></svg>