<?xml version="1.0" encoding="utf-8" ?>
<svg baseProfile="full" height="1080" version="1.1" width="1920" xmlns="http://www.w3.org/2000/svg" xmlns:ev="http://www.w3.org/2001/xml-events" xmlns:xlink="http://www.w3.org/1999/xlink"><defs /><rect fill="#000000" height="100%" width="100%" x="0" y="0" /><g id="grid" opacity="0.25" stroke="#333333" stroke-width="1"><line x1="0" x2="1920" y1="75" y2="75" /><line x1="0" x2="1920" y1="151" y2="151" /><line x1="0" x2="1920" y1="226" y2="226" /><line x1="0" x2="1920" y1="302" y2="302" /><line x1="0" x2="1920" y1="378" y2="378" /><line x1="0" x2="1920" y1="453" y2="453" /><line x1="0" x2="1920" y1="529" y2="529" /><line x1="0" x2="1920" y1="604" y2="604" /><line x1="0" x2="1920" y1="680" y2="680" /><line x1="0" x2="0" y1="0" y2="1080" /><line x1="172" x2="172" y1="0" y2="1080" /><line x1="345" x2="345" y1="0" y2="1080" /><line x1="518" x2="518" y1="0" y2="1080" /><line x1="691" x2="691" y1="0" y2="1080" /><line x1="864" x2="864" y1="0" y2="1080" /><line x1="1036" x2="1036" y1="0" y2="1080" /><line x1="1209" x2="1209" y1="0" y2="1080" /><line x1="1382" x2="1382" y1="0" y2="1080" /><line x1="1555" x2="1555" y1="0" y2="1080" /><line x1="1728" x2="1728" y1="0" y2="1080" /></g><g id="line"><polyline fill="none" points="9.504950495049505,600.0582103464499 28.51485148514851,628.0373351594665 47.524752475247524,619.302399149265 66.53465346534654,635.0153742754894 85.54455445544554,734.2640492063528 104.55445544554455,721.3563674601378 123.56435643564356,700.5338500810427 142.57425742574256,616.3180688834293 161.58415841584159,641.9045604958472 180.59405940594058,602.8095464424634 199.60396039603958,502.68705422756534 218.6138613861386,509.1181564388212 237.6237623762376,527.4769433382806 256.63366336633663,560.5288341576579 275.6435643564356,580.6512999881355 294.65346534653463,591.8171444532179 313.66336633663366,626.9960484407155 332.6732673267327,559.3895512752389 351.68316831683165,551.1126384347467 370.6930693069307,509.56416786477155 389.7029702970297,493.12485529542965 408.7128712871287,523.3995060470977 427.7227722772277,564.7517751398542 446.73267326732673,553.4695323675091 465.7425742574257,554.9038891117243 484.7524752475247,619.8748296577437 503.76237623762376,634.2826617692288 522.7722772277227,641.3409677164876 541.7821782178218,631.5911790961882 560.7920792079208,624.4888356011536 579.8019801980198,547.9620267310881 598.8118811881188,576.50301894486 617.8217821782177,608.6242440021995 636.8316831683168,477.4189585101511 655.8415841584158,441.08020741118264 674.8514851485148,379.10653281462123 693.8613861386139,445.7232066621128 712.8712871287129,463.409025313959 731.8811881188118,457.28719484975704 750.8910891089108,394.03104873829454 769.9009900990098,372.0666290221653 788.9108910891089,409.05429149326324 807.9207920792079,402.0962180697116 826.9306930693069,377.07643083073077 845.940594059406,423.4861646863721 864.9504950495049,399.726894691357 883.9603960396039,320.63384176147315 902.9702970297029,160.98101798446578 921.980198019802,179.94276947828848 940.990099009901,220.42481917872806 960.0,190.9631839724957 979.0099009900989,166.01528585549534 998.0198019801979,187.23387015268293 1017.029702970297,167.8251711805175 1036.0396039603959,95.66111907434208 1055.049504950495,152.62448987473988 1074.059405940594,179.89504761378487 1093.069306930693,301.0865775591815 1112.079207920792,211.59875673952502 1131.0891089108911,182.79097524049246 1150.09900990099,138.8223482728065 1169.108910891089,143.37438054234508 1188.118811881188,149.91797512089522 1207.128712871287,154.35779849400683 1226.1386138613861,220.38512793826283 1245.148514851485,241.91769166367862 1264.1584158415842,199.7390411614782 1283.1683168316831,245.37216291698485 1302.178217821782,183.70486343914285 1321.1881188118812,160.8627486612843 1340.19801980198,155.65642055405397 1359.2079207920792,45.61291711489605 1378.2178217821781,63.68244464030204 1397.2277227722773,2.284717469024372 1416.2376237623762,53.38799078936347 1435.247524752475,90.50097436451438 1454.2574257425742,116.84574580582375 1473.2673267326732,181.51925691502072 1492.2772277227723,200.6608150739687 1511.2871287128712,269.4468030639387 1530.2970297029701,294.76408442605765 1549.3069306930693,221.4571261951363 1568.3168316831682,211.71166161744668 1587.3267326732673,218.733785061841 1606.3366336633662,271.2278738397665 1625.3465346534654,191.17470198720946 1644.3564356435643,222.92271147077793 1663.3663366336632,210.8570345396315 1682.3762376237623,157.40124849597748 1701.3861386138612,122.45388813473039 1720.3960396039604,191.2371766050843 1739.4059405940593,289.6688106417317 1758.4158415841584,228.11116449035615 1777.4257425742574,156.94166129834775 1796.4356435643563,197.01082605018348 1815.4455445544554,173.85930633433225 1834.4554455445543,219.17957468084785 1853.4653465346535,245.53705431419087 1872.4752475247524,228.05547256775048 1891.4851485148513,193.3041503953898" stroke="#00FF00" stroke-linecap="round" stroke-linejoin="round" stroke-width="2" /></g><g id="volume"><rect fill="#00FF00" height="219.67539267015707" opacity="0.5" width="15.207920792079207" x="1.900990099009901" y="860.3246073298429" /><rect fill="#00FF00" height="304.1006846556585" opacity="0.5" width="15.207920792079207" x="20.910891089108908" y="775.8993153443415" /><rect fill="#00FF00" height="181.21425694724124" opacity="0.5" width="15.207920792079207" x="39.92079207920792" y="898.7857430527588" /><rect fill="#00FF00" height="122.2339911397503" opacity="0.5" width="15.207920792079207" x="58.930693069306926" y="957.7660088602497" /><rect fill="#00FF00" height="284.9190495368506" opacity="0.5" width="15.207920792079207" x="77.94059405940594" y="795.0809504631494" /><rect fill="#00FF00" height="208.55134917438585" opacity="0.5" width="15.207920792079207" x="96.95049504950495" y="871.4486508256141" /><rect fill="#00FF00" height="211.58517921868707" opacity="0.5" width="15.207920792079207" x="115.96039603960395" y="868.414820781313" /><rect fill="#00FF00" height="135.44583165525574" opacity="0.5" width="15.207920792079207" x="134.97029702970298" y="944.5541683447443" /><rect fill="#00FF00" height="157.98751510269835" opacity="0.5" width="15.207920792079207" x="153.98019801980197" y="922.0124848973016" /><rect fill="#00FF00" height="310.85340314136124" opacity="0.5" width="15.207920792079207" x="172.99009900990097" y="769.1465968586388" /><rect fill="#00FF00" height="315.90978654853" opacity="0.5" width="15.207920792079207" x="192.0" y="764.0902134514699" /><rect fill="#00FF00" height="204.147402335884" opacity="0.5" width="15.207920792079207" x="211.009900990099" y="875.852597664116" /><rect fill="#00FF00" height="148.78815948449454" opacity="0.5" width="15.207920792079207" x="230.019801980198" y="931.2118405155054" /><rect fill="#00FF00" height="133.8799838904551" opacity="0.5" width="15.207920792079207" x="249.02970297029702" y="946.1200161095448" /><rect fill="#00FF00" height="298.6202174788562" opacity="0.5" width="15.207920792079207" x="268.03960396039605" y="781.3797825211439" /><rect fill="#00FF00" height="258.95207410390657" opacity="0.5" width="15.207920792079207" x="287.049504950495" y="821.0479258960934" /><rect fill="#00FF00" height="318.2259363672976" opacity="0.5" width="15.207920792079207" x="306.05940594059405" y="761.7740636327023" /><rect fill="#00FF00" height="87.36125654450261" opacity="0.5" width="15.207920792079207" x="325.0693069306931" y="992.6387434554974" /><rect fill="#00FF00" height="135.6089407974225" opacity="0.5" width="15.207920792079207" x="344.07920792079204" y="944.3910592025775" /><rect fill="#00FF00" height="150.94120016109545" opacity="0.5" width="15.207920792079207" x="363.08910891089107" y="929.0587998389045" /><rect fill="#00FF00" height="215.0430930326218" opacity="0.5" width="15.207920792079207" x="382.0990099009901" y="864.9569069673782" /><rect fill="#00FF00" height="223.91623036649213" opacity="0.5" width="15.207920792079207" x="401.10891089108907" y="856.0837696335079" /><rect fill="#00FF00" height="54.250100684655656" opacity="0.5" width="15.207920792079207" x="420.1188118811881" y="1025.7498993153442" /><rect fill="#00FF00" height="203.299234796617" opacity="0.5" width="15.207920792079207" x="439.1287128712871" y="876.7007652033831" /><rect fill="#00FF00" height="279.0471204188482" opacity="0.5" width="15.207920792079207" x="458.1386138613861" y="800.9528795811518" /><rect fill="#00FF00" height="187.15142972211035" opacity="0.5" width="15.207920792079207" x="477.1485148514851" y="892.8485702778896" /><rect fill="#00FF00" height="203.8538058799839" opacity="0.5" width="15.207920792079207" x="496.15841584158414" y="876.1461941200162" /><rect fill="#00FF00" height="147.12444623439387" opacity="0.5" width="15.207920792079207" x="515.1683168316831" y="932.8755537656061" /><rect fill="#00FF00" height="128.2364075714861" opacity="0.5" width="15.207920792079207" x="534.1782178217821" y="951.7635924285139" /><rect fill="#00FF00" height="172.30849778493757" opacity="0.5" width="15.207920792079207" x="553.188118811881" y="907.6915022150624" /><rect fill="#00FF00" height="304.622633910592" opacity="0.5" width="15.207920792079207" x="572.1980198019801" y="775.377366089408" /><rect fill="#00FF00" height="250.99234796616997" opacity="0.5" width="15.207920792079207" x="591.2079207920791" y="829.00765203383" /><rect fill="#00FF00" height="320.1832460732984" opacity="0.5" width="15.207920792079207" x="610.2178217821781" y="759.8167539267016" /><rect fill="#00FF00" height="180.98590414820782" opacity="0.5" width="15.207920792079207" x="629.2277227722772" y="899.0140958517921" /><rect fill="#00FF00" height="106.1840515505437" opacity="0.5" width="15.207920792079207" x="648.2376237623762" y="973.8159484494563" /><rect fill="#00FF00" height="116.03584373741442" opacity="0.5" width="15.207920792079207" x="667.2475247524752" y="963.9641562625856" /><rect fill="#00FF00" height="63.80829641562626" opacity="0.5" width="15.207920792079207" x="686.2574257425741" y="1016.1917035843737" /><rect fill="#00FF00" height="162.68505839710028" opacity="0.5" width="15.207920792079207" x="705.2673267326732" y="917.3149416028997" /><rect fill="#00FF00" height="181.21425694724124" opacity="0.5" width="15.207920792079207" x="724.2772277227722" y="898.7857430527588" /><rect fill="#00FF00" height="144.71043093032623" opacity="0.5" width="15.207920792079207" x="743.2871287128712" y="935.2895690696738" /><rect fill="#00FF00" height="261.6923076923077" opacity="0.5" width="15.207920792079207" x="762.2970297029702" y="818.3076923076924" /><rect fill="#00FF00" height="184.05235602094243" opacity="0.5" width="15.207920792079207" x="781.3069306930693" y="895.9476439790576" /><rect fill="#00FF00" height="67.20096657269433" opacity="0.5" width="15.207920792079207" x="800.3168316831682" y="1012.7990334273056" /><rect fill="#00FF00" height="64.59122029802658" opacity="0.5" width="15.207920792079207" x="819.3267326732672" y="1015.4087797019735" /><rect fill="#00FF00" height="223.5900120821587" opacity="0.5" width="15.207920792079207" x="838.3366336633662" y="856.4099879178414" /><rect fill="#00FF00" height="58.19734192509061" opacity="0.5" width="15.207920792079207" x="857.3465346534653" y="1021.8026580749093" /><rect fill="#00FF00" height="92.67861457913814" opacity="0.5" width="15.207920792079207" x="876.3564356435643" y="987.3213854208618" /><rect fill="#00FF00" height="249.72009665726944" opacity="0.5" width="15.207920792079207" x="895.3663366336633" y="830.2799033427306" /><rect fill="#00FF00" height="60.44824808699154" opacity="0.5" width="15.207920792079207" x="914.3762376237622" y="1019.5517519130085" /><rect fill="#00FF00" height="188.4563028594442" opacity="0.5" width="15.207920792079207" x="933.3861386138612" y="891.5436971405558" /><rect fill="#00FF00" height="134.53242045912202" opacity="0.5" width="15.207920792079207" x="952.3960396039603" y="945.467579540878" /><rect fill="#00FF00" height="259.8654853000403" opacity="0.5" width="15.207920792079207" x="971.4059405940593" y="820.1345146999597" /><rect fill="#00FF00" height="324.0" opacity="0.5" width="15.207920792079207" x="990.4158415841583" y="756.0" /><rect fill="#00FF00" height="203.4623439387837" opacity="0.5" width="15.207920792079207" x="1009.4257425742574" y="876.5376560612162" /><rect fill="#00FF00" height="261.10511478050745" opacity="0.5" width="15.207920792079207" x="1028.4356435643565" y="818.8948852194926" /><rect fill="#00FF00" height="122.13612565445027" opacity="0.5" width="15.207920792079207" x="1047.4455445544554" y="957.8638743455497" /><rect fill="#00FF00" height="248.48046717680225" opacity="0.5" width="15.207920792079207" x="1066.4554455445545" y="831.5195328231978" /><rect fill="#00FF00" height="224.47080144985907" opacity="0.5" width="15.207920792079207" x="1085.4653465346535" y="855.5291985501409" /><rect fill="#00FF00" height="257.8755537656061" opacity="0.5" width="15.207920792079207" x="1104.4752475247524" y="822.1244462343939" /><rect fill="#00FF00" height="125.2351993556182" opacity="0.5" width="15.207920792079207" x="1123.4851485148515" y="954.7648006443818" /><rect fill="#00FF00" height="111.79500604107935" opacity="0.5" width="15.207920792079207" x="1142.4950495049504" y="968.2049939589207" /><rect fill="#00FF00" height="213.2162706403544" opacity="0.5" width="15.207920792079207" x="1161.5049504950496" y="866.7837293596456" /><rect fill="#00FF00" height="142.6552557390254" opacity="0.5" width="15.207920792079207" x="1180.5148514851485" y="937.3447442609746" /><rect fill="#00FF00" height="46.225130890052355" opacity="0.5" width="15.207920792079207" x="1199.5247524752476" y="1033.7748691099478" /><rect fill="#00FF00" height="46.06202174788562" opacity="0.5" width="15.207920792079207" x="1218.5346534653465" y="1033.9379782521144" /><rect fill="#00FF00" height="227.96133709222713" opacity="0.5" width="15.207920792079207" x="1237.5445544554455" y="852.0386629077728" /><rect fill="#00FF00" height="198.11236407571488" opacity="0.5" width="15.207920792079207" x="1256.5544554455446" y="881.8876359242852" /><rect fill="#00FF00" height="144.8409182440596" opacity="0.5" width="15.207920792079207" x="1275.5643564356435" y="935.1590817559404" /><rect fill="#00FF00" height="319.2698348771647" opacity="0.5" width="15.207920792079207" x="1294.5742574257426" y="760.7301651228353" /><rect fill="#00FF00" height="45.50745066451872" opacity="0.5" width="15.207920792079207" x="1313.5841584158416" y="1034.4925493354813" /><rect fill="#00FF00" height="211.58517921868707" opacity="0.5" width="15.207920792079207" x="1332.5940594059407" y="868.414820781313" /><rect fill="#00FF00" height="289.02939991945226" opacity="0.5" width="15.207920792079207" x="1351.6039603960396" y="790.9706000805477" /><rect fill="#00FF00" height="206.62666129681836" opacity="0.5" width="15.207920792079207" x="1370.6138613861385" y="873.3733387031816" /><rect fill="#00FF00" height="82.92468787756745" opacity="0.5" width="15.207920792079207" x="1389.6237623762377" y="997.0753121224326" /><rect fill="#00FF00" height="82.85944422070077" opacity="0.5" width="15.207920792079207" x="1408.6336633663366" y="997.1405557792992" /><rect fill="#00FF00" height="77.15062424486509" opacity="0.5" width="15.207920792079207" x="1427.6435643564357" y="1002.8493757551349" /><rect fill="#00FF00" height="169.1768022553363" opacity="0.5" width="15.207920792079207" x="1446.6534653465346" y="910.8231977446637" /><rect fill="#00FF00" height="190.80507450664518" opacity="0.5" width="15.207920792079207" x="1465.6633663366335" y="889.1949254933548" /><rect fill="#00FF00" height="49.06322996375352" opacity="0.5" width="15.207920792079207" x="1484.6732673267327" y="1030.9367700362466" /><rect fill="#00FF00" height="36.96053161498188" opacity="0.5" width="15.207920792079207" x="1503.6831683168316" y="1043.0394683850182" /><rect fill="#00FF00" height="234.5509464357632" opacity="0.5" width="15.207920792079207" x="1522.6930693069307" y="845.4490535642368" /><rect fill="#00FF00" height="295.3254128070882" opacity="0.5" width="15.207920792079207" x="1541.7029702970297" y="784.6745871929118" /><rect fill="#00FF00" height="279.73217881594843" opacity="0.5" width="15.207920792079207" x="1560.7128712871288" y="800.2678211840516" /><rect fill="#00FF00" height="122.16874748288362" opacity="0.5" width="15.207920792079207" x="1579.7227722772277" y="957.8312525171164" /><rect fill="#00FF00" height="229.72291582762784" opacity="0.5" width="15.207920792079207" x="1598.7326732673266" y="850.2770841723722" /><rect fill="#00FF00" height="123.27788964961739" opacity="0.5" width="15.207920792079207" x="1617.7425742574258" y="956.7221103503826" /><rect fill="#00FF00" height="32.91542488924688" opacity="0.5" width="15.207920792079207" x="1636.7524752475247" y="1047.0845751107531" /><rect fill="#00FF00" height="160.6625050342328" opacity="0.5" width="15.207920792079207" x="1655.7623762376238" y="919.3374949657672" /><rect fill="#00FF00" height="227.99395892066048" opacity="0.5" width="15.207920792079207" x="1674.7722772277227" y="852.0060410793395" /><rect fill="#00FF00" height="168.9158276278695" opacity="0.5" width="15.207920792079207" x="1693.7821782178219" y="911.0841723721305" /><rect fill="#00FF00" height="194.94804671768023" opacity="0.5" width="15.207920792079207" x="1712.7920792079208" y="885.0519532823198" /><rect fill="#00FF00" height="67.75553765606121" opacity="0.5" width="15.207920792079207" x="1731.8019801980197" y="1012.2444623439388" /><rect fill="#00FF00" height="73.4643576318969" opacity="0.5" width="15.207920792079207" x="1750.8118811881188" y="1006.5356423681031" /><rect fill="#00FF00" height="257.0926298832058" opacity="0.5" width="15.207920792079207" x="1769.8217821782177" y="822.9073701167943" /><rect fill="#00FF00" height="76.0414820781313" opacity="0.5" width="15.207920792079207" x="1788.8316831683169" y="1003.9585179218687" /><rect fill="#00FF00" height="136.2613773660894" opacity="0.5" width="15.207920792079207" x="1807.8415841584158" y="943.7386226339106" /><rect fill="#00FF00" height="214.29279097865486" opacity="0.5" width="15.207920792079207" x="1826.8514851485147" y="865.7072090213451" /><rect fill="#00FF00" height="57.4144180426903" opacity="0.5" width="15.207920792079207" x="1845.8613861386139" y="1022.5855819573097" /><rect fill="#00FF00" height="308.9939589206605" opacity="0.5" width="15.207920792079207" x="1864.8712871287128" y="771.0060410793395" /><rect fill="#00FF00" height="253.69995972613773" opacity="0.5" width="15.207920792079207" x="1883.881188118812" y="826.3000402738622" /></g></svg>