<?xml version="1.0" encoding="utf-8" ?>
<svg baseProfile="full" height="1080" version="1.1" width="1920" xmlns="http://www.w3.org/2000/svg" xmlns:ev="http://www.w3.org/2001/xml-events" xmlns:xlink="http://www.w3.org/1999/xlink"><defs /><rect fill="#131722" height="100%" width="100%" x="0" y="0" /><g id="grid" opacity="0.25" stroke="#2A2E39" stroke-width="1"><line x1="0" x2="1920" y1="75" y2="75" /><line x1="0" x2="1920" y1="151" y2="151" /><line x1="0" x2="1920" y1="226" y2="226" /><line x1="0" x2="1920" y1="302" y2="302" /><line x1="0" x2="1920" y1="378" y2="378" /><line x1="0" x2="1920" y1="453" y2="453" /><line x1="0" x2="1920" y1="529" y2="529" /><line x1="0" x2="1920" y1="604" y2="604" /><line x1="0" x2="1920" y1="680" y2="680" /><line x1="0" x2="0" y1="0" y2="1080" /><line x1="172" x2="172" y1="0" y2="1080" /><line x1="345" x2="345" y1="0" y2="1080" /><line x1="518" x2="518" y1="0" y2="1080" /><line x1="691" x2="691" y1="0" y2="1080" /><line x1="864" x2="864" y1="0" y2="1080" /><line x1="1036" x2="1036" y1="0" y2="1080" /><line x1="1209" x2="1209" y1="0" y2="1080" /><line x1="1382" x2="1382" y1="0" y2="1080" /><line x1="1555" x2="1555" y1="0" y2="1080" /><line x1="1728" x2="1728" y1="0" y2="1080" /></g><g id="ohlc_bars"><line stroke="#F23645" stroke-width="1" x1="9.504950495049505" x2="9.504950495049505" y1="642.1830843790106" y2="756.0" /><line stroke="#F23645" stroke-width="1" x1="1.900990099009901" x2="9.504950495049505" y1="660.2954648133781" y2="660.2954648133781" /><line stroke="#F23645" stroke-width="1" x1="9.504950495049505" x2="17.10891089108911" y1="714.0335286260615" y2="714.0335286260615" /><line stroke="#F23645" stroke-width="1" x1="28.51485148514851" x2="28.51485148514851" y1="625.9863465948754" y2="698.704177810396" /><line stroke="#F23645" stroke-width="1" x1="20.910891089108908" x2="28.51485148514851" y1="654.3751154809556" y2="654.3751154809556" /><line stroke="#F23645" stroke-width="1" x1="28.51485148514851" x2="36.118811881188115" y1="670.3459593918062" y2="670.3459593918062" /><line stroke="#F23645" stroke-width="1" x1="47.524752475247524" x2="47.524752475247524" y1="583.6802438433397" y2="689.3503657823862" /><line stroke="#F23645" stroke-width="1" x1="39.92079207920792" x2="47.524752475247524" y1="638.5078826039984" y2="638.5078826039984" /><line stroke="#F23645" stroke-width="1" x1="47.524752475247524" x2="55.12871287128713" y1="651.5198899964703" y2="651.5198899964703" /><line stroke="#F23645" stroke-width="1" x1="66.53465346534654" x2="66.53465346534654" y1="558.2155331205993" y2="672.9218922772515" /><line stroke="#F23645" stroke-width="1" x1="58.93069306930693" x2="66.53465346534654" y1="611.5624810127592" y2="611.5624810127592" /><line stroke="#F23645" stroke-width="1" x1="66.53465346534654" x2="74.13861386138615" y1="642.0229291540286" y2="642.0229291540286" /><line stroke="#F23645" stroke-width="1" x1="85.54455445544554" x2="85.54455445544554" y1="537.1135038483552" y2="614.0374075497809" /><line stroke="#F23645" stroke-width="1" x1="77.94059405940592" x2="85.54455445544554" y1="606.8556872528317" y2="606.8556872528317" /><line stroke="#F23645" stroke-width="1" x1="85.54455445544554" x2="93.14851485148515" y1="612.9792996803616" y2="612.9792996803616" /><line stroke="#089981" stroke-width="1" x1="104.55445544554455" x2="104.55445544554455" y1="539.3320842342534" y2="608.0881862016969" /><line stroke="#089981" stroke-width="1" x1="96.95049504950495" x2="104.55445544554455" y1="602.148685712387" y2="602.148685712387" /><line stroke="#089981" stroke-width="1" x1="104.55445544554455" x2="112.15841584158414" y1="586.8078918963342" y2="586.8078918963342" /><line stroke="#089981" stroke-width="1" x1="123.56435643564356" x2="123.56435643564356" y1="476.8057222164671" y2="639.171868298055" /><line stroke="#089981" stroke-width="1" x1="115.96039603960395" x2="123.56435643564356" y1="574.4922422832351" y2="574.4922422832351" /><line stroke="#089981" stroke-width="1" x1="123.56435643564356" x2="131.16831683168317" y1="502.8785121767347" y2="502.8785121767347" /><line stroke="#089981" stroke-width="1" x1="142.57425742574256" x2="142.57425742574256" y1="524.4716967909471" y2="587.0568240371896" /><line stroke="#089981" stroke-width="1" x1="134.97029702970295" x2="142.57425742574256" y1="557.1095222704319" y2="557.1095222704319" /><line stroke="#089981" stroke-width="1" x1="142.57425742574256" x2="150.17821782178217" y1="550.4812422251305" y2="550.4812422251305" /><line stroke="#089981" stroke-width="1" x1="161.58415841584159" x2="161.58415841584159" y1="519.5289520353004" y2="583.0767909243664" /><line stroke="#089981" stroke-width="1" x1="153.98019801980197" x2="161.58415841584159" y1="555.3809106318039" y2="555.3809106318039" /><line stroke="#089981" stroke-width="1" x1="161.58415841584159" x2="169.1881188118812" y1="545.6023706913844" y2="545.6023706913844" /><line stroke="#F23645" stroke-width="1" x1="180.59405940594058" x2="180.59405940594058" y1="345.8061454905557" y2="553.9063511567122" /><line stroke="#F23645" stroke-width="1" x1="172.99009900990097" x2="180.59405940594058" y1="540.8441658450973" y2="540.8441658450973" /><line stroke="#F23645" stroke-width="1" x1="180.59405940594058" x2="188.1980198019802" y1="543.670689845615" y2="543.670689845615" /><line stroke="#F23645" stroke-width="1" x1="199.60396039603958" x2="199.60396039603958" y1="510.13853448040936" y2="622.9095572089335" /><line stroke="#F23645" stroke-width="1" x1="191.99999999999997" x2="199.60396039603958" y1="539.0389017431867" y2="539.0389017431867" /><line stroke="#F23645" stroke-width="1" x1="199.60396039603958" x2="207.2079207920792" y1="611.8898141905543" y2="611.8898141905543" /><line stroke="#F23645" stroke-width="1" x1="218.6138613861386" x2="218.6138613861386" y1="479.776807326958" y2="593.893284913716" /><line stroke="#F23645" stroke-width="1" x1="211.009900990099" x2="218.6138613861386" y1="537.2628986833596" y2="537.2628986833596" /><line stroke="#F23645" stroke-width="1" x1="218.6138613861386" x2="226.21782178217822" y1="538.2695637842276" y2="538.2695637842276" /><line stroke="#089981" stroke-width="1" x1="237.6237623762376" x2="237.6237623762376" y1="475.94895104888377" y2="568.3157751031622" /><line stroke="#089981" stroke-width="1" x1="230.019801980198" x2="237.6237623762376" y1="526.5304674414697" y2="526.5304674414697" /><line stroke="#089981" stroke-width="1" x1="237.6237623762376" x2="245.22772277227722" y1="524.2436780024188" y2="524.2436780024188" /><line stroke="#089981" stroke-width="1" x1="256.63366336633663" x2="256.63366336633663" y1="416.57573078432995" y2="584.2569641113057" /><line stroke="#089981" stroke-width="1" x1="249.02970297029702" x2="256.63366336633663" y1="543.0744136715019" y2="543.0744136715019" /><line stroke="#089981" stroke-width="1" x1="256.63366336633663" x2="264.23762376237624" y1="449.55131198927927" y2="449.55131198927927" /><line stroke="#F23645" stroke-width="1" x1="275.6435643564356" x2="275.6435643564356" y1="541.2745050239662" y2="630.6255975342605" /><line stroke="#F23645" stroke-width="1" x1="268.039603960396" x2="275.6435643564356" y1="557.2344777089238" y2="557.2344777089238" /><line stroke="#F23645" stroke-width="1" x1="275.6435643564356" x2="283.2475247524752" y1="564.5379392638109" y2="564.5379392638109" /><line stroke="#089981" stroke-width="1" x1="294.65346534653463" x2="294.65346534653463" y1="506.80996569007687" y2="557.7437771850807" /><line stroke="#089981" stroke-width="1" x1="287.049504950495" x2="294.65346534653463" y1="556.6804932002426" y2="556.6804932002426" /><line stroke="#089981" stroke-width="1" x1="294.65346534653463" x2="302.25742574257424" y1="545.2314997715713" y2="545.2314997715713" /><line stroke="#F23645" stroke-width="1" x1="313.66336633663366" x2="313.66336633663366" y1="522.7055402920669" y2="597.6691457898906" /><line stroke="#F23645" stroke-width="1" x1="306.05940594059405" x2="313.66336633663366" y1="561.8285106545478" y2="561.8285106545478" /><line stroke="#F23645" stroke-width="1" x1="313.66336633663366" x2="321.26732673267327" y1="563.1464291617292" y2="563.1464291617292" /><line stroke="#F23645" stroke-width="1" x1="332.6732673267327" x2="332.6732673267327" y1="538.1927104227956" y2="610.2597452187188" /><line stroke="#F23645" stroke-width="1" x1="325.0693069306931" x2="332.6732673267327" y1="550.1812521505876" y2="550.1812521505876" /><line stroke="#F23645" stroke-width="1" x1="332.6732673267327" x2="340.2772277227723" y1="594.5530150366139" y2="594.5530150366139" /><line stroke="#089981" stroke-width="1" x1="351.68316831683165" x2="351.68316831683165" y1="486.0420352563508" y2="570.4132234597012" /><line stroke="#089981" stroke-width="1" x1="344.07920792079204" x2="351.68316831683165" y1="554.0028497266088" y2="554.0028497266088" /><line stroke="#089981" stroke-width="1" x1="351.68316831683165" x2="359.28712871287127" y1="510.6127445701104" y2="510.6127445701104" /><line stroke="#089981" stroke-width="1" x1="370.6930693069307" x2="370.6930693069307" y1="531.512779092721" y2="570.7947954280976" /><line stroke="#089981" stroke-width="1" x1="363.08910891089107" x2="370.6930693069307" y1="564.2065232507252" y2="564.2065232507252" /><line stroke="#089981" stroke-width="1" x1="370.6930693069307" x2="378.2970297029703" y1="535.6575190266806" y2="535.6575190266806" /><line stroke="#089981" stroke-width="1" x1="389.7029702970297" x2="389.7029702970297" y1="390.77815721629213" y2="542.8975836020118" /><line stroke="#089981" stroke-width="1" x1="382.0990099009901" x2="389.7029702970297" y1="537.9873268035702" y2="537.9873268035702" /><line stroke="#089981" stroke-width="1" x1="389.7029702970297" x2="397.3069306930693" y1="507.95383523478927" y2="507.95383523478927" /><line stroke="#F23645" stroke-width="1" x1="408.7128712871287" x2="408.7128712871287" y1="438.64736965857776" y2="597.8304850295232" /><line stroke="#F23645" stroke-width="1" x1="401.10891089108907" x2="408.7128712871287" y1="533.1745142372795" y2="533.1745142372795" /><line stroke="#F23645" stroke-width="1" x1="408.7128712871287" x2="416.3168316831683" y1="567.7016664697883" y2="567.7016664697883" /><line stroke="#089981" stroke-width="1" x1="427.7227722772277" x2="427.7227722772277" y1="436.64835975353884" y2="566.0707296971627" /><line stroke="#089981" stroke-width="1" x1="420.1188118811881" x2="427.7227722772277" y1="524.6496904531646" y2="524.6496904531646" /><line stroke="#089981" stroke-width="1" x1="427.7227722772277" x2="435.3267326732673" y1="471.3891220681299" y2="471.3891220681299" /><line stroke="#F23645" stroke-width="1" x1="446.73267326732673" x2="446.73267326732673" y1="453.3698438438581" y2="694.1591844234797" /><line stroke="#F23645" stroke-width="1" x1="439.1287128712871" x2="446.73267326732673" y1="535.0108592310289" y2="535.0108592310289" /><line stroke="#F23645" stroke-width="1" x1="446.73267326732673" x2="454.33663366336634" y1="588.2356148587149" y2="588.2356148587149" /><line stroke="#089981" stroke-width="1" x1="465.7425742574257" x2="465.7425742574257" y1="488.05803508080294" y2="585.1582043081564" /><line stroke="#089981" stroke-width="1" x1="458.1386138613861" x2="465.7425742574257" y1="534.230274602726" y2="534.230274602726" /><line stroke="#089981" stroke-width="1" x1="465.7425742574257" x2="473.3465346534653" y1="511.9487881916965" y2="511.9487881916965" /><line stroke="#089981" stroke-width="1" x1="484.7524752475247" x2="484.7524752475247" y1="386.86388985580993" y2="586.622505434833" /><line stroke="#089981" stroke-width="1" x1="477.1485148514851" x2="484.7524752475247" y1="525.1562589679911" y2="525.1562589679911" /><line stroke="#089981" stroke-width="1" x1="484.7524752475247" x2="492.35643564356434" y1="441.9901734319122" y2="441.9901734319122" /><line stroke="#F23645" stroke-width="1" x1="503.76237623762376" x2="503.76237623762376" y1="528.7987693145817" y2="628.2884128773569" /><line stroke="#F23645" stroke-width="1" x1="496.15841584158414" x2="503.76237623762376" y1="532.0528366439924" y2="532.0528366439924" /><line stroke="#F23645" stroke-width="1" x1="503.76237623762376" x2="511.36633663366337" y1="569.6610071870273" y2="569.6610071870273" /><line stroke="#F23645" stroke-width="1" x1="522.7722772277227" x2="522.7722772277227" y1="465.0688609365469" y2="581.2053538958735" /><line stroke="#F23645" stroke-width="1" x1="515.1683168316831" x2="522.7722772277227" y1="519.6278688623901" y2="519.6278688623901" /><line stroke="#F23645" stroke-width="1" x1="522.7722772277227" x2="530.3762376237623" y1="541.1287679740149" y2="541.1287679740149" /><line stroke="#089981" stroke-width="1" x1="541.7821782178218" x2="541.7821782178218" y1="479.56469719894176" y2="551.1542609633727" /><line stroke="#089981" stroke-width="1" x1="534.1782178217821" x2="541.7821782178218" y1="519.5592500270656" y2="519.5592500270656" /><line stroke="#089981" stroke-width="1" x1="541.7821782178218" x2="549.3861386138614" y1="515.7757385717256" y2="515.7757385717256" /><line stroke="#F23645" stroke-width="1" x1="560.7920792079208" x2="560.7920792079208" y1="481.17718985075254" y2="566.5053098532122" /><line stroke="#F23645" stroke-width="1" x1="553.1881188118812" x2="560.7920792079208" y1="515.5806773273993" y2="515.5806773273993" /><line stroke="#F23645" stroke-width="1" x1="560.7920792079208" x2="568.3960396039604" y1="534.6963803903534" y2="534.6963803903534" /><line stroke="#F23645" stroke-width="1" x1="579.8019801980198" x2="579.8019801980198" y1="478.55199756771725" y2="575.0203327190073" /><line stroke="#F23645" stroke-width="1" x1="572.1980198019802" x2="579.8019801980198" y1="515.5255739326037" y2="515.5255739326037" /><line stroke="#F23645" stroke-width="1" x1="579.8019801980198" x2="587.4059405940594" y1="574.4003605414529" y2="574.4003605414529" /><line stroke="#089981" stroke-width="1" x1="598.8118811881188" x2="598.8118811881188" y1="470.8522484897349" y2="529.8352484413045" /><line stroke="#089981" stroke-width="1" x1="591.2079207920792" x2="598.8118811881188" y1="484.41326230146177" y2="484.41326230146177" /><line stroke="#089981" stroke-width="1" x1="598.8118811881188" x2="606.4158415841584" y1="481.81009875861787" y2="481.81009875861787" /><line stroke="#F23645" stroke-width="1" x1="617.8217821782177" x2="617.8217821782177" y1="474.60688499815365" y2="521.0843576282516" /><line stroke="#F23645" stroke-width="1" x1="610.2178217821781" x2="617.8217821782177" y1="476.913882373993" y2="476.913882373993" /><line stroke="#F23645" stroke-width="1" x1="617.8217821782177" x2="625.4257425742574" y1="517.2468799841913" y2="517.2468799841913" /><line stroke="#089981" stroke-width="1" x1="636.8316831683168" x2="636.8316831683168" y1="431.6626122921706" y2="516.9100581429216" /><line stroke="#089981" stroke-width="1" x1="629.2277227722772" x2="636.8316831683168" y1="482.62989094373484" y2="482.62989094373484" /><line stroke="#089981" stroke-width="1" x1="636.8316831683168" x2="644.4356435643564" y1="464.6487786439224" y2="464.6487786439224" /><line stroke="#F23645" stroke-width="1" x1="655.8415841584158" x2="655.8415841584158" y1="356.0161598418837" y2="548.8217179328935" /><line stroke="#F23645" stroke-width="1" x1="648.2376237623762" x2="655.8415841584158" y1="464.54970596289104" y2="464.54970596289104" /><line stroke="#F23645" stroke-width="1" x1="655.8415841584158" x2="663.4455445544554" y1="499.4579294426329" y2="499.4579294426329" /><line stroke="#089981" stroke-width="1" x1="674.8514851485148" x2="674.8514851485148" y1="381.39210764007026" y2="479.7748255090982" /><line stroke="#089981" stroke-width="1" x1="667.2475247524752" x2="674.8514851485148" y1="472.33029410682667" y2="472.33029410682667" /><line stroke="#089981" stroke-width="1" x1="674.8514851485148" x2="682.4554455445544" y1="413.4831867816849" y2="413.4831867816849" /><line stroke="#F23645" stroke-width="1" x1="693.8613861386139" x2="693.8613861386139" y1="359.49733317494525" y2="533.544310083304" /><line stroke="#F23645" stroke-width="1" x1="686.2574257425742" x2="693.8613861386139" y1="462.01675400545173" y2="462.01675400545173" /><line stroke="#F23645" stroke-width="1" x1="693.8613861386139" x2="701.4653465346535" y1="491.7549096381475" y2="491.7549096381475" /><line stroke="#F23645" stroke-width="1" x1="712.8712871287129" x2="712.8712871287129" y1="469.7088679783099" y2="507.6452825804043" /><line stroke="#F23645" stroke-width="1" x1="705.2673267326733" x2="712.8712871287129" y1="479.14780254392946" y2="479.14780254392946" /><line stroke="#F23645" stroke-width="1" x1="712.8712871287129" x2="720.4752475247525" y1="491.3756675091174" y2="491.3756675091174" /><line stroke="#089981" stroke-width="1" x1="731.8811881188118" x2="731.8811881188118" y1="423.89787557715647" y2="509.1908545628632" /><line stroke="#089981" stroke-width="1" x1="724.2772277227722" x2="731.8811881188118" y1="488.28689757043" y2="488.28689757043" /><line stroke="#089981" stroke-width="1" x1="731.8811881188118" x2="739.4851485148514" y1="457.39969689508155" y2="457.39969689508155" /><line stroke="#F23645" stroke-width="1" x1="750.8910891089108" x2="750.8910891089108" y1="434.97226034786104" y2="553.3956793469415" /><line stroke="#F23645" stroke-width="1" x1="743.2871287128712" x2="750.8910891089108" y1="478.12525725567895" y2="478.12525725567895" /><line stroke="#F23645" stroke-width="1" x1="750.8910891089108" x2="758.4950495049504" y1="524.8580765913825" y2="524.8580765913825" /><line stroke="#089981" stroke-width="1" x1="769.9009900990098" x2="769.9009900990098" y1="412.35304909241273" y2="502.73267106223676" /><line stroke="#089981" stroke-width="1" x1="762.2970297029702" x2="769.9009900990098" y1="461.1091531411492" y2="461.1091531411492" /><line stroke="#089981" stroke-width="1" x1="769.9009900990098" x2="777.5049504950495" y1="452.47307206540376" y2="452.47307206540376" /><line stroke="#089981" stroke-width="1" x1="788.9108910891089" x2="788.9108910891089" y1="395.8328892392342" y2="463.60640049785997" /><line stroke="#089981" stroke-width="1" x1="781.3069306930693" x2="788.9108910891089" y1="451.27014726287945" y2="451.27014726287945" /><line stroke="#089981" stroke-width="1" x1="788.9108910891089" x2="796.5148514851485" y1="401.6412276766541" y2="401.6412276766541" /><line stroke="#F23645" stroke-width="1" x1="807.9207920792079" x2="807.9207920792079" y1="419.49944596041047" y2="518.4966836527517" /><line stroke="#F23645" stroke-width="1" x1="800.3168316831683" x2="807.9207920792079" y1="445.06357349836094" y2="445.06357349836094" /><line stroke="#F23645" stroke-width="1" x1="807.9207920792079" x2="815.5247524752475" y1="506.0956649993686" y2="506.0956649993686" /><line stroke="#089981" stroke-width="1" x1="826.9306930693069" x2="826.9306930693069" y1="390.36661514151166" y2="466.8672329364637" /><line stroke="#089981" stroke-width="1" x1="819.3267326732673" x2="826.9306930693069" y1="441.20409144932427" y2="441.20409144932427" /><line stroke="#089981" stroke-width="1" x1="826.9306930693069" x2="834.5346534653465" y1="434.1940086653483" y2="434.1940086653483" /><line stroke="#089981" stroke-width="1" x1="845.940594059406" x2="845.940594059406" y1="381.61573975500943" y2="476.0913303531339" /><line stroke="#089981" stroke-width="1" x1="838.3366336633663" x2="845.940594059406" y1="452.2458122157298" y2="452.2458122157298" /><line stroke="#089981" stroke-width="1" x1="845.940594059406" x2="853.5445544554456" y1="442.3787167853772" y2="442.3787167853772" /><line stroke="#089981" stroke-width="1" x1="864.9504950495049" x2="864.9504950495049" y1="407.06843195596844" y2="465.43297375706186" /><line stroke="#089981" stroke-width="1" x1="857.3465346534653" x2="864.9504950495049" y1="453.6858378573997" y2="453.6858378573997" /><line stroke="#089981" stroke-width="1" x1="864.9504950495049" x2="872.5544554455445" y1="424.00199169217495" y2="424.00199169217495" /><line stroke="#F23645" stroke-width="1" x1="883.9603960396039" x2="883.9603960396039" y1="427.8021005100157" y2="572.1161310440824" /><line stroke="#F23645" stroke-width="1" x1="876.3564356435643" x2="883.9603960396039" y1="451.8454041999293" y2="451.8454041999293" /><line stroke="#F23645" stroke-width="1" x1="883.9603960396039" x2="891.5643564356435" y1="498.80930860988985" y2="498.80930860988985" /><line stroke="#F23645" stroke-width="1" x1="902.9702970297029" x2="902.9702970297029" y1="397.7227609686049" y2="552.1813373616228" /><line stroke="#F23645" stroke-width="1" x1="895.3663366336633" x2="902.9702970297029" y1="430.79644919993154" y2="430.79644919993154" /><line stroke="#F23645" stroke-width="1" x1="902.9702970297029" x2="910.5742574257425" y1="480.93086248659193" y2="480.93086248659193" /><line stroke="#089981" stroke-width="1" x1="921.980198019802" x2="921.980198019802" y1="309.5875325127233" y2="455.14750141621204" /><line stroke="#089981" stroke-width="1" x1="914.3762376237623" x2="921.980198019802" y1="418.7774769314736" y2="418.7774769314736" /><line stroke="#089981" stroke-width="1" x1="921.980198019802" x2="929.5841584158416" y1="398.960669697646" y2="398.960669697646" /><line stroke="#089981" stroke-width="1" x1="940.990099009901" x2="940.990099009901" y1="401.64273546781703" y2="444.22541182640623" /><line stroke="#089981" stroke-width="1" x1="933.3861386138614" x2="940.990099009901" y1="433.4200105101781" y2="433.4200105101781" /><line stroke="#089981" stroke-width="1" x1="940.990099009901" x2="948.5940594059406" y1="422.1442501405141" y2="422.1442501405141" /><line stroke="#089981" stroke-width="1" x1="960.0" x2="960.0" y1="348.30755911326213" y2="437.38743128281095" /><line stroke="#089981" stroke-width="1" x1="952.3960396039604" x2="960.0" y1="421.6482612278584" y2="421.6482612278584" /><line stroke="#089981" stroke-width="1" x1="960.0" x2="967.6039603960396" y1="412.1376783278567" y2="412.1376783278567" /><line stroke="#089981" stroke-width="1" x1="979.0099009900989" x2="979.0099009900989" y1="359.2326215210428" y2="493.5390126985268" /><line stroke="#089981" stroke-width="1" x1="971.4059405940593" x2="979.0099009900989" y1="418.8515976607593" y2="418.8515976607593" /><line stroke="#089981" stroke-width="1" x1="979.0099009900989" x2="986.6138613861385" y1="405.6978313459576" y2="405.6978313459576" /><line stroke="#F23645" stroke-width="1" x1="998.0198019801979" x2="998.0198019801979" y1="312.3178363460243" y2="488.98480285106785" /><line stroke="#F23645" stroke-width="1" x1="990.4158415841583" x2="998.0198019801979" y1="419.7484072416177" y2="419.7484072416177" /><line stroke="#F23645" stroke-width="1" x1="998.0198019801979" x2="1005.6237623762376" y1="445.5672339254645" y2="445.5672339254645" /><line stroke="#089981" stroke-width="1" x1="1017.029702970297" x2="1017.029702970297" y1="343.25204212328293" y2="412.4335569517791" /><line stroke="#089981" stroke-width="1" x1="1009.4257425742574" x2="1017.029702970297" y1="404.33693917861024" y2="404.33693917861024" /><line stroke="#089981" stroke-width="1" x1="1017.029702970297" x2="1024.6336633663366" y1="395.51885100710473" y2="395.51885100710473" /><line stroke="#089981" stroke-width="1" x1="1036.0396039603959" x2="1036.0396039603959" y1="295.5758279279527" y2="384.58125199683127" /><line stroke="#089981" stroke-width="1" x1="1028.4356435643563" x2="1036.0396039603959" y1="383.6185886103516" y2="383.6185886103516" /><line stroke="#089981" stroke-width="1" x1="1036.0396039603959" x2="1043.6435643564355" y1="372.491364623052" y2="372.491364623052" /><line stroke="#F23645" stroke-width="1" x1="1055.049504950495" x2="1055.049504950495" y1="339.64873805544323" y2="442.03574928374496" /><line stroke="#F23645" stroke-width="1" x1="1047.4455445544554" x2="1055.049504950495" y1="364.1622696080927" y2="364.1622696080927" /><line stroke="#F23645" stroke-width="1" x1="1055.049504950495" x2="1062.6534653465346" y1="391.2843945369788" y2="391.2843945369788" /><line stroke="#089981" stroke-width="1" x1="1074.059405940594" x2="1074.059405940594" y1="232.13906654848074" y2="368.05025954968585" /><line stroke="#089981" stroke-width="1" x1="1066.4554455445543" x2="1074.059405940594" y1="367.1130633284415" y2="367.1130633284415" /><line stroke="#089981" stroke-width="1" x1="1074.059405940594" x2="1081.6633663366335" y1="296.27430231609617" y2="296.27430231609617" /><line stroke="#089981" stroke-width="1" x1="1093.069306930693" x2="1093.069306930693" y1="309.54138953695156" y2="377.9690590819024" /><line stroke="#089981" stroke-width="1" x1="1085.4653465346535" x2="1093.069306930693" y1="363.3562033379239" y2="363.3562033379239" /><line stroke="#089981" stroke-width="1" x1="1093.069306930693" x2="1100.6732673267327" y1="345.36596022775456" y2="345.36596022775456" /><line stroke="#F23645" stroke-width="1" x1="1112.079207920792" x2="1112.079207920792" y1="329.02598355598855" y2="413.0614683510627" /><line stroke="#F23645" stroke-width="1" x1="1104.4752475247524" x2="1112.079207920792" y1="351.49359202299206" y2="351.49359202299206" /><line stroke="#F23645" stroke-width="1" x1="1112.079207920792" x2="1119.6831683168316" y1="396.7243866487216" y2="396.7243866487216" /><line stroke="#089981" stroke-width="1" x1="1131.0891089108911" x2="1131.0891089108911" y1="267.3348353265188" y2="373.3542311605518" /><line stroke="#089981" stroke-width="1" x1="1123.4851485148515" x2="1131.0891089108911" y1="331.47706271582143" y2="331.47706271582143" /><line stroke="#089981" stroke-width="1" x1="1131.0891089108911" x2="1138.6930693069307" y1="306.54937510084346" y2="306.54937510084346" /><line stroke="#F23645" stroke-width="1" x1="1150.09900990099" x2="1150.09900990099" y1="282.94692217706563" y2="393.16845949580124" /><line stroke="#F23645" stroke-width="1" x1="1142.4950495049504" x2="1150.09900990099" y1="329.871210729593" y2="329.871210729593" /><line stroke="#F23645" stroke-width="1" x1="1150.09900990099" x2="1157.7029702970297" y1="366.87741994079283" y2="366.87741994079283" /><line stroke="#089981" stroke-width="1" x1="1169.108910891089" x2="1169.108910891089" y1="291.65368880358045" y2="402.1429972789414" /><line stroke="#089981" stroke-width="1" x1="1161.5049504950493" x2="1169.108910891089" y1="324.5506802338744" y2="324.5506802338744" /><line stroke="#089981" stroke-width="1" x1="1169.108910891089" x2="1176.7128712871286" y1="294.667059352593" y2="294.667059352593" /><line stroke="#089981" stroke-width="1" x1="1188.118811881188" x2="1188.118811881188" y1="122.8094278695379" y2="336.38786503345426" /><line stroke="#089981" stroke-width="1" x1="1180.5148514851485" x2="1188.118811881188" y1="330.8820663293543" y2="330.8820663293543" /><line stroke="#089981" stroke-width="1" x1="1188.118811881188" x2="1195.7227722772277" y1="286.8931090137627" y2="286.8931090137627" /><line stroke="#F23645" stroke-width="1" x1="1207.128712871287" x2="1207.128712871287" y1="286.4929594612425" y2="389.8460710580992" /><line stroke="#F23645" stroke-width="1" x1="1199.5247524752474" x2="1207.128712871287" y1="338.35085252389825" y2="338.35085252389825" /><line stroke="#F23645" stroke-width="1" x1="1207.128712871287" x2="1214.7326732673266" y1="369.5100940450534" y2="369.5100940450534" /><line stroke="#089981" stroke-width="1" x1="1226.1386138613861" x2="1226.1386138613861" y1="271.0346653235178" y2="355.33484060734673" /><line stroke="#089981" stroke-width="1" x1="1218.5346534653465" x2="1226.1386138613861" y1="320.3974674139602" y2="320.3974674139602" /><line stroke="#089981" stroke-width="1" x1="1226.1386138613861" x2="1233.7425742574258" y1="283.8205011316492" y2="283.8205011316492" /><line stroke="#089981" stroke-width="1" x1="1245.148514851485" x2="1245.148514851485" y1="216.7237617552414" y2="315.87403741119755" /><line stroke="#089981" stroke-width="1" x1="1237.5445544554455" x2="1245.148514851485" y1="295.56292910994654" y2="295.56292910994654" /><line stroke="#089981" stroke-width="1" x1="1245.148514851485" x2="1252.7524752475247" y1="279.8906765097285" y2="279.8906765097285" /><line stroke="#089981" stroke-width="1" x1="1264.1584158415842" x2="1264.1584158415842" y1="174.954460227759" y2="300.1483814717028" /><line stroke="#089981" stroke-width="1" x1="1256.5544554455446" x2="1264.1584158415842" y1="288.8040783105156" y2="288.8040783105156" /><line stroke="#089981" stroke-width="1" x1="1264.1584158415842" x2="1271.7623762376238" y1="257.5925236109659" y2="257.5925236109659" /><line stroke="#089981" stroke-width="1" x1="1283.1683168316831" x2="1283.1683168316831" y1="124.01839608984972" y2="269.0708096124412" /><line stroke="#089981" stroke-width="1" x1="1275.5643564356435" x2="1283.1683168316831" y1="268.4333406048167" y2="268.4333406048167" /><line stroke="#089981" stroke-width="1" x1="1283.1683168316831" x2="1290.7722772277227" y1="196.41688631974034" y2="196.41688631974034" /><line stroke="#F23645" stroke-width="1" x1="1302.178217821782" x2="1302.178217821782" y1="233.9098305484531" y2="270.4477953831383" /><line stroke="#F23645" stroke-width="1" x1="1294.5742574257424" x2="1302.178217821782" y1="256.1863389844783" y2="256.1863389844783" /><line stroke="#F23645" stroke-width="1" x1="1302.178217821782" x2="1309.7821782178216" y1="265.503107972887" y2="265.503107972887" /><line stroke="#F23645" stroke-width="1" x1="1321.1881188118812" x2="1321.1881188118812" y1="250.06214406487237" y2="324.4304432965152" /><line stroke="#F23645" stroke-width="1" x1="1313.5841584158416" x2="1321.1881188118812" y1="256.6806648301374" y2="256.6806648301374" /><line stroke="#F23645" stroke-width="1" x1="1321.1881188118812" x2="1328.7920792079208" y1="285.29812942424974" y2="285.29812942424974" /><line stroke="#F23645" stroke-width="1" x1="1340.19801980198" x2="1340.19801980198" y1="171.4746815020386" y2="279.4501155642425" /><line stroke="#F23645" stroke-width="1" x1="1332.5940594059405" x2="1340.19801980198" y1="244.43670591801077" y2="244.43670591801077" /><line stroke="#F23645" stroke-width="1" x1="1340.19801980198" x2="1347.8019801980197" y1="278.20932941612796" y2="278.20932941612796" /><line stroke="#F23645" stroke-width="1" x1="1359.2079207920792" x2="1359.2079207920792" y1="144.61328728754893" y2="273.4859665179237" /><line stroke="#F23645" stroke-width="1" x1="1351.6039603960396" x2="1359.2079207920792" y1="217.30138199317332" y2="217.30138199317332" /><line stroke="#F23645" stroke-width="1" x1="1359.2079207920792" x2="1366.8118811881188" y1="248.27564467222675" y2="248.27564467222675" /><line stroke="#F23645" stroke-width="1" x1="1378.2178217821781" x2="1378.2178217821781" y1="151.20139255577476" y2="286.4736421077281" /><line stroke="#F23645" stroke-width="1" x1="1370.6138613861385" x2="1378.2178217821781" y1="210.0845916883236" y2="210.0845916883236" /><line stroke="#F23645" stroke-width="1" x1="1378.2178217821781" x2="1385.8217821782177" y1="213.0119494875671" y2="213.0119494875671" /><line stroke="#089981" stroke-width="1" x1="1397.2277227722773" x2="1397.2277227722773" y1="169.14181999373307" y2="231.1739973730471" /><line stroke="#089981" stroke-width="1" x1="1389.6237623762377" x2="1397.2277227722773" y1="182.6125330308406" y2="182.6125330308406" /><line stroke="#089981" stroke-width="1" x1="1397.2277227722773" x2="1404.8316831683169" y1="169.6598514133293" y2="169.6598514133293" /><line stroke="#089981" stroke-width="1" x1="1416.2376237623762" x2="1416.2376237623762" y1="147.9049069295212" y2="317.0985995424957" /><line stroke="#089981" stroke-width="1" x1="1408.6336633663366" x2="1416.2376237623762" y1="208.09737664548675" y2="208.09737664548675" /><line stroke="#089981" stroke-width="1" x1="1416.2376237623762" x2="1423.8415841584158" y1="197.59212357713614" y2="197.59212357713614" /><line stroke="#089981" stroke-width="1" x1="1435.247524752475" x2="1435.247524752475" y1="135.22604897270105" y2="228.8709953713244" /><line stroke="#089981" stroke-width="1" x1="1427.6435643564355" x2="1435.247524752475" y1="190.02532186602286" y2="190.02532186602286" /><line stroke="#089981" stroke-width="1" x1="1435.247524752475" x2="1442.8514851485147" y1="158.61925637318586" y2="158.61925637318586" /><line stroke="#089981" stroke-width="1" x1="1454.2574257425742" x2="1454.2574257425742" y1="170.68276094547048" y2="225.4132286690741" /><line stroke="#089981" stroke-width="1" x1="1446.6534653465346" x2="1454.2574257425742" y1="181.25347071212855" y2="181.25347071212855" /><line stroke="#089981" stroke-width="1" x1="1454.2574257425742" x2="1461.8613861386139" y1="180.75982161040383" y2="180.75982161040383" /><line stroke="#089981" stroke-width="1" x1="1473.2673267326732" x2="1473.2673267326732" y1="91.79546311049" y2="186.64883686178257" /><line stroke="#089981" stroke-width="1" x1="1465.6633663366335" x2="1473.2673267326732" y1="177.36745768086212" y2="177.36745768086212" /><line stroke="#089981" stroke-width="1" x1="1473.2673267326732" x2="1480.8712871287128" y1="122.18042811217572" y2="122.18042811217572" /><line stroke="#F23645" stroke-width="1" x1="1492.2772277227723" x2="1492.2772277227723" y1="165.00233806526467" y2="289.43937690857354" /><line stroke="#F23645" stroke-width="1" x1="1484.6732673267327" x2="1492.2772277227723" y1="168.5359506479466" y2="168.5359506479466" /><line stroke="#F23645" stroke-width="1" x1="1492.2772277227723" x2="1499.881188118812" y1="178.5843043198621" y2="178.5843043198621" /><line stroke="#089981" stroke-width="1" x1="1511.2871287128712" x2="1511.2871287128712" y1="63.23625673150639" y2="226.9388160896965" /><line stroke="#089981" stroke-width="1" x1="1503.6831683168316" x2="1511.2871287128712" y1="186.02008146880848" y2="186.02008146880848" /><line stroke="#089981" stroke-width="1" x1="1511.2871287128712" x2="1518.8910891089108" y1="82.74210636828843" y2="82.74210636828843" /><line stroke="#089981" stroke-width="1" x1="1530.2970297029701" x2="1530.2970297029701" y1="151.62837470987165" y2="223.63951158652685" /><line stroke="#089981" stroke-width="1" x1="1522.6930693069305" x2="1530.2970297029701" y1="181.13001250913953" y2="181.13001250913953" /><line stroke="#089981" stroke-width="1" x1="1530.2970297029701" x2="1537.9009900990097" y1="157.37499846172398" y2="157.37499846172398" /><line stroke="#F23645" stroke-width="1" x1="1549.3069306930693" x2="1549.3069306930693" y1="135.42101258146715" y2="231.82761308283796" /><line stroke="#F23645" stroke-width="1" x1="1541.7029702970297" x2="1549.3069306930693" y1="168.940258936384" y2="168.940258936384" /><line stroke="#F23645" stroke-width="1" x1="1549.3069306930693" x2="1556.9108910891089" y1="201.48437341870886" y2="201.48437341870886" /><line stroke="#F23645" stroke-width="1" x1="1568.3168316831682" x2="1568.3168316831682" y1="62.27666754231063" y2="290.7438120447834" /><line stroke="#F23645" stroke-width="1" x1="1560.7128712871286" x2="1568.3168316831682" y1="142.5660883909552" y2="142.5660883909552" /><line stroke="#F23645" stroke-width="1" x1="1568.3168316831682" x2="1575.9207920792078" y1="183.225180519682" y2="183.225180519682" /><line stroke="#089981" stroke-width="1" x1="1587.3267326732673" x2="1587.3267326732673" y1="60.474447787116446" y2="168.0704878017077" /><line stroke="#089981" stroke-width="1" x1="1579.7227722772277" x2="1587.3267326732673" y1="141.45502838835296" y2="141.45502838835296" /><line stroke="#089981" stroke-width="1" x1="1587.3267326732673" x2="1594.930693069307" y1="123.13676542875714" y2="123.13676542875714" /><line stroke="#F23645" stroke-width="1" x1="1606.3366336633662" x2="1606.3366336633662" y1="36.035775842690214" y2="190.9311128629896" /><line stroke="#F23645" stroke-width="1" x1="1598.7326732673266" x2="1606.3366336633662" y1="144.01698547337423" y2="144.01698547337423" /><line stroke="#F23645" stroke-width="1" x1="1606.3366336633662" x2="1613.9405940594058" y1="152.50130485403656" y2="152.50130485403656" /><line stroke="#089981" stroke-width="1" x1="1625.3465346534654" x2="1625.3465346534654" y1="16.766990651119272" y2="150.31036884603895" /><line stroke="#089981" stroke-width="1" x1="1617.7425742574258" x2="1625.3465346534654" y1="142.6969375806906" y2="142.6969375806906" /><line stroke="#089981" stroke-width="1" x1="1625.3465346534654" x2="1632.950495049505" y1="115.58813635012098" y2="115.58813635012098" /><line stroke="#089981" stroke-width="1" x1="1644.3564356435643" x2="1644.3564356435643" y1="97.7900627084623" y2="140.74238650963116" /><line stroke="#089981" stroke-width="1" x1="1636.7524752475247" x2="1644.3564356435643" y1="123.441567825123" y2="123.441567825123" /><line stroke="#089981" stroke-width="1" x1="1644.3564356435643" x2="1651.960396039604" y1="105.47392661822983" y2="105.47392661822983" /><line stroke="#F23645" stroke-width="1" x1="1663.3663366336632" x2="1663.3663366336632" y1="81.8281877357673" y2="209.3538603720492" /><line stroke="#F23645" stroke-width="1" x1="1655.7623762376236" x2="1663.3663366336632" y1="111.61075202076665" y2="111.61075202076665" /><line stroke="#F23645" stroke-width="1" x1="1663.3663366336632" x2="1670.9702970297028" y1="114.37588248410623" y2="114.37588248410623" /><line stroke="#F23645" stroke-width="1" x1="1682.3762376237623" x2="1682.3762376237623" y1="96.42036888230416" y2="190.90933345585586" /><line stroke="#F23645" stroke-width="1" x1="1674.7722772277227" x2="1682.3762376237623" y1="110.64510729236463" y2="110.64510729236463" /><line stroke="#F23645" stroke-width="1" x1="1682.3762376237623" x2="1689.980198019802" y1="142.79573292407542" y2="142.79573292407542" /><line stroke="#F23645" stroke-width="1" x1="1701.3861386138612" x2="1701.3861386138612" y1="64.95597394101003" y2="183.19879271619993" /><line stroke="#F23645" stroke-width="1" x1="1693.7821782178216" x2="1701.3861386138612" y1="96.47908473036159" y2="96.47908473036159" /><line stroke="#F23645" stroke-width="1" x1="1701.3861386138612" x2="1708.9900990099009" y1="153.99402015195028" y2="153.99402015195028" /><line stroke="#F23645" stroke-width="1" x1="1720.3960396039604" x2="1720.3960396039604" y1="77.04445235338449" y2="150.01406250477635" /><line stroke="#F23645" stroke-width="1" x1="1712.7920792079208" x2="1720.3960396039604" y1="87.58028953795758" y2="87.58028953795758" /><line stroke="#F23645" stroke-width="1" x1="1720.3960396039604" x2="1728.0" y1="104.53333814537325" y2="104.53333814537325" /><line stroke="#089981" stroke-width="1" x1="1739.4059405940593" x2="1739.4059405940593" y1="10.178441858852011" y2="92.55366385208993" /><line stroke="#089981" stroke-width="1" x1="1731.8019801980197" x2="1739.4059405940593" y1="67.65108716908037" y2="67.65108716908037" /><line stroke="#089981" stroke-width="1" x1="1739.4059405940593" x2="1747.009900990099" y1="35.13578097319987" y2="35.13578097319987" /><line stroke="#089981" stroke-width="1" x1="1758.4158415841584" x2="1758.4158415841584" y1="30.90175630460658" y2="135.70052636248067" /><line stroke="#089981" stroke-width="1" x1="1750.8118811881188" x2="1758.4158415841584" y1="68.86595153466772" y2="68.86595153466772" /><line stroke="#089981" stroke-width="1" x1="1758.4158415841584" x2="1766.019801980198" y1="60.73735106119864" y2="60.73735106119864" /><line stroke="#F23645" stroke-width="1" x1="1777.4257425742574" x2="1777.4257425742574" y1="22.332918379421812" y2="205.35465862132423" /><line stroke="#F23645" stroke-width="1" x1="1769.8217821782177" x2="1777.4257425742574" y1="65.34258865984123" y2="65.34258865984123" /><line stroke="#F23645" stroke-width="1" x1="1777.4257425742574" x2="1785.029702970297" y1="112.6401538810776" y2="112.6401538810776" /><line stroke="#089981" stroke-width="1" x1="1796.4356435643563" x2="1796.4356435643563" y1="37.986293964151514" y2="122.3420061088865" /><line stroke="#089981" stroke-width="1" x1="1788.8316831683167" x2="1796.4356435643563" y1="62.634843325759334" y2="62.634843325759334" /><line stroke="#089981" stroke-width="1" x1="1796.4356435643563" x2="1804.0396039603959" y1="56.05959956238439" y2="56.05959956238439" /><line stroke="#089981" stroke-width="1" x1="1815.4455445544554" x2="1815.4455445544554" y1="23.77972950202411" y2="97.23786200586653" /><line stroke="#089981" stroke-width="1" x1="1807.8415841584158" x2="1815.4455445544554" y1="73.48663755458722" y2="73.48663755458722" /><line stroke="#089981" stroke-width="1" x1="1815.4455445544554" x2="1823.049504950495" y1="58.857106701061184" y2="58.857106701061184" /><line stroke="#F23645" stroke-width="1" x1="1834.4554455445543" x2="1834.4554455445543" y1="16.52806862508851" y2="182.3511738673003" /><line stroke="#F23645" stroke-width="1" x1="1826.8514851485147" x2="1834.4554455445543" y1="62.06879193821976" y2="62.06879193821976" /><line stroke="#F23645" stroke-width="1" x1="1834.4554455445543" x2="1842.059405940594" y1="95.62663363776187" y2="95.62663363776187" /><line stroke="#089981" stroke-width="1" x1="1853.4653465346535" x2="1853.4653465346535" y1="29.701648823142705" y2="119.63222378660225" /><line stroke="#089981" stroke-width="1" x1="1845.8613861386139" x2="1853.4653465346535" y1="51.094722974405045" y2="51.094722974405045" /><line stroke="#089981" stroke-width="1" x1="1853.4653465346535" x2="1861.069306930693" y1="45.258167711898295" y2="45.258167711898295" /><line stroke="#089981" stroke-width="1" x1="1872.4752475247524" x2="1872.4752475247524" y1="0.0" y2="49.15819556035569" /><line stroke="#089981" stroke-width="1" x1="1864.8712871287128" x2="1872.4752475247524" y1="43.35980947402368" y2="43.35980947402368" /><line stroke="#089981" stroke-width="1" x1="1872.4752475247524" x2="1880.079207920792" y1="41.14977097783856" y2="41.14977097783856" /><line stroke="#F23645" stroke-width="1" x1="1891.4851485148513" x2="1891.4851485148513" y1="6.784609278938547" y2="144.71656882127206" /><line stroke="#F23645" stroke-width="1" x1="1883.8811881188117" x2="1891.4851485148513" y1="38.65850528876285" y2="38.65850528876285" /><line stroke="#F23645" stroke-width="1" x1="1891.4851485148513" x2="1899.089108910891" y1="82.05421001545835" y2="82.05421001545835" /></g><g id="volume"><rect fill="#F23645" height="194.61672240802676" opacity="0.5" width="9.504950495049505" x="4.752475247524752" y="885.3832775919732" /><rect fill="#F23645" height="283.90635451505017" opacity="0.5" width="9.504950495049505" x="23.762376237623762" y="796.0936454849498" /><rect fill="#F23645" height="256.59933110367894" opacity="0.5" width="9.504950495049505" x="42.77227722772277" y="823.4006688963211" /><rect fill="#F23645" height="260.933779264214" opacity="0.5" width="9.504950495049505" x="61.78217821782178" y="819.0662207357859" /><rect fill="#F23645" height="285.4234113712375" opacity="0.5" width="9.504950495049505" x="80.79207920792079" y="794.5765886287625" /><rect fill="#089981" height="276.32107023411373" opacity="0.5" width="9.504950495049505" x="99.80198019801979" y="803.6789297658863" /><rect fill="#089981" height="312.94715719063544" opacity="0.5" width="9.504950495049505" x="118.8118811881188" y="767.0528428093646" /><rect fill="#089981" height="267.8688963210702" opacity="0.5" width="9.504950495049505" x="137.8217821782178" y="812.1311036789298" /><rect fill="#089981" height="178.1458193979933" opacity="0.5" width="9.504950495049505" x="156.83168316831683" y="901.8541806020066" /><rect fill="#F23645" height="295.609364548495" opacity="0.5" width="9.504950495049505" x="175.84158415841583" y="784.390635451505" /><rect fill="#F23645" height="319.88227424749164" opacity="0.5" width="9.504950495049505" x="194.85148514851485" y="760.1177257525084" /><rect fill="#F23645" height="272.4200668896321" opacity="0.5" width="9.504950495049505" x="213.86138613861385" y="807.5799331103678" /><rect fill="#089981" height="191.14916387959866" opacity="0.5" width="9.504950495049505" x="232.87128712871285" y="888.8508361204014" /><rect fill="#089981" height="204.58595317725752" opacity="0.5" width="9.504950495049505" x="251.88118811881188" y="875.4140468227424" /><rect fill="#F23645" height="191.58260869565217" opacity="0.5" width="9.504950495049505" x="270.8910891089109" y="888.4173913043478" /><rect fill="#089981" height="190.0655518394649" opacity="0.5" width="9.504950495049505" x="289.9009900990099" y="889.9344481605351" /><rect fill="#F23645" height="272.20334448160537" opacity="0.5" width="9.504950495049505" x="308.9108910891089" y="807.7966555183946" /><rect fill="#F23645" height="173.37792642140468" opacity="0.5" width="9.504950495049505" x="327.9207920792079" y="906.6220735785953" /><rect fill="#089981" height="184.21404682274246" opacity="0.5" width="9.504950495049505" x="346.9306930693069" y="895.7859531772575" /><rect fill="#089981" height="321.6160535117057" opacity="0.5" width="9.504950495049505" x="365.9405940594059" y="758.3839464882943" /><rect fill="#089981" height="269.81939799331104" opacity="0.5" width="9.504950495049505" x="384.9504950495049" y="810.180602006689" /><rect fill="#F23645" height="270.4695652173913" opacity="0.5" width="9.504950495049505" x="403.96039603960395" y="809.5304347826087" /><rect fill="#089981" height="278.9217391304348" opacity="0.5" width="9.504950495049505" x="422.970297029703" y="801.0782608695652" /><rect fill="#F23645" height="180.52976588628763" opacity="0.5" width="9.504950495049505" x="441.98019801980195" y="899.4702341137124" /><rect fill="#089981" height="248.58060200668896" opacity="0.5" width="9.504950495049505" x="460.990099009901" y="831.419397993311" /><rect fill="#089981" height="193.74983277591974" opacity="0.5" width="9.504950495049505" x="480.0" y="886.2501672240803" /><rect fill="#F23645" height="188.76521739130433" opacity="0.5" width="9.504950495049505" x="499.00990099009897" y="891.2347826086957" /><rect fill="#F23645" height="292.5752508361204" opacity="0.5" width="9.504950495049505" x="518.0198019801979" y="787.4247491638796" /><rect fill="#089981" height="206.5364548494983" opacity="0.5" width="9.504950495049505" x="537.029702970297" y="873.4635451505017" /><rect fill="#F23645" height="227.34180602006688" opacity="0.5" width="9.504950495049505" x="556.039603960396" y="852.6581939799331" /><rect fill="#F23645" height="319.23210702341134" opacity="0.5" width="9.504950495049505" x="575.049504950495" y="760.7678929765887" /><rect fill="#089981" height="268.085618729097" opacity="0.5" width="9.504950495049505" x="594.059405940594" y="811.914381270903" /><rect fill="#F23645" height="198.7344481605351" opacity="0.5" width="9.504950495049505" x="613.0693069306931" y="881.2655518394649" /><rect fill="#089981" height="239.4782608695652" opacity="0.5" width="9.504950495049505" x="632.0792079207921" y="840.5217391304348" /><rect fill="#F23645" height="231.2428093645485" opacity="0.5" width="9.504950495049505" x="651.089108910891" y="848.7571906354515" /><rect fill="#089981" height="184.86421404682275" opacity="0.5" width="9.504950495049505" x="670.09900990099" y="895.1357859531772" /><rect fill="#F23645" height="224.3076923076923" opacity="0.5" width="9.504950495049505" x="689.1089108910891" y="855.6923076923077" /><rect fill="#F23645" height="257.46622073578595" opacity="0.5" width="9.504950495049505" x="708.1188118811881" y="822.533779264214" /><rect fill="#089981" height="260.066889632107" opacity="0.5" width="9.504950495049505" x="727.1287128712871" y="819.933110367893" /><rect fill="#F23645" height="308.39598662207356" opacity="0.5" width="9.504950495049505" x="746.1386138613861" y="771.6040133779264" /><rect fill="#089981" height="238.82809364548496" opacity="0.5" width="9.504950495049505" x="765.1485148514851" y="841.171906354515" /><rect fill="#089981" height="218.02274247491638" opacity="0.5" width="9.504950495049505" x="784.1584158415841" y="861.9772575250836" /><rect fill="#F23645" height="222.79063545150504" opacity="0.5" width="9.504950495049505" x="803.1683168316831" y="857.2093645484949" /><rect fill="#089981" height="298.4267558528428" opacity="0.5" width="9.504950495049505" x="822.1782178217821" y="781.5732441471572" /><rect fill="#089981" height="189.41538461538462" opacity="0.5" width="9.504950495049505" x="841.1881188118812" y="890.5846153846154" /><rect fill="#089981" height="267.4354515050167" opacity="0.5" width="9.504950495049505" x="860.1980198019802" y="812.5645484949832" /><rect fill="#F23645" height="195.48361204013378" opacity="0.5" width="9.504950495049505" x="879.2079207920792" y="884.5163879598663" /><rect fill="#F23645" height="264.6180602006689" opacity="0.5" width="9.504950495049505" x="898.2178217821781" y="815.3819397993311" /><rect fill="#089981" height="239.4782608695652" opacity="0.5" width="9.504950495049505" x="917.2277227722772" y="840.5217391304348" /><rect fill="#089981" height="194.4" opacity="0.5" width="9.504950495049505" x="936.2376237623762" y="885.6" /><rect fill="#089981" height="245.76321070234115" opacity="0.5" width="9.504950495049505" x="955.2475247524752" y="834.2367892976588" /><rect fill="#089981" height="267.4354515050167" opacity="0.5" width="9.504950495049505" x="974.2574257425742" y="812.5645484949832" /><rect fill="#F23645" height="270.0361204013378" opacity="0.5" width="9.504950495049505" x="993.2673267326733" y="809.9638795986622" /><rect fill="#089981" height="239.91170568561873" opacity="0.5" width="9.504950495049505" x="1012.2772277227722" y="840.0882943143813" /><rect fill="#089981" height="227.12508361204016" opacity="0.5" width="9.504950495049505" x="1031.2871287128712" y="852.8749163879598" /><rect fill="#F23645" height="209.1371237458194" opacity="0.5" width="9.504950495049505" x="1050.2970297029703" y="870.8628762541806" /><rect fill="#089981" height="277.4046822742475" opacity="0.5" width="9.504950495049505" x="1069.3069306930693" y="802.5953177257525" /><rect fill="#089981" height="245.76321070234115" opacity="0.5" width="9.504950495049505" x="1088.3168316831682" y="834.2367892976588" /><rect fill="#F23645" height="290.6247491638796" opacity="0.5" width="9.504950495049505" x="1107.3267326732673" y="789.3752508361204" /><rect fill="#089981" height="196.13377926421407" opacity="0.5" width="9.504950495049505" x="1126.3366336633662" y="883.8662207357859" /><rect fill="#F23645" height="295.17591973244146" opacity="0.5" width="9.504950495049505" x="1145.3465346534654" y="784.8240802675585" /><rect fill="#089981" height="190.71571906354518" opacity="0.5" width="9.504950495049505" x="1164.3564356435643" y="889.2842809364548" /><rect fill="#089981" height="201.98528428093644" opacity="0.5" width="9.504950495049505" x="1183.3663366336634" y="878.0147157190636" /><rect fill="#F23645" height="203.0688963210702" opacity="0.5" width="9.504950495049505" x="1202.3762376237623" y="876.9311036789297" /><rect fill="#089981" height="213.038127090301" opacity="0.5" width="9.504950495049505" x="1221.3861386138612" y="866.961872909699" /><rect fill="#089981" height="260.066889632107" opacity="0.5" width="9.504950495049505" x="1240.3960396039604" y="819.933110367893" /><rect fill="#089981" height="244.67959866220735" opacity="0.5" width="9.504950495049505" x="1259.4059405940593" y="835.3204013377926" /><rect fill="#089981" height="283.25618729096993" opacity="0.5" width="9.504950495049505" x="1278.4158415841584" y="796.7438127090301" /><rect fill="#F23645" height="188.1150501672241" opacity="0.5" width="9.504950495049505" x="1297.4257425742574" y="891.8849498327759" /><rect fill="#F23645" height="291.4916387959866" opacity="0.5" width="9.504950495049505" x="1316.4356435643563" y="788.5083612040135" /><rect fill="#F23645" height="184.647491638796" opacity="0.5" width="9.504950495049505" x="1335.4455445544554" y="895.352508361204" /><rect fill="#F23645" height="270.68628762541806" opacity="0.5" width="9.504950495049505" x="1354.4554455445543" y="809.3137123745819" /><rect fill="#F23645" height="217.58929765886288" opacity="0.5" width="9.504950495049505" x="1373.4653465346535" y="862.4107023411372" /><rect fill="#089981" height="200.4682274247492" opacity="0.5" width="9.504950495049505" x="1392.4752475247524" y="879.5317725752508" /><rect fill="#089981" height="182.48026755852842" opacity="0.5" width="9.504950495049505" x="1411.4851485148515" y="897.5197324414715" /><rect fill="#089981" height="197.21739130434784" opacity="0.5" width="9.504950495049505" x="1430.4950495049504" y="882.7826086956521" /><rect fill="#089981" height="316.848160535117" opacity="0.5" width="9.504950495049505" x="1449.5049504950493" y="763.151839464883" /><rect fill="#089981" height="212.82140468227428" opacity="0.5" width="9.504950495049505" x="1468.5148514851485" y="867.1785953177257" /><rect fill="#F23645" height="193.74983277591974" opacity="0.5" width="9.504950495049505" x="1487.5247524752474" y="886.2501672240803" /><rect fill="#089981" height="254.2153846153846" opacity="0.5" width="9.504950495049505" x="1506.5346534653465" y="825.7846153846153" /><rect fill="#089981" height="285.85685618729093" opacity="0.5" width="9.504950495049505" x="1525.5445544554455" y="794.143143812709" /><rect fill="#F23645" height="251.18127090301005" opacity="0.5" width="9.504950495049505" x="1544.5544554455446" y="828.81872909699" /><rect fill="#F23645" height="324.0" opacity="0.5" width="9.504950495049505" x="1563.5643564356435" y="756.0" /><rect fill="#089981" height="234.0602006688963" opacity="0.5" width="9.504950495049505" x="1582.5742574257424" y="845.9397993311037" /><rect fill="#F23645" height="215.4220735785953" opacity="0.5" width="9.504950495049505" x="1601.5841584158416" y="864.5779264214048" /><rect fill="#089981" height="215.4220735785953" opacity="0.5" width="9.504950495049505" x="1620.5940594059405" y="864.5779264214048" /><rect fill="#089981" height="317.7150501672241" opacity="0.5" width="9.504950495049505" x="1639.6039603960396" y="762.284949832776" /><rect fill="#F23645" height="193.3163879598662" opacity="0.5" width="9.504950495049505" x="1658.6138613861385" y="886.6836120401338" /><rect fill="#F23645" height="318.7986622073579" opacity="0.5" width="9.504950495049505" x="1677.6237623762374" y="761.2013377926421" /><rect fill="#F23645" height="186.38127090301" opacity="0.5" width="9.504950495049505" x="1696.6336633663366" y="893.61872909699" /><rect fill="#F23645" height="310.5632107023411" opacity="0.5" width="9.504950495049505" x="1715.6435643564355" y="769.4367892976588" /><rect fill="#089981" height="184.21404682274246" opacity="0.5" width="9.504950495049505" x="1734.6534653465346" y="895.7859531772575" /><rect fill="#089981" height="260.5003344481605" opacity="0.5" width="9.504950495049505" x="1753.6633663366335" y="819.4996655518395" /><rect fill="#F23645" height="174.2448160535117" opacity="0.5" width="9.504950495049505" x="1772.6732673267327" y="905.7551839464883" /><rect fill="#089981" height="274.15384615384613" opacity="0.5" width="9.504950495049505" x="1791.6831683168316" y="805.8461538461538" /><rect fill="#089981" height="304.0615384615385" opacity="0.5" width="9.504950495049505" x="1810.6930693069305" y="775.9384615384615" /><rect fill="#F23645" height="320.96588628762544" opacity="0.5" width="9.504950495049505" x="1829.7029702970297" y="759.0341137123746" /><rect fill="#089981" height="288.89096989966555" opacity="0.5" width="9.504950495049505" x="1848.7128712871286" y="791.1090301003344" /><rect fill="#089981" height="260.933779264214" opacity="0.5" width="9.504950495049505" x="1867.7227722772277" y="819.0662207357859" /><rect fill="#F23645" height="284.3397993311037" opacity="0.5" width="9.504950495049505" x="1886.7326732673266" y="795.6602006688963" /></g></svg>