<?xml version="1.0" encoding="utf-8" ?>
<svg baseProfile="full" height="1080" version="1.1" width="1920" xmlns="http://www.w3.org/2000/svg" xmlns:ev="http://www.w3.org/2001/xml-events" xmlns:xlink="http://www.w3.org/1999/xlink"><defs /><rect fill="#1a1a2e" height="100%" width="100%" x="0" y="0" /><g id="grid" opacity="0.25" stroke="#2A2E39" stroke-width="1"><line x1="0" x2="1920" y1="75" y2="75" /><line x1="0" x2="1920" y1="151" y2="151" /><line x1="0" x2="1920" y1="226" y2="226" /><line x1="0" x2="1920" y1="302" y2="302" /><line x1="0" x2="1920" y1="378" y2="378" /><line x1="0" x2="1920" y1="453" y2="453" /><line x1="0" x2="1920" y1="529" y2="529" /><line x1="0" x2="1920" y1="604" y2="604" /><line x1="0" x2="1920" y1="680" y2="680" /><line x1="0" x2="0" y1="0" y2="1080" /><line x1="313" x2="313" y1="0" y2="1080" /><line x1="627" x2="627" y1="0" y2="1080" /><line x1="941" x2="941" y1="0" y2="1080" /><line x1="1254" x2="1254" y1="0" y2="1080" /><line x1="1568" x2="1568" y1="0" y2="1080" /></g><g id="candles"><line stroke="#ff0066" stroke-width="3.011764705882353" x1="18.823529411764707" x2="18.823529411764707" y1="161.90084040551812" y2="233.63104941024653" /><rect fill="#ff0066" height="3.326867021263979" width="30.11764705882353" x="3.7647058823529416" y="220.01849742364004" /><line stroke="#00ff88" stroke-width="3.011764705882353" x1="56.470588235294116" x2="56.470588235294116" y1="211.75029406944714" y2="247.2015700442497" /><rect fill="none" height="3.953041989650501" stroke="#00ff88" stroke-width="1" width="30.11764705882353" x="41.411764705882355" y="229.02274422574953" /><line stroke="#00ff88" stroke-width="3.011764705882353" x1="94.11764705882354" x2="94.11764705882354" y1="188.35502139635628" y2="237.2994331758955" /><rect fill="none" height="6.948907355681513" stroke="#00ff88" stroke-width="1" width="30.11764705882353" x="79.05882352941177" y="202.4274931063337" /><line stroke="#ff0066" stroke-width="3.011764705882353" x1="131.76470588235293" x2="131.76470588235293" y1="100.66708793451926" y2="149.42591275600648" /><rect fill="#ff0066" height="6.27913092040319" width="30.11764705882353" x="116.70588235294117" y="133.61002915888776" /><line stroke="#ff0066" stroke-width="3.011764705882353" x1="169.41176470588235" x2="169.41176470588235" y1="132.29756517764486" y2="161.53799744471735" /><rect fill="#ff0066" height="10.583671622931888" width="30.11764705882353" x="154.35294117647058" y="138.92024529532887" /><line stroke="#ff0066" stroke-width="3.011764705882353" x1="207.05882352941177" x2="207.05882352941177" y1="132.9669406354767" y2="188.4505479491155" /><rect fill="#ff0066" height="9.560007308082163" width="30.11764705882353" x="192.0" y="149.55799230594369" /><line stroke="#00ff88" stroke-width="3.011764705882353" x1="244.70588235294116" x2="244.70588235294116" y1="16.822523195255258" y2="179.49967950120185" /><rect fill="none" height="8.614943549630311" stroke="#00ff88" stroke-width="1" width="30.11764705882353" x="229.6470588235294" y="94.27269368568523" /><line stroke="#00ff88" stroke-width="3.011764705882353" x1="282.3529411764706" x2="282.3529411764706" y1="55.59197195299828" y2="85.3910811749754" /><rect fill="none" height="3.1742034563053494" stroke="#00ff88" stroke-width="1" width="30.11764705882353" x="267.29411764705884" y="62.760449545262645" /><line stroke="#ff0066" stroke-width="3.011764705882353" x1="320.0" x2="320.0" y1="68.06186084513342" y2="130.95496320014195" /><rect fill="#ff0066" height="3.4005674126532313" width="30.11764705882353" x="304.94117647058823" y="78.63734105551612" /><line stroke="#ff0066" stroke-width="3.011764705882353" x1="357.6470588235294" x2="357.6470588235294" y1="46.6881315417138" y2="86.71868836483952" /><rect fill="#ff0066" height="10.014407430392225" width="30.11764705882353" x="342.5882352941176" y="49.74501414522899" /><line stroke="#00ff88" stroke-width="3.011764705882353" x1="395.29411764705884" x2="395.29411764705884" y1="0.0" y2="123.72929452192363" /><rect fill="none" height="4.918938052702174" stroke="#00ff88" stroke-width="1" width="30.11764705882353" x="380.2352941176471" y="78.7881818338609" /><line stroke="#00ff88" stroke-width="3.011764705882353" x1="432.94117647058823" x2="432.94117647058823" y1="96.82317224532903" y2="132.13685512797815" /><rect fill="none" height="1.905872505258344" stroke="#00ff88" stroke-width="1" width="30.11764705882353" x="417.88235294117646" y="97.91187944676994" /><line stroke="#00ff88" stroke-width="3.011764705882353" x1="470.5882352941176" x2="470.5882352941176" y1="85.50331505307611" y2="146.90750812170722" /><rect fill="none" height="11.35702375642029" stroke="#00ff88" stroke-width="1" width="30.11764705882353" x="455.52941176470586" y="87.97647532090173" /><line stroke="#00ff88" stroke-width="3.011764705882353" x1="508.2352941176471" x2="508.2352941176471" y1="65.39405627135989" y2="212.5174700409799" /><rect fill="none" height="12.279596475269159" stroke="#00ff88" stroke-width="1" width="30.11764705882353" x="493.1764705882353" y="166.53918806815295" /><line stroke="#ff0066" stroke-width="3.011764705882353" x1="545.8823529411765" x2="545.8823529411765" y1="221.12777594698173" y2="276.925351771781" /><rect fill="#ff0066" height="8.34094129214941" width="30.11764705882353" x="530.8235294117648" y="229.02646160062807" /><line stroke="#ff0066" stroke-width="3.011764705882353" x1="583.5294117647059" x2="583.5294117647059" y1="234.15145083518087" y2="277.40545965182645" /><rect fill="#ff0066" height="13.922411010937765" width="30.11764705882353" x="568.4705882352941" y="246.53352465923263" /><line stroke="#00ff88" stroke-width="3.011764705882353" x1="621.1764705882352" x2="621.1764705882352" y1="300.6192676183095" y2="336.53907331271927" /><rect fill="none" height="1" stroke="#00ff88" stroke-width="1" width="30.11764705882353" x="606.1176470588235" y="302.04459503697507" /><line stroke="#ff0066" stroke-width="3.011764705882353" x1="658.8235294117646" x2="658.8235294117646" y1="230.85130959773937" y2="367.0267531197335" /><rect fill="#ff0066" height="10.301714426002661" width="30.11764705882353" x="643.7647058823529" y="278.8393224462939" /><line stroke="#ff0066" stroke-width="3.011764705882353" x1="696.470588235294" x2="696.470588235294" y1="275.7874245381684" y2="336.5022067452918" /><rect fill="#ff0066" height="3.712355682629834" width="30.11764705882353" x="681.4117647058823" y="322.7137756299328" /><line stroke="#00ff88" stroke-width="3.011764705882353" x1="734.1176470588235" x2="734.1176470588235" y1="353.5421334207758" y2="421.99004975587127" /><rect fill="none" height="6.622443067362212" stroke="#00ff88" stroke-width="1" width="30.11764705882353" x="719.0588235294118" y="384.4178501471073" /><line stroke="#ff0066" stroke-width="3.011764705882353" x1="771.7647058823529" x2="771.7647058823529" y1="288.0446114899098" y2="360.7607425548857" /><rect fill="#ff0066" height="3.709887668436579" width="30.11764705882353" x="756.7058823529412" y="320.52579964985796" /><line stroke="#ff0066" stroke-width="3.011764705882353" x1="809.4117647058823" x2="809.4117647058823" y1="280.3767554014758" y2="367.0050975720911" /><rect fill="#ff0066" height="15.788633853223814" width="30.11764705882353" x="794.3529411764706" y="317.717832635967" /><line stroke="#00ff88" stroke-width="3.011764705882353" x1="847.0588235294117" x2="847.0588235294117" y1="273.1323912520076" y2="334.267342064381" /><rect fill="none" height="1" stroke="#00ff88" stroke-width="1" width="30.11764705882353" x="832.0" y="330.73363748933673" /><line stroke="#ff0066" stroke-width="3.011764705882353" x1="884.7058823529411" x2="884.7058823529411" y1="315.61206684040155" y2="403.24466010544387" /><rect fill="#ff0066" height="16.06176753598237" width="30.11764705882353" x="869.6470588235294" y="373.17458161997416" /><line stroke="#00ff88" stroke-width="3.011764705882353" x1="922.3529411764705" x2="922.3529411764705" y1="387.4922754993154" y2="449.8439544681903" /><rect fill="none" height="26.892856216213886" stroke="#00ff88" stroke-width="1" width="30.11764705882353" x="907.2941176470588" y="411.5896785915442" /><line stroke="#ff0066" stroke-width="3.011764705882353" x1="960.0" x2="960.0" y1="308.6537711059884" y2="441.00062379307286" /><rect fill="#ff0066" height="8.43719713013428" width="30.11764705882353" x="944.9411764705883" y="398.5978013109775" /><line stroke="#ff0066" stroke-width="3.011764705882353" x1="997.6470588235294" x2="997.6470588235294" y1="412.7300834115713" y2="454.83073664991247" /><rect fill="#ff0066" height="1" width="30.11764705882353" x="982.5882352941177" y="453.40327856646024" /><line stroke="#00ff88" stroke-width="3.011764705882353" x1="1035.2941176470588" x2="1035.2941176470588" y1="415.6168235488552" y2="501.62417852872" /><rect fill="none" height="3.0694443024692077" stroke="#00ff88" stroke-width="1" width="30.11764705882353" x="1020.2352941176471" y="438.8700223337308" /><line stroke="#ff0066" stroke-width="3.011764705882353" x1="1072.9411764705883" x2="1072.9411764705883" y1="458.49949350685534" y2="474.40060590456864" /><rect fill="#ff0066" height="1" width="30.11764705882353" x="1057.8823529411766" y="462.59135699215034" /><line stroke="#00ff88" stroke-width="3.011764705882353" x1="1110.5882352941176" x2="1110.5882352941176" y1="454.8371782335986" y2="607.6090914387879" /><rect fill="none" height="20.40328463892706" stroke="#00ff88" stroke-width="1" width="30.11764705882353" x="1095.5294117647059" y="475.5107901103783" /><line stroke="#00ff88" stroke-width="3.011764705882353" x1="1148.235294117647" x2="1148.235294117647" y1="436.544923935792" y2="528.1639928962677" /><rect fill="none" height="2.255030264255822" stroke="#00ff88" stroke-width="1" width="30.11764705882353" x="1133.1764705882354" y="500.21794101871524" /><line stroke="#ff0066" stroke-width="3.011764705882353" x1="1185.8823529411764" x2="1185.8823529411764" y1="417.6788431699674" y2="459.3565061755982" /><rect fill="#ff0066" height="3.6659204071706313" width="30.11764705882353" x="1170.8235294117646" y="420.49416168372045" /><line stroke="#ff0066" stroke-width="3.011764705882353" x1="1223.5294117647059" x2="1223.5294117647059" y1="365.92296572494337" y2="468.6870658070536" /><rect fill="#ff0066" height="15.171243945063907" width="30.11764705882353" x="1208.4705882352941" y="409.54305836157056" /><line stroke="#00ff88" stroke-width="3.011764705882353" x1="1261.1764705882354" x2="1261.1764705882354" y1="448.6992537647697" y2="493.2772640502747" /><rect fill="none" height="5.320275793022915" stroke="#00ff88" stroke-width="1" width="30.11764705882353" x="1246.1176470588236" y="468.1458069767999" /><line stroke="#00ff88" stroke-width="3.011764705882353" x1="1298.8235294117646" x2="1298.8235294117646" y1="396.6174346746417" y2="451.8459708944614" /><rect fill="none" height="8.299548753957822" stroke="#00ff88" stroke-width="1" width="30.11764705882353" x="1283.764705882353" y="434.37064004466356" /><line stroke="#00ff88" stroke-width="3.011764705882353" x1="1336.4705882352941" x2="1336.4705882352941" y1="420.8575843756444" y2="518.9695657763679" /><rect fill="none" height="5.150760662755545" stroke="#00ff88" stroke-width="1" width="30.11764705882353" x="1321.4117647058824" y="484.50066634362514" /><line stroke="#ff0066" stroke-width="3.011764705882353" x1="1374.1176470588234" x2="1374.1176470588234" y1="434.3655579584251" y2="495.35633738336907" /><rect fill="#ff0066" height="9.397012515816414" width="30.11764705882353" x="1359.0588235294117" y="466.5273406277256" /><line stroke="#ff0066" stroke-width="3.011764705882353" x1="1411.764705882353" x2="1411.764705882353" y1="539.7927175558857" y2="559.3824029573857" /><rect fill="#ff0066" height="3.3747773053175933" width="30.11764705882353" x="1396.7058823529412" y="553.0171400916112" /><line stroke="#00ff88" stroke-width="3.011764705882353" x1="1449.4117647058824" x2="1449.4117647058824" y1="577.5251411806663" y2="651.1387067644687" /><rect fill="none" height="5.438225637577602" stroke="#00ff88" stroke-width="1" width="30.11764705882353" x="1434.3529411764707" y="610.9296148021392" /><line stroke="#ff0066" stroke-width="3.011764705882353" x1="1487.0588235294117" x2="1487.0588235294117" y1="547.0357271887682" y2="665.0484794762639" /><rect fill="#ff0066" height="5.2689199638675746" width="30.11764705882353" x="1472.0" y="597.577219995609" /><line stroke="#ff0066" stroke-width="3.011764705882353" x1="1524.7058823529412" x2="1524.7058823529412" y1="562.1869231904979" y2="590.8580833508992" /><rect fill="#ff0066" height="1" width="30.11764705882353" x="1509.6470588235295" y="571.5268353929617" /><line stroke="#ff0066" stroke-width="3.011764705882353" x1="1562.3529411764705" x2="1562.3529411764705" y1="501.8694949296406" y2="600.6519593720082" /><rect fill="#ff0066" height="9.943574439471377" width="30.11764705882353" x="1547.2941176470588" y="555.5431169779927" /><line stroke="#00ff88" stroke-width="3.011764705882353" x1="1600.0" x2="1600.0" y1="504.2292770156138" y2="586.2333787403477" /><rect fill="none" height="7.206889281066765" stroke="#00ff88" stroke-width="1" width="30.11764705882353" x="1584.9411764705883" y="570.2354169710511" /><line stroke="#00ff88" stroke-width="3.011764705882353" x1="1637.6470588235295" x2="1637.6470588235295" y1="575.0178770304053" y2="637.1151373394554" /><rect fill="none" height="3.363598612015153" stroke="#00ff88" stroke-width="1" width="30.11764705882353" x="1622.5882352941178" y="582.5992738653913" /><line stroke="#00ff88" stroke-width="3.011764705882353" x1="1675.2941176470588" x2="1675.2941176470588" y1="632.6387813419145" y2="654.4463188472206" /><rect fill="none" height="4.025165718194103" stroke="#00ff88" stroke-width="1" width="30.11764705882353" x="1660.235294117647" y="643.3100342174407" /><line stroke="#00ff88" stroke-width="3.011764705882353" x1="1712.9411764705883" x2="1712.9411764705883" y1="640.7650793205399" y2="703.7135839993335" /><rect fill="none" height="15.023636081599761" stroke="#00ff88" stroke-width="1" width="30.11764705882353" x="1697.8823529411766" y="672.8681263603934" /><line stroke="#ff0066" stroke-width="3.011764705882353" x1="1750.5882352941176" x2="1750.5882352941176" y1="637.9515608488805" y2="728.0755480686776" /><rect fill="#ff0066" height="3.0398072016132573" width="30.11764705882353" x="1735.5294117647059" y="688.7429719098377" /><line stroke="#ff0066" stroke-width="3.011764705882353" x1="1788.235294117647" x2="1788.235294117647" y1="591.4752854696603" y2="654.6876757386431" /><rect fill="#ff0066" height="2.6798492297051553" width="30.11764705882353" x="1773.1764705882354" y="645.6955984000865" /><line stroke="#ff0066" stroke-width="3.011764705882353" x1="1825.8823529411764" x2="1825.8823529411764" y1="612.7815181910876" y2="636.656019587811" /><rect fill="#ff0066" height="1" width="30.11764705882353" x="1810.8235294117646" y="634.2133734589733" /><line stroke="#00ff88" stroke-width="3.011764705882353" x1="1863.5294117647059" x2="1863.5294117647059" y1="694.4647285818247" y2="756.0" /><rect fill="none" height="2.408141936474294" stroke="#00ff88" stroke-width="1" width="30.11764705882353" x="1848.4705882352941" y="706.6594510427404" /></g><g id="volume"><rect fill="#ff0066" height="196.08898186795224" opacity="0.5" width="30.11764705882353" x="3.7647058823529416" y="883.9110181320477" /><rect fill="#00ff88" height="203.51844946898532" opacity="0.5" width="30.11764705882353" x="41.411764705882355" y="876.4815505310147" /><rect fill="#00ff88" height="222.632822973266" opacity="0.5" width="30.11764705882353" x="79.05882352941177" y="857.367177026734" /><rect fill="#ff0066" height="221.5623355265965" opacity="0.5" width="30.11764705882353" x="116.70588235294117" y="858.4376644734035" /><rect fill="#ff0066" height="233.41551445442917" opacity="0.5" width="30.11764705882353" x="154.35294117647058" y="846.5844855455708" /><rect fill="#ff0066" height="217.3177075305395" opacity="0.5" width="30.11764705882353" x="192.0" y="862.6822924694604" /><rect fill="#00ff88" height="201.84407812005765" opacity="0.5" width="30.11764705882353" x="229.6470588235294" y="878.1559218799423" /><rect fill="#00ff88" height="201.7983545509561" opacity="0.5" width="30.11764705882353" x="267.29411764705884" y="878.2016454490439" /><rect fill="#ff0066" height="201.84453264503196" opacity="0.5" width="30.11764705882353" x="304.94117647058823" y="878.1554673549681" /><rect fill="#ff0066" height="324.0" opacity="0.5" width="30.11764705882353" x="342.5882352941176" y="756.0" /><rect fill="#00ff88" height="203.8883171109368" opacity="0.5" width="30.11764705882353" x="380.2352941176471" y="876.1116828890632" /><rect fill="#00ff88" height="224.55479074645393" opacity="0.5" width="30.11764705882353" x="417.88235294117646" y="855.4452092535461" /><rect fill="#00ff88" height="217.9097573904986" opacity="0.5" width="30.11764705882353" x="455.52941176470586" y="862.0902426095014" /><rect fill="#00ff88" height="206.8345535336755" opacity="0.5" width="30.11764705882353" x="493.1764705882353" y="873.1654464663245" /><rect fill="#ff0066" height="194.53286672948747" opacity="0.5" width="30.11764705882353" x="530.8235294117648" y="885.4671332705125" /><rect fill="#ff0066" height="210.77178601989" opacity="0.5" width="30.11764705882353" x="568.4705882352941" y="869.22821398011" /><rect fill="#00ff88" height="211.27889979320318" opacity="0.5" width="30.11764705882353" x="606.1176470588235" y="868.7211002067968" /><rect fill="#ff0066" height="191.6616617565883" opacity="0.5" width="30.11764705882353" x="643.7647058823529" y="888.3383382434117" /><rect fill="#ff0066" height="200.75812661581008" opacity="0.5" width="30.11764705882353" x="681.4117647058823" y="879.24187338419" /><rect fill="#00ff88" height="185.99086879561466" opacity="0.5" width="30.11764705882353" x="719.0588235294118" y="894.0091312043853" /><rect fill="#ff0066" height="267.70826361378124" opacity="0.5" width="30.11764705882353" x="756.7058823529412" y="812.2917363862188" /><rect fill="#ff0066" height="251.33417010879796" opacity="0.5" width="30.11764705882353" x="794.3529411764706" y="828.6658298912021" /><rect fill="#00ff88" height="208.11071742390413" opacity="0.5" width="30.11764705882353" x="832.0" y="871.8892825760959" /><rect fill="#ff0066" height="242.01795169402484" opacity="0.5" width="30.11764705882353" x="869.6470588235294" y="837.9820483059751" /><rect fill="#00ff88" height="200.2665421838811" opacity="0.5" width="30.11764705882353" x="907.2941176470588" y="879.7334578161189" /><rect fill="#ff0066" height="222.84873267646378" opacity="0.5" width="30.11764705882353" x="944.9411764705883" y="857.1512673235362" /><rect fill="#ff0066" height="185.3469438126581" opacity="0.5" width="30.11764705882353" x="982.5882352941177" y="894.6530561873419" /><rect fill="#00ff88" height="222.43861232297013" opacity="0.5" width="30.11764705882353" x="1020.2352941176471" y="857.5613876770299" /><rect fill="#ff0066" height="209.17367749773229" opacity="0.5" width="30.11764705882353" x="1057.8823529411766" y="870.8263225022677" /><rect fill="#00ff88" height="207.8668795724132" opacity="0.5" width="30.11764705882353" x="1095.5294117647059" y="872.1331204275868" /><rect fill="#00ff88" height="209.72496349135747" opacity="0.5" width="30.11764705882353" x="1133.1764705882354" y="870.2750365086425" /><rect fill="#ff0066" height="190.9165080640622" opacity="0.5" width="30.11764705882353" x="1170.8235294117646" y="889.0834919359378" /><rect fill="#ff0066" height="184.66224552891453" opacity="0.5" width="30.11764705882353" x="1208.4705882352941" y="895.3377544710854" /><rect fill="#00ff88" height="206.8422062227102" opacity="0.5" width="30.11764705882353" x="1246.1176470588236" y="873.1577937772898" /><rect fill="#00ff88" height="261.46030605184677" opacity="0.5" width="30.11764705882353" x="1283.764705882353" y="818.5396939481532" /><rect fill="#00ff88" height="206.19508963510145" opacity="0.5" width="30.11764705882353" x="1321.4117647058824" y="873.8049103648985" /><rect fill="#ff0066" height="257.11230488350975" opacity="0.5" width="30.11764705882353" x="1359.0588235294117" y="822.8876951164902" /><rect fill="#ff0066" height="189.81838540558923" opacity="0.5" width="30.11764705882353" x="1396.7058823529412" y="890.1816145944108" /><rect fill="#00ff88" height="207.21500663625002" opacity="0.5" width="30.11764705882353" x="1434.3529411764707" y="872.78499336375" /><rect fill="#ff0066" height="214.19246731651862" opacity="0.5" width="30.11764705882353" x="1472.0" y="865.8075326834814" /><rect fill="#ff0066" height="211.99973378085525" opacity="0.5" width="30.11764705882353" x="1509.6470588235295" y="868.0002662191448" /><rect fill="#ff0066" height="187.19359203254402" opacity="0.5" width="30.11764705882353" x="1547.2941176470588" y="892.8064079674559" /><rect fill="#00ff88" height="201.47633306991412" opacity="0.5" width="30.11764705882353" x="1584.9411764705883" y="878.5236669300859" /><rect fill="#00ff88" height="214.680032362595" opacity="0.5" width="30.11764705882353" x="1622.5882352941178" y="865.319967637405" /><rect fill="#00ff88" height="226.9238638951987" opacity="0.5" width="30.11764705882353" x="1660.235294117647" y="853.0761361048013" /><rect fill="#00ff88" height="195.23673594268718" opacity="0.5" width="30.11764705882353" x="1697.8823529411766" y="884.7632640573129" /><rect fill="#ff0066" height="200.37683088984764" opacity="0.5" width="30.11764705882353" x="1735.5294117647059" y="879.6231691101524" /><rect fill="#ff0066" height="206.90548146495485" opacity="0.5" width="30.11764705882353" x="1773.1764705882354" y="873.0945185350452" /><rect fill="#ff0066" height="247.60800394375917" opacity="0.5" width="30.11764705882353" x="1810.8235294117646" y="832.3919960562408" /><rect fill="#00ff88" height="197.816241936175" opacity="0.5" width="30.11764705882353" x="1848.4705882352941" y="882.183758063825" /></g></svg>