<?xml version="1.0" encoding="utf-8" ?>
<svg baseProfile="full" height="1080" version="1.1" width="1920" xmlns="http://www.w3.org/2000/svg" xmlns:ev="http://www.w3.org/2001/xml-events" xmlns:xlink="http://www.w3.org/1999/xlink"><defs /><rect fill="#131722" height="100%" width="100%" x="0" y="0" /><g id="grid" opacity="0.25" stroke="#2A2E39" stroke-width="1"><line x1="0" x2="1920" y1="75" y2="75" /><line x1="0" x2="1920" y1="151" y2="151" /><line x1="0" x2="1920" y1="226" y2="226" /><line x1="0" x2="1920" y1="302" y2="302" /><line x1="0" x2="1920" y1="378" y2="378" /><line x1="0" x2="1920" y1="453" y2="453" /><line x1="0" x2="1920" y1="529" y2="529" /><line x1="0" x2="1920" y1="604" y2="604" /><line x1="0" x2="1920" y1="680" y2="680" /><line x1="0" x2="0" y1="0" y2="1080" /><line x1="313" x2="313" y1="0" y2="1080" /><line x1="627" x2="627" y1="0" y2="1080" /><line x1="941" x2="941" y1="0" y2="1080" /><line x1="1254" x2="1254" y1="0" y2="1080" /><line x1="1568" x2="1568" y1="0" y2="1080" /></g><g id="ohlc_bars"><line stroke="#F23645" stroke-width="1" x1="18.823529411764707" x2="18.823529411764707" y1="442.8118101799463" y2="756.0" /><line stroke="#F23645" stroke-width="1" x1="3.7647058823529402" x2="18.823529411764707" y1="550.9666641026447" y2="550.9666641026447" /><line stroke="#F23645" stroke-width="1" x1="18.823529411764707" x2="33.88235294117647" y1="562.4087773563981" y2="562.4087773563981" /><line stroke="#089981" stroke-width="1" x1="56.470588235294116" x2="56.470588235294116" y1="466.28352172436024" y2="700.2904171605446" /><line stroke="#089981" stroke-width="1" x1="41.41176470588235" x2="56.470588235294116" y1="570.9908057152905" y2="570.9908057152905" /><line stroke="#089981" stroke-width="1" x1="56.470588235294116" x2="71.52941176470588" y1="548.4658032782994" y2="548.4658032782994" /><line stroke="#F23645" stroke-width="1" x1="94.11764705882354" x2="94.11764705882354" y1="470.3617146435914" y2="687.1850593794143" /><line stroke="#F23645" stroke-width="1" x1="79.05882352941177" x2="94.11764705882354" y1="524.9830621518454" y2="524.9830621518454" /><line stroke="#F23645" stroke-width="1" x1="94.11764705882354" x2="109.1764705882353" y1="586.683026051423" y2="586.683026051423" /><line stroke="#F23645" stroke-width="1" x1="131.76470588235296" x2="131.76470588235296" y1="400.9956097129747" y2="699.057484218653" /><line stroke="#F23645" stroke-width="1" x1="116.70588235294119" x2="131.76470588235296" y1="474.82135997623834" y2="474.82135997623834" /><line stroke="#F23645" stroke-width="1" x1="131.76470588235296" x2="146.82352941176472" y1="534.8048254175791" y2="534.8048254175791" /><line stroke="#089981" stroke-width="1" x1="169.41176470588235" x2="169.41176470588235" y1="372.0254556035495" y2="659.7862146517781" /><line stroke="#089981" stroke-width="1" x1="154.35294117647058" x2="169.41176470588235" y1="546.9953115880809" y2="546.9953115880809" /><line stroke="#089981" stroke-width="1" x1="169.41176470588235" x2="184.47058823529412" y1="522.4946782226036" y2="522.4946782226036" /><line stroke="#F23645" stroke-width="1" x1="207.05882352941177" x2="207.05882352941177" y1="367.1756540882747" y2="624.0306967434215" /><line stroke="#F23645" stroke-width="1" x1="192.0" x2="207.05882352941177" y1="537.5107016758651" y2="537.5107016758651" /><line stroke="#F23645" stroke-width="1" x1="207.05882352941177" x2="222.11764705882354" y1="559.8266759244592" y2="559.8266759244592" /><line stroke="#089981" stroke-width="1" x1="244.7058823529412" x2="244.7058823529412" y1="439.968337707843" y2="545.6707742659347" /><line stroke="#089981" stroke-width="1" x1="229.64705882352942" x2="244.7058823529412" y1="443.75894921147005" y2="443.75894921147005" /><line stroke="#089981" stroke-width="1" x1="244.7058823529412" x2="259.7647058823529" y1="430.4421836019292" y2="430.4421836019292" /><line stroke="#F23645" stroke-width="1" x1="282.3529411764706" x2="282.3529411764706" y1="405.8547009745532" y2="615.7268102494905" /><line stroke="#F23645" stroke-width="1" x1="267.29411764705884" x2="282.3529411764706" y1="471.9991200329458" y2="471.9991200329458" /><line stroke="#F23645" stroke-width="1" x1="282.3529411764706" x2="297.4117647058824" y1="485.64304566015926" y2="485.64304566015926" /><line stroke="#F23645" stroke-width="1" x1="320.0" x2="320.0" y1="366.60739876260993" y2="602.38715705354" /><line stroke="#F23645" stroke-width="1" x1="304.94117647058823" x2="320.0" y1="519.9954911741943" y2="519.9954911741943" /><line stroke="#F23645" stroke-width="1" x1="320.0" x2="335.05882352941177" y1="553.539503619805" y2="553.539503619805" /><line stroke="#089981" stroke-width="1" x1="357.64705882352945" x2="357.64705882352945" y1="327.1832336782625" y2="608.3314606901599" /><line stroke="#089981" stroke-width="1" x1="342.5882352941177" x2="357.64705882352945" y1="463.48154391425544" y2="463.48154391425544" /><line stroke="#089981" stroke-width="1" x1="357.64705882352945" x2="372.7058823529412" y1="458.18416603769737" y2="458.18416603769737" /><line stroke="#F23645" stroke-width="1" x1="395.29411764705884" x2="395.29411764705884" y1="385.3014322973719" y2="684.5549783022749" /><line stroke="#F23645" stroke-width="1" x1="380.2352941176471" x2="395.29411764705884" y1="500.7463375672588" y2="500.7463375672588" /><line stroke="#F23645" stroke-width="1" x1="395.29411764705884" x2="410.3529411764706" y1="524.5052092360355" y2="524.5052092360355" /><line stroke="#089981" stroke-width="1" x1="432.94117647058823" x2="432.94117647058823" y1="362.1776816213024" y2="587.1363240998164" /><line stroke="#089981" stroke-width="1" x1="417.88235294117646" x2="432.94117647058823" y1="491.36993403192054" y2="491.36993403192054" /><line stroke="#089981" stroke-width="1" x1="432.94117647058823" x2="448.0" y1="433.15058579874545" y2="433.15058579874545" /><line stroke="#089981" stroke-width="1" x1="470.5882352941177" x2="470.5882352941177" y1="395.4784309432193" y2="573.6214057441196" /><line stroke="#089981" stroke-width="1" x1="455.5294117647059" x2="470.5882352941177" y1="448.9990370328338" y2="448.9990370328338" /><line stroke="#089981" stroke-width="1" x1="470.5882352941177" x2="485.64705882352945" y1="406.40230798310756" y2="406.40230798310756" /><line stroke="#089981" stroke-width="1" x1="508.2352941176471" x2="508.2352941176471" y1="390.17099596003413" y2="452.4675528080084" /><line stroke="#089981" stroke-width="1" x1="493.1764705882353" x2="508.2352941176471" y1="539.6711420230882" y2="539.6711420230882" /><line stroke="#089981" stroke-width="1" x1="508.2352941176471" x2="523.2941176470588" y1="488.89718754279016" y2="488.89718754279016" /><line stroke="#089981" stroke-width="1" x1="545.8823529411765" x2="545.8823529411765" y1="287.3396445343053" y2="566.3918384389528" /><line stroke="#089981" stroke-width="1" x1="530.8235294117648" x2="545.8823529411765" y1="521.4339336348248" y2="521.4339336348248" /><line stroke="#089981" stroke-width="1" x1="545.8823529411765" x2="560.9411764705882" y1="396.50662784595306" y2="396.50662784595306" /><line stroke="#089981" stroke-width="1" x1="583.5294117647059" x2="583.5294117647059" y1="252.58893618392352" y2="533.9556525592188" /><line stroke="#089981" stroke-width="1" x1="568.4705882352941" x2="583.5294117647059" y1="457.9216680963474" y2="457.9216680963474" /><line stroke="#089981" stroke-width="1" x1="583.5294117647059" x2="598.5882352941176" y1="412.60940800767145" y2="412.60940800767145" /><line stroke="#089981" stroke-width="1" x1="621.1764705882354" x2="621.1764705882354" y1="309.47708788836815" y2="540.0980523936618" /><line stroke="#089981" stroke-width="1" x1="606.1176470588236" x2="621.1764705882354" y1="469.3749648285543" y2="469.3749648285543" /><line stroke="#089981" stroke-width="1" x1="621.1764705882354" x2="636.2352941176471" y1="384.1060071446494" y2="384.1060071446494" /><line stroke="#089981" stroke-width="1" x1="658.8235294117648" x2="658.8235294117648" y1="250.0118424631434" y2="583.3105819124618" /><line stroke="#089981" stroke-width="1" x1="643.764705882353" x2="658.8235294117648" y1="398.22065397399683" y2="398.22065397399683" /><line stroke="#089981" stroke-width="1" x1="658.8235294117648" x2="673.8823529411765" y1="324.67841225408876" y2="324.67841225408876" /><line stroke="#089981" stroke-width="1" x1="696.4705882352941" x2="696.4705882352941" y1="270.35748887253186" y2="466.40932528472496" /><line stroke="#089981" stroke-width="1" x1="681.4117647058824" x2="696.4705882352941" y1="445.53679842840387" y2="445.53679842840387" /><line stroke="#089981" stroke-width="1" x1="696.4705882352941" x2="711.5294117647059" y1="414.7435420661661" y2="414.7435420661661" /><line stroke="#089981" stroke-width="1" x1="734.1176470588235" x2="734.1176470588235" y1="307.65843885699826" y2="475.09045878718115" /><line stroke="#089981" stroke-width="1" x1="719.0588235294118" x2="734.1176470588235" y1="459.48725437642696" y2="459.48725437642696" /><line stroke="#089981" stroke-width="1" x1="734.1176470588235" x2="749.1764705882352" y1="428.883061068316" y2="428.883061068316" /><line stroke="#F23645" stroke-width="1" x1="771.7647058823529" x2="771.7647058823529" y1="251.40096744431924" y2="463.78965203378533" /><line stroke="#F23645" stroke-width="1" x1="756.7058823529412" x2="771.7647058823529" y1="316.26250949984365" y2="316.26250949984365" /><line stroke="#F23645" stroke-width="1" x1="771.7647058823529" x2="786.8235294117646" y1="425.70894551953063" y2="425.70894551953063" /><line stroke="#F23645" stroke-width="1" x1="809.4117647058824" x2="809.4117647058824" y1="187.2376147323862" y2="533.325740242003" /><line stroke="#F23645" stroke-width="1" x1="794.3529411764707" x2="809.4117647058824" y1="385.38062343374617" y2="385.38062343374617" /><line stroke="#F23645" stroke-width="1" x1="809.4117647058824" x2="824.4705882352941" y1="412.8000042951444" y2="412.8000042951444" /><line stroke="#F23645" stroke-width="1" x1="847.0588235294118" x2="847.0588235294118" y1="250.89250102921335" y2="416.3928409805849" /><line stroke="#F23645" stroke-width="1" x1="832.0000000000001" x2="847.0588235294118" y1="362.2666667684916" y2="362.2666667684916" /><line stroke="#F23645" stroke-width="1" x1="847.0588235294118" x2="862.1176470588235" y1="368.98774183032396" y2="368.98774183032396" /><line stroke="#089981" stroke-width="1" x1="884.7058823529412" x2="884.7058823529412" y1="167.0334667424429" y2="537.2432488327054" /><line stroke="#089981" stroke-width="1" x1="869.6470588235295" x2="884.7058823529412" y1="422.1301723109094" y2="422.1301723109094" /><line stroke="#089981" stroke-width="1" x1="884.7058823529412" x2="899.7647058823529" y1="340.06729059189837" y2="340.06729059189837" /><line stroke="#089981" stroke-width="1" x1="922.3529411764706" x2="922.3529411764706" y1="352.00172270453163" y2="435.34244318095796" /><line stroke="#089981" stroke-width="1" x1="907.2941176470589" x2="922.3529411764706" y1="371.7349939212399" y2="371.7349939212399" /><line stroke="#089981" stroke-width="1" x1="922.3529411764706" x2="937.4117647058823" y1="333.5790092525276" y2="333.5790092525276" /><line stroke="#089981" stroke-width="1" x1="960.0" x2="960.0" y1="182.581585544066" y2="351.3380091749097" /><line stroke="#089981" stroke-width="1" x1="944.9411764705883" x2="960.0" y1="331.7985519129883" y2="331.7985519129883" /><line stroke="#089981" stroke-width="1" x1="960.0" x2="975.0588235294117" y1="298.51331016298116" y2="298.51331016298116" /><line stroke="#089981" stroke-width="1" x1="997.6470588235294" x2="997.6470588235294" y1="207.24709541606694" y2="489.6775624117334" /><line stroke="#089981" stroke-width="1" x1="982.5882352941177" x2="997.6470588235294" y1="380.9570220218566" y2="380.9570220218566" /><line stroke="#089981" stroke-width="1" x1="997.6470588235294" x2="1012.7058823529411" y1="326.86516302178273" y2="326.86516302178273" /><line stroke="#089981" stroke-width="1" x1="1035.2941176470588" x2="1035.2941176470588" y1="215.70352548347796" y2="460.4789872574054" /><line stroke="#089981" stroke-width="1" x1="1020.2352941176471" x2="1035.2941176470588" y1="300.5265187234738" y2="300.5265187234738" /><line stroke="#089981" stroke-width="1" x1="1035.2941176470588" x2="1050.3529411764705" y1="250.43856077507598" y2="250.43856077507598" /><line stroke="#089981" stroke-width="1" x1="1072.9411764705883" x2="1072.9411764705883" y1="188.06035145566148" y2="420.0479197228486" /><line stroke="#089981" stroke-width="1" x1="1057.8823529411766" x2="1072.9411764705883" y1="336.4138686005119" y2="336.4138686005119" /><line stroke="#089981" stroke-width="1" x1="1072.9411764705883" x2="1088.0" y1="320.8005060939642" y2="320.8005060939642" /><line stroke="#089981" stroke-width="1" x1="1110.5882352941178" x2="1110.5882352941178" y1="275.2047229287098" y2="438.59189807433796" /><line stroke="#089981" stroke-width="1" x1="1095.529411764706" x2="1110.5882352941178" y1="312.5730876267562" y2="312.5730876267562" /><line stroke="#089981" stroke-width="1" x1="1110.5882352941178" x2="1125.6470588235295" y1="172.60925744236567" y2="172.60925744236567" /><line stroke="#089981" stroke-width="1" x1="1148.235294117647" x2="1148.235294117647" y1="183.56519819719426" y2="477.7717573454567" /><line stroke="#089981" stroke-width="1" x1="1133.1764705882354" x2="1148.235294117647" y1="317.49580192956574" y2="317.49580192956574" /><line stroke="#089981" stroke-width="1" x1="1148.235294117647" x2="1163.2941176470588" y1="260.4586905872908" y2="260.4586905872908" /><line stroke="#F23645" stroke-width="1" x1="1185.8823529411766" x2="1185.8823529411766" y1="147.27768706803" y2="393.04108275537357" /><line stroke="#F23645" stroke-width="1" x1="1170.8235294117649" x2="1185.8823529411766" y1="193.9731952669223" y2="193.9731952669223" /><line stroke="#F23645" stroke-width="1" x1="1185.8823529411766" x2="1200.9411764705883" y1="319.88297750688054" y2="319.88297750688054" /><line stroke="#F23645" stroke-width="1" x1="1223.5294117647059" x2="1223.5294117647059" y1="85.710172238356" y2="436.10957218525493" /><line stroke="#F23645" stroke-width="1" x1="1208.4705882352941" x2="1223.5294117647059" y1="271.1935177127221" y2="271.1935177127221" /><line stroke="#F23645" stroke-width="1" x1="1223.5294117647059" x2="1238.5882352941176" y1="320.33157498224756" y2="320.33157498224756" /><line stroke="#089981" stroke-width="1" x1="1261.1764705882354" x2="1261.1764705882354" y1="168.98977556559782" y2="355.25132568872385" /><line stroke="#089981" stroke-width="1" x1="1246.1176470588236" x2="1261.1764705882354" y1="310.2351692956527" y2="310.2351692956527" /><line stroke="#089981" stroke-width="1" x1="1261.1764705882354" x2="1276.235294117647" y1="238.6615399422966" y2="238.6615399422966" /><line stroke="#F23645" stroke-width="1" x1="1298.8235294117646" x2="1298.8235294117646" y1="172.9928560107403" y2="410.50214737923767" /><line stroke="#F23645" stroke-width="1" x1="1283.764705882353" x2="1298.8235294117646" y1="213.37423494477446" y2="213.37423494477446" /><line stroke="#F23645" stroke-width="1" x1="1298.8235294117646" x2="1313.8823529411764" y1="261.98310188163583" y2="261.98310188163583" /><line stroke="#089981" stroke-width="1" x1="1336.4705882352941" x2="1336.4705882352941" y1="149.25470037094453" y2="286.2651051853263" /><line stroke="#089981" stroke-width="1" x1="1321.4117647058824" x2="1336.4705882352941" y1="298.8483915958491" y2="298.8483915958491" /><line stroke="#089981" stroke-width="1" x1="1336.4705882352941" x2="1351.5294117647059" y1="208.93453936178412" y2="208.93453936178412" /><line stroke="#089981" stroke-width="1" x1="1374.1176470588236" x2="1374.1176470588236" y1="73.914262419176" y2="385.20647401834344" /><line stroke="#089981" stroke-width="1" x1="1359.058823529412" x2="1374.1176470588236" y1="222.92483352760485" y2="222.92483352760485" /><line stroke="#089981" stroke-width="1" x1="1374.1176470588236" x2="1389.1764705882354" y1="210.63914762256127" y2="210.63914762256127" /><line stroke="#089981" stroke-width="1" x1="1411.764705882353" x2="1411.764705882353" y1="91.69258652532267" y2="354.2906531465865" /><line stroke="#089981" stroke-width="1" x1="1396.7058823529412" x2="1411.764705882353" y1="314.21459200468627" y2="314.21459200468627" /><line stroke="#089981" stroke-width="1" x1="1411.764705882353" x2="1426.8235294117646" y1="226.5314768682009" y2="226.5314768682009" /><line stroke="#089981" stroke-width="1" x1="1449.4117647058824" x2="1449.4117647058824" y1="122.10449013793254" y2="292.0354970491321" /><line stroke="#089981" stroke-width="1" x1="1434.3529411764707" x2="1449.4117647058824" y1="275.3851432355863" y2="275.3851432355863" /><line stroke="#089981" stroke-width="1" x1="1449.4117647058824" x2="1464.4705882352941" y1="253.0144323782414" y2="253.0144323782414" /><line stroke="#F23645" stroke-width="1" x1="1487.0588235294117" x2="1487.0588235294117" y1="64.15026218389698" y2="377.555797940623" /><line stroke="#F23645" stroke-width="1" x1="1472.0" x2="1487.0588235294117" y1="195.03105246726307" y2="195.03105246726307" /><line stroke="#F23645" stroke-width="1" x1="1487.0588235294117" x2="1502.1176470588234" y1="274.57559979547403" y2="274.57559979547403" /><line stroke="#F23645" stroke-width="1" x1="1524.7058823529412" x2="1524.7058823529412" y1="74.00711293161862" y2="300.3023832726299" /><line stroke="#F23645" stroke-width="1" x1="1509.6470588235295" x2="1524.7058823529412" y1="160.3783447291571" y2="160.3783447291571" /><line stroke="#F23645" stroke-width="1" x1="1524.7058823529412" x2="1539.764705882353" y1="215.44544390656858" y2="215.44544390656858" /><line stroke="#089981" stroke-width="1" x1="1562.3529411764707" x2="1562.3529411764707" y1="24.020786034160892" y2="240.6447578124869" /><line stroke="#089981" stroke-width="1" x1="1547.294117647059" x2="1562.3529411764707" y1="177.24803781481523" y2="177.24803781481523" /><line stroke="#089981" stroke-width="1" x1="1562.3529411764707" x2="1577.4117647058824" y1="145.41408750790993" y2="145.41408750790993" /><line stroke="#089981" stroke-width="1" x1="1600.0" x2="1600.0" y1="92.17569935468453" y2="366.60605834628905" /><line stroke="#089981" stroke-width="1" x1="1584.9411764705883" x2="1600.0" y1="181.10209455996846" y2="181.10209455996846" /><line stroke="#089981" stroke-width="1" x1="1600.0" x2="1615.0588235294117" y1="165.77870226570337" y2="165.77870226570337" /><line stroke="#F23645" stroke-width="1" x1="1637.6470588235295" x2="1637.6470588235295" y1="65.29358679119002" y2="273.8410065423265" /><line stroke="#F23645" stroke-width="1" x1="1622.5882352941178" x2="1637.6470588235295" y1="180.23651830741778" y2="180.23651830741778" /><line stroke="#F23645" stroke-width="1" x1="1637.6470588235295" x2="1652.7058823529412" y1="224.1345136780658" y2="224.1345136780658" /><line stroke="#089981" stroke-width="1" x1="1675.2941176470588" x2="1675.2941176470588" y1="58.8046005377131" y2="260.86027756430013" /><line stroke="#089981" stroke-width="1" x1="1660.235294117647" x2="1675.2941176470588" y1="225.46830045423712" y2="225.46830045423712" /><line stroke="#089981" stroke-width="1" x1="1675.2941176470588" x2="1690.3529411764705" y1="148.71226178355323" y2="148.71226178355323" /><line stroke="#089981" stroke-width="1" x1="1712.9411764705883" x2="1712.9411764705883" y1="99.1099381668106" y2="227.12143148291113" /><line stroke="#089981" stroke-width="1" x1="1697.8823529411766" x2="1712.9411764705883" y1="180.72805199069307" y2="180.72805199069307" /><line stroke="#089981" stroke-width="1" x1="1712.9411764705883" x2="1728.0" y1="129.37025346505425" y2="129.37025346505425" /><line stroke="#F23645" stroke-width="1" x1="1750.5882352941178" x2="1750.5882352941178" y1="7.85434637766366" y2="311.4517091145832" /><line stroke="#F23645" stroke-width="1" x1="1735.529411764706" x2="1750.5882352941178" y1="159.19870799176647" y2="159.19870799176647" /><line stroke="#F23645" stroke-width="1" x1="1750.5882352941178" x2="1765.6470588235295" y1="178.86603915431567" y2="178.86603915431567" /><line stroke="#F23645" stroke-width="1" x1="1788.235294117647" x2="1788.235294117647" y1="0.0" y2="305.84845241626954" /><line stroke="#F23645" stroke-width="1" x1="1773.1764705882354" x2="1788.235294117647" y1="79.1832172019524" y2="79.1832172019524" /><line stroke="#F23645" stroke-width="1" x1="1788.235294117647" x2="1803.2941176470588" y1="121.16484938156839" y2="121.16484938156839" /><line stroke="#F23645" stroke-width="1" x1="1825.8823529411766" x2="1825.8823529411766" y1="2.4099867862762494" y2="210.74679581890996" /><line stroke="#F23645" stroke-width="1" x1="1810.8235294117649" x2="1825.8823529411766" y1="102.85650474136685" y2="102.85650474136685" /><line stroke="#F23645" stroke-width="1" x1="1825.8823529411766" x2="1840.9411764705883" y1="116.1197301452504" y2="116.1197301452504" /><line stroke="#089981" stroke-width="1" x1="1863.5294117647059" x2="1863.5294117647059" y1="4.065230015574571" y2="211.71688688517463" /><line stroke="#089981" stroke-width="1" x1="1848.4705882352941" x2="1863.5294117647059" y1="191.27086663611726" y2="191.27086663611726" /><line stroke="#089981" stroke-width="1" x1="1863.5294117647059" x2="1878.5882352941176" y1="162.45569321968878" y2="162.45569321968878" /></g><g id="volume"><rect fill="#F23645" height="320.21684737281066" opacity="0.5" width="18.823529411764707" x="9.411764705882353" y="759.7831526271893" /><rect fill="#089981" height="289.6814011676397" opacity="0.5" width="18.823529411764707" x="47.05882352941177" y="790.3185988323603" /><rect fill="#F23645" height="244.01334445371143" opacity="0.5" width="18.823529411764707" x="84.70588235294117" y="835.9866555462886" /><rect fill="#F23645" height="322.10842368640533" opacity="0.5" width="18.823529411764707" x="122.3529411764706" y="757.8915763135947" /><rect fill="#089981" height="296.7072560467056" opacity="0.5" width="18.823529411764707" x="160.0" y="783.2927439532943" /><rect fill="#F23645" height="282.38532110091745" opacity="0.5" width="18.823529411764707" x="197.64705882352942" y="797.6146788990825" /><rect fill="#089981" height="263.4695579649708" opacity="0.5" width="18.823529411764707" x="235.29411764705884" y="816.5304420350292" /><rect fill="#F23645" height="226.4487072560467" opacity="0.5" width="18.823529411764707" x="272.94117647058823" y="853.5512927439534" /><rect fill="#F23645" height="261.8482068390325" opacity="0.5" width="18.823529411764707" x="310.5882352941177" y="818.1517931609675" /><rect fill="#089981" height="282.6555462885738" opacity="0.5" width="18.823529411764707" x="348.2352941176471" y="797.3444537114262" /><rect fill="#F23645" height="222.93577981651376" opacity="0.5" width="18.823529411764707" x="385.88235294117646" y="857.0642201834862" /><rect fill="#089981" height="311.8398665554629" opacity="0.5" width="18.823529411764707" x="423.5294117647059" y="768.1601334445371" /><rect fill="#089981" height="298.59883236030026" opacity="0.5" width="18.823529411764707" x="461.1764705882353" y="781.4011676396997" /><rect fill="#089981" height="219.4228523769808" opacity="0.5" width="18.823529411764707" x="498.8235294117647" y="860.5771476230192" /><rect fill="#089981" height="301.301084236864" opacity="0.5" width="18.823529411764707" x="536.4705882352941" y="778.698915763136" /><rect fill="#089981" height="321.5679733110926" opacity="0.5" width="18.823529411764707" x="574.1176470588235" y="758.4320266889074" /><rect fill="#089981" height="300.4904086738949" opacity="0.5" width="18.823529411764707" x="611.7647058823529" y="779.5095913261051" /><rect fill="#089981" height="225.63803169307755" opacity="0.5" width="18.823529411764707" x="649.4117647058823" y="854.3619683069224" /><rect fill="#089981" height="262.65888240200167" opacity="0.5" width="18.823529411764707" x="687.0588235294118" y="817.3411175979984" /><rect fill="#089981" height="221.31442869057548" opacity="0.5" width="18.823529411764707" x="724.7058823529412" y="858.6855713094245" /><rect fill="#F23645" height="302.65221017514597" opacity="0.5" width="18.823529411764707" x="762.3529411764706" y="777.3477898248541" /><rect fill="#F23645" height="287.24937447873225" opacity="0.5" width="18.823529411764707" x="800.0" y="792.7506255212677" /><rect fill="#F23645" height="324.0" opacity="0.5" width="18.823529411764707" x="837.6470588235294" y="756.0" /><rect fill="#089981" height="254.28190158465387" opacity="0.5" width="18.823529411764707" x="875.2941176470589" y="825.7180984153462" /><rect fill="#089981" height="316.16346955796496" opacity="0.5" width="18.823529411764707" x="912.9411764705883" y="763.836530442035" /><rect fill="#089981" height="254.55212677231026" opacity="0.5" width="18.823529411764707" x="950.5882352941177" y="825.4478732276898" /><rect fill="#089981" height="240.77064220183485" opacity="0.5" width="18.823529411764707" x="988.2352941176471" y="839.2293577981652" /><rect fill="#089981" height="311.5696413678065" opacity="0.5" width="18.823529411764707" x="1025.8823529411766" y="768.4303586321935" /><rect fill="#089981" height="302.92243536280233" opacity="0.5" width="18.823529411764707" x="1063.5294117647059" y="777.0775646371976" /><rect fill="#089981" height="293.7347789824854" opacity="0.5" width="18.823529411764707" x="1101.1764705882354" y="786.2652210175146" /><rect fill="#089981" height="274.0083402835696" opacity="0.5" width="18.823529411764707" x="1138.8235294117646" y="805.9916597164304" /><rect fill="#F23645" height="308.32693911593" opacity="0.5" width="18.823529411764707" x="1176.4705882352941" y="771.6730608840701" /><rect fill="#F23645" height="229.69140950792328" opacity="0.5" width="18.823529411764707" x="1214.1176470588236" y="850.3085904920767" /><rect fill="#089981" height="257.2543786488741" opacity="0.5" width="18.823529411764707" x="1251.764705882353" y="822.7456213511259" /><rect fill="#F23645" height="266.1718098415346" opacity="0.5" width="18.823529411764707" x="1289.4117647058824" y="813.8281901584654" /><rect fill="#089981" height="232.93411175979986" opacity="0.5" width="18.823529411764707" x="1327.0588235294117" y="847.0658882402001" /><rect fill="#089981" height="267.2527105921601" opacity="0.5" width="18.823529411764707" x="1364.7058823529412" y="812.7472894078398" /><rect fill="#089981" height="249.68807339449543" opacity="0.5" width="18.823529411764707" x="1402.3529411764707" y="830.3119266055046" /><rect fill="#089981" height="256.44370308590493" opacity="0.5" width="18.823529411764707" x="1440.0" y="823.5562969140951" /><rect fill="#F23645" height="300.7606338615513" opacity="0.5" width="18.823529411764707" x="1477.6470588235295" y="779.2393661384488" /><rect fill="#F23645" height="231.58298582151792" opacity="0.5" width="18.823529411764707" x="1515.2941176470588" y="848.4170141784821" /><rect fill="#089981" height="308.32693911593" opacity="0.5" width="18.823529411764707" x="1552.9411764705883" y="771.6730608840701" /><rect fill="#089981" height="298.32860717264384" opacity="0.5" width="18.823529411764707" x="1590.5882352941178" y="781.6713928273562" /><rect fill="#F23645" height="264.55045871559633" opacity="0.5" width="18.823529411764707" x="1628.235294117647" y="815.4495412844037" /><rect fill="#089981" height="261.8482068390325" opacity="0.5" width="18.823529411764707" x="1665.8823529411766" y="818.1517931609675" /><rect fill="#089981" height="304.00333611342785" opacity="0.5" width="18.823529411764707" x="1703.5294117647059" y="775.9966638865722" /><rect fill="#F23645" height="289.140950792327" opacity="0.5" width="18.823529411764707" x="1741.1764705882354" y="790.859049207673" /><rect fill="#F23645" height="230.50208507089243" opacity="0.5" width="18.823529411764707" x="1778.8235294117649" y="849.4979149291075" /><rect fill="#F23645" height="243.20266889074227" opacity="0.5" width="18.823529411764707" x="1816.4705882352941" y="836.7973311092577" /><rect fill="#089981" height="287.24937447873225" opacity="0.5" width="18.823529411764707" x="1854.1176470588236" y="792.7506255212677" /></g></svg>