<?xml version="1.0" encoding="utf-8" ?>
<svg baseProfile="full" height="720" version="1.1" width="2560" xmlns="http://www.w3.org/2000/svg" xmlns:ev="http://www.w3.org/2001/xml-events" xmlns:xlink="http://www.w3.org/1999/xlink"><defs /><rect fill="#131722" height="100%" width="100%" x="0" y="0" /><g id="grid" opacity="0.25" stroke="#2A2E39" stroke-width="1"><line x1="0" x2="2560" y1="50" y2="50" /><line x1="0" x2="2560" y1="100" y2="100" /><line x1="0" x2="2560" y1="150" y2="150" /><line x1="0" x2="2560" y1="201" y2="201" /><line x1="0" x2="2560" y1="251" y2="251" /><line x1="0" x2="2560" y1="301" y2="301" /><line x1="0" x2="2560" y1="352" y2="352" /><line x1="0" x2="2560" y1="402" y2="402" /><line x1="0" x2="2560" y1="452" y2="452" /><line x1="0" x2="0" y1="0" y2="720" /><line x1="359" x2="359" y1="0" y2="720" /><line x1="719" x2="719" y1="0" y2="720" /><line x1="1079" x2="1079" y1="0" y2="720" /><line x1="1438" x2="1438" y1="0" y2="720" /><line x1="1798" x2="1798" y1="0" y2="720" /><line x1="2158" x2="2158" y1="0" y2="720" /></g><g id="candles"><line stroke="#089981" stroke-width="3.3573770491803274" x1="20.983606557377048" x2="20.983606557377048" y1="391.9947470379654" y2="434.3968206997085" /><rect fill="#089981" height="5.7320985095037145" width="33.57377049180327" x="4.19672131147541" y="402.93615825861247" /><line stroke="#F23645" stroke-width="3.3573770491803274" x1="62.95081967213114" x2="62.95081967213114" y1="368.9649350057223" y2="429.0502407391384" /><rect fill="#F23645" height="17.78914756770547" width="33.57377049180327" x="46.1639344262295" y="402.93615825861247" /><line stroke="#089981" stroke-width="3.3573770491803274" x1="104.91803278688525" x2="104.91803278688525" y1="406.23475973511603" y2="428.5928848426855" /><rect fill="#089981" height="6.662024748438284" width="33.57377049180327" x="88.1311475409836" y="414.06328107787965" /><line stroke="#F23645" stroke-width="3.3573770491803274" x1="146.88524590163934" x2="146.88524590163934" y1="405.0792823852973" y2="425.6678192232115" /><rect fill="#F23645" height="9.620022907496377" width="33.57377049180327" x="130.0983606557377" y="414.06328107787965" /><line stroke="#F23645" stroke-width="3.3573770491803274" x1="188.85245901639342" x2="188.85245901639342" y1="413.0495749699303" y2="499.0345105252136" /><rect fill="#F23645" height="65.2539066205494" width="33.57377049180327" x="172.0655737704918" y="423.683303985376" /><line stroke="#089981" stroke-width="3.3573770491803274" x1="230.8196721311475" x2="230.8196721311475" y1="472.451607465056" y2="503.0" /><rect fill="#089981" height="9.441028833930147" width="33.57377049180327" x="214.03278688524588" y="479.4961817719953" /><line stroke="#089981" stroke-width="3.3573770491803274" x1="272.78688524590166" x2="272.78688524590166" y1="459.86751564203877" y2="490.2327010471771" /><rect fill="#089981" height="14.712224816454693" width="33.57377049180327" x="256.0" y="464.7839569555406" /><line stroke="#089981" stroke-width="3.3573770491803274" x1="314.75409836065575" x2="314.75409836065575" y1="401.6329789404496" y2="471.1283753867094" /><rect fill="#089981" height="56.93146133112248" width="33.57377049180327" x="297.9672131147541" y="407.8524956244181" /><line stroke="#F23645" stroke-width="3.3573770491803274" x1="356.72131147540983" x2="356.72131147540983" y1="404.3241600934681" y2="457.15290890591643" /><rect fill="#F23645" height="16.19567941503061" width="33.57377049180327" x="339.9344262295082" y="407.8524956244181" /><line stroke="#089981" stroke-width="3.3573770491803274" x1="398.6885245901639" x2="398.6885245901639" y1="380.1201703070544" y2="450.79478556984054" /><rect fill="#089981" height="26.8815124084893" width="33.57377049180327" x="381.90163934426226" y="397.1666626309594" /><line stroke="#089981" stroke-width="3.3573770491803274" x1="440.655737704918" x2="440.655737704918" y1="328.0127368009526" y2="404.24656016045685" /><rect fill="#089981" height="67.5251609477217" width="33.57377049180327" x="423.86885245901635" y="329.6415016832377" /><line stroke="#F23645" stroke-width="3.3573770491803274" x1="482.6229508196721" x2="482.6229508196721" y1="318.2062491907827" y2="343.41295218908147" /><rect fill="#F23645" height="3.4383946982592875" width="33.57377049180327" x="465.83606557377044" y="329.6415016832377" /><line stroke="#F23645" stroke-width="3.3573770491803274" x1="524.5901639344262" x2="524.5901639344262" y1="325.0381025235214" y2="366.48476907845674" /><rect fill="#F23645" height="11.382105285006958" width="33.57377049180327" x="507.8032786885246" y="333.079896381497" /><line stroke="#F23645" stroke-width="3.3573770491803274" x1="566.5573770491802" x2="566.5573770491802" y1="338.8659640463577" y2="382.10945421185824" /><rect fill="#F23645" height="21.167555538925" width="33.57377049180327" x="549.7704918032786" y="344.46200166650397" /><line stroke="#F23645" stroke-width="3.3573770491803274" x1="608.5245901639344" x2="608.5245901639344" y1="345.70059306328096" y2="393.3596926690738" /><rect fill="#F23645" height="12.556696612845201" width="33.57377049180327" x="591.7377049180327" y="365.62955720542897" /><line stroke="#F23645" stroke-width="3.3573770491803274" x1="650.4918032786884" x2="650.4918032786884" y1="362.41218553703175" y2="398.02557578358835" /><rect fill="#F23645" height="6.5916824611762195" width="33.57377049180327" x="633.7049180327867" y="378.18625381827417" /><line stroke="#F23645" stroke-width="3.3573770491803274" x1="692.4590163934425" x2="692.4590163934425" y1="383.3074489802024" y2="412.4131950761369" /><rect fill="#F23645" height="22.584123587413103" width="33.57377049180327" x="675.6721311475409" y="384.7779362794504" /><line stroke="#089981" stroke-width="3.3573770491803274" x1="734.4262295081967" x2="734.4262295081967" y1="356.46399122892615" y2="424.73003346327425" /><rect fill="#089981" height="45.86985559175622" width="33.57377049180327" x="717.639344262295" y="361.49220427510727" /><line stroke="#089981" stroke-width="3.3573770491803274" x1="776.3934426229507" x2="776.3934426229507" y1="351.55117230289204" y2="368.7033045773395" /><rect fill="#089981" height="6.356986210171556" width="33.57377049180327" x="759.6065573770491" y="355.1352180649357" /><line stroke="#089981" stroke-width="3.3573770491803274" x1="818.3606557377049" x2="818.3606557377049" y1="316.3095517441001" y2="360.47621282930896" /><rect fill="#089981" height="28.515488239879744" width="33.57377049180327" x="801.5737704918032" y="326.61972982505597" /><line stroke="#089981" stroke-width="3.3573770491803274" x1="860.3278688524589" x2="860.3278688524589" y1="301.7507549070813" y2="332.69746689198763" /><rect fill="#089981" height="11.793057236047616" width="33.57377049180327" x="843.5409836065572" y="314.82667258900835" /><line stroke="#F23645" stroke-width="3.3573770491803274" x1="902.295081967213" x2="902.295081967213" y1="308.20278426304196" y2="358.8677936926511" /><rect fill="#F23645" height="19.317943321256166" width="33.57377049180327" x="885.5081967213114" y="314.82667258900835" /><line stroke="#F23645" stroke-width="3.3573770491803274" x1="944.2622950819671" x2="944.2622950819671" y1="312.01560126135524" y2="410.5674805582104" /><rect fill="#F23645" height="26.695518801523917" width="33.57377049180327" x="927.4754098360654" y="334.1446159102645" /><line stroke="#089981" stroke-width="3.3573770491803274" x1="986.2295081967212" x2="986.2295081967212" y1="320.618266970391" y2="363.7892800614894" /><rect fill="#089981" height="8.358503840826415" width="33.57377049180327" x="969.4426229508196" y="352.481630870962" /><line stroke="#F23645" stroke-width="3.3573770491803274" x1="1028.1967213114754" x2="1028.1967213114754" y1="338.6652825843645" y2="370.40769400939894" /><rect fill="#F23645" height="1" width="33.57377049180327" x="1011.4098360655737" y="352.481630870962" /><line stroke="#F23645" stroke-width="3.3573770491803274" x1="1070.1639344262294" x2="1070.1639344262294" y1="350.8632856816771" y2="402.3256225701422" /><rect fill="#F23645" height="42.42530168669305" width="33.57377049180327" x="1053.3770491803277" y="352.59224646511166" /><line stroke="#F23645" stroke-width="3.3573770491803274" x1="1112.1311475409834" x2="1112.1311475409834" y1="374.1206189267832" y2="427.8658868165846" /><rect fill="#F23645" height="8.750811601662633" width="33.57377049180327" x="1095.3442622950818" y="395.0175481518047" /><line stroke="#F23645" stroke-width="3.3573770491803274" x1="1154.0983606557377" x2="1154.0983606557377" y1="367.3009296564044" y2="428.43291419194065" /><rect fill="#F23645" height="3.8561056864332386" width="33.57377049180327" x="1137.311475409836" y="403.76835975346734" /><line stroke="#089981" stroke-width="3.3573770491803274" x1="1196.0655737704917" x2="1196.0655737704917" y1="386.7412711083931" y2="431.0046616698479" /><rect fill="#089981" height="7.33790574576193" width="33.57377049180327" x="1179.27868852459" y="400.28655969413865" /><line stroke="#089981" stroke-width="3.3573770491803274" x1="1238.0327868852457" x2="1238.0327868852457" y1="386.05544309006825" y2="409.4677214946742" /><rect fill="#089981" height="5.574735573247153" width="33.57377049180327" x="1221.245901639344" y="394.7118241208915" /><line stroke="#089981" stroke-width="3.3573770491803274" x1="1279.9999999999998" x2="1279.9999999999998" y1="342.7466606676161" y2="400.8868843985975" /><rect fill="#089981" height="51.81068789720024" width="33.57377049180327" x="1263.2131147540981" y="342.90113622369125" /><line stroke="#F23645" stroke-width="3.3573770491803274" x1="1321.967213114754" x2="1321.967213114754" y1="340.47762684119806" y2="371.4875345935352" /><rect fill="#F23645" height="18.163345254549142" width="33.57377049180327" x="1305.1803278688524" y="342.90113622369125" /><line stroke="#F23645" stroke-width="3.3573770491803274" x1="1363.934426229508" x2="1363.934426229508" y1="347.3217241393197" y2="402.4052310806875" /><rect fill="#F23645" height="20.547742083096978" width="33.57377049180327" x="1347.1475409836064" y="361.0644814782404" /><line stroke="#089981" stroke-width="3.3573770491803274" x1="1405.901639344262" x2="1405.901639344262" y1="287.90462419544" y2="385.08993279329593" /><rect fill="#089981" height="88.22596923330485" width="33.57377049180327" x="1389.1147540983604" y="293.3862543280325" /><line stroke="#089981" stroke-width="3.3573770491803274" x1="1447.8688524590164" x2="1447.8688524590164" y1="247.4445585409564" y2="315.6927457245682" /><rect fill="#089981" height="25.04587072418957" width="33.57377049180327" x="1431.0819672131147" y="268.34038360384295" /><line stroke="#089981" stroke-width="3.3573770491803274" x1="1489.8360655737704" x2="1489.8360655737704" y1="222.39923687876717" y2="282.65554744783395" /><rect fill="#089981" height="42.11845593259051" width="33.57377049180327" x="1473.0491803278687" y="226.22192767125244" /><line stroke="#F23645" stroke-width="3.3573770491803274" x1="1531.8032786885244" x2="1531.8032786885244" y1="177.57922348507748" y2="283.3113612977675" /><rect fill="#F23645" height="43.52134248518894" width="33.57377049180327" x="1515.0163934426228" y="226.22192767125244" /><line stroke="#F23645" stroke-width="3.3573770491803274" x1="1573.7704918032784" x2="1573.7704918032784" y1="257.05358599152044" y2="299.7735221442999" /><rect fill="#F23645" height="10.933915620972869" width="33.57377049180327" x="1556.9836065573768" y="269.7432701564414" /><line stroke="#089981" stroke-width="3.3573770491803274" x1="1615.7377049180327" x2="1615.7377049180327" y1="259.5399484256229" y2="299.34275309285835" /><rect fill="#089981" height="4.921724368887169" width="33.57377049180327" x="1598.950819672131" y="275.7554614085271" /><line stroke="#089981" stroke-width="3.3573770491803274" x1="1657.7049180327867" x2="1657.7049180327867" y1="223.6672676174701" y2="301.06618984392696" /><rect fill="#089981" height="42.97256826171645" width="33.57377049180327" x="1640.918032786885" y="232.78289314681064" /><line stroke="#089981" stroke-width="3.3573770491803274" x1="1699.6721311475408" x2="1699.6721311475408" y1="184.5989441076104" y2="247.0973153120985" /><rect fill="#089981" height="15.47271957472924" width="33.57377049180327" x="1682.885245901639" y="217.3101735720814" /><line stroke="#F23645" stroke-width="3.3573770491803274" x1="1741.639344262295" x2="1741.639344262295" y1="201.04193759619602" y2="257.6064259375613" /><rect fill="#F23645" height="23.7887374157159" width="33.57377049180327" x="1724.8524590163934" y="217.3101735720814" /><line stroke="#089981" stroke-width="3.3573770491803274" x1="1783.606557377049" x2="1783.606557377049" y1="225.36660888255483" y2="246.9929033800068" /><rect fill="#089981" height="5.478653246781619" width="33.57377049180327" x="1766.8196721311474" y="235.62025774101568" /><line stroke="#089981" stroke-width="3.3573770491803274" x1="1825.573770491803" x2="1825.573770491803" y1="210.46924543340867" y2="248.746970419754" /><rect fill="#089981" height="17.507561706470426" width="33.57377049180327" x="1808.7868852459014" y="218.11269603454525" /><line stroke="#F23645" stroke-width="3.3573770491803274" x1="1867.5409836065571" x2="1867.5409836065571" y1="178.9535378142636" y2="252.7040699796404" /><rect fill="#F23645" height="30.06373630804157" width="33.57377049180327" x="1850.7540983606555" y="218.11269603454525" /><line stroke="#089981" stroke-width="3.3573770491803274" x1="1909.5081967213114" x2="1909.5081967213114" y1="217.0607720205515" y2="265.5266005059277" /><rect fill="#089981" height="16.668070687264304" width="33.57377049180327" x="1892.7213114754097" y="231.50836165532252" /><line stroke="#089981" stroke-width="3.3573770491803274" x1="1951.4754098360654" x2="1951.4754098360654" y1="166.72189918810386" y2="260.0882703048018" /><rect fill="#089981" height="53.51977902754504" width="33.57377049180327" x="1934.6885245901638" y="177.98858262777748" /><line stroke="#089981" stroke-width="3.3573770491803274" x1="1993.4426229508194" x2="1993.4426229508194" y1="61.172795676440444" y2="197.17170832224775" /><rect fill="#089981" height="107.1717258447809" width="33.57377049180327" x="1976.6557377049178" y="70.81685678299658" /><line stroke="#F23645" stroke-width="3.3573770491803274" x1="2035.4098360655737" x2="2035.4098360655737" y1="44.45434508424751" y2="116.39243732913508" /><rect fill="#F23645" height="11.783673263779349" width="33.57377049180327" x="2018.622950819672" y="70.81685678299658" /><line stroke="#F23645" stroke-width="3.3573770491803274" x1="2077.3770491803275" x2="2077.3770491803275" y1="75.6277425411422" y2="118.77870828261536" /><rect fill="#F23645" height="26.115961982221222" width="33.57377049180327" x="2060.590163934426" y="82.60053004677593" /><line stroke="#089981" stroke-width="3.3573770491803274" x1="2119.3442622950815" x2="2119.3442622950815" y1="87.16482379504265" y2="126.92284911663216" /><rect fill="#089981" height="20.465785003324925" width="33.57377049180327" x="2102.55737704918" y="88.25070702567223" /><line stroke="#089981" stroke-width="3.3573770491803274" x1="2161.3114754098356" x2="2161.3114754098356" y1="64.46422495116934" y2="110.06323826171547" /><rect fill="#089981" height="17.459684319175608" width="33.57377049180327" x="2144.524590163934" y="70.79102270649662" /><line stroke="#F23645" stroke-width="3.3573770491803274" x1="2203.2786885245896" x2="2203.2786885245896" y1="43.880759744135446" y2="91.40830380116813" /><rect fill="#F23645" height="13.28669980256285" width="33.57377049180327" x="2186.491803278688" y="70.79102270649662" /><line stroke="#089981" stroke-width="3.3573770491803274" x1="2245.2459016393436" x2="2245.2459016393436" y1="44.14270184477732" y2="89.87420642265181" /><rect fill="#089981" height="13.770636860329773" width="33.57377049180327" x="2228.459016393442" y="70.3070856487297" /><line stroke="#089981" stroke-width="3.3573770491803274" x1="2287.213114754098" x2="2287.213114754098" y1="15.028276244319386" y2="98.20338016349268" /><rect fill="#089981" height="48.90513849690535" width="33.57377049180327" x="2270.4262295081967" y="21.401947151824345" /><line stroke="#F23645" stroke-width="3.3573770491803274" x1="2329.180327868852" x2="2329.180327868852" y1="0.0" y2="70.4489627667287" /><rect fill="#F23645" height="37.09234577570015" width="33.57377049180327" x="2312.3934426229507" y="21.401947151824345" /><line stroke="#F23645" stroke-width="3.3573770491803274" x1="2371.147540983606" x2="2371.147540983606" y1="53.75318632837411" y2="86.01451575740373" /><rect fill="#F23645" height="17.31724946559558" width="33.57377049180327" x="2354.3606557377047" y="58.4942929275245" /><line stroke="#F23645" stroke-width="3.3573770491803274" x1="2413.11475409836" x2="2413.11475409836" y1="71.54490520090587" y2="176.75797419552651" /><rect fill="#F23645" height="79.86761365916732" width="33.57377049180327" x="2396.327868852459" y="75.81154239312008" /><line stroke="#089981" stroke-width="3.3573770491803274" x1="2455.0819672131142" x2="2455.0819672131142" y1="93.0673045250117" y2="163.54563732151826" /><rect fill="#089981" height="60.442583401677894" width="33.57377049180327" x="2438.295081967213" y="95.2365726506095" /><line stroke="#089981" stroke-width="3.3573770491803274" x1="2497.0491803278683" x2="2497.0491803278683" y1="42.54288548169461" y2="102.22816586533366" /><rect fill="#089981" height="20.030325419018084" width="33.57377049180327" x="2480.262295081967" y="75.20624723159142" /></g><g id="volume"><rect fill="#089981" height="146.4502617801047" opacity="0.5" width="33.57377049180327" x="4.19672131147541" y="573.5497382198953" /><rect fill="#F23645" height="202.733789770439" opacity="0.5" width="33.57377049180327" x="46.1639344262295" y="517.266210229561" /><rect fill="#089981" height="120.80950463149415" opacity="0.5" width="33.57377049180327" x="88.1311475409836" y="599.1904953685058" /><rect fill="#F23645" height="81.4893274265002" opacity="0.5" width="33.57377049180327" x="130.0983606557377" y="638.5106725734998" /><rect fill="#F23645" height="189.94603302456707" opacity="0.5" width="33.57377049180327" x="172.0655737704918" y="530.0539669754329" /><rect fill="#089981" height="139.03423278292388" opacity="0.5" width="33.57377049180327" x="214.03278688524588" y="580.9657672170761" /><rect fill="#089981" height="141.0567861457914" opacity="0.5" width="33.57377049180327" x="256.0" y="578.9432138542086" /><rect fill="#089981" height="90.29722110350383" opacity="0.5" width="33.57377049180327" x="297.9672131147541" y="629.7027788964962" /><rect fill="#F23645" height="105.32501006846556" opacity="0.5" width="33.57377049180327" x="339.9344262295082" y="614.6749899315345" /><rect fill="#089981" height="207.23560209424085" opacity="0.5" width="33.57377049180327" x="381.90163934426226" y="512.7643979057591" /><rect fill="#089981" height="210.60652436568665" opacity="0.5" width="33.57377049180327" x="423.86885245901635" y="509.39347563431335" /><rect fill="#F23645" height="136.09826822392267" opacity="0.5" width="33.57377049180327" x="465.83606557377044" y="583.9017317760773" /><rect fill="#F23645" height="99.19210632299637" opacity="0.5" width="33.57377049180327" x="507.8032786885246" y="620.8078936770037" /><rect fill="#F23645" height="89.25332259363672" opacity="0.5" width="33.57377049180327" x="549.7704918032786" y="630.7466774063632" /><rect fill="#F23645" height="199.08014498590416" opacity="0.5" width="33.57377049180327" x="591.7377049180327" y="520.9198550140959" /><rect fill="#F23645" height="172.63471606927104" opacity="0.5" width="33.57377049180327" x="633.7049180327867" y="547.365283930729" /><rect fill="#F23645" height="212.15062424486507" opacity="0.5" width="33.57377049180327" x="675.6721311475409" y="507.84937575513493" /><rect fill="#089981" height="58.24083769633508" opacity="0.5" width="33.57377049180327" x="717.639344262295" y="661.7591623036649" /><rect fill="#089981" height="90.40596053161498" opacity="0.5" width="33.57377049180327" x="759.6065573770491" y="629.5940394683851" /><rect fill="#089981" height="100.62746677406363" opacity="0.5" width="33.57377049180327" x="801.5737704918032" y="619.3725332259364" /><rect fill="#089981" height="143.36206202174787" opacity="0.5" width="33.57377049180327" x="843.5409836065572" y="576.6379379782521" /><rect fill="#F23645" height="149.27748691099475" opacity="0.5" width="33.57377049180327" x="885.5081967213114" y="570.7225130890052" /><rect fill="#F23645" height="36.16673378977044" opacity="0.5" width="33.57377049180327" x="927.4754098360654" y="683.8332662102296" /><rect fill="#089981" height="135.53282319774468" opacity="0.5" width="33.57377049180327" x="969.4426229508196" y="584.4671768022554" /><rect fill="#F23645" height="186.03141361256544" opacity="0.5" width="33.57377049180327" x="1011.4098360655737" y="533.9685863874346" /><rect fill="#F23645" height="124.76761981474024" opacity="0.5" width="33.57377049180327" x="1053.3770491803277" y="595.2323801852598" /><rect fill="#F23645" height="135.90253725332258" opacity="0.5" width="33.57377049180327" x="1095.3442622950818" y="584.0974627466774" /><rect fill="#F23645" height="98.08296415626258" opacity="0.5" width="33.57377049180327" x="1137.311475409836" y="621.9170358437374" /><rect fill="#089981" height="85.49093838099074" opacity="0.5" width="33.57377049180327" x="1179.27868852459" y="634.5090616190092" /><rect fill="#089981" height="114.87233185662504" opacity="0.5" width="33.57377049180327" x="1221.245901639344" y="605.127668143375" /><rect fill="#089981" height="203.0817559403947" opacity="0.5" width="33.57377049180327" x="1263.2131147540981" y="516.9182440596053" /><rect fill="#F23645" height="167.32823197744665" opacity="0.5" width="33.57377049180327" x="1305.1803278688524" y="552.6717680225534" /><rect fill="#F23645" height="213.45549738219893" opacity="0.5" width="33.57377049180327" x="1347.1475409836064" y="506.5445026178011" /><rect fill="#089981" height="120.65726943213855" opacity="0.5" width="33.57377049180327" x="1389.1147540983604" y="599.3427305678615" /><rect fill="#089981" height="70.78936770036246" opacity="0.5" width="33.57377049180327" x="1431.0819672131147" y="649.2106322996375" /><rect fill="#089981" height="77.35722915827628" opacity="0.5" width="33.57377049180327" x="1473.0491803278687" y="642.6427708417237" /><rect fill="#F23645" height="42.53886427708417" opacity="0.5" width="33.57377049180327" x="1515.0163934426228" y="677.4611357229159" /><rect fill="#F23645" height="108.45670559806686" opacity="0.5" width="33.57377049180327" x="1556.9836065573768" y="611.5432944019332" /><rect fill="#089981" height="120.80950463149415" opacity="0.5" width="33.57377049180327" x="1598.950819672131" y="599.1904953685058" /><rect fill="#089981" height="96.47362062021747" opacity="0.5" width="33.57377049180327" x="1640.918032786885" y="623.5263793797825" /><rect fill="#089981" height="174.46153846153845" opacity="0.5" width="33.57377049180327" x="1682.885245901639" y="545.5384615384615" /><rect fill="#F23645" height="122.70157068062828" opacity="0.5" width="33.57377049180327" x="1724.8524590163934" y="597.2984293193717" /><rect fill="#089981" height="44.80064438179622" opacity="0.5" width="33.57377049180327" x="1766.8196721311474" y="675.1993556182038" /><rect fill="#089981" height="43.060813532017725" opacity="0.5" width="33.57377049180327" x="1808.7868852459014" y="676.9391864679823" /><rect fill="#F23645" height="149.06000805477245" opacity="0.5" width="33.57377049180327" x="1850.7540983606555" y="570.9399919452276" /><rect fill="#089981" height="38.79822795006041" opacity="0.5" width="33.57377049180327" x="1892.7213114754097" y="681.2017720499396" /><rect fill="#089981" height="61.78574305275876" opacity="0.5" width="33.57377049180327" x="1934.6885245901638" y="658.2142569472412" /><rect fill="#089981" height="166.48006443817962" opacity="0.5" width="33.57377049180327" x="1976.6557377049178" y="553.5199355618204" /><rect fill="#F23645" height="40.29883205799436" opacity="0.5" width="33.57377049180327" x="2018.622950819672" y="679.7011679420057" /><rect fill="#F23645" height="125.63753523962947" opacity="0.5" width="33.57377049180327" x="2060.590163934426" y="594.3624647603706" /><rect fill="#089981" height="89.68828030608135" opacity="0.5" width="33.57377049180327" x="2102.55737704918" y="630.3117196939187" /><rect fill="#089981" height="173.24365686669353" opacity="0.5" width="33.57377049180327" x="2144.524590163934" y="546.7563431333065" /><rect fill="#F23645" height="216.0" opacity="0.5" width="33.57377049180327" x="2186.491803278688" y="504.0" /><rect fill="#089981" height="135.6415626258558" opacity="0.5" width="33.57377049180327" x="2228.459016393442" y="584.3584373741442" /><rect fill="#089981" height="174.07007652033832" opacity="0.5" width="33.57377049180327" x="2270.4262295081967" y="545.9299234796617" /><rect fill="#F23645" height="81.42408376963351" opacity="0.5" width="33.57377049180327" x="2312.3934426229507" y="638.5759162303665" /><rect fill="#F23645" height="165.65364478453483" opacity="0.5" width="33.57377049180327" x="2354.3606557377047" y="554.3463552154651" /><rect fill="#F23645" height="149.6472009665727" opacity="0.5" width="33.57377049180327" x="2396.327868852459" y="570.3527990334273" /><rect fill="#089981" height="171.9170358437374" opacity="0.5" width="33.57377049180327" x="2438.295081967213" y="548.0829641562626" /><rect fill="#089981" height="83.49013290374548" opacity="0.5" width="33.57377049180327" x="2480.262295081967" y="636.5098670962545" /></g></svg>