<?xml version="1.0" encoding="utf-8" ?>
<svg baseProfile="full" height="1080" version="1.1" width="1920" xmlns="http://www.w3.org/2000/svg" xmlns:ev="http://www.w3.org/2001/xml-events" xmlns:xlink="http://www.w3.org/1999/xlink"><defs /><rect fill="#131722" height="100%" width="100%" x="0" y="0" /><g id="grid" opacity="0.25" stroke="#2A2E39" stroke-width="1"><line x1="0" x2="1920" y1="75" y2="75" /><line x1="0" x2="1920" y1="151" y2="151" /><line x1="0" x2="1920" y1="226" y2="226" /><line x1="0" x2="1920" y1="302" y2="302" /><line x1="0" x2="1920" y1="378" y2="378" /><line x1="0" x2="1920" y1="453" y2="453" /><line x1="0" x2="1920" y1="529" y2="529" /><line x1="0" x2="1920" y1="604" y2="604" /><line x1="0" x2="1920" y1="680" y2="680" /><line x1="0" x2="0" y1="0" y2="1080" /><line x1="210" x2="210" y1="0" y2="1080" /><line x1="421" x2="421" y1="0" y2="1080" /><line x1="632" x2="632" y1="0" y2="1080" /><line x1="842" x2="842" y1="0" y2="1080" /><line x1="1053" x2="1053" y1="0" y2="1080" /><line x1="1264" x2="1264" y1="0" y2="1080" /><line x1="1474" x2="1474" y1="0" y2="1080" /><line x1="1685" x2="1685" y1="0" y2="1080" /></g><g id="candles"><line stroke="#089981" stroke-width="1.8962962962962964" x1="11.851851851851851" x2="11.851851851851851" y1="610.0026415653766" y2="665.7710901889934" /><rect fill="#089981" height="7.539023769990422" width="18.962962962962962" x="2.3703703703703702" y="624.3931059185164" /><line stroke="#F23645" stroke-width="1.8962962962962964" x1="35.55555555555556" x2="35.55555555555556" y1="579.713158570339" y2="658.739111700825" /><rect fill="#F23645" height="23.396807667984604" width="18.962962962962962" x="26.074074074074073" y="624.3931059185164" /><line stroke="#089981" stroke-width="1.8962962962962964" x1="59.25925925925925" x2="59.25925925925925" y1="628.7315231487603" y2="658.1375838364684" /><rect fill="#089981" height="8.76208998353195" width="18.962962962962962" x="49.77777777777777" y="639.0278236029691" /><line stroke="#F23645" stroke-width="1.8962962962962964" x1="82.96296296296296" x2="82.96296296296296" y1="627.2118055110528" y2="654.2904519008544" /><rect fill="#F23645" height="12.652535759324678" width="18.962962962962962" x="73.48148148148148" y="639.0278236029691" /><line stroke="#F23645" stroke-width="1.8962962962962964" x1="106.66666666666666" x2="106.66666666666666" y1="637.6945676529982" y2="750.7844721509069" /><rect fill="#F23645" height="85.82384833083654" width="18.962962962962962" x="97.18518518518518" y="651.6803593622938" /><line stroke="#089981" stroke-width="1.8962962962962964" x1="130.37037037037035" x2="130.37037037037035" y1="715.8218598172901" y2="756.0" /><rect fill="#089981" height="12.417117513621974" width="18.962962962962962" x="120.88888888888887" y="725.0870901795083" /><line stroke="#089981" stroke-width="1.8962962962962964" x1="154.07407407407408" x2="154.07407407407408" y1="699.270893845548" y2="739.2080746476495" /><rect fill="#089981" height="19.349948786958066" width="18.962962962962962" x="144.5925925925926" y="705.7371413925503" /><line stroke="#089981" stroke-width="1.8962962962962964" x1="177.77777777777777" x2="177.77777777777777" y1="622.6791263279877" y2="714.0815062495124" /><rect fill="#089981" height="74.87792464208474" width="18.962962962962962" x="168.2962962962963" y="630.8592167504655" /><line stroke="#F23645" stroke-width="1.8962962962962964" x1="201.48148148148147" x2="201.48148148148147" y1="626.2186465662247" y2="695.7005635946163" /><rect fill="#F23645" height="21.301031703942613" width="18.962962962962962" x="192.0" y="630.8592167504655" /><line stroke="#089981" stroke-width="1.8962962962962964" x1="225.18518518518516" x2="225.18518518518516" y1="594.3848506142116" y2="687.3381736455018" /><rect fill="#089981" height="35.35535209049306" width="18.962962962962962" x="215.7037037037037" y="616.8048963639151" /><line stroke="#089981" stroke-width="1.8962962962962964" x1="248.88888888888886" x2="248.88888888888886" y1="525.8516285936237" y2="626.1165848625482" /><rect fill="#089981" height="88.81106851413529" width="18.962962962962962" x="239.4074074074074" y="527.9938278497798" /><line stroke="#F23645" stroke-width="1.8962962962962964" x1="272.59259259259255" x2="272.59259259259255" y1="512.9538489984874" y2="546.1064427217445" /><rect fill="#F23645" height="4.522277368019445" width="18.962962962962962" x="263.1111111111111" y="527.9938278497798" /><line stroke="#F23645" stroke-width="1.8962962962962964" x1="296.2962962962963" x2="296.2962962962963" y1="521.9393025079152" y2="576.4511717345973" /><rect fill="#F23645" height="14.97007808814351" width="18.962962962962962" x="286.81481481481484" y="532.5161052177992" /><line stroke="#F23645" stroke-width="1.8962962962962964" x1="320.0" x2="320.0" y1="540.1261108008915" y2="597.0012150431743" /><rect fill="#F23645" height="27.84018873645732" width="18.962962962962962" x="310.51851851851853" y="547.4861833059427" /><line stroke="#F23645" stroke-width="1.8962962962962964" x1="343.7037037037037" x2="343.7037037037037" y1="549.1152149714184" y2="611.7978580189338" /><rect fill="#F23645" height="16.51493498931427" width="18.962962962962962" x="334.22222222222223" y="575.3263720424001" /><line stroke="#F23645" stroke-width="1.8962962962962964" x1="367.4074074074074" x2="367.4074074074074" y1="571.0947906338243" y2="617.9345640874008" /><rect fill="#F23645" height="8.669573748016205" width="18.962962962962962" x="357.9259259259259" y="591.8413070317143" /><line stroke="#F23645" stroke-width="1.8962962962962964" x1="391.1111111111111" x2="391.1111111111111" y1="598.5768528344468" y2="636.8575821863147" /><rect fill="#F23645" height="29.70330050462644" width="18.962962962962962" x="381.6296296296296" y="600.5108807797305" /><line stroke="#089981" stroke-width="1.8962962962962964" x1="414.8148148148148" x2="414.8148148148148" y1="563.271551343191" y2="653.0570486151985" /><rect fill="#089981" height="60.329376939165854" width="18.962962962962962" x="405.3333333333333" y="569.8848043451911" /><line stroke="#089981" stroke-width="1.8962962962962964" x1="438.5185185185185" x2="438.5185185185185" y1="556.8100680662337" y2="579.3690545715574" /><rect fill="#089981" height="8.360894367835044" width="18.962962962962962" x="429.037037037037" y="561.5239099773561" /><line stroke="#089981" stroke-width="1.8962962962962964" x1="462.2222222222222" x2="462.2222222222222" y1="510.4592569897645" y2="568.5485426519768" /><rect fill="#089981" height="37.5044049394661" width="18.962962962962962" x="452.7407407407407" y="524.01950503789" /><line stroke="#089981" stroke-width="1.8962962962962964" x1="485.92592592592587" x2="485.92592592592587" y1="491.3111011730477" y2="532.0131227573659" /><rect fill="#089981" height="15.510574124993354" width="18.962962962962962" x="476.4444444444444" y="508.50893091289663" /><line stroke="#F23645" stroke-width="1.8962962962962964" x1="509.6296296296296" x2="509.6296296296296" y1="499.79699906866426" y2="566.4331027161022" /><rect fill="#F23645" height="25.40752459937903" width="18.962962962962962" x="500.14814814814815" y="508.50893091289663" /><line stroke="#F23645" stroke-width="1.8962962962962964" x1="533.3333333333333" x2="533.3333333333333" y1="504.81172760713036" y2="634.4300444180448" /><rect fill="#F23645" height="35.1107278535485" width="18.962962962962962" x="523.8518518518517" y="533.9164555122757" /><line stroke="#089981" stroke-width="1.8962962962962964" x1="557.037037037037" x2="557.037037037037" y1="516.1262053953562" y2="572.9059856675798" /><rect fill="#089981" height="10.993348951185908" width="18.962962962962962" x="547.5555555555554" y="558.0338344146382" /><line stroke="#F23645" stroke-width="1.8962962962962964" x1="580.7407407407408" x2="580.7407407407408" y1="539.8621686670194" y2="581.6107174495264" /><rect fill="#F23645" height="1" width="18.962962962962962" x="571.2592592592592" y="558.0338344146382" /><line stroke="#F23645" stroke-width="1.8962962962962964" x1="604.4444444444445" x2="604.4444444444445" y1="555.905339443758" y2="623.590111507277" /><rect fill="#F23645" height="55.79899880204391" width="18.962962962962962" x="594.9629629629629" y="558.1793192823953" /><line stroke="#F23645" stroke-width="1.8962962962962964" x1="628.1481481481482" x2="628.1481481481482" y1="586.49406499876" y2="657.181414749279" /><rect fill="#F23645" height="11.5093236032601" width="18.962962962962962" x="618.6666666666666" y="613.9783180844393" /><line stroke="#F23645" stroke-width="1.8962962962962964" x1="651.8518518518518" x2="651.8518518518518" y1="577.5246100202575" y2="657.9271857533812" /><rect fill="#F23645" height="5.071663088381342" width="18.962962962962962" x="642.3703703703703" y="625.4876416876994" /><line stroke="#089981" stroke-width="1.8962962962962964" x1="675.5555555555555" x2="675.5555555555555" y1="603.0931162244474" y2="661.3096233256264" /><rect fill="#089981" height="9.651028457994585" width="18.962962962962962" x="666.074074074074" y="620.9082763180861" /><line stroke="#089981" stroke-width="1.8962962962962964" x1="699.2592592592592" x2="699.2592592592592" y1="602.1910951367596" y2="632.9836091016392" /><rect fill="#089981" height="7.332055429340471" width="18.962962962962962" x="689.7777777777777" y="613.5762208887456" /><line stroke="#089981" stroke-width="1.8962962962962964" x1="722.9629629629629" x2="722.9629629629629" y1="545.2301166066677" y2="621.6978409442215" /><rect fill="#089981" height="68.14293350837215" width="18.962962962962962" x="713.4814814814814" y="545.4332873803735" /><line stroke="#F23645" stroke-width="1.8962962962962964" x1="746.6666666666666" x2="746.6666666666666" y1="542.2458168909675" y2="583.030955398701" /><rect fill="#F23645" height="23.888963420561595" width="18.962962962962962" x="737.1851851851851" y="545.4332873803735" /><line stroke="#F23645" stroke-width="1.8962962962962964" x1="770.3703703703703" x2="770.3703703703703" y1="551.2473740221157" y2="623.6948149509285" /><rect fill="#F23645" height="27.02499193397739" width="18.962962962962962" x="760.8888888888888" y="569.3222508009351" /><line stroke="#089981" stroke-width="1.8962962962962964" x1="794.074074074074" x2="794.074074074074" y1="473.10026470811465" y2="600.9212277286073" /><rect fill="#089981" height="116.03737759871842" width="18.962962962962962" x="784.5925925925925" y="480.30986513619405" /><line stroke="#089981" stroke-width="1.8962962962962964" x1="817.7777777777777" x2="817.7777777777777" y1="419.8860018689827" y2="509.6480156555456" /><rect fill="#089981" height="32.941062407896766" width="18.962962962962962" x="808.2962962962962" y="447.3688027282973" /><line stroke="#089981" stroke-width="1.8962962962962964" x1="841.4814814814814" x2="841.4814814814814" y1="386.94566160350297" y2="466.1965253000959" /><rect fill="#089981" height="55.39542628317241" width="18.962962962962962" x="831.9999999999999" y="391.97337644512487" /><line stroke="#F23645" stroke-width="1.8962962962962964" x1="865.1851851851851" x2="865.1851851851851" y1="327.99706785793364" y2="467.0590708748345" /><rect fill="#F23645" height="57.24054374741422" width="18.962962962962962" x="855.7037037037036" y="391.97337644512487" /><line stroke="#F23645" stroke-width="1.8962962962962964" x1="888.8888888888888" x2="888.8888888888888" y1="432.52407608145216" y2="488.7105867588766" /><rect fill="#F23645" height="14.380605921010556" width="18.962962962962962" x="879.4074074074073" y="449.2139201925391" /><line stroke="#089981" stroke-width="1.8962962962962964" x1="912.5925925925925" x2="912.5925925925925" y1="435.79421274439187" y2="488.1440266914232" /><rect fill="#089981" height="6.473195976109423" width="18.962962962962962" x="903.111111111111" y="457.1213301374402" /><line stroke="#089981" stroke-width="1.8962962962962964" x1="936.2962962962962" x2="936.2962962962962" y1="388.61341275333234" y2="490.4107411609738" /><rect fill="#089981" height="56.518779823040404" width="18.962962962962962" x="926.8148148148147" y="400.6025503143998" /><line stroke="#089981" stroke-width="1.8962962962962964" x1="959.9999999999999" x2="959.9999999999999" y1="337.2296099268155" y2="419.4292974086551" /><rect fill="#089981" height="20.350173756936954" width="18.962962962962962" x="950.5185185185184" y="380.25237655746287" /><line stroke="#F23645" stroke-width="1.8962962962962964" x1="983.7037037037037" x2="983.7037037037037" y1="358.85591634055123" y2="433.25118736317427" /><rect fill="#F23645" height="31.287643877332926" width="18.962962962962962" x="974.2222222222222" y="380.25237655746287" /><line stroke="#089981" stroke-width="1.8962962962962964" x1="1007.4074074074074" x2="1007.4074074074074" y1="390.84843613430843" y2="419.29197177885214" /><rect fill="#089981" height="7.205685140710898" width="18.962962962962962" x="997.9259259259259" y="404.3343352940849" /><line stroke="#089981" stroke-width="1.8962962962962964" x1="1031.111111111111" x2="1031.111111111111" y1="371.25498759760075" y2="421.5989721007911" /><rect fill="#089981" height="23.02645769970951" width="18.962962962962962" x="1021.6296296296296" y="381.3078775943754" /><line stroke="#F23645" stroke-width="1.8962962962962964" x1="1054.8148148148148" x2="1054.8148148148148" y1="329.80460629747614" y2="426.8034652881884" /><rect fill="#F23645" height="39.54070612451392" width="18.962962962962962" x="1045.3333333333333" y="381.3078775943754" /><line stroke="#089981" stroke-width="1.8962962962962964" x1="1078.5185185185185" x2="1078.5185185185185" y1="379.924356335525" y2="443.6680328228936" /><rect fill="#089981" height="21.922334534694983" width="18.962962962962962" x="1069.037037037037" y="398.9262491841943" /><line stroke="#089981" stroke-width="1.8962962962962964" x1="1102.2222222222222" x2="1102.2222222222222" y1="313.7171970884995" y2="436.51538173230813" /><rect fill="#089981" height="70.39078019757096" width="18.962962962962962" x="1092.7407407407406" y="328.53546898662336" /><line stroke="#089981" stroke-width="1.8962962962962964" x1="1125.9259259259259" x2="1125.9259259259259" y1="174.89592614273715" y2="353.76567749639446" /><rect fill="#089981" height="140.95539134142672" width="18.962962962962962" x="1116.4444444444443" y="187.58007764519664" /><line stroke="#F23645" stroke-width="1.8962962962962964" x1="1149.6296296296298" x2="1149.6296296296298" y1="152.907330482181" y2="247.52241542930471" /><rect fill="#F23645" height="15.498232049945273" width="18.962962962962962" x="1140.1481481481483" y="187.58007764519664" /><line stroke="#F23645" stroke-width="1.8962962962962964" x1="1173.3333333333335" x2="1173.3333333333335" y1="193.90749543559832" y2="250.66090884669768" /><rect fill="#F23645" height="34.34847775796152" width="18.962962962962962" x="1163.851851851852" y="203.0783096951419" /><line stroke="#089981" stroke-width="1.8962962962962964" x1="1197.0370370370372" x2="1197.0370370370372" y1="209.08140245503603" y2="261.37232129573437" /><rect fill="#089981" height="26.917199583323168" width="18.962962962962962" x="1187.5555555555557" y="210.50958786978026" /><line stroke="#089981" stroke-width="1.8962962962962964" x1="1220.7407407407409" x2="1220.7407407407409" y1="179.2249102832369" y2="239.19806752510067" /><rect fill="#089981" height="22.96348795830295" width="18.962962962962962" x="1211.2592592592594" y="187.5460999114773" /><line stroke="#F23645" stroke-width="1.8962962962962964" x1="1244.4444444444446" x2="1244.4444444444446" y1="152.15293425084394" y2="214.6625515892698" /><rect fill="#F23645" height="17.475056555669994" width="18.962962962962962" x="1234.962962962963" y="187.5460999114773" /><line stroke="#089981" stroke-width="1.8962962962962964" x1="1268.1481481481483" x2="1268.1481481481483" y1="152.49744817010503" y2="212.64486180551273" /><rect fill="#089981" height="18.11154474156467" width="18.962962962962962" x="1258.6666666666667" y="186.90961172558264" /><line stroke="#089981" stroke-width="1.8962962962962964" x1="1291.851851851852" x2="1291.851851851852" y1="114.20530327979066" y2="223.5996349505432" /><rect fill="#089981" height="64.32146987557053" width="18.962962962962962" x="1282.3703703703704" y="122.58814185001211" /><line stroke="#F23645" stroke-width="1.8962962962962964" x1="1315.5555555555557" x2="1315.5555555555557" y1="94.43967440232802" y2="187.09621266470447" /><rect fill="#F23645" height="48.78493906273093" width="18.962962962962962" x="1306.0740740740741" y="122.58814185001211" /><line stroke="#F23645" stroke-width="1.8962962962962964" x1="1339.2592592592594" x2="1339.2592592592594" y1="165.1374387150745" y2="207.56848364804193" /><rect fill="#F23645" height="22.776153469016776" width="18.962962962962962" x="1329.7777777777778" y="171.37308091274303" /><line stroke="#F23645" stroke-width="1.8962962962962964" x1="1362.962962962963" x2="1362.962962962963" y1="188.53762823844306" y2="326.9169367497981" /><rect fill="#F23645" height="105.0442236522224" width="18.962962962962962" x="1353.4814814814815" y="194.1492343817598" /><line stroke="#089981" stroke-width="1.8962962962962964" x1="1386.6666666666667" x2="1386.6666666666667" y1="216.84451790941432" y2="309.53968449477816" /><rect fill="#089981" height="79.4958551792813" width="18.962962962962962" x="1377.1851851851852" y="219.6976028547009" /><line stroke="#089981" stroke-width="1.8962962962962964" x1="1410.3703703703704" x2="1410.3703703703704" y1="150.3933228538874" y2="228.89315093338757" /><rect fill="#089981" height="26.344470389727576" width="18.962962962962962" x="1400.888888888889" y="193.35313246497333" /><line stroke="#089981" stroke-width="1.8962962962962964" x1="1434.0740740740741" x2="1434.0740740740741" y1="140.22377351048544" y2="216.2936936534138" /><rect fill="#089981" height="39.62428926033704" width="18.962962962962962" x="1424.5925925925926" y="153.7288432046363" /><line stroke="#F23645" stroke-width="1.8962962962962964" x1="1457.7777777777778" x2="1457.7777777777778" y1="143.81310349980765" y2="181.8504324233145" /><rect fill="#F23645" height="2.8763461748809505" width="18.962962962962962" x="1448.2962962962963" y="153.7288432046363" /><line stroke="#F23645" stroke-width="1.8962962962962964" x1="1481.4814814814815" x2="1481.4814814814815" y1="136.98478356975352" y2="176.7649135373423" /><rect fill="#F23645" height="4.620812655189411" width="18.962962962962962" x="1472.0" y="156.60518937951724" /><line stroke="#F23645" stroke-width="1.8962962962962964" x1="1505.1851851851852" x2="1505.1851851851852" y1="141.56311930365814" y2="174.32506954011183" /><rect fill="#F23645" height="2.7780591879643453" width="18.962962962962962" x="1495.7037037037037" y="161.22600203470665" /><line stroke="#F23645" stroke-width="1.8962962962962964" x1="1528.888888888889" x2="1528.888888888889" y1="140.83135107968337" y2="250.2001754587144" /><rect fill="#F23645" height="56.72432010120963" width="18.962962962962962" x="1519.4074074074074" y="164.004061222671" /><line stroke="#F23645" stroke-width="1.8962962962962964" x1="1552.5925925925926" x2="1552.5925925925926" y1="219.60094261208064" y2="249.46757380585103" /><rect fill="#F23645" height="17.750080131669506" width="18.962962962962962" x="1543.111111111111" y="220.72838132388063" /><line stroke="#089981" stroke-width="1.8962962962962964" x1="1576.2962962962963" x2="1576.2962962962963" y1="199.95766835961933" y2="241.08526307057207" /><rect fill="#089981" height="38.05639759536041" width="18.962962962962962" x="1566.8148148148148" y="200.42206386018972" /><line stroke="#F23645" stroke-width="1.8962962962962964" x1="1600.0" x2="1600.0" y1="196.4118478171257" y2="263.07911290119984" /><rect fill="#F23645" height="38.86044933779101" width="18.962962962962962" x="1590.5185185185185" y="200.42206386018972" /><line stroke="#089981" stroke-width="1.8962962962962964" x1="1623.7037037037037" x2="1623.7037037037037" y1="170.22780497193412" y2="269.0994809758335" /><rect fill="#089981" height="55.127063539718165" width="18.962962962962962" x="1614.2222222222222" y="184.15544965826257" /><line stroke="#089981" stroke-width="1.8962962962962964" x1="1647.4074074074074" x2="1647.4074074074074" y1="157.72133661870612" y2="203.12921855363584" /><rect fill="#089981" height="21.118972005523574" width="18.962962962962962" x="1637.9259259259259" y="163.036477652739" /><line stroke="#089981" stroke-width="1.8962962962962964" x1="1671.111111111111" x2="1671.111111111111" y1="152.91700682419946" y2="208.02210520796564" /><rect fill="#089981" height="5.671281234524827" width="18.962962962962962" x="1661.6296296296296" y="157.36519641821417" /><line stroke="#089981" stroke-width="1.8962962962962964" x1="1694.8148148148148" x2="1694.8148148148148" y1="52.252326791750306" y2="162.90451325474646" /><rect fill="#089981" height="97.50116646044421" width="18.962962962962962" x="1685.3333333333333" y="59.86402995776996" /><line stroke="#F23645" stroke-width="1.8962962962962964" x1="1718.5185185185185" x2="1718.5185185185185" y1="13.427627057557515" y2="113.91651405457912" /><rect fill="#F23645" height="14.716707515770395" width="18.962962962962962" x="1709.037037037037" y="59.86402995776996" /><line stroke="#089981" stroke-width="1.8962962962962964" x1="1742.2222222222222" x2="1742.2222222222222" y1="17.688550556581504" y2="76.41885767680617" /><rect fill="#089981" height="54.8909374337494" width="18.962962962962962" x="1732.7407407407406" y="19.689800039790953" /><line stroke="#F23645" stroke-width="1.8962962962962964" x1="1765.9259259259259" x2="1765.9259259259259" y1="0.0" y2="68.53417252735699" /><rect fill="#F23645" height="43.65191180114459" width="18.962962962962962" x="1756.4444444444443" y="19.689800039790953" /><line stroke="#F23645" stroke-width="1.8962962962962964" x1="1789.6296296296296" x2="1789.6296296296296" y1="39.775049497642385" y2="100.01561953557507" /><rect fill="#F23645" height="31.397416222544848" width="18.962962962962962" x="1780.148148148148" y="63.341711840935545" /><line stroke="#F23645" stroke-width="1.8962962962962964" x1="1813.3333333333333" x2="1813.3333333333333" y1="87.8313259693141" y2="149.4840975084411" /><rect fill="#F23645" height="21.96523072910452" width="18.962962962962962" x="1803.8518518518517" y="94.7391280634804" /><line stroke="#F23645" stroke-width="1.8962962962962964" x1="1837.037037037037" x2="1837.037037037037" y1="81.45601517442435" y2="181.6228415914428" /><rect fill="#F23645" height="55.538471837637076" width="18.962962962962962" x="1827.5555555555554" y="116.70435879258491" /><line stroke="#F23645" stroke-width="1.8962962962962964" x1="1860.7407407407406" x2="1860.7407407407406" y1="144.00044520445442" y2="205.02574019089332" /><rect fill="#F23645" height="15.655729858991208" width="18.962962962962962" x="1851.2592592592591" y="172.242830630222" /><line stroke="#F23645" stroke-width="1.8962962962962964" x1="1884.4444444444443" x2="1884.4444444444443" y1="180.27325160822352" y2="257.20800919249734" /><rect fill="#F23645" height="59.14070815085273" width="18.962962962962962" x="1874.9629629629628" y="187.8985604892132" /></g><g id="volume"><rect fill="#089981" height="219.67539267015707" opacity="0.5" width="18.962962962962962" x="2.3703703703703702" y="860.3246073298429" /><rect fill="#F23645" height="304.1006846556585" opacity="0.5" width="18.962962962962962" x="26.074074074074073" y="775.8993153443415" /><rect fill="#089981" height="181.21425694724124" opacity="0.5" width="18.962962962962962" x="49.77777777777777" y="898.7857430527588" /><rect fill="#F23645" height="122.2339911397503" opacity="0.5" width="18.962962962962962" x="73.48148148148148" y="957.7660088602497" /><rect fill="#F23645" height="284.9190495368506" opacity="0.5" width="18.962962962962962" x="97.18518518518518" y="795.0809504631494" /><rect fill="#089981" height="208.55134917438585" opacity="0.5" width="18.962962962962962" x="120.88888888888887" y="871.4486508256141" /><rect fill="#089981" height="211.58517921868707" opacity="0.5" width="18.962962962962962" x="144.5925925925926" y="868.414820781313" /><rect fill="#089981" height="135.44583165525574" opacity="0.5" width="18.962962962962962" x="168.2962962962963" y="944.5541683447443" /><rect fill="#F23645" height="157.98751510269835" opacity="0.5" width="18.962962962962962" x="192.0" y="922.0124848973016" /><rect fill="#089981" height="310.85340314136124" opacity="0.5" width="18.962962962962962" x="215.7037037037037" y="769.1465968586388" /><rect fill="#089981" height="315.90978654853" opacity="0.5" width="18.962962962962962" x="239.4074074074074" y="764.0902134514699" /><rect fill="#F23645" height="204.147402335884" opacity="0.5" width="18.962962962962962" x="263.1111111111111" y="875.852597664116" /><rect fill="#F23645" height="148.78815948449454" opacity="0.5" width="18.962962962962962" x="286.81481481481484" y="931.2118405155054" /><rect fill="#F23645" height="133.8799838904551" opacity="0.5" width="18.962962962962962" x="310.51851851851853" y="946.1200161095448" /><rect fill="#F23645" height="298.6202174788562" opacity="0.5" width="18.962962962962962" x="334.22222222222223" y="781.3797825211439" /><rect fill="#F23645" height="258.95207410390657" opacity="0.5" width="18.962962962962962" x="357.9259259259259" y="821.0479258960934" /><rect fill="#F23645" height="318.2259363672976" opacity="0.5" width="18.962962962962962" x="381.6296296296296" y="761.7740636327023" /><rect fill="#089981" height="87.36125654450261" opacity="0.5" width="18.962962962962962" x="405.3333333333333" y="992.6387434554974" /><rect fill="#089981" height="135.6089407974225" opacity="0.5" width="18.962962962962962" x="429.037037037037" y="944.3910592025775" /><rect fill="#089981" height="150.94120016109545" opacity="0.5" width="18.962962962962962" x="452.7407407407407" y="929.0587998389045" /><rect fill="#089981" height="215.0430930326218" opacity="0.5" width="18.962962962962962" x="476.4444444444444" y="864.9569069673782" /><rect fill="#F23645" height="223.91623036649213" opacity="0.5" width="18.962962962962962" x="500.14814814814815" y="856.0837696335079" /><rect fill="#F23645" height="54.250100684655656" opacity="0.5" width="18.962962962962962" x="523.8518518518517" y="1025.7498993153442" /><rect fill="#089981" height="203.299234796617" opacity="0.5" width="18.962962962962962" x="547.5555555555554" y="876.7007652033831" /><rect fill="#F23645" height="279.0471204188482" opacity="0.5" width="18.962962962962962" x="571.2592592592592" y="800.9528795811518" /><rect fill="#F23645" height="187.15142972211035" opacity="0.5" width="18.962962962962962" x="594.9629629629629" y="892.8485702778896" /><rect fill="#F23645" height="203.8538058799839" opacity="0.5" width="18.962962962962962" x="618.6666666666666" y="876.1461941200162" /><rect fill="#F23645" height="147.12444623439387" opacity="0.5" width="18.962962962962962" x="642.3703703703703" y="932.8755537656061" /><rect fill="#089981" height="128.2364075714861" opacity="0.5" width="18.962962962962962" x="666.074074074074" y="951.7635924285139" /><rect fill="#089981" height="172.30849778493757" opacity="0.5" width="18.962962962962962" x="689.7777777777777" y="907.6915022150624" /><rect fill="#089981" height="304.622633910592" opacity="0.5" width="18.962962962962962" x="713.4814814814814" y="775.377366089408" /><rect fill="#F23645" height="250.99234796616997" opacity="0.5" width="18.962962962962962" x="737.1851851851851" y="829.00765203383" /><rect fill="#F23645" height="320.1832460732984" opacity="0.5" width="18.962962962962962" x="760.8888888888888" y="759.8167539267016" /><rect fill="#089981" height="180.98590414820782" opacity="0.5" width="18.962962962962962" x="784.5925925925925" y="899.0140958517921" /><rect fill="#089981" height="106.1840515505437" opacity="0.5" width="18.962962962962962" x="808.2962962962962" y="973.8159484494563" /><rect fill="#089981" height="116.03584373741442" opacity="0.5" width="18.962962962962962" x="831.9999999999999" y="963.9641562625856" /><rect fill="#F23645" height="63.80829641562626" opacity="0.5" width="18.962962962962962" x="855.7037037037036" y="1016.1917035843737" /><rect fill="#F23645" height="162.68505839710028" opacity="0.5" width="18.962962962962962" x="879.4074074074073" y="917.3149416028997" /><rect fill="#089981" height="181.21425694724124" opacity="0.5" width="18.962962962962962" x="903.111111111111" y="898.7857430527588" /><rect fill="#089981" height="144.71043093032623" opacity="0.5" width="18.962962962962962" x="926.8148148148147" y="935.2895690696738" /><rect fill="#089981" height="261.6923076923077" opacity="0.5" width="18.962962962962962" x="950.5185185185184" y="818.3076923076924" /><rect fill="#F23645" height="184.05235602094243" opacity="0.5" width="18.962962962962962" x="974.2222222222222" y="895.9476439790576" /><rect fill="#089981" height="67.20096657269433" opacity="0.5" width="18.962962962962962" x="997.9259259259259" y="1012.7990334273056" /><rect fill="#089981" height="64.59122029802658" opacity="0.5" width="18.962962962962962" x="1021.6296296296296" y="1015.4087797019735" /><rect fill="#F23645" height="223.5900120821587" opacity="0.5" width="18.962962962962962" x="1045.3333333333333" y="856.4099879178414" /><rect fill="#089981" height="58.19734192509061" opacity="0.5" width="18.962962962962962" x="1069.037037037037" y="1021.8026580749093" /><rect fill="#089981" height="92.67861457913814" opacity="0.5" width="18.962962962962962" x="1092.7407407407406" y="987.3213854208618" /><rect fill="#089981" height="249.72009665726944" opacity="0.5" width="18.962962962962962" x="1116.4444444444443" y="830.2799033427306" /><rect fill="#F23645" height="60.44824808699154" opacity="0.5" width="18.962962962962962" x="1140.1481481481483" y="1019.5517519130085" /><rect fill="#F23645" height="188.4563028594442" opacity="0.5" width="18.962962962962962" x="1163.851851851852" y="891.5436971405558" /><rect fill="#089981" height="134.53242045912202" opacity="0.5" width="18.962962962962962" x="1187.5555555555557" y="945.467579540878" /><rect fill="#089981" height="259.8654853000403" opacity="0.5" width="18.962962962962962" x="1211.2592592592594" y="820.1345146999597" /><rect fill="#F23645" height="324.0" opacity="0.5" width="18.962962962962962" x="1234.962962962963" y="756.0" /><rect fill="#089981" height="203.4623439387837" opacity="0.5" width="18.962962962962962" x="1258.6666666666667" y="876.5376560612162" /><rect fill="#089981" height="261.10511478050745" opacity="0.5" width="18.962962962962962" x="1282.3703703703704" y="818.8948852194926" /><rect fill="#F23645" height="122.13612565445027" opacity="0.5" width="18.962962962962962" x="1306.0740740740741" y="957.8638743455497" /><rect fill="#F23645" height="248.48046717680225" opacity="0.5" width="18.962962962962962" x="1329.7777777777778" y="831.5195328231978" /><rect fill="#F23645" height="224.47080144985907" opacity="0.5" width="18.962962962962962" x="1353.4814814814815" y="855.5291985501409" /><rect fill="#089981" height="257.8755537656061" opacity="0.5" width="18.962962962962962" x="1377.1851851851852" y="822.1244462343939" /><rect fill="#089981" height="125.2351993556182" opacity="0.5" width="18.962962962962962" x="1400.888888888889" y="954.7648006443818" /><rect fill="#089981" height="111.79500604107935" opacity="0.5" width="18.962962962962962" x="1424.5925925925926" y="968.2049939589207" /><rect fill="#F23645" height="213.2162706403544" opacity="0.5" width="18.962962962962962" x="1448.2962962962963" y="866.7837293596456" /><rect fill="#F23645" height="142.6552557390254" opacity="0.5" width="18.962962962962962" x="1472.0" y="937.3447442609746" /><rect fill="#F23645" height="46.225130890052355" opacity="0.5" width="18.962962962962962" x="1495.7037037037037" y="1033.7748691099478" /><rect fill="#F23645" height="46.06202174788562" opacity="0.5" width="18.962962962962962" x="1519.4074074074074" y="1033.9379782521144" /><rect fill="#F23645" height="227.96133709222713" opacity="0.5" width="18.962962962962962" x="1543.111111111111" y="852.0386629077728" /><rect fill="#089981" height="198.11236407571488" opacity="0.5" width="18.962962962962962" x="1566.8148148148148" y="881.8876359242852" /><rect fill="#F23645" height="144.8409182440596" opacity="0.5" width="18.962962962962962" x="1590.5185185185185" y="935.1590817559404" /><rect fill="#089981" height="319.2698348771647" opacity="0.5" width="18.962962962962962" x="1614.2222222222222" y="760.7301651228353" /><rect fill="#089981" height="45.50745066451872" opacity="0.5" width="18.962962962962962" x="1637.9259259259259" y="1034.4925493354813" /><rect fill="#089981" height="211.58517921868707" opacity="0.5" width="18.962962962962962" x="1661.6296296296296" y="868.414820781313" /><rect fill="#089981" height="289.02939991945226" opacity="0.5" width="18.962962962962962" x="1685.3333333333333" y="790.9706000805477" /><rect fill="#F23645" height="206.62666129681836" opacity="0.5" width="18.962962962962962" x="1709.037037037037" y="873.3733387031816" /><rect fill="#089981" height="82.92468787756745" opacity="0.5" width="18.962962962962962" x="1732.7407407407406" y="997.0753121224326" /><rect fill="#F23645" height="82.85944422070077" opacity="0.5" width="18.962962962962962" x="1756.4444444444443" y="997.1405557792992" /><rect fill="#F23645" height="77.15062424486509" opacity="0.5" width="18.962962962962962" x="1780.148148148148" y="1002.8493757551349" /><rect fill="#F23645" height="169.1768022553363" opacity="0.5" width="18.962962962962962" x="1803.8518518518517" y="910.8231977446637" /><rect fill="#F23645" height="190.80507450664518" opacity="0.5" width="18.962962962962962" x="1827.5555555555554" y="889.1949254933548" /><rect fill="#F23645" height="49.06322996375352" opacity="0.5" width="18.962962962962962" x="1851.2592592592591" y="1030.9367700362466" /><rect fill="#F23645" height="36.96053161498188" opacity="0.5" width="18.962962962962962" x="1874.9629629629628" y="1043.0394683850182" /></g></svg>