<?xml version="1.0" encoding="utf-8" ?>
<svg baseProfile="full" height="1080" version="1.1" width="1080" xmlns="http://www.w3.org/2000/svg" xmlns:ev="http://www.w3.org/2001/xml-events" xmlns:xlink="http://www.w3.org/1999/xlink"><defs /><rect fill="#131722" height="100%" width="100%" x="0" y="0" /><g id="grid" opacity="0.25" stroke="#2A2E39" stroke-width="1"><line x1="0" x2="1080" y1="75" y2="75" /><line x1="0" x2="1080" y1="151" y2="151" /><line x1="0" x2="1080" y1="226" y2="226" /><line x1="0" x2="1080" y1="302" y2="302" /><line x1="0" x2="1080" y1="378" y2="378" /><line x1="0" x2="1080" y1="453" y2="453" /><line x1="0" x2="1080" y1="529" y2="529" /><line x1="0" x2="1080" y1="604" y2="604" /><line x1="0" x2="1080" y1="680" y2="680" /><line x1="0" x2="0" y1="0" y2="1080" /><line x1="151" x2="151" y1="0" y2="1080" /><line x1="303" x2="303" y1="0" y2="1080" /><line x1="455" x2="455" y1="0" y2="1080" /><line x1="607" x2="607" y1="0" y2="1080" /><line x1="758" x2="758" y1="0" y2="1080" /><line x1="910" x2="910" y1="0" y2="1080" /></g><g id="candles"><line stroke="#089981" stroke-width="1.416393442622951" x1="8.852459016393443" x2="8.852459016393443" y1="589.1610909755503" y2="652.8906490039356" /><rect fill="#089981" height="8.615241497385227" width="14.163934426229508" x="1.7704918032786887" y="605.6058362694057" /><line stroke="#F23645" stroke-width="1.416393442622951" x1="26.557377049180328" x2="26.557377049180328" y1="554.5476955553202" y2="644.8548349876514" /><rect fill="#F23645" height="26.736770499374302" width="14.163934426229508" x="19.475409836065573" y="605.6058362694057" /><line stroke="#089981" stroke-width="1.416393442622951" x1="44.26229508196721" x2="44.26229508196721" y1="610.5635752678882" y2="644.167437258589" /><rect fill="#089981" height="10.012903995664601" width="14.163934426229508" x="37.18032786885246" y="622.3297027731154" /><line stroke="#F23645" stroke-width="1.416393442622951" x1="61.967213114754095" x2="61.967213114754095" y1="608.8269134856556" y2="639.7711159696777" /><rect fill="#F23645" height="14.458722302320552" width="14.163934426229508" x="54.885245901639344" y="622.3297027731154" /><line stroke="#F23645" stroke-width="1.416393442622951" x1="79.67213114754098" x2="79.67213114754098" y1="620.8061206307501" y2="750.039940272488" /><rect fill="#F23645" height="98.07545408575618" width="14.163934426229508" x="72.59016393442623" y="636.788425075436" /><line stroke="#089981" stroke-width="1.416393442622951" x1="97.37704918032786" x2="97.37704918032786" y1="710.0863126114957" y2="756.0" /><rect fill="#089981" height="14.189697412427904" width="14.163934426229508" x="90.29508196721311" y="720.6741817487642" /><line stroke="#089981" stroke-width="1.416393442622951" x1="115.08196721311475" x2="115.08196721311475" y1="691.1726477641776" y2="736.810978114644" /><rect fill="#089981" height="22.11221065852817" width="14.163934426229508" x="108.0" y="698.561971090236" /><line stroke="#089981" stroke-width="1.416393442622951" x1="132.78688524590166" x2="132.78688524590166" y1="603.6471810715307" y2="708.0975184738614" /><rect fill="#089981" height="85.56696772629948" width="14.163934426229508" x="125.70491803278689" y="612.9950033639366" /><line stroke="#F23645" stroke-width="1.416393442622951" x1="150.49180327868854" x2="150.49180327868854" y1="607.6919781921708" y2="687.092642411278" /><rect fill="#F23645" height="24.341816377262603" width="14.163934426229508" x="143.40983606557378" y="612.9950033639366" /><line stroke="#089981" stroke-width="1.416393442622951" x1="168.19672131147541" x2="168.19672131147541" y1="571.3138146165668" y2="677.5364968007941" /><rect fill="#089981" height="40.40243216862393" width="14.163934426229508" x="161.11475409836066" y="596.9343875725752" /><line stroke="#089981" stroke-width="1.416393442622951" x1="185.9016393442623" x2="185.9016393442623" y1="492.9972743966604" y2="607.5753468813228" /><rect fill="#089981" height="101.48910870075082" width="14.163934426229508" x="178.81967213114754" y="495.4452788718244" /><line stroke="#F23645" stroke-width="1.416393442622951" x1="203.6065573770492" x2="203.6065573770492" y1="478.2582989825681" y2="516.1435225744444" /><rect fill="#F23645" height="5.1678457095110275" width="14.163934426229508" x="196.52459016393445" y="495.4452788718244" /><line stroke="#F23645" stroke-width="1.416393442622951" x1="221.31147540983608" x2="221.31147540983608" y1="488.52645230175386" y2="550.8200505433664" /><rect fill="#F23645" height="17.10710058740608" width="14.163934426229508" x="214.22950819672133" y="500.61312458133546" /><line stroke="#F23645" stroke-width="1.416393442622951" x1="239.01639344262296" x2="239.01639344262296" y1="509.3094807535715" y2="574.303672731938" /><rect fill="#F23645" height="31.814457231465894" width="14.163934426229508" x="231.9344262295082" y="517.7202251687415" /><line stroke="#F23645" stroke-width="1.416393442622951" x1="256.7213114754099" x2="256.7213114754099" y1="519.5818058764223" y2="591.2125798366199" /><rect fill="#F23645" height="18.872490336602255" width="14.163934426229508" x="249.6393442622951" y="549.5346824002074" /><line stroke="#F23645" stroke-width="1.416393442622951" x1="274.4262295081967" x2="274.4262295081967" y1="544.6990303498926" y2="598.225318672749" /><rect fill="#F23645" height="9.907180796519356" width="14.163934426229508" x="267.34426229508193" y="568.4071727368097" /><line stroke="#F23645" stroke-width="1.416393442622951" x1="292.1311475409836" x2="292.1311475409836" y1="576.1042374334653" y2="619.8496530368976" /><rect fill="#F23645" height="33.943533662195364" width="14.163934426229508" x="285.04918032786884" y="578.314353533329" /><line stroke="#089981" stroke-width="1.416393442622951" x1="309.8360655737705" x2="309.8360655737705" y1="535.759000733734" y2="638.3616407519589" /><rect fill="#089981" height="68.94157222140689" width="14.163934426229508" x="302.75409836065575" y="543.3163149741175" /><line stroke="#089981" stroke-width="1.416393442622951" x1="327.54098360655735" x2="327.54098360655735" y1="528.3751217912254" y2="554.154469702721" /><rect fill="#089981" height="9.554436530595808" width="14.163934426229508" x="320.4590163934426" y="533.7618784435217" /><line stroke="#089981" stroke-width="1.416393442622951" x1="345.24590163934425" x2="345.24590163934425" y1="475.40759665713654" y2="541.789298009856" /><rect fill="#089981" height="42.85826860705589" width="14.163934426229508" x="338.1639344262295" y="490.9036098364658" /><line stroke="#089981" stroke-width="1.416393442622951" x1="362.9508196721311" x2="362.9508196721311" y1="453.5259855064681" y2="500.03833990127765" /><rect fill="#089981" height="17.724754016803217" width="14.163934426229508" x="355.86885245901635" y="473.1788558196626" /><line stroke="#F23645" stroke-width="1.416393442622951" x1="380.655737704918" x2="380.655737704918" y1="463.2232701846118" y2="539.3718728263304" /><rect fill="#F23645" height="29.03452316276281" width="14.163934426229508" x="373.57377049180326" y="473.1788558196626" /><line stroke="#F23645" stroke-width="1.416393442622951" x1="398.3606557377049" x2="398.3606557377049" y1="468.9538659116989" y2="617.0755771411671" /><rect fill="#F23645" height="40.12288710527241" width="14.163934426229508" x="391.27868852459017" y="502.2133789824254" /><line stroke="#089981" stroke-width="1.416393442622951" x1="416.06557377049177" x2="416.06557377049177" y1="481.8835185479436" y2="546.7687787802903" /><rect fill="#089981" height="12.562681717027317" width="14.163934426229508" x="408.983606557377" y="529.7735843706705" /><line stroke="#F23645" stroke-width="1.416393442622951" x1="433.7704918032787" x2="433.7704918032787" y1="509.00786010691763" y2="556.7161365230727" /><rect fill="#F23645" height="1" width="14.163934426229508" x="426.6885245901639" y="529.7735843706705" /><line stroke="#F23645" stroke-width="1.416393442622951" x1="451.4754098360656" x2="451.4754098360656" y1="527.3412405076498" y2="604.6882120537326" /><rect fill="#F23645" height="63.76446933427417" width="14.163934426229508" x="444.39344262295083" y="529.939837629472" /><line stroke="#F23645" stroke-width="1.416393442622951" x1="469.18032786885243" x2="469.18032786885243" y1="562.2965962398571" y2="643.0747722332762" /><rect fill="#F23645" height="13.152313262141092" width="14.163934426229508" x="462.0983606557377" y="593.7043069637461" /><line stroke="#F23645" stroke-width="1.416393442622951" x1="486.88524590163934" x2="486.88524590163934" y1="552.0467252887508" y2="643.9270042328174" /><rect fill="#F23645" height="5.795657850782391" width="14.163934426229508" x="479.8032786885246" y="606.8566202258872" /><line stroke="#089981" stroke-width="1.416393442622951" x1="504.59016393442624" x2="504.59016393442624" y1="581.2652106519785" y2="647.7922946767496" /><rect fill="#089981" height="11.028741041343892" width="14.163934426229508" x="497.5081967213115" y="601.6235370353257" /><line stroke="#089981" stroke-width="1.416393442622951" x1="522.2950819672132" x2="522.2950819672132" y1="580.2344234117129" y2="615.4226589462698" /><rect fill="#089981" height="8.378727819830715" width="14.163934426229508" x="515.2131147540983" y="593.244809215495" /><line stroke="#089981" stroke-width="1.416393442622951" x1="540.0" x2="540.0" y1="515.1420983393991" y2="602.5258143247311" /><rect fill="#089981" height="77.87053687929108" width="14.163934426229508" x="532.9180327868852" y="515.374272336204" /><line stroke="#F23645" stroke-width="1.416393442622951" x1="557.704918032787" x2="557.704918032787" y1="511.73178109730765" y2="558.3391175998263" /><rect fill="#F23645" height="27.29918292731452" width="14.163934426229508" x="550.6229508196722" y="515.374272336204" /><line stroke="#F23645" stroke-width="1.416393442622951" x1="575.4098360655738" x2="575.4098360655738" y1="522.0183368773871" y2="604.8078622206755" /><rect fill="#F23645" height="30.882888697457815" width="14.163934426229508" x="568.327868852459" y="542.6734552635185" /><line stroke="#089981" stroke-width="1.416393442622951" x1="593.1147540983607" x2="593.1147540983607" y1="432.71549879076076" y2="578.7832787111963" /><rect fill="#089981" height="132.60205316178622" width="14.163934426229508" x="586.0327868852459" y="440.95429079919006" /><line stroke="#089981" stroke-width="1.416393442622951" x1="610.8196721311476" x2="610.8196721311476" y1="371.9047440496283" y2="474.4805482460708" /><rect fill="#089981" height="37.64349556160499" width="14.163934426229508" x="603.7377049180328" y="403.31079523758507" /><line stroke="#089981" stroke-width="1.416393442622951" x1="628.5245901639345" x2="628.5245901639345" y1="334.26207371838564" y2="424.82623035897115" /><rect fill="#089981" height="63.30328565614002" width="14.163934426229508" x="621.4426229508197" y="340.00750958144505" /><line stroke="#F23645" stroke-width="1.416393442622951" x1="646.2295081967213" x2="646.2295081967213" y1="266.89839553621977" y2="425.8119068411774" /><rect fill="#F23645" height="65.41179904334558" width="14.163934426229508" x="639.1475409836065" y="340.00750958144505" /><line stroke="#F23645" stroke-width="1.416393442622951" x1="663.9344262295083" x2="663.9344262295083" y1="386.3469403769174" y2="450.5542400419298" /><rect fill="#F23645" height="16.433479541661086" width="14.163934426229508" x="656.8524590163935" y="405.41930862479063" /><line stroke="#089981" stroke-width="1.416393442622951" x1="681.6393442622951" x2="681.6393442622951" y1="390.0838986277752" y2="449.9068018652105" /><rect fill="#089981" height="7.397263663774822" width="14.163934426229508" x="674.5573770491803" y="414.4555245026769" /><line stroke="#089981" stroke-width="1.416393442622951" x1="699.344262295082" x2="699.344262295082" y1="336.1679012302334" y2="452.49709646522626" /><rect fill="#089981" height="64.58700120448833" width="14.163934426229508" x="692.2622950819672" y="349.86852329818856" /><line stroke="#089981" stroke-width="1.416393442622951" x1="717.0491803278688" x2="717.0491803278688" y1="277.4489100305238" y2="371.3828436897544" /><rect fill="#089981" height="23.255220672952873" width="14.163934426229508" x="709.967213114754" y="326.6133026252357" /><line stroke="#F23645" stroke-width="1.416393442622951" x1="734.7540983606558" x2="734.7540983606558" y1="302.1624350352369" y2="387.1778489240485" /><rect fill="#F23645" height="35.75404669240794" width="14.163934426229508" x="727.672131147541" y="326.6133026252357" /><line stroke="#089981" stroke-width="1.416393442622951" x1="752.4590163934427" x2="752.4590163934427" y1="338.7219807459472" y2="371.2259144240261" /><rect fill="#089981" height="8.234317802319879" width="14.163934426229508" x="745.3770491803278" y="354.13303151532375" /><line stroke="#089981" stroke-width="1.416393442622951" x1="770.1639344262295" x2="770.1639344262295" y1="316.3315100351033" y2="373.86224579986884" /><rect fill="#089981" height="26.31355198825372" width="14.163934426229508" x="763.0819672131147" y="327.81947952707003" /><line stroke="#F23645" stroke-width="1.416393442622951" x1="787.8688524590165" x2="787.8688524590165" y1="268.96396538286933" y2="379.80969563540384" /><rect fill="#F23645" height="45.185257751251356" width="14.163934426229508" x="780.7868852459017" y="327.81947952707003" /><line stroke="#089981" stroke-width="1.416393442622951" x1="805.5737704918033" x2="805.5737704918033" y1="326.23845655573945" y2="399.081729587438" /><rect fill="#089981" height="25.05181200710109" width="14.163934426229508" x="798.4918032786885" y="347.9529252712203" /><line stroke="#089981" stroke-width="1.416393442622951" x1="823.2786885245902" x2="823.2786885245902" y1="250.58003138410834" y2="390.9080166012528" /><rect fill="#089981" height="80.43927026803988" width="14.163934426229508" x="816.1967213114754" y="267.5136550031804" /><line stroke="#089981" stroke-width="1.416393442622951" x1="840.9836065573771" x2="840.9836065573771" y1="91.94161735862622" y2="296.3455496851278" /><rect fill="#089981" height="161.0771863591537" width="14.163934426229508" x="833.9016393442623" y="106.43646864402672" /><line stroke="#F23645" stroke-width="1.416393442622951" x1="858.688524590164" x2="858.688524590164" y1="66.81408525584709" y2="174.9357507372289" /><rect fill="#F23645" height="17.710650074388013" width="14.163934426229508" x="851.6065573770492" y="106.43646864402672" /><line stroke="#F23645" stroke-width="1.416393442622951" x1="876.3934426229508" x2="876.3934426229508" y1="113.66714385905266" y2="178.52227328361278" /><rect fill="#F23645" height="39.2518235756645" width="14.163934426229508" x="869.311475409836" y="124.14711871841473" /><line stroke="#089981" stroke-width="1.416393442622951" x1="894.0983606557378" x2="894.0983606557378" y1="131.00717055477583" y2="190.76277123692626" /><rect fill="#089981" height="30.759708672989404" width="14.163934426229508" x="887.016393442623" y="132.63923362108983" /><line stroke="#089981" stroke-width="1.416393442622951" x1="911.8032786885246" x2="911.8032786885246" y1="96.88857666617105" y2="165.42307778500378" /><rect fill="#089981" height="26.241593131802574" width="14.163934426229508" x="904.7213114754098" y="106.39764048928726" /><line stroke="#F23645" stroke-width="1.416393442622951" x1="929.5081967213115" x2="929.5081967213115" y1="65.9519967526171" y2="137.38504507690482" /><rect fill="#F23645" height="19.969672069060607" width="14.163934426229508" x="922.4262295081967" y="106.39764048928726" /><line stroke="#089981" stroke-width="1.416393442622951" x1="947.2131147540985" x2="947.2131147540985" y1="66.34569104304501" y2="135.0793241660532" /><rect fill="#089981" height="20.69702080797083" width="14.163934426229508" x="940.1311475409836" y="105.67029175037703" /><line stroke="#089981" stroke-width="1.416393442622951" x1="964.9180327868853" x2="964.9180327868853" y1="22.587230299613225" y2="147.59792326759543" /><rect fill="#089981" height="73.50354811860916" width="14.163934426229508" x="957.8360655737705" y="32.16674363176787" /><line stroke="#F23645" stroke-width="1.416393442622951" x1="982.6229508196722" x2="982.6229508196722" y1="0.0" y2="105.88353052017283" /><rect fill="#F23645" height="55.74913202073424" width="14.163934426229508" x="975.5409836065573" y="32.16674363176787" /><line stroke="#F23645" stroke-width="1.416393442622951" x1="1000.3278688524591" x2="1000.3278688524591" y1="80.79007726491216" y2="129.27827815625687" /><rect fill="#F23645" height="26.02751609540792" width="14.163934426229508" x="993.2459016393443" y="87.91587565250211" /><line stroke="#F23645" stroke-width="1.416393442622951" x1="1018.032786885246" x2="1018.032786885246" y1="107.53071238943312" y2="265.664072548346" /><rect fill="#F23645" height="120.0395942869394" width="14.163934426229508" x="1010.9508196721312" y="113.94339174791003" /><line stroke="#089981" stroke-width="1.416393442622951" x1="1035.7377049180327" x2="1035.7377049180327" y1="139.8784934809321" y2="245.80616663035352" /><rect fill="#089981" height="90.8441213750865" width="14.163934426229508" x="1028.655737704918" y="143.13886465976293" /><line stroke="#089981" stroke-width="1.416393442622951" x1="1053.4426229508197" x2="1053.4426229508197" y1="63.941195674276514" y2="153.64710416340404" /><rect fill="#089981" height="30.105220709299488" width="14.163934426229508" x="1046.360655737705" y="113.03364395046344" /></g><g id="volume"><rect fill="#089981" height="219.67539267015707" opacity="0.5" width="14.163934426229508" x="1.7704918032786887" y="860.3246073298429" /><rect fill="#F23645" height="304.1006846556585" opacity="0.5" width="14.163934426229508" x="19.475409836065573" y="775.8993153443415" /><rect fill="#089981" height="181.21425694724124" opacity="0.5" width="14.163934426229508" x="37.18032786885246" y="898.7857430527588" /><rect fill="#F23645" height="122.2339911397503" opacity="0.5" width="14.163934426229508" x="54.885245901639344" y="957.7660088602497" /><rect fill="#F23645" height="284.9190495368506" opacity="0.5" width="14.163934426229508" x="72.59016393442623" y="795.0809504631494" /><rect fill="#089981" height="208.55134917438585" opacity="0.5" width="14.163934426229508" x="90.29508196721311" y="871.4486508256141" /><rect fill="#089981" height="211.58517921868707" opacity="0.5" width="14.163934426229508" x="108.0" y="868.414820781313" /><rect fill="#089981" height="135.44583165525574" opacity="0.5" width="14.163934426229508" x="125.70491803278689" y="944.5541683447443" /><rect fill="#F23645" height="157.98751510269835" opacity="0.5" width="14.163934426229508" x="143.40983606557378" y="922.0124848973016" /><rect fill="#089981" height="310.85340314136124" opacity="0.5" width="14.163934426229508" x="161.11475409836066" y="769.1465968586388" /><rect fill="#089981" height="315.90978654853" opacity="0.5" width="14.163934426229508" x="178.81967213114754" y="764.0902134514699" /><rect fill="#F23645" height="204.147402335884" opacity="0.5" width="14.163934426229508" x="196.52459016393445" y="875.852597664116" /><rect fill="#F23645" height="148.78815948449454" opacity="0.5" width="14.163934426229508" x="214.22950819672133" y="931.2118405155054" /><rect fill="#F23645" height="133.8799838904551" opacity="0.5" width="14.163934426229508" x="231.9344262295082" y="946.1200161095448" /><rect fill="#F23645" height="298.6202174788562" opacity="0.5" width="14.163934426229508" x="249.6393442622951" y="781.3797825211439" /><rect fill="#F23645" height="258.95207410390657" opacity="0.5" width="14.163934426229508" x="267.34426229508193" y="821.0479258960934" /><rect fill="#F23645" height="318.2259363672976" opacity="0.5" width="14.163934426229508" x="285.04918032786884" y="761.7740636327023" /><rect fill="#089981" height="87.36125654450261" opacity="0.5" width="14.163934426229508" x="302.75409836065575" y="992.6387434554974" /><rect fill="#089981" height="135.6089407974225" opacity="0.5" width="14.163934426229508" x="320.4590163934426" y="944.3910592025775" /><rect fill="#089981" height="150.94120016109545" opacity="0.5" width="14.163934426229508" x="338.1639344262295" y="929.0587998389045" /><rect fill="#089981" height="215.0430930326218" opacity="0.5" width="14.163934426229508" x="355.86885245901635" y="864.9569069673782" /><rect fill="#F23645" height="223.91623036649213" opacity="0.5" width="14.163934426229508" x="373.57377049180326" y="856.0837696335079" /><rect fill="#F23645" height="54.250100684655656" opacity="0.5" width="14.163934426229508" x="391.27868852459017" y="1025.7498993153442" /><rect fill="#089981" height="203.299234796617" opacity="0.5" width="14.163934426229508" x="408.983606557377" y="876.7007652033831" /><rect fill="#F23645" height="279.0471204188482" opacity="0.5" width="14.163934426229508" x="426.6885245901639" y="800.9528795811518" /><rect fill="#F23645" height="187.15142972211035" opacity="0.5" width="14.163934426229508" x="444.39344262295083" y="892.8485702778896" /><rect fill="#F23645" height="203.8538058799839" opacity="0.5" width="14.163934426229508" x="462.0983606557377" y="876.1461941200162" /><rect fill="#F23645" height="147.12444623439387" opacity="0.5" width="14.163934426229508" x="479.8032786885246" y="932.8755537656061" /><rect fill="#089981" height="128.2364075714861" opacity="0.5" width="14.163934426229508" x="497.5081967213115" y="951.7635924285139" /><rect fill="#089981" height="172.30849778493757" opacity="0.5" width="14.163934426229508" x="515.2131147540983" y="907.6915022150624" /><rect fill="#089981" height="304.622633910592" opacity="0.5" width="14.163934426229508" x="532.9180327868852" y="775.377366089408" /><rect fill="#F23645" height="250.99234796616997" opacity="0.5" width="14.163934426229508" x="550.6229508196722" y="829.00765203383" /><rect fill="#F23645" height="320.1832460732984" opacity="0.5" width="14.163934426229508" x="568.327868852459" y="759.8167539267016" /><rect fill="#089981" height="180.98590414820782" opacity="0.5" width="14.163934426229508" x="586.0327868852459" y="899.0140958517921" /><rect fill="#089981" height="106.1840515505437" opacity="0.5" width="14.163934426229508" x="603.7377049180328" y="973.8159484494563" /><rect fill="#089981" height="116.03584373741442" opacity="0.5" width="14.163934426229508" x="621.4426229508197" y="963.9641562625856" /><rect fill="#F23645" height="63.80829641562626" opacity="0.5" width="14.163934426229508" x="639.1475409836065" y="1016.1917035843737" /><rect fill="#F23645" height="162.68505839710028" opacity="0.5" width="14.163934426229508" x="656.8524590163935" y="917.3149416028997" /><rect fill="#089981" height="181.21425694724124" opacity="0.5" width="14.163934426229508" x="674.5573770491803" y="898.7857430527588" /><rect fill="#089981" height="144.71043093032623" opacity="0.5" width="14.163934426229508" x="692.2622950819672" y="935.2895690696738" /><rect fill="#089981" height="261.6923076923077" opacity="0.5" width="14.163934426229508" x="709.967213114754" y="818.3076923076924" /><rect fill="#F23645" height="184.05235602094243" opacity="0.5" width="14.163934426229508" x="727.672131147541" y="895.9476439790576" /><rect fill="#089981" height="67.20096657269433" opacity="0.5" width="14.163934426229508" x="745.3770491803278" y="1012.7990334273056" /><rect fill="#089981" height="64.59122029802658" opacity="0.5" width="14.163934426229508" x="763.0819672131147" y="1015.4087797019735" /><rect fill="#F23645" height="223.5900120821587" opacity="0.5" width="14.163934426229508" x="780.7868852459017" y="856.4099879178414" /><rect fill="#089981" height="58.19734192509061" opacity="0.5" width="14.163934426229508" x="798.4918032786885" y="1021.8026580749093" /><rect fill="#089981" height="92.67861457913814" opacity="0.5" width="14.163934426229508" x="816.1967213114754" y="987.3213854208618" /><rect fill="#089981" height="249.72009665726944" opacity="0.5" width="14.163934426229508" x="833.9016393442623" y="830.2799033427306" /><rect fill="#F23645" height="60.44824808699154" opacity="0.5" width="14.163934426229508" x="851.6065573770492" y="1019.5517519130085" /><rect fill="#F23645" height="188.4563028594442" opacity="0.5" width="14.163934426229508" x="869.311475409836" y="891.5436971405558" /><rect fill="#089981" height="134.53242045912202" opacity="0.5" width="14.163934426229508" x="887.016393442623" y="945.467579540878" /><rect fill="#089981" height="259.8654853000403" opacity="0.5" width="14.163934426229508" x="904.7213114754098" y="820.1345146999597" /><rect fill="#F23645" height="324.0" opacity="0.5" width="14.163934426229508" x="922.4262295081967" y="756.0" /><rect fill="#089981" height="203.4623439387837" opacity="0.5" width="14.163934426229508" x="940.1311475409836" y="876.5376560612162" /><rect fill="#089981" height="261.10511478050745" opacity="0.5" width="14.163934426229508" x="957.8360655737705" y="818.8948852194926" /><rect fill="#F23645" height="122.13612565445027" opacity="0.5" width="14.163934426229508" x="975.5409836065573" y="957.8638743455497" /><rect fill="#F23645" height="248.48046717680225" opacity="0.5" width="14.163934426229508" x="993.2459016393443" y="831.5195328231978" /><rect fill="#F23645" height="224.47080144985907" opacity="0.5" width="14.163934426229508" x="1010.9508196721312" y="855.5291985501409" /><rect fill="#089981" height="257.8755537656061" opacity="0.5" width="14.163934426229508" x="1028.655737704918" y="822.1244462343939" /><rect fill="#089981" height="125.2351993556182" opacity="0.5" width="14.163934426229508" x="1046.360655737705" y="954.7648006443818" /></g></svg>