<?xml version="1.0" encoding="utf-8" ?>
<svg baseProfile="full" height="1080" version="1.1" width="1920" xmlns="http://www.w3.org/2000/svg" xmlns:ev="http://www.w3.org/2001/xml-events" xmlns:xlink="http://www.w3.org/1999/xlink"><defs /><rect fill="#131722" height="100%" width="100%" x="0" y="0" /><g id="grid" opacity="0.25" stroke="#2A2E39" stroke-width="1"><line x1="0" x2="1920" y1="75" y2="75" /><line x1="0" x2="1920" y1="151" y2="151" /><line x1="0" x2="1920" y1="226" y2="226" /><line x1="0" x2="1920" y1="302" y2="302" /><line x1="0" x2="1920" y1="378" y2="378" /><line x1="0" x2="1920" y1="453" y2="453" /><line x1="0" x2="1920" y1="529" y2="529" /><line x1="0" x2="1920" y1="604" y2="604" /><line x1="0" x2="1920" y1="680" y2="680" /><line x1="0" x2="0" y1="0" y2="1080" /><line x1="172" x2="172" y1="0" y2="1080" /><line x1="345" x2="345" y1="0" y2="1080" /><line x1="518" x2="518" y1="0" y2="1080" /><line x1="691" x2="691" y1="0" y2="1080" /><line x1="864" x2="864" y1="0" y2="1080" /><line x1="1036" x2="1036" y1="0" y2="1080" /><line x1="1209" x2="1209" y1="0" y2="1080" /><line x1="1382" x2="1382" y1="0" y2="1080" /><line x1="1555" x2="1555" y1="0" y2="1080" /><line x1="1728" x2="1728" y1="0" y2="1080" /></g><g id="candles"><line stroke="#089981" stroke-width="1.5207920792079208" x1="9.504950495049505" x2="9.504950495049505" y1="610.0026415653766" y2="665.7710901889934" /><rect fill="#089981" height="7.539023769990422" width="15.207920792079207" x="1.900990099009901" y="624.3931059185164" /><line stroke="#F23645" stroke-width="1.5207920792079208" x1="28.51485148514851" x2="28.51485148514851" y1="579.713158570339" y2="658.739111700825" /><rect fill="#F23645" height="23.396807667984604" width="15.207920792079207" x="20.910891089108908" y="624.3931059185164" /><line stroke="#089981" stroke-width="1.5207920792079208" x1="47.524752475247524" x2="47.524752475247524" y1="628.7315231487603" y2="658.1375838364684" /><rect fill="#089981" height="8.76208998353195" width="15.207920792079207" x="39.92079207920792" y="639.0278236029691" /><line stroke="#F23645" stroke-width="1.5207920792079208" x1="66.53465346534654" x2="66.53465346534654" y1="627.2118055110528" y2="654.2904519008544" /><rect fill="#F23645" height="12.652535759324678" width="15.207920792079207" x="58.930693069306926" y="639.0278236029691" /><line stroke="#F23645" stroke-width="1.5207920792079208" x1="85.54455445544554" x2="85.54455445544554" y1="637.6945676529982" y2="750.7844721509069" /><rect fill="#F23645" height="85.82384833083654" width="15.207920792079207" x="77.94059405940594" y="651.6803593622938" /><line stroke="#089981" stroke-width="1.5207920792079208" x1="104.55445544554456" x2="104.55445544554456" y1="715.8218598172901" y2="756.0" /><rect fill="#089981" height="12.417117513621974" width="15.207920792079207" x="96.95049504950495" y="725.0870901795083" /><line stroke="#089981" stroke-width="1.5207920792079208" x1="123.56435643564356" x2="123.56435643564356" y1="699.270893845548" y2="739.2080746476495" /><rect fill="#089981" height="19.349948786958066" width="15.207920792079207" x="115.96039603960395" y="705.7371413925503" /><line stroke="#089981" stroke-width="1.5207920792079208" x1="142.5742574257426" x2="142.5742574257426" y1="622.6791263279877" y2="714.0815062495124" /><rect fill="#089981" height="74.87792464208474" width="15.207920792079207" x="134.97029702970298" y="630.8592167504655" /><line stroke="#F23645" stroke-width="1.5207920792079208" x1="161.58415841584159" x2="161.58415841584159" y1="626.2186465662247" y2="695.7005635946163" /><rect fill="#F23645" height="21.301031703942613" width="15.207920792079207" x="153.98019801980197" y="630.8592167504655" /><line stroke="#089981" stroke-width="1.5207920792079208" x1="180.59405940594058" x2="180.59405940594058" y1="594.3848506142116" y2="687.3381736455018" /><rect fill="#089981" height="35.35535209049306" width="15.207920792079207" x="172.99009900990097" y="616.8048963639151" /><line stroke="#089981" stroke-width="1.5207920792079208" x1="199.6039603960396" x2="199.6039603960396" y1="525.8516285936237" y2="626.1165848625482" /><rect fill="#089981" height="88.81106851413529" width="15.207920792079207" x="192.0" y="527.9938278497798" /><line stroke="#F23645" stroke-width="1.5207920792079208" x1="218.6138613861386" x2="218.6138613861386" y1="512.9538489984874" y2="546.1064427217445" /><rect fill="#F23645" height="4.522277368019445" width="15.207920792079207" x="211.009900990099" y="527.9938278497798" /><line stroke="#F23645" stroke-width="1.5207920792079208" x1="237.6237623762376" x2="237.6237623762376" y1="521.9393025079152" y2="576.4511717345973" /><rect fill="#F23645" height="14.97007808814351" width="15.207920792079207" x="230.019801980198" y="532.5161052177992" /><line stroke="#F23645" stroke-width="1.5207920792079208" x1="256.63366336633663" x2="256.63366336633663" y1="540.1261108008915" y2="597.0012150431743" /><rect fill="#F23645" height="27.84018873645732" width="15.207920792079207" x="249.02970297029702" y="547.4861833059427" /><line stroke="#F23645" stroke-width="1.5207920792079208" x1="275.64356435643566" x2="275.64356435643566" y1="549.1152149714184" y2="611.7978580189338" /><rect fill="#F23645" height="16.51493498931427" width="15.207920792079207" x="268.03960396039605" y="575.3263720424001" /><line stroke="#F23645" stroke-width="1.5207920792079208" x1="294.65346534653463" x2="294.65346534653463" y1="571.0947906338243" y2="617.9345640874008" /><rect fill="#F23645" height="8.669573748016205" width="15.207920792079207" x="287.049504950495" y="591.8413070317143" /><line stroke="#F23645" stroke-width="1.5207920792079208" x1="313.66336633663366" x2="313.66336633663366" y1="598.5768528344468" y2="636.8575821863147" /><rect fill="#F23645" height="29.70330050462644" width="15.207920792079207" x="306.05940594059405" y="600.5108807797305" /><line stroke="#089981" stroke-width="1.5207920792079208" x1="332.6732673267327" x2="332.6732673267327" y1="563.271551343191" y2="653.0570486151985" /><rect fill="#089981" height="60.329376939165854" width="15.207920792079207" x="325.0693069306931" y="569.8848043451911" /><line stroke="#089981" stroke-width="1.5207920792079208" x1="351.68316831683165" x2="351.68316831683165" y1="556.8100680662337" y2="579.3690545715574" /><rect fill="#089981" height="8.360894367835044" width="15.207920792079207" x="344.07920792079204" y="561.5239099773561" /><line stroke="#089981" stroke-width="1.5207920792079208" x1="370.6930693069307" x2="370.6930693069307" y1="510.4592569897645" y2="568.5485426519768" /><rect fill="#089981" height="37.5044049394661" width="15.207920792079207" x="363.08910891089107" y="524.01950503789" /><line stroke="#089981" stroke-width="1.5207920792079208" x1="389.7029702970297" x2="389.7029702970297" y1="491.3111011730477" y2="532.0131227573659" /><rect fill="#089981" height="15.510574124993354" width="15.207920792079207" x="382.0990099009901" y="508.50893091289663" /><line stroke="#F23645" stroke-width="1.5207920792079208" x1="408.7128712871287" x2="408.7128712871287" y1="499.79699906866426" y2="566.4331027161022" /><rect fill="#F23645" height="25.40752459937903" width="15.207920792079207" x="401.10891089108907" y="508.50893091289663" /><line stroke="#F23645" stroke-width="1.5207920792079208" x1="427.7227722772277" x2="427.7227722772277" y1="504.81172760713036" y2="634.4300444180448" /><rect fill="#F23645" height="35.1107278535485" width="15.207920792079207" x="420.1188118811881" y="533.9164555122757" /><line stroke="#089981" stroke-width="1.5207920792079208" x1="446.73267326732673" x2="446.73267326732673" y1="516.1262053953562" y2="572.9059856675798" /><rect fill="#089981" height="10.993348951185908" width="15.207920792079207" x="439.1287128712871" y="558.0338344146382" /><line stroke="#F23645" stroke-width="1.5207920792079208" x1="465.7425742574257" x2="465.7425742574257" y1="539.8621686670194" y2="581.6107174495264" /><rect fill="#F23645" height="1" width="15.207920792079207" x="458.1386138613861" y="558.0338344146382" /><line stroke="#F23645" stroke-width="1.5207920792079208" x1="484.7524752475247" x2="484.7524752475247" y1="555.905339443758" y2="623.590111507277" /><rect fill="#F23645" height="55.79899880204391" width="15.207920792079207" x="477.1485148514851" y="558.1793192823953" /><line stroke="#F23645" stroke-width="1.5207920792079208" x1="503.76237623762376" x2="503.76237623762376" y1="586.49406499876" y2="657.181414749279" /><rect fill="#F23645" height="11.5093236032601" width="15.207920792079207" x="496.15841584158414" y="613.9783180844393" /><line stroke="#F23645" stroke-width="1.5207920792079208" x1="522.7722772277227" x2="522.7722772277227" y1="577.5246100202575" y2="657.9271857533812" /><rect fill="#F23645" height="5.071663088381342" width="15.207920792079207" x="515.1683168316831" y="625.4876416876994" /><line stroke="#089981" stroke-width="1.5207920792079208" x1="541.7821782178218" x2="541.7821782178218" y1="603.0931162244474" y2="661.3096233256264" /><rect fill="#089981" height="9.651028457994585" width="15.207920792079207" x="534.1782178217821" y="620.9082763180861" /><line stroke="#089981" stroke-width="1.5207920792079208" x1="560.7920792079207" x2="560.7920792079207" y1="602.1910951367596" y2="632.9836091016392" /><rect fill="#089981" height="7.332055429340471" width="15.207920792079207" x="553.188118811881" y="613.5762208887456" /><line stroke="#089981" stroke-width="1.5207920792079208" x1="579.8019801980197" x2="579.8019801980197" y1="545.2301166066677" y2="621.6978409442215" /><rect fill="#089981" height="68.14293350837215" width="15.207920792079207" x="572.1980198019801" y="545.4332873803735" /><line stroke="#F23645" stroke-width="1.5207920792079208" x1="598.8118811881187" x2="598.8118811881187" y1="542.2458168909675" y2="583.030955398701" /><rect fill="#F23645" height="23.888963420561595" width="15.207920792079207" x="591.2079207920791" y="545.4332873803735" /><line stroke="#F23645" stroke-width="1.5207920792079208" x1="617.8217821782177" x2="617.8217821782177" y1="551.2473740221157" y2="623.6948149509285" /><rect fill="#F23645" height="27.02499193397739" width="15.207920792079207" x="610.2178217821781" y="569.3222508009351" /><line stroke="#089981" stroke-width="1.5207920792079208" x1="636.8316831683168" x2="636.8316831683168" y1="473.10026470811465" y2="600.9212277286073" /><rect fill="#089981" height="116.03737759871842" width="15.207920792079207" x="629.2277227722772" y="480.30986513619405" /><line stroke="#089981" stroke-width="1.5207920792079208" x1="655.8415841584158" x2="655.8415841584158" y1="419.8860018689827" y2="509.6480156555456" /><rect fill="#089981" height="32.941062407896766" width="15.207920792079207" x="648.2376237623762" y="447.3688027282973" /><line stroke="#089981" stroke-width="1.5207920792079208" x1="674.8514851485148" x2="674.8514851485148" y1="386.94566160350297" y2="466.1965253000959" /><rect fill="#089981" height="55.39542628317241" width="15.207920792079207" x="667.2475247524752" y="391.97337644512487" /><line stroke="#F23645" stroke-width="1.5207920792079208" x1="693.8613861386137" x2="693.8613861386137" y1="327.99706785793364" y2="467.0590708748345" /><rect fill="#F23645" height="57.24054374741422" width="15.207920792079207" x="686.2574257425741" y="391.97337644512487" /><line stroke="#F23645" stroke-width="1.5207920792079208" x1="712.8712871287128" x2="712.8712871287128" y1="432.52407608145216" y2="488.7105867588766" /><rect fill="#F23645" height="14.380605921010556" width="15.207920792079207" x="705.2673267326732" y="449.2139201925391" /><line stroke="#089981" stroke-width="1.5207920792079208" x1="731.8811881188118" x2="731.8811881188118" y1="435.79421274439187" y2="488.1440266914232" /><rect fill="#089981" height="6.473195976109423" width="15.207920792079207" x="724.2772277227722" y="457.1213301374402" /><line stroke="#089981" stroke-width="1.5207920792079208" x1="750.8910891089108" x2="750.8910891089108" y1="388.61341275333234" y2="490.4107411609738" /><rect fill="#089981" height="56.518779823040404" width="15.207920792079207" x="743.2871287128712" y="400.6025503143998" /><line stroke="#089981" stroke-width="1.5207920792079208" x1="769.9009900990098" x2="769.9009900990098" y1="337.2296099268155" y2="419.4292974086551" /><rect fill="#089981" height="20.350173756936954" width="15.207920792079207" x="762.2970297029702" y="380.25237655746287" /><line stroke="#F23645" stroke-width="1.5207920792079208" x1="788.9108910891089" x2="788.9108910891089" y1="358.85591634055123" y2="433.25118736317427" /><rect fill="#F23645" height="31.287643877332926" width="15.207920792079207" x="781.3069306930693" y="380.25237655746287" /><line stroke="#089981" stroke-width="1.5207920792079208" x1="807.9207920792078" x2="807.9207920792078" y1="390.84843613430843" y2="419.29197177885214" /><rect fill="#089981" height="7.205685140710898" width="15.207920792079207" x="800.3168316831682" y="404.3343352940849" /><line stroke="#089981" stroke-width="1.5207920792079208" x1="826.9306930693068" x2="826.9306930693068" y1="371.25498759760075" y2="421.5989721007911" /><rect fill="#089981" height="23.02645769970951" width="15.207920792079207" x="819.3267326732672" y="381.3078775943754" /><line stroke="#F23645" stroke-width="1.5207920792079208" x1="845.9405940594058" x2="845.9405940594058" y1="329.80460629747614" y2="426.8034652881884" /><rect fill="#F23645" height="39.54070612451392" width="15.207920792079207" x="838.3366336633662" y="381.3078775943754" /><line stroke="#089981" stroke-width="1.5207920792079208" x1="864.9504950495049" x2="864.9504950495049" y1="379.924356335525" y2="443.6680328228936" /><rect fill="#089981" height="21.922334534694983" width="15.207920792079207" x="857.3465346534653" y="398.9262491841943" /><line stroke="#089981" stroke-width="1.5207920792079208" x1="883.9603960396039" x2="883.9603960396039" y1="313.7171970884995" y2="436.51538173230813" /><rect fill="#089981" height="70.39078019757096" width="15.207920792079207" x="876.3564356435643" y="328.53546898662336" /><line stroke="#089981" stroke-width="1.5207920792079208" x1="902.9702970297029" x2="902.9702970297029" y1="174.89592614273715" y2="353.76567749639446" /><rect fill="#089981" height="140.95539134142672" width="15.207920792079207" x="895.3663366336633" y="187.58007764519664" /><line stroke="#F23645" stroke-width="1.5207920792079208" x1="921.9801980198018" x2="921.9801980198018" y1="152.907330482181" y2="247.52241542930471" /><rect fill="#F23645" height="15.498232049945273" width="15.207920792079207" x="914.3762376237622" y="187.58007764519664" /><line stroke="#F23645" stroke-width="1.5207920792079208" x1="940.9900990099009" x2="940.9900990099009" y1="193.90749543559832" y2="250.66090884669768" /><rect fill="#F23645" height="34.34847775796152" width="15.207920792079207" x="933.3861386138612" y="203.0783096951419" /><line stroke="#089981" stroke-width="1.5207920792079208" x1="959.9999999999999" x2="959.9999999999999" y1="209.08140245503603" y2="261.37232129573437" /><rect fill="#089981" height="26.917199583323168" width="15.207920792079207" x="952.3960396039603" y="210.50958786978026" /><line stroke="#089981" stroke-width="1.5207920792079208" x1="979.0099009900989" x2="979.0099009900989" y1="179.2249102832369" y2="239.19806752510067" /><rect fill="#089981" height="22.96348795830295" width="15.207920792079207" x="971.4059405940593" y="187.5460999114773" /><line stroke="#F23645" stroke-width="1.5207920792079208" x1="998.0198019801979" x2="998.0198019801979" y1="152.15293425084394" y2="214.6625515892698" /><rect fill="#F23645" height="17.475056555669994" width="15.207920792079207" x="990.4158415841583" y="187.5460999114773" /><line stroke="#089981" stroke-width="1.5207920792079208" x1="1017.029702970297" x2="1017.029702970297" y1="152.49744817010503" y2="212.64486180551273" /><rect fill="#089981" height="18.11154474156467" width="15.207920792079207" x="1009.4257425742574" y="186.90961172558264" /><line stroke="#089981" stroke-width="1.5207920792079208" x1="1036.039603960396" x2="1036.039603960396" y1="114.20530327979066" y2="223.5996349505432" /><rect fill="#089981" height="64.32146987557053" width="15.207920792079207" x="1028.4356435643565" y="122.58814185001211" /><line stroke="#F23645" stroke-width="1.5207920792079208" x1="1055.049504950495" x2="1055.049504950495" y1="94.43967440232802" y2="187.09621266470447" /><rect fill="#F23645" height="48.78493906273093" width="15.207920792079207" x="1047.4455445544554" y="122.58814185001211" /><line stroke="#F23645" stroke-width="1.5207920792079208" x1="1074.0594059405942" x2="1074.0594059405942" y1="165.1374387150745" y2="207.56848364804193" /><rect fill="#F23645" height="22.776153469016776" width="15.207920792079207" x="1066.4554455445545" y="171.37308091274303" /><line stroke="#F23645" stroke-width="1.5207920792079208" x1="1093.069306930693" x2="1093.069306930693" y1="188.53762823844306" y2="326.9169367497981" /><rect fill="#F23645" height="105.0442236522224" width="15.207920792079207" x="1085.4653465346535" y="194.1492343817598" /><line stroke="#089981" stroke-width="1.5207920792079208" x1="1112.079207920792" x2="1112.079207920792" y1="216.84451790941432" y2="309.53968449477816" /><rect fill="#089981" height="79.4958551792813" width="15.207920792079207" x="1104.4752475247524" y="219.6976028547009" /><line stroke="#089981" stroke-width="1.5207920792079208" x1="1131.0891089108911" x2="1131.0891089108911" y1="150.3933228538874" y2="228.89315093338757" /><rect fill="#089981" height="26.344470389727576" width="15.207920792079207" x="1123.4851485148515" y="193.35313246497333" /><line stroke="#089981" stroke-width="1.5207920792079208" x1="1150.09900990099" x2="1150.09900990099" y1="140.22377351048544" y2="216.2936936534138" /><rect fill="#089981" height="39.62428926033704" width="15.207920792079207" x="1142.4950495049504" y="153.7288432046363" /><line stroke="#F23645" stroke-width="1.5207920792079208" x1="1169.1089108910892" x2="1169.1089108910892" y1="143.81310349980765" y2="181.8504324233145" /><rect fill="#F23645" height="2.8763461748809505" width="15.207920792079207" x="1161.5049504950496" y="153.7288432046363" /><line stroke="#F23645" stroke-width="1.5207920792079208" x1="1188.118811881188" x2="1188.118811881188" y1="136.98478356975352" y2="176.7649135373423" /><rect fill="#F23645" height="4.620812655189411" width="15.207920792079207" x="1180.5148514851485" y="156.60518937951724" /><line stroke="#F23645" stroke-width="1.5207920792079208" x1="1207.1287128712872" x2="1207.1287128712872" y1="141.56311930365814" y2="174.32506954011183" /><rect fill="#F23645" height="2.7780591879643453" width="15.207920792079207" x="1199.5247524752476" y="161.22600203470665" /><line stroke="#F23645" stroke-width="1.5207920792079208" x1="1226.1386138613861" x2="1226.1386138613861" y1="140.83135107968337" y2="250.2001754587144" /><rect fill="#F23645" height="56.72432010120963" width="15.207920792079207" x="1218.5346534653465" y="164.004061222671" /><line stroke="#F23645" stroke-width="1.5207920792079208" x1="1245.148514851485" x2="1245.148514851485" y1="219.60094261208064" y2="249.46757380585103" /><rect fill="#F23645" height="17.750080131669506" width="15.207920792079207" x="1237.5445544554455" y="220.72838132388063" /><line stroke="#089981" stroke-width="1.5207920792079208" x1="1264.1584158415842" x2="1264.1584158415842" y1="199.95766835961933" y2="241.08526307057207" /><rect fill="#089981" height="38.05639759536041" width="15.207920792079207" x="1256.5544554455446" y="200.42206386018972" /><line stroke="#F23645" stroke-width="1.5207920792079208" x1="1283.1683168316831" x2="1283.1683168316831" y1="196.4118478171257" y2="263.07911290119984" /><rect fill="#F23645" height="38.86044933779101" width="15.207920792079207" x="1275.5643564356435" y="200.42206386018972" /><line stroke="#089981" stroke-width="1.5207920792079208" x1="1302.1782178217823" x2="1302.1782178217823" y1="170.22780497193412" y2="269.0994809758335" /><rect fill="#089981" height="55.127063539718165" width="15.207920792079207" x="1294.5742574257426" y="184.15544965826257" /><line stroke="#089981" stroke-width="1.5207920792079208" x1="1321.1881188118812" x2="1321.1881188118812" y1="157.72133661870612" y2="203.12921855363584" /><rect fill="#089981" height="21.118972005523574" width="15.207920792079207" x="1313.5841584158416" y="163.036477652739" /><line stroke="#089981" stroke-width="1.5207920792079208" x1="1340.1980198019803" x2="1340.1980198019803" y1="152.91700682419946" y2="208.02210520796564" /><rect fill="#089981" height="5.671281234524827" width="15.207920792079207" x="1332.5940594059407" y="157.36519641821417" /><line stroke="#089981" stroke-width="1.5207920792079208" x1="1359.2079207920792" x2="1359.2079207920792" y1="52.252326791750306" y2="162.90451325474646" /><rect fill="#089981" height="97.50116646044421" width="15.207920792079207" x="1351.6039603960396" y="59.86402995776996" /><line stroke="#F23645" stroke-width="1.5207920792079208" x1="1378.2178217821781" x2="1378.2178217821781" y1="13.427627057557515" y2="113.91651405457912" /><rect fill="#F23645" height="14.716707515770395" width="15.207920792079207" x="1370.6138613861385" y="59.86402995776996" /><line stroke="#089981" stroke-width="1.5207920792079208" x1="1397.2277227722773" x2="1397.2277227722773" y1="17.688550556581504" y2="76.41885767680617" /><rect fill="#089981" height="54.8909374337494" width="15.207920792079207" x="1389.6237623762377" y="19.689800039790953" /><line stroke="#F23645" stroke-width="1.5207920792079208" x1="1416.2376237623762" x2="1416.2376237623762" y1="0.0" y2="68.53417252735699" /><rect fill="#F23645" height="43.65191180114459" width="15.207920792079207" x="1408.6336633663366" y="19.689800039790953" /><line stroke="#F23645" stroke-width="1.5207920792079208" x1="1435.2475247524753" x2="1435.2475247524753" y1="39.775049497642385" y2="100.01561953557507" /><rect fill="#F23645" height="31.397416222544848" width="15.207920792079207" x="1427.6435643564357" y="63.341711840935545" /><line stroke="#F23645" stroke-width="1.5207920792079208" x1="1454.2574257425742" x2="1454.2574257425742" y1="87.8313259693141" y2="149.4840975084411" /><rect fill="#F23645" height="21.96523072910452" width="15.207920792079207" x="1446.6534653465346" y="94.7391280634804" /><line stroke="#F23645" stroke-width="1.5207920792079208" x1="1473.2673267326732" x2="1473.2673267326732" y1="81.45601517442435" y2="181.6228415914428" /><rect fill="#F23645" height="55.538471837637076" width="15.207920792079207" x="1465.6633663366335" y="116.70435879258491" /><line stroke="#F23645" stroke-width="1.5207920792079208" x1="1492.2772277227723" x2="1492.2772277227723" y1="144.00044520445442" y2="205.02574019089332" /><rect fill="#F23645" height="15.655729858991208" width="15.207920792079207" x="1484.6732673267327" y="172.242830630222" /><line stroke="#F23645" stroke-width="1.5207920792079208" x1="1511.2871287128712" x2="1511.2871287128712" y1="180.27325160822352" y2="257.20800919249734" /><rect fill="#F23645" height="59.14070815085273" width="15.207920792079207" x="1503.6831683168316" y="187.8985604892132" /><line stroke="#F23645" stroke-width="1.5207920792079208" x1="1530.2970297029703" x2="1530.2970297029703" y1="243.30504059897896" y2="274.44056975431664" /><rect fill="#F23645" height="21.06522273342881" width="15.207920792079207" x="1522.6930693069307" y="247.03926864006593" /><line stroke="#089981" stroke-width="1.5207920792079208" x1="1549.3069306930693" x2="1549.3069306930693" y1="154.9421091362649" y2="285.1535621855096" /><rect fill="#089981" height="65.32257409196222" width="15.207920792079207" x="1541.7029702970297" y="202.78191728153251" /><line stroke="#089981" stroke-width="1.5207920792079208" x1="1568.3168316831684" x2="1568.3168316831684" y1="189.95118229596005" y2="216.12626374966044" /><rect fill="#089981" height="9.64724090519826" width="15.207920792079207" x="1560.7128712871288" y="193.13467637633426" /><line stroke="#F23645" stroke-width="1.5207920792079208" x1="1587.3267326732673" x2="1587.3267326732673" y1="189.6303361489347" y2="228.28157575228454" /><rect fill="#F23645" height="5.03996979757369" width="15.207920792079207" x="1579.7227722772277" y="193.13467637633426" /><line stroke="#F23645" stroke-width="1.5207920792079208" x1="1606.3366336633662" x2="1606.3366336633662" y1="168.72199062481445" y2="260.1795994005561" /><rect fill="#F23645" height="44.87016690422445" width="15.207920792079207" x="1598.7326732673266" y="198.17464617390795" /><line stroke="#089981" stroke-width="1.5207920792079208" x1="1625.3465346534654" x2="1625.3465346534654" y1="150.696343678096" y2="255.86256575343947" /><rect fill="#089981" height="71.2317758672192" width="15.207920792079207" x="1617.7425742574258" y="171.8130372109132" /><line stroke="#F23645" stroke-width="1.5207920792079208" x1="1644.3564356435643" x2="1644.3564356435643" y1="134.38239346273133" y2="236.9555861868713" /><rect fill="#F23645" height="26.69808172111243" width="15.207920792079207" x="1636.7524752475247" y="171.8130372109132" /><line stroke="#089981" stroke-width="1.5207920792079208" x1="1663.3663366336634" x2="1663.3663366336634" y1="148.7687960964388" y2="228.5917070434972" /><rect fill="#089981" height="11.67958137453229" width="15.207920792079207" x="1655.7623762376238" y="186.83153755749333" /><line stroke="#089981" stroke-width="1.5207920792079208" x1="1682.3762376237623" x2="1682.3762376237623" y1="134.03843227625123" y2="197.5934867333301" /><rect fill="#089981" height="47.93436368105506" width="15.207920792079207" x="1674.7722772277227" y="138.89717387643827" /><line stroke="#089981" stroke-width="1.5207920792079208" x1="1701.3861386138615" x2="1701.3861386138615" y1="86.64188101677905" y2="156.95736991933768" /><rect fill="#089981" height="31.722303400466217" width="15.207920792079207" x="1693.7821782178219" y="107.17487047597206" /><line stroke="#F23645" stroke-width="1.5207920792079208" x1="1720.3960396039604" x2="1720.3960396039604" y1="76.76728085038144" y2="178.2108706290926" /><rect fill="#F23645" height="59.13834356428583" width="15.207920792079207" x="1712.7920792079208" y="107.17487047597206" /><line stroke="#F23645" stroke-width="1.5207920792079208" x1="1739.4059405940593" x2="1739.4059405940593" y1="154.80614325422744" y2="271.25835277713526" /><rect fill="#F23645" height="85.10817880518209" width="15.207920792079207" x="1731.8019801980197" y="166.3132140402579" /><line stroke="#089981" stroke-width="1.5207920792079208" x1="1758.4158415841584" x2="1758.4158415841584" y1="138.42784078933107" y2="265.97619947021195" /><rect fill="#089981" height="55.03101504974154" width="15.207920792079207" x="1750.8118811881188" y="196.39037779569844" /><line stroke="#089981" stroke-width="1.5207920792079208" x1="1777.4257425742574" x2="1777.4257425742574" y1="123.305138224286" y2="203.995854768228" /><rect fill="#089981" height="63.45031599002971" width="15.207920792079207" x="1769.8217821782177" y="132.94006180566873" /><line stroke="#F23645" stroke-width="1.5207920792079208" x1="1796.4356435643565" x2="1796.4356435643565" y1="106.65020418830466" y2="212.23492145383852" /><rect fill="#F23645" height="33.98682000324084" width="15.207920792079207" x="1788.8316831683169" y="132.94006180566873" /><line stroke="#089981" stroke-width="1.5207920792079208" x1="1815.4455445544554" x2="1815.4455445544554" y1="139.68813984449343" y2="178.80937404385168" /><rect fill="#089981" height="21.38998865447695" width="15.207920792079207" x="1807.8415841584158" y="145.53689315443262" /><line stroke="#F23645" stroke-width="1.5207920792079208" x1="1834.4554455445543" x2="1834.4554455445543" y1="137.00365560719888" y2="184.84972322025988" /><rect fill="#F23645" height="38.58641207429912" width="15.207920792079207" x="1826.8514851485147" y="145.53689315443262" /><line stroke="#F23645" stroke-width="1.5207920792079208" x1="1853.4653465346535" x2="1853.4653465346535" y1="181.39243896898085" y2="207.77277802856634" /><rect fill="#F23645" height="21.976362198568722" width="15.207920792079207" x="1845.8613861386139" y="184.12330522873174" /><line stroke="#089981" stroke-width="1.5207920792079208" x1="1872.4752475247524" x2="1872.4752475247524" y1="153.86502854967478" y2="224.16206493427921" /><rect fill="#089981" height="16.423527555915484" width="15.207920792079207" x="1864.8712871287128" y="189.67613987138498" /><line stroke="#089981" stroke-width="1.5207920792079208" x1="1891.4851485148515" x2="1891.4851485148515" y1="136.2245073800076" y2="200.8751390618819" /><rect fill="#089981" height="31.550587934761097" width="15.207920792079207" x="1883.881188118812" y="158.12555193662388" /></g><g id="volume"><rect fill="#089981" height="219.67539267015707" opacity="0.5" width="15.207920792079207" x="1.900990099009901" y="860.3246073298429" /><rect fill="#F23645" height="304.1006846556585" opacity="0.5" width="15.207920792079207" x="20.910891089108908" y="775.8993153443415" /><rect fill="#089981" height="181.21425694724124" opacity="0.5" width="15.207920792079207" x="39.92079207920792" y="898.7857430527588" /><rect fill="#F23645" height="122.2339911397503" opacity="0.5" width="15.207920792079207" x="58.930693069306926" y="957.7660088602497" /><rect fill="#F23645" height="284.9190495368506" opacity="0.5" width="15.207920792079207" x="77.94059405940594" y="795.0809504631494" /><rect fill="#089981" height="208.55134917438585" opacity="0.5" width="15.207920792079207" x="96.95049504950495" y="871.4486508256141" /><rect fill="#089981" height="211.58517921868707" opacity="0.5" width="15.207920792079207" x="115.96039603960395" y="868.414820781313" /><rect fill="#089981" height="135.44583165525574" opacity="0.5" width="15.207920792079207" x="134.97029702970298" y="944.5541683447443" /><rect fill="#F23645" height="157.98751510269835" opacity="0.5" width="15.207920792079207" x="153.98019801980197" y="922.0124848973016" /><rect fill="#089981" height="310.85340314136124" opacity="0.5" width="15.207920792079207" x="172.99009900990097" y="769.1465968586388" /><rect fill="#089981" height="315.90978654853" opacity="0.5" width="15.207920792079207" x="192.0" y="764.0902134514699" /><rect fill="#F23645" height="204.147402335884" opacity="0.5" width="15.207920792079207" x="211.009900990099" y="875.852597664116" /><rect fill="#F23645" height="148.78815948449454" opacity="0.5" width="15.207920792079207" x="230.019801980198" y="931.2118405155054" /><rect fill="#F23645" height="133.8799838904551" opacity="0.5" width="15.207920792079207" x="249.02970297029702" y="946.1200161095448" /><rect fill="#F23645" height="298.6202174788562" opacity="0.5" width="15.207920792079207" x="268.03960396039605" y="781.3797825211439" /><rect fill="#F23645" height="258.95207410390657" opacity="0.5" width="15.207920792079207" x="287.049504950495" y="821.0479258960934" /><rect fill="#F23645" height="318.2259363672976" opacity="0.5" width="15.207920792079207" x="306.05940594059405" y="761.7740636327023" /><rect fill="#089981" height="87.36125654450261" opacity="0.5" width="15.207920792079207" x="325.0693069306931" y="992.6387434554974" /><rect fill="#089981" height="135.6089407974225" opacity="0.5" width="15.207920792079207" x="344.07920792079204" y="944.3910592025775" /><rect fill="#089981" height="150.94120016109545" opacity="0.5" width="15.207920792079207" x="363.08910891089107" y="929.0587998389045" /><rect fill="#089981" height="215.0430930326218" opacity="0.5" width="15.207920792079207" x="382.0990099009901" y="864.9569069673782" /><rect fill="#F23645" height="223.91623036649213" opacity="0.5" width="15.207920792079207" x="401.10891089108907" y="856.0837696335079" /><rect fill="#F23645" height="54.250100684655656" opacity="0.5" width="15.207920792079207" x="420.1188118811881" y="1025.7498993153442" /><rect fill="#089981" height="203.299234796617" opacity="0.5" width="15.207920792079207" x="439.1287128712871" y="876.7007652033831" /><rect fill="#F23645" height="279.0471204188482" opacity="0.5" width="15.207920792079207" x="458.1386138613861" y="800.9528795811518" /><rect fill="#F23645" height="187.15142972211035" opacity="0.5" width="15.207920792079207" x="477.1485148514851" y="892.8485702778896" /><rect fill="#F23645" height="203.8538058799839" opacity="0.5" width="15.207920792079207" x="496.15841584158414" y="876.1461941200162" /><rect fill="#F23645" height="147.12444623439387" opacity="0.5" width="15.207920792079207" x="515.1683168316831" y="932.8755537656061" /><rect fill="#089981" height="128.2364075714861" opacity="0.5" width="15.207920792079207" x="534.1782178217821" y="951.7635924285139" /><rect fill="#089981" height="172.30849778493757" opacity="0.5" width="15.207920792079207" x="553.188118811881" y="907.6915022150624" /><rect fill="#089981" height="304.622633910592" opacity="0.5" width="15.207920792079207" x="572.1980198019801" y="775.377366089408" /><rect fill="#F23645" height="250.99234796616997" opacity="0.5" width="15.207920792079207" x="591.2079207920791" y="829.00765203383" /><rect fill="#F23645" height="320.1832460732984" opacity="0.5" width="15.207920792079207" x="610.2178217821781" y="759.8167539267016" /><rect fill="#089981" height="180.98590414820782" opacity="0.5" width="15.207920792079207" x="629.2277227722772" y="899.0140958517921" /><rect fill="#089981" height="106.1840515505437" opacity="0.5" width="15.207920792079207" x="648.2376237623762" y="973.8159484494563" /><rect fill="#089981" height="116.03584373741442" opacity="0.5" width="15.207920792079207" x="667.2475247524752" y="963.9641562625856" /><rect fill="#F23645" height="63.80829641562626" opacity="0.5" width="15.207920792079207" x="686.2574257425741" y="1016.1917035843737" /><rect fill="#F23645" height="162.68505839710028" opacity="0.5" width="15.207920792079207" x="705.2673267326732" y="917.3149416028997" /><rect fill="#089981" height="181.21425694724124" opacity="0.5" width="15.207920792079207" x="724.2772277227722" y="898.7857430527588" /><rect fill="#089981" height="144.71043093032623" opacity="0.5" width="15.207920792079207" x="743.2871287128712" y="935.2895690696738" /><rect fill="#089981" height="261.6923076923077" opacity="0.5" width="15.207920792079207" x="762.2970297029702" y="818.3076923076924" /><rect fill="#F23645" height="184.05235602094243" opacity="0.5" width="15.207920792079207" x="781.3069306930693" y="895.9476439790576" /><rect fill="#089981" height="67.20096657269433" opacity="0.5" width="15.207920792079207" x="800.3168316831682" y="1012.7990334273056" /><rect fill="#089981" height="64.59122029802658" opacity="0.5" width="15.207920792079207" x="819.3267326732672" y="1015.4087797019735" /><rect fill="#F23645" height="223.5900120821587" opacity="0.5" width="15.207920792079207" x="838.3366336633662" y="856.4099879178414" /><rect fill="#089981" height="58.19734192509061" opacity="0.5" width="15.207920792079207" x="857.3465346534653" y="1021.8026580749093" /><rect fill="#089981" height="92.67861457913814" opacity="0.5" width="15.207920792079207" x="876.3564356435643" y="987.3213854208618" /><rect fill="#089981" height="249.72009665726944" opacity="0.5" width="15.207920792079207" x="895.3663366336633" y="830.2799033427306" /><rect fill="#F23645" height="60.44824808699154" opacity="0.5" width="15.207920792079207" x="914.3762376237622" y="1019.5517519130085" /><rect fill="#F23645" height="188.4563028594442" opacity="0.5" width="15.207920792079207" x="933.3861386138612" y="891.5436971405558" /><rect fill="#089981" height="134.53242045912202" opacity="0.5" width="15.207920792079207" x="952.3960396039603" y="945.467579540878" /><rect fill="#089981" height="259.8654853000403" opacity="0.5" width="15.207920792079207" x="971.4059405940593" y="820.1345146999597" /><rect fill="#F23645" height="324.0" opacity="0.5" width="15.207920792079207" x="990.4158415841583" y="756.0" /><rect fill="#089981" height="203.4623439387837" opacity="0.5" width="15.207920792079207" x="1009.4257425742574" y="876.5376560612162" /><rect fill="#089981" height="261.10511478050745" opacity="0.5" width="15.207920792079207" x="1028.4356435643565" y="818.8948852194926" /><rect fill="#F23645" height="122.13612565445027" opacity="0.5" width="15.207920792079207" x="1047.4455445544554" y="957.8638743455497" /><rect fill="#F23645" height="248.48046717680225" opacity="0.5" width="15.207920792079207" x="1066.4554455445545" y="831.5195328231978" /><rect fill="#F23645" height="224.47080144985907" opacity="0.5" width="15.207920792079207" x="1085.4653465346535" y="855.5291985501409" /><rect fill="#089981" height="257.8755537656061" opacity="0.5" width="15.207920792079207" x="1104.4752475247524" y="822.1244462343939" /><rect fill="#089981" height="125.2351993556182" opacity="0.5" width="15.207920792079207" x="1123.4851485148515" y="954.7648006443818" /><rect fill="#089981" height="111.79500604107935" opacity="0.5" width="15.207920792079207" x="1142.4950495049504" y="968.2049939589207" /><rect fill="#F23645" height="213.2162706403544" opacity="0.5" width="15.207920792079207" x="1161.5049504950496" y="866.7837293596456" /><rect fill="#F23645" height="142.6552557390254" opacity="0.5" width="15.207920792079207" x="1180.5148514851485" y="937.3447442609746" /><rect fill="#F23645" height="46.225130890052355" opacity="0.5" width="15.207920792079207" x="1199.5247524752476" y="1033.7748691099478" /><rect fill="#F23645" height="46.06202174788562" opacity="0.5" width="15.207920792079207" x="1218.5346534653465" y="1033.9379782521144" /><rect fill="#F23645" height="227.96133709222713" opacity="0.5" width="15.207920792079207" x="1237.5445544554455" y="852.0386629077728" /><rect fill="#089981" height="198.11236407571488" opacity="0.5" width="15.207920792079207" x="1256.5544554455446" y="881.8876359242852" /><rect fill="#F23645" height="144.8409182440596" opacity="0.5" width="15.207920792079207" x="1275.5643564356435" y="935.1590817559404" /><rect fill="#089981" height="319.2698348771647" opacity="0.5" width="15.207920792079207" x="1294.5742574257426" y="760.7301651228353" /><rect fill="#089981" height="45.50745066451872" opacity="0.5" width="15.207920792079207" x="1313.5841584158416" y="1034.4925493354813" /><rect fill="#089981" height="211.58517921868707" opacity="0.5" width="15.207920792079207" x="1332.5940594059407" y="868.414820781313" /><rect fill="#089981" height="289.02939991945226" opacity="0.5" width="15.207920792079207" x="1351.6039603960396" y="790.9706000805477" /><rect fill="#F23645" height="206.62666129681836" opacity="0.5" width="15.207920792079207" x="1370.6138613861385" y="873.3733387031816" /><rect fill="#089981" height="82.92468787756745" opacity="0.5" width="15.207920792079207" x="1389.6237623762377" y="997.0753121224326" /><rect fill="#F23645" height="82.85944422070077" opacity="0.5" width="15.207920792079207" x="1408.6336633663366" y="997.1405557792992" /><rect fill="#F23645" height="77.15062424486509" opacity="0.5" width="15.207920792079207" x="1427.6435643564357" y="1002.8493757551349" /><rect fill="#F23645" height="169.1768022553363" opacity="0.5" width="15.207920792079207" x="1446.6534653465346" y="910.8231977446637" /><rect fill="#F23645" height="190.80507450664518" opacity="0.5" width="15.207920792079207" x="1465.6633663366335" y="889.1949254933548" /><rect fill="#F23645" height="49.06322996375352" opacity="0.5" width="15.207920792079207" x="1484.6732673267327" y="1030.9367700362466" /><rect fill="#F23645" height="36.96053161498188" opacity="0.5" width="15.207920792079207" x="1503.6831683168316" y="1043.0394683850182" /><rect fill="#F23645" height="234.5509464357632" opacity="0.5" width="15.207920792079207" x="1522.6930693069307" y="845.4490535642368" /><rect fill="#089981" height="295.3254128070882" opacity="0.5" width="15.207920792079207" x="1541.7029702970297" y="784.6745871929118" /><rect fill="#089981" height="279.73217881594843" opacity="0.5" width="15.207920792079207" x="1560.7128712871288" y="800.2678211840516" /><rect fill="#F23645" height="122.16874748288362" opacity="0.5" width="15.207920792079207" x="1579.7227722772277" y="957.8312525171164" /><rect fill="#F23645" height="229.72291582762784" opacity="0.5" width="15.207920792079207" x="1598.7326732673266" y="850.2770841723722" /><rect fill="#089981" height="123.27788964961739" opacity="0.5" width="15.207920792079207" x="1617.7425742574258" y="956.7221103503826" /><rect fill="#F23645" height="32.91542488924688" opacity="0.5" width="15.207920792079207" x="1636.7524752475247" y="1047.0845751107531" /><rect fill="#089981" height="160.6625050342328" opacity="0.5" width="15.207920792079207" x="1655.7623762376238" y="919.3374949657672" /><rect fill="#089981" height="227.99395892066048" opacity="0.5" width="15.207920792079207" x="1674.7722772277227" y="852.0060410793395" /><rect fill="#089981" height="168.9158276278695" opacity="0.5" width="15.207920792079207" x="1693.7821782178219" y="911.0841723721305" /><rect fill="#F23645" height="194.94804671768023" opacity="0.5" width="15.207920792079207" x="1712.7920792079208" y="885.0519532823198" /><rect fill="#F23645" height="67.75553765606121" opacity="0.5" width="15.207920792079207" x="1731.8019801980197" y="1012.2444623439388" /><rect fill="#089981" height="73.4643576318969" opacity="0.5" width="15.207920792079207" x="1750.8118811881188" y="1006.5356423681031" /><rect fill="#089981" height="257.0926298832058" opacity="0.5" width="15.207920792079207" x="1769.8217821782177" y="822.9073701167943" /><rect fill="#F23645" height="76.0414820781313" opacity="0.5" width="15.207920792079207" x="1788.8316831683169" y="1003.9585179218687" /><rect fill="#089981" height="136.2613773660894" opacity="0.5" width="15.207920792079207" x="1807.8415841584158" y="943.7386226339106" /><rect fill="#F23645" height="214.29279097865486" opacity="0.5" width="15.207920792079207" x="1826.8514851485147" y="865.7072090213451" /><rect fill="#F23645" height="57.4144180426903" opacity="0.5" width="15.207920792079207" x="1845.8613861386139" y="1022.5855819573097" /><rect fill="#089981" height="308.9939589206605" opacity="0.5" width="15.207920792079207" x="1864.8712871287128" y="771.0060410793395" /><rect fill="#089981" height="253.69995972613773" opacity="0.5" width="15.207920792079207" x="1883.881188118812" y="826.3000402738622" /></g></svg>