<?xml version="1.0" encoding="utf-8" ?>
<svg baseProfile="full" height="600" version="1.1" width="800" xmlns="http://www.w3.org/2000/svg" xmlns:ev="http://www.w3.org/2001/xml-events" xmlns:xlink="http://www.w3.org/1999/xlink"><defs /><rect fill="#1E1E1E" height="100%" width="100%" x="0" y="0" /><g id="grid" opacity="0.25" stroke="#424242" stroke-width="1"><line x1="0" x2="800" y1="42" y2="42" /><line x1="0" x2="800" y1="84" y2="84" /><line x1="0" x2="800" y1="126" y2="126" /><line x1="0" x2="800" y1="168" y2="168" /><line x1="0" x2="800" y1="210" y2="210" /><line x1="0" x2="800" y1="252" y2="252" /><line x1="0" x2="800" y1="294" y2="294" /><line x1="0" x2="800" y1="336" y2="336" /><line x1="0" x2="800" y1="378" y2="378" /><line x1="0" x2="0" y1="0" y2="600" /><line x1="72" x2="72" y1="0" y2="600" /><line x1="144" x2="144" y1="0" y2="600" /><line x1="216" x2="216" y1="0" y2="600" /><line x1="288" x2="288" y1="0" y2="600" /><line x1="360" x2="360" y1="0" y2="600" /><line x1="432" x2="432" y1="0" y2="600" /><line x1="504" x2="504" y1="0" y2="600" /><line x1="576" x2="576" y1="0" y2="600" /><line x1="648" x2="648" y1="0" y2="600" /><line x1="720" x2="720" y1="0" y2="600" /></g><g id="ohlc_bars"><line stroke="#EF5350" stroke-width="1" x1="3.9603960396039604" x2="3.9603960396039604" y1="356.7683802105614" y2="420.0" /><line stroke="#EF5350" stroke-width="1" x1="0.7920792079207919" x2="3.9603960396039604" y1="366.83081378521007" y2="366.83081378521007" /><line stroke="#EF5350" stroke-width="1" x1="3.9603960396039604" x2="7.128712871287129" y1="396.6852936811453" y2="396.6852936811453" /><line stroke="#EF5350" stroke-width="1" x1="11.881188118811881" x2="11.881188118811881" y1="347.7701925527086" y2="388.16898767244226" /><line stroke="#EF5350" stroke-width="1" x1="8.712871287128714" x2="11.881188118811881" y1="363.54173082275315" y2="363.54173082275315" /><line stroke="#EF5350" stroke-width="1" x1="11.881188118811881" x2="15.049504950495049" y1="372.4144218843368" y2="372.4144218843368" /><line stroke="#EF5350" stroke-width="1" x1="19.801980198019802" x2="19.801980198019802" y1="324.2668021351887" y2="382.97242543465904" /><line stroke="#EF5350" stroke-width="1" x1="16.633663366336634" x2="19.801980198019802" y1="354.72660144666577" y2="354.72660144666577" /><line stroke="#EF5350" stroke-width="1" x1="19.801980198019802" x2="22.97029702970297" y1="361.9554944424835" y2="361.9554944424835" /><line stroke="#EF5350" stroke-width="1" x1="27.722772277227723" x2="27.722772277227723" y1="310.1197406225551" y2="373.84549570958416" /><line stroke="#EF5350" stroke-width="1" x1="24.554455445544555" x2="27.722772277227723" y1="339.75693389597734" y2="339.75693389597734" /><line stroke="#EF5350" stroke-width="1" x1="27.722772277227723" x2="30.89108910891089" y1="356.67940508557143" y2="356.67940508557143" /><line stroke="#EF5350" stroke-width="1" x1="35.64356435643565" x2="35.64356435643565" y1="298.396391026864" y2="341.13189308321165" /><line stroke="#EF5350" stroke-width="1" x1="32.475247524752476" x2="35.64356435643565" y1="337.14204847379534" y2="337.14204847379534" /><line stroke="#EF5350" stroke-width="1" x1="35.64356435643565" x2="38.81188118811882" y1="340.5440553779787" y2="340.5440553779787" /><line stroke="#26A69A" stroke-width="1" x1="43.56435643564356" x2="43.56435643564356" y1="299.6289356856964" y2="337.82677011205385" /><line stroke="#26A69A" stroke-width="1" x1="40.39603960396039" x2="43.56435643564356" y1="334.52704761799276" y2="334.52704761799276" /><line stroke="#26A69A" stroke-width="1" x1="43.56435643564356" x2="46.73267326732673" y1="326.00438438685234" y2="326.00438438685234" /><line stroke="#26A69A" stroke-width="1" x1="51.48514851485149" x2="51.48514851485149" y1="264.8920678980373" y2="355.0954823878083" /><line stroke="#26A69A" stroke-width="1" x1="48.31683168316832" x2="51.48514851485149" y1="319.1623568240195" y2="319.1623568240195" /><line stroke="#26A69A" stroke-width="1" x1="51.48514851485149" x2="54.65346534653466" y1="279.3769512092971" y2="279.3769512092971" /><line stroke="#26A69A" stroke-width="1" x1="59.4059405940594" x2="59.4059405940594" y1="291.37316488385954" y2="326.1426800206609" /><line stroke="#26A69A" stroke-width="1" x1="56.23762376237623" x2="59.4059405940594" y1="309.50529015023994" y2="309.50529015023994" /><line stroke="#26A69A" stroke-width="1" x1="59.4059405940594" x2="62.57425742574257" y1="305.8229123472947" y2="305.8229123472947" /><line stroke="#26A69A" stroke-width="1" x1="67.32673267326733" x2="67.32673267326733" y1="288.6271955751669" y2="323.9315505135369" /><line stroke="#26A69A" stroke-width="1" x1="64.15841584158416" x2="67.32673267326733" y1="308.54495035100217" y2="308.54495035100217" /><line stroke="#26A69A" stroke-width="1" x1="67.32673267326733" x2="70.4950495049505" y1="303.1124281618802" y2="303.1124281618802" /><line stroke="#EF5350" stroke-width="1" x1="75.24752475247524" x2="75.24752475247524" y1="192.11452527253093" y2="307.72575064261787" /><line stroke="#EF5350" stroke-width="1" x1="72.07920792079207" x2="75.24752475247524" y1="300.46898102505406" y2="300.46898102505406" /><line stroke="#EF5350" stroke-width="1" x1="75.24752475247524" x2="78.41584158415841" y1="302.0392721364528" y2="302.0392721364528" /><line stroke="#EF5350" stroke-width="1" x1="83.16831683168317" x2="83.16831683168317" y1="283.41029693356074" y2="346.0608651160742" /><line stroke="#EF5350" stroke-width="1" x1="80.0" x2="83.16831683168317" y1="299.4660565239926" y2="299.4660565239926" /><line stroke="#EF5350" stroke-width="1" x1="83.16831683168317" x2="86.33663366336634" y1="339.93878566141905" y2="339.93878566141905" /><line stroke="#EF5350" stroke-width="1" x1="91.08910891089108" x2="91.08910891089108" y1="266.54267073719893" y2="329.9407138409533" /><line stroke="#EF5350" stroke-width="1" x1="87.92079207920791" x2="91.08910891089108" y1="298.47938815742197" y2="298.47938815742197" /><line stroke="#EF5350" stroke-width="1" x1="91.08910891089108" x2="94.25742574257426" y1="299.0386465467931" y2="299.0386465467931" /><line stroke="#26A69A" stroke-width="1" x1="99.00990099009901" x2="99.00990099009901" y1="264.41608391604655" y2="315.73098616842344" /><line stroke="#26A69A" stroke-width="1" x1="95.84158415841584" x2="99.00990099009901" y1="292.51692635637204" y2="292.51692635637204" /><line stroke="#26A69A" stroke-width="1" x1="99.00990099009901" x2="102.17821782178218" y1="291.2464877791216" y2="291.2464877791216" /><line stroke="#26A69A" stroke-width="1" x1="106.93069306930693" x2="106.93069306930693" y1="231.43096154684997" y2="324.5872022840587" /><line stroke="#26A69A" stroke-width="1" x1="103.76237623762376" x2="106.93069306930693" y1="301.70800759527884" y2="301.70800759527884" /><line stroke="#26A69A" stroke-width="1" x1="106.93069306930693" x2="110.0990099009901" y1="249.75072888293292" y2="249.75072888293292" /><line stroke="#EF5350" stroke-width="1" x1="114.85148514851485" x2="114.85148514851485" y1="300.70805834664793" y2="350.3475541857003" /><line stroke="#EF5350" stroke-width="1" x1="111.68316831683168" x2="114.85148514851485" y1="309.57470983829097" y2="309.57470983829097" /><line stroke="#EF5350" stroke-width="1" x1="114.85148514851485" x2="118.01980198019803" y1="313.6321884798949" y2="313.6321884798949" /><line stroke="#26A69A" stroke-width="1" x1="122.77227722772277" x2="122.77227722772277" y1="281.5610920500427" y2="309.85765399171146" /><line stroke="#26A69A" stroke-width="1" x1="119.6039603960396" x2="122.77227722772277" y1="309.2669406668015" y2="309.2669406668015" /><line stroke="#26A69A" stroke-width="1" x1="122.77227722772277" x2="125.94059405940594" y1="302.90638876198403" y2="302.90638876198403" /><line stroke="#EF5350" stroke-width="1" x1="130.69306930693068" x2="130.69306930693068" y1="290.3919668289261" y2="332.0384143277171" /><line stroke="#EF5350" stroke-width="1" x1="127.52475247524751" x2="130.69306930693068" y1="312.12695036363766" y2="312.12695036363766" /><line stroke="#EF5350" stroke-width="1" x1="130.69306930693068" x2="133.86138613861385" y1="312.8591273120718" y2="312.8591273120718" /><line stroke="#EF5350" stroke-width="1" x1="138.6138613861386" x2="138.6138613861386" y1="298.99595023488644" y2="339.0331917881771" /><line stroke="#EF5350" stroke-width="1" x1="135.44554455445544" x2="138.6138613861386" y1="305.65625119477085" y2="305.65625119477085" /><line stroke="#EF5350" stroke-width="1" x1="138.6138613861386" x2="141.78217821782178" y1="330.30723057589665" y2="330.30723057589665" /><line stroke="#26A69A" stroke-width="1" x1="146.53465346534654" x2="146.53465346534654" y1="270.02335292019484" y2="316.89623525538957" /><line stroke="#26A69A" stroke-width="1" x1="143.36633663366337" x2="146.53465346534654" y1="307.7793609592271" y2="307.7793609592271" /><line stroke="#26A69A" stroke-width="1" x1="146.53465346534654" x2="149.7029702970297" y1="283.6737469833947" y2="283.6737469833947" /><line stroke="#26A69A" stroke-width="1" x1="154.45544554455446" x2="154.45544554455446" y1="295.28487727373385" y2="317.10821968227646" /><line stroke="#26A69A" stroke-width="1" x1="151.2871287128713" x2="154.45544554455446" y1="313.4480684726251" y2="313.4480684726251" /><line stroke="#26A69A" stroke-width="1" x1="154.45544554455446" x2="157.62376237623764" y1="297.5875105703781" y2="297.5875105703781" /><line stroke="#26A69A" stroke-width="1" x1="162.37623762376236" x2="162.37623762376236" y1="217.0989762312734" y2="301.60976866778435" /><line stroke="#26A69A" stroke-width="1" x1="159.2079207920792" x2="162.37623762376236" y1="298.88184822420567" y2="298.88184822420567" /><line stroke="#26A69A" stroke-width="1" x1="162.37623762376236" x2="165.54455445544554" y1="282.1965751304385" y2="282.1965751304385" /><line stroke="#EF5350" stroke-width="1" x1="170.2970297029703" x2="170.2970297029703" y1="243.69298314365432" y2="332.12804723862394" /><line stroke="#EF5350" stroke-width="1" x1="167.12871287128712" x2="170.2970297029703" y1="296.2080634651553" y2="296.2080634651553" /><line stroke="#EF5350" stroke-width="1" x1="170.2970297029703" x2="173.46534653465346" y1="315.38981470543797" y2="315.38981470543797" /><line stroke="#26A69A" stroke-width="1" x1="178.21782178217822" x2="178.21782178217822" y1="242.58242208529936" y2="314.48373872064593" /><line stroke="#26A69A" stroke-width="1" x1="175.04950495049505" x2="178.21782178217822" y1="291.4720502517581" y2="291.4720502517581" /><line stroke="#26A69A" stroke-width="1" x1="178.21782178217822" x2="181.3861386138614" y1="261.8828455934055" y2="261.8828455934055" /><line stroke="#EF5350" stroke-width="1" x1="186.13861386138615" x2="186.13861386138615" y1="251.8721354688101" y2="385.6439913463776" /><line stroke="#EF5350" stroke-width="1" x1="182.97029702970298" x2="186.13861386138615" y1="297.2282551283494" y2="297.2282551283494" /><line stroke="#EF5350" stroke-width="1" x1="186.13861386138615" x2="189.30693069306932" y1="326.7975638103972" y2="326.7975638103972" /><line stroke="#26A69A" stroke-width="1" x1="194.05940594059405" x2="194.05940594059405" y1="271.1433528226683" y2="325.0878912823091" /><line stroke="#26A69A" stroke-width="1" x1="190.89108910891088" x2="194.05940594059405" y1="296.79459700151443" y2="296.79459700151443" /><line stroke="#26A69A" stroke-width="1" x1="194.05940594059405" x2="197.22772277227722" y1="284.41599343983137" y2="284.41599343983137" /><line stroke="#26A69A" stroke-width="1" x1="201.98019801980197" x2="201.98019801980197" y1="214.92438325322775" y2="325.9013919082405" /><line stroke="#26A69A" stroke-width="1" x1="198.8118811881188" x2="201.98019801980197" y1="291.7534772044395" y2="291.7534772044395" /><line stroke="#26A69A" stroke-width="1" x1="201.98019801980197" x2="205.14851485148515" y1="245.55009635106234" y2="245.55009635106234" /><line stroke="#EF5350" stroke-width="1" x1="209.9009900990099" x2="209.9009900990099" y1="293.7770940636565" y2="349.0491182651983" /><line stroke="#EF5350" stroke-width="1" x1="206.73267326732673" x2="209.9009900990099" y1="295.5849092466624" y2="295.5849092466624" /><line stroke="#EF5350" stroke-width="1" x1="209.9009900990099" x2="213.06930693069307" y1="316.4783373261262" y2="316.4783373261262" /><line stroke="#EF5350" stroke-width="1" x1="217.82178217821783" x2="217.82178217821783" y1="258.3715894091927" y2="322.89186327548526" /><line stroke="#EF5350" stroke-width="1" x1="214.65346534653466" x2="217.82178217821783" y1="288.6821493679945" y2="288.6821493679945" /><line stroke="#EF5350" stroke-width="1" x1="217.82178217821783" x2="220.990099009901" y1="300.62709331889715" y2="300.62709331889715" /><line stroke="#26A69A" stroke-width="1" x1="225.74257425742573" x2="225.74257425742573" y1="266.42483177718987" y2="306.1968116463182" /><line stroke="#26A69A" stroke-width="1" x1="222.57425742574256" x2="225.74257425742573" y1="288.6440277928142" y2="288.6440277928142" /><line stroke="#26A69A" stroke-width="1" x1="225.74257425742573" x2="228.9108910891089" y1="286.542076984292" y2="286.542076984292" /><line stroke="#EF5350" stroke-width="1" x1="233.66336633663366" x2="233.66336633663366" y1="267.3206610281959" y2="314.72517214067346" /><line stroke="#EF5350" stroke-width="1" x1="230.4950495049505" x2="233.66336633663366" y1="286.43370962633287" y2="286.43370962633287" /><line stroke="#EF5350" stroke-width="1" x1="233.66336633663366" x2="236.83168316831683" y1="297.0535446613074" y2="297.0535446613074" /><line stroke="#EF5350" stroke-width="1" x1="241.58415841584159" x2="241.58415841584159" y1="265.86222087095405" y2="319.45574039944853" /><line stroke="#EF5350" stroke-width="1" x1="238.41584158415841" x2="241.58415841584159" y1="286.40309662922436" y2="286.40309662922436" /><line stroke="#EF5350" stroke-width="1" x1="241.58415841584159" x2="244.75247524752476" y1="319.1113114119182" y2="319.1113114119182" /><line stroke="#26A69A" stroke-width="1" x1="249.5049504950495" x2="249.5049504950495" y1="261.5845824942972" y2="294.35291580072476" /><line stroke="#26A69A" stroke-width="1" x1="246.33663366336634" x2="249.5049504950495" y1="269.1184790563676" y2="269.1184790563676" /><line stroke="#26A69A" stroke-width="1" x1="249.5049504950495" x2="252.67326732673268" y1="267.67227708812106" y2="267.67227708812106" /><line stroke="#EF5350" stroke-width="1" x1="257.4257425742574" x2="257.4257425742574" y1="263.6704916656409" y2="289.49130979347314" /><line stroke="#EF5350" stroke-width="1" x1="254.25742574257424" x2="257.4257425742574" y1="264.95215687444056" y2="264.95215687444056" /><line stroke="#EF5350" stroke-width="1" x1="257.4257425742574" x2="260.5940594059406" y1="287.35937776899516" y2="287.35937776899516" /><line stroke="#26A69A" stroke-width="1" x1="265.34653465346537" x2="265.34653465346537" y1="239.8125623845392" y2="287.1722545238453" /><line stroke="#26A69A" stroke-width="1" x1="262.1782178217822" x2="265.34653465346537" y1="268.12771719096384" y2="268.12771719096384" /><line stroke="#26A69A" stroke-width="1" x1="265.34653465346537" x2="268.51485148514854" y1="258.1382103577347" y2="258.1382103577347" /><line stroke="#EF5350" stroke-width="1" x1="273.26732673267327" x2="273.26732673267327" y1="197.78675546771314" y2="304.9009544071631" /><line stroke="#EF5350" stroke-width="1" x1="270.0990099009901" x2="273.26732673267327" y1="258.0831699793839" y2="258.0831699793839" /><line stroke="#EF5350" stroke-width="1" x1="273.26732673267327" x2="276.43564356435644" y1="277.47662746812944" y2="277.47662746812944" /><line stroke="#26A69A" stroke-width="1" x1="281.18811881188117" x2="281.18811881188117" y1="211.88450424448348" y2="266.54156972727674" /><line stroke="#26A69A" stroke-width="1" x1="278.019801980198" x2="281.18811881188117" y1="262.40571894823705" y2="262.40571894823705" /><line stroke="#26A69A" stroke-width="1" x1="281.18811881188117" x2="284.35643564356434" y1="229.71288154538047" y2="229.71288154538047" /><line stroke="#EF5350" stroke-width="1" x1="289.1089108910891" x2="289.1089108910891" y1="199.72074065274737" y2="296.4135056018356" /><line stroke="#EF5350" stroke-width="1" x1="285.94059405940595" x2="289.1089108910891" y1="256.6759744474732" y2="256.6759744474732" /><line stroke="#EF5350" stroke-width="1" x1="289.1089108910891" x2="292.2772277227723" y1="273.19717202119307" y2="273.19717202119307" /><line stroke="#EF5350" stroke-width="1" x1="297.029702970297" x2="297.029702970297" y1="260.94937109906107" y2="282.0251569891135" /><line stroke="#EF5350" stroke-width="1" x1="293.86138613861385" x2="297.029702970297" y1="266.19322363551635" y2="266.19322363551635" /><line stroke="#EF5350" stroke-width="1" x1="297.029702970297" x2="300.1980198019802" y1="272.98648194950965" y2="272.98648194950965" /><line stroke="#26A69A" stroke-width="1" x1="304.9504950495049" x2="304.9504950495049" y1="235.49881976508692" y2="282.88380809047953" /><line stroke="#26A69A" stroke-width="1" x1="301.78217821782175" x2="304.9504950495049" y1="271.2704986502389" y2="271.2704986502389" /><line stroke="#26A69A" stroke-width="1" x1="304.9504950495049" x2="308.1188118811881" y1="254.11094271948974" y2="254.11094271948974" /><line stroke="#EF5350" stroke-width="1" x1="312.8712871287129" x2="312.8712871287129" y1="241.65125574881168" y2="307.44204408163415" /><line stroke="#EF5350" stroke-width="1" x1="309.7029702970297" x2="312.8712871287129" y1="265.62514291982166" y2="265.62514291982166" /><line stroke="#EF5350" stroke-width="1" x1="312.8712871287129" x2="316.03960396039605" y1="291.58782032854583" y2="291.58782032854583" /><line stroke="#26A69A" stroke-width="1" x1="320.7920792079208" x2="320.7920792079208" y1="229.08502727356262" y2="279.2959283679093" /><line stroke="#26A69A" stroke-width="1" x1="317.6237623762376" x2="320.7920792079208" y1="256.1717517450829" y2="256.1717517450829" /><line stroke="#26A69A" stroke-width="1" x1="320.7920792079208" x2="323.96039603960395" y1="251.3739289252243" y2="251.3739289252243" /><line stroke="#26A69A" stroke-width="1" x1="328.71287128712873" x2="328.71287128712873" y1="219.90716068846345" y2="257.5591113877" /><line stroke="#26A69A" stroke-width="1" x1="325.54455445544556" x2="328.71287128712873" y1="250.70563736826634" y2="250.70563736826634" /><line stroke="#26A69A" stroke-width="1" x1="328.71287128712873" x2="331.8811881188119" y1="223.13401537591898" y2="223.13401537591898" /><line stroke="#EF5350" stroke-width="1" x1="336.63366336633663" x2="336.63366336633663" y1="233.0552477557836" y2="288.05371314041764" /><line stroke="#EF5350" stroke-width="1" x1="333.46534653465346" x2="336.63366336633663" y1="247.25754083242273" y2="247.25754083242273" /><line stroke="#EF5350" stroke-width="1" x1="336.63366336633663" x2="339.8019801980198" y1="281.1642583329825" y2="281.1642583329825" /><line stroke="#26A69A" stroke-width="1" x1="344.55445544554453" x2="344.55445544554453" y1="216.87034174528426" y2="259.3706849647021" /><line stroke="#26A69A" stroke-width="1" x1="341.38613861386136" x2="344.55445544554453" y1="245.11338413851348" y2="245.11338413851348" /><line stroke="#26A69A" stroke-width="1" x1="344.55445544554453" x2="347.7227722772277" y1="241.21889370297126" y2="241.21889370297126" /><line stroke="#26A69A" stroke-width="1" x1="352.4752475247525" x2="352.4752475247525" y1="212.00874430833858" y2="264.49518352951884" /><line stroke="#26A69A" stroke-width="1" x1="349.3069306930693" x2="352.4752475247525" y1="251.2476734531832" y2="251.2476734531832" /><line stroke="#26A69A" stroke-width="1" x1="352.4752475247525" x2="355.64356435643566" y1="245.765953769654" y2="245.765953769654" /><line stroke="#26A69A" stroke-width="1" x1="360.3960396039604" x2="360.3960396039604" y1="226.1491288644269" y2="258.5738743094788" /><line stroke="#26A69A" stroke-width="1" x1="357.2277227722772" x2="360.3960396039604" y1="252.0476876985554" y2="252.0476876985554" /><line stroke="#26A69A" stroke-width="1" x1="360.3960396039604" x2="363.56435643564356" y1="235.55666205120832" y2="235.55666205120832" /><line stroke="#EF5350" stroke-width="1" x1="368.3168316831683" x2="368.3168316831683" y1="237.66783361667538" y2="317.8422950244902" /><line stroke="#EF5350" stroke-width="1" x1="365.1485148514851" x2="368.3168316831683" y1="251.0252245555163" y2="251.0252245555163" /><line stroke="#EF5350" stroke-width="1" x1="368.3168316831683" x2="371.48514851485146" y1="277.11628256104996" y2="277.11628256104996" /><line stroke="#EF5350" stroke-width="1" x1="376.23762376237624" x2="376.23762376237624" y1="220.95708942700273" y2="306.767409645346" /><line stroke="#EF5350" stroke-width="1" x1="373.0693069306931" x2="376.23762376237624" y1="239.33136066662863" y2="239.33136066662863" /><line stroke="#EF5350" stroke-width="1" x1="376.23762376237624" x2="379.4059405940594" y1="267.18381249255106" y2="267.18381249255106" /><line stroke="#26A69A" stroke-width="1" x1="384.15841584158414" x2="384.15841584158414" y1="171.99307361817964" y2="252.85972300900667" /><line stroke="#26A69A" stroke-width="1" x1="380.990099009901" x2="384.15841584158414" y1="232.6541538508187" y2="232.6541538508187" /><line stroke="#26A69A" stroke-width="1" x1="384.15841584158414" x2="387.3267326732673" y1="221.64481649869222" y2="221.64481649869222" /><line stroke="#26A69A" stroke-width="1" x1="392.0792079207921" x2="392.0792079207921" y1="223.13485303767615" y2="246.79189545911458" /><line stroke="#26A69A" stroke-width="1" x1="388.91089108910893" x2="392.0792079207921" y1="240.78889472787674" y2="240.78889472787674" /><line stroke="#26A69A" stroke-width="1" x1="392.0792079207921" x2="395.2475247524753" y1="234.52458341139672" y2="234.52458341139672" /><line stroke="#26A69A" stroke-width="1" x1="400.0" x2="400.0" y1="193.50419950736787" y2="242.99301737933942" /><line stroke="#26A69A" stroke-width="1" x1="396.83168316831683" x2="400.0" y1="234.24903401547692" y2="234.24903401547692" /><line stroke="#26A69A" stroke-width="1" x1="400.0" x2="403.16831683168317" y1="228.96537684880926" y2="228.96537684880926" /><line stroke="#26A69A" stroke-width="1" x1="407.9207920792079" x2="407.9207920792079" y1="199.57367862280157" y2="274.1883403880704" /><line stroke="#26A69A" stroke-width="1" x1="404.7524752475247" x2="407.9207920792079" y1="232.69533203375516" y2="232.69533203375516" /><line stroke="#26A69A" stroke-width="1" x1="407.9207920792079" x2="411.08910891089107" y1="225.38768408108754" y2="225.38768408108754" /><line stroke="#EF5350" stroke-width="1" x1="415.84158415841586" x2="415.84158415841586" y1="173.50990908112462" y2="271.6582238061488" /><line stroke="#EF5350" stroke-width="1" x1="412.6732673267327" x2="415.84158415841586" y1="233.1935595786765" y2="233.1935595786765" /><line stroke="#EF5350" stroke-width="1" x1="415.84158415841586" x2="419.009900990099" y1="247.53735218081363" y2="247.53735218081363" /><line stroke="#26A69A" stroke-width="1" x1="423.76237623762376" x2="423.76237623762376" y1="190.6955789573794" y2="229.1297538620995" /><line stroke="#26A69A" stroke-width="1" x1="420.5940594059406" x2="423.76237623762376" y1="224.6316328770057" y2="224.6316328770057" /><line stroke="#26A69A" stroke-width="1" x1="423.76237623762376" x2="426.9306930693069" y1="219.7326950039471" y2="219.7326950039471" /><line stroke="#26A69A" stroke-width="1" x1="431.68316831683165" x2="431.68316831683165" y1="164.20879329330702" y2="213.6562511093507" /><line stroke="#26A69A" stroke-width="1" x1="428.5148514851485" x2="431.68316831683165" y1="213.121438116862" y2="213.121438116862" /><line stroke="#26A69A" stroke-width="1" x1="431.68316831683165" x2="434.8514851485148" y1="206.93964701280666" y2="206.93964701280666" /><line stroke="#EF5350" stroke-width="1" x1="439.6039603960396" x2="439.6039603960396" y1="188.69374336413512" y2="245.5754162687472" /><line stroke="#EF5350" stroke-width="1" x1="436.43564356435644" x2="439.6039603960396" y1="202.31237200449593" y2="202.31237200449593" /><line stroke="#EF5350" stroke-width="1" x1="439.6039603960396" x2="442.7722772277228" y1="217.38021918721046" y2="217.38021918721046" /><line stroke="#26A69A" stroke-width="1" x1="447.5247524752475" x2="447.5247524752475" y1="128.96614808248927" y2="204.47236641649212" /><line stroke="#26A69A" stroke-width="1" x1="444.35643564356434" x2="447.5247524752475" y1="203.95170184913417" y2="203.95170184913417" /><line stroke="#26A69A" stroke-width="1" x1="447.5247524752475" x2="450.6930693069307" y1="164.59683462005341" y2="164.59683462005341" /><line stroke="#26A69A" stroke-width="1" x1="455.44554455445547" x2="455.44554455445547" y1="171.96743863163974" y2="209.98281060105688" /><line stroke="#26A69A" stroke-width="1" x1="452.2772277227723" x2="455.44554455445547" y1="201.8645574099577" y2="201.8645574099577" /><line stroke="#26A69A" stroke-width="1" x1="455.44554455445547" x2="458.61386138613864" y1="191.86997790430812" y2="191.86997790430812" /><line stroke="#EF5350" stroke-width="1" x1="463.36633663366337" x2="463.36633663366337" y1="182.7922130866603" y2="229.47859352836815" /><line stroke="#EF5350" stroke-width="1" x1="460.1980198019802" x2="463.36633663366337" y1="195.27421779055112" y2="195.27421779055112" /><line stroke="#EF5350" stroke-width="1" x1="463.36633663366337" x2="466.53465346534654" y1="220.40243702706755" y2="220.40243702706755" /><line stroke="#26A69A" stroke-width="1" x1="471.28712871287127" x2="471.28712871287127" y1="148.51935295917713" y2="207.41901731141766" /><line stroke="#26A69A" stroke-width="1" x1="468.1188118811881" x2="471.28712871287127" y1="184.1539237310119" y2="184.1539237310119" /><line stroke="#26A69A" stroke-width="1" x1="471.28712871287127" x2="474.45544554455444" y1="170.3052083893575" y2="170.3052083893575" /><line stroke="#EF5350" stroke-width="1" x1="479.2079207920792" x2="479.2079207920792" y1="157.19273454281426" y2="218.4269219421118" /><line stroke="#EF5350" stroke-width="1" x1="476.03960396039605" x2="479.2079207920792" y1="183.26178373866279" y2="183.26178373866279" /><line stroke="#EF5350" stroke-width="1" x1="479.2079207920792" x2="482.3762376237624" y1="203.820788855996" y2="203.820788855996" /><line stroke="#26A69A" stroke-width="1" x1="487.1287128712871" x2="487.1287128712871" y1="162.02982711310023" y2="223.41277626607854" /><line stroke="#26A69A" stroke-width="1" x1="483.96039603960395" x2="487.1287128712871" y1="180.30593346326359" y2="180.30593346326359" /><line stroke="#26A69A" stroke-width="1" x1="487.1287128712871" x2="490.2970297029703" y1="163.70392186255168" y2="163.70392186255168" /><line stroke="#26A69A" stroke-width="1" x1="495.049504950495" x2="495.049504950495" y1="68.22745992752107" y2="186.88214724080794" /><line stroke="#26A69A" stroke-width="1" x1="491.88118811881185" x2="495.049504950495" y1="183.8233701829746" y2="183.8233701829746" /><line stroke="#26A69A" stroke-width="1" x1="495.049504950495" x2="498.2178217821782" y1="159.38506056320148" y2="159.38506056320148" /><line stroke="#EF5350" stroke-width="1" x1="502.970297029703" x2="502.970297029703" y1="159.16275525624582" y2="216.5811505878329" /><line stroke="#EF5350" stroke-width="1" x1="499.8019801980198" x2="502.970297029703" y1="187.97269584661012" y2="187.97269584661012" /><line stroke="#EF5350" stroke-width="1" x1="502.970297029703" x2="506.13861386138615" y1="205.28338558058525" y2="205.28338558058525" /><line stroke="#26A69A" stroke-width="1" x1="510.8910891089109" x2="510.8910891089109" y1="150.57481406862098" y2="197.4082447818593" /><line stroke="#26A69A" stroke-width="1" x1="507.7227722772277" x2="510.8910891089109" y1="177.99859300775566" y2="177.99859300775566" /><line stroke="#26A69A" stroke-width="1" x1="510.8910891089109" x2="514.059405940594" y1="157.67805618424956" y2="157.67805618424956" /><line stroke="#26A69A" stroke-width="1" x1="518.8118811881188" x2="518.8118811881188" y1="120.40208986402297" y2="175.4855763395542" /><line stroke="#26A69A" stroke-width="1" x1="515.6435643564357" x2="518.8118811881188" y1="164.20162728330362" y2="164.20162728330362" /><line stroke="#26A69A" stroke-width="1" x1="518.8118811881188" x2="521.980198019802" y1="155.4948202831825" y2="155.4948202831825" /><line stroke="#26A69A" stroke-width="1" x1="526.7326732673267" x2="526.7326732673267" y1="97.19692234875504" y2="166.74910081761269" /><line stroke="#26A69A" stroke-width="1" x1="523.5643564356436" x2="526.7326732673267" y1="160.4467101725087" y2="160.4467101725087" /><line stroke="#26A69A" stroke-width="1" x1="526.7326732673267" x2="529.9009900990098" y1="143.10695756164773" y2="143.10695756164773" /><line stroke="#26A69A" stroke-width="1" x1="534.6534653465346" x2="534.6534653465346" y1="68.8991089388054" y2="149.48378311802293" /><line stroke="#26A69A" stroke-width="1" x1="531.4851485148515" x2="534.6534653465346" y1="149.12963366934258" y2="149.12963366934258" /><line stroke="#26A69A" stroke-width="1" x1="534.6534653465346" x2="537.8217821782177" y1="109.12049239985578" y2="109.12049239985578" /><line stroke="#EF5350" stroke-width="1" x1="542.5742574257425" x2="542.5742574257425" y1="129.9499058602517" y2="150.24877521285464" /><line stroke="#EF5350" stroke-width="1" x1="539.4059405940594" x2="542.5742574257425" y1="142.32574388026575" y2="142.32574388026575" /><line stroke="#EF5350" stroke-width="1" x1="542.5742574257425" x2="545.7425742574256" y1="147.50172665160386" y2="147.50172665160386" /><line stroke="#EF5350" stroke-width="1" x1="550.4950495049505" x2="550.4950495049505" y1="138.92341336937352" y2="180.23913516473067" /><line stroke="#EF5350" stroke-width="1" x1="547.3267326732674" x2="550.4950495049505" y1="142.60036935007633" y2="142.60036935007633" /><line stroke="#EF5350" stroke-width="1" x1="550.4950495049505" x2="553.6633663366337" y1="158.49896079124983" y2="158.49896079124983" /><line stroke="#EF5350" stroke-width="1" x1="558.4158415841584" x2="558.4158415841584" y1="95.26371194557697" y2="155.25006420235695" /><line stroke="#EF5350" stroke-width="1" x1="555.2475247524753" x2="558.4158415841584" y1="135.79816995445043" y2="135.79816995445043" /><line stroke="#EF5350" stroke-width="1" x1="558.4158415841584" x2="561.5841584158416" y1="154.56073856451553" y2="154.56073856451553" /><line stroke="#EF5350" stroke-width="1" x1="566.3366336633663" x2="566.3366336633663" y1="80.34071515974938" y2="151.93664806551317" /><line stroke="#EF5350" stroke-width="1" x1="563.1683168316832" x2="566.3366336633663" y1="120.72298999620745" y2="120.72298999620745" /><line stroke="#EF5350" stroke-width="1" x1="566.3366336633663" x2="569.5049504950495" y1="137.93091370679264" y2="137.93091370679264" /><line stroke="#EF5350" stroke-width="1" x1="574.2574257425742" x2="574.2574257425742" y1="84.0007736420971" y2="159.15202339318228" /><line stroke="#EF5350" stroke-width="1" x1="571.0891089108911" x2="574.2574257425742" y1="116.71366204906866" y2="116.71366204906866" /><line stroke="#EF5350" stroke-width="1" x1="574.2574257425742" x2="577.4257425742574" y1="118.33997193753726" y2="118.33997193753726" /><line stroke="#26A69A" stroke-width="1" x1="582.1782178217821" x2="582.1782178217821" y1="93.96767777429619" y2="128.42999854058172" /><line stroke="#26A69A" stroke-width="1" x1="579.009900990099" x2="582.1782178217821" y1="101.45140723935594" y2="101.45140723935594" /><line stroke="#26A69A" stroke-width="1" x1="582.1782178217821" x2="585.3465346534653" y1="94.25547300740516" y2="94.25547300740516" /><line stroke="#26A69A" stroke-width="1" x1="590.09900990099" x2="590.09900990099" y1="82.16939273862289" y2="176.16588863471983" /><line stroke="#26A69A" stroke-width="1" x1="586.9306930693069" x2="590.09900990099" y1="115.60965369193707" y2="115.60965369193707" /><line stroke="#26A69A" stroke-width="1" x1="590.09900990099" x2="593.2673267326732" y1="109.77340198729786" y2="109.77340198729786" /><line stroke="#26A69A" stroke-width="1" x1="598.019801980198" x2="598.019801980198" y1="75.12558276261171" y2="127.15055298406912" /><line stroke="#26A69A" stroke-width="1" x1="594.8514851485149" x2="598.019801980198" y1="105.56962325890157" y2="105.56962325890157" /><line stroke="#26A69A" stroke-width="1" x1="598.019801980198" x2="601.1881188118812" y1="88.12180909621435" y2="88.12180909621435" /><line stroke="#26A69A" stroke-width="1" x1="605.940594059406" x2="605.940594059406" y1="94.8237560808169" y2="125.22957148281898" /><line stroke="#26A69A" stroke-width="1" x1="602.7722772277228" x2="605.940594059406" y1="100.69637261784919" y2="100.69637261784919" /><line stroke="#26A69A" stroke-width="1" x1="605.940594059406" x2="609.1089108910891" y1="100.42212311689099" y2="100.42212311689099" /><line stroke="#26A69A" stroke-width="1" x1="613.8613861386139" x2="613.8613861386139" y1="50.997479505827755" y2="103.6937982565459" /><line stroke="#26A69A" stroke-width="1" x1="610.6930693069307" x2="613.8613861386139" y1="98.53747648936786" y2="98.53747648936786" /><line stroke="#26A69A" stroke-width="1" x1="613.8613861386139" x2="617.029702970297" y1="67.8780156178754" y2="67.8780156178754" /><line stroke="#EF5350" stroke-width="1" x1="621.7821782178218" x2="621.7821782178218" y1="91.6679655918137" y2="160.7996538380964" /><line stroke="#EF5350" stroke-width="1" x1="618.6138613861386" x2="621.7821782178218" y1="93.63108369330365" y2="93.63108369330365" /><line stroke="#EF5350" stroke-width="1" x1="621.7821782178218" x2="624.9504950495049" y1="99.21350239992341" y2="99.21350239992341" /><line stroke="#26A69A" stroke-width="1" x1="629.7029702970297" x2="629.7029702970297" y1="35.131253739725764" y2="126.07712004983142" /><line stroke="#26A69A" stroke-width="1" x1="626.5346534653465" x2="629.7029702970297" y1="103.34448970489365" y2="103.34448970489365" /><line stroke="#26A69A" stroke-width="1" x1="629.7029702970297" x2="632.8712871287128" y1="45.9678368712714" y2="45.9678368712714" /><line stroke="#26A69A" stroke-width="1" x1="637.6237623762377" x2="637.6237623762377" y1="84.23798594992871" y2="124.244173103626" /><line stroke="#26A69A" stroke-width="1" x1="634.4554455445545" x2="637.6237623762377" y1="100.62778472729974" y2="100.62778472729974" /><line stroke="#26A69A" stroke-width="1" x1="637.6237623762377" x2="640.7920792079208" y1="87.43055470095777" y2="87.43055470095777" /><line stroke="#EF5350" stroke-width="1" x1="645.5445544554456" x2="645.5445544554456" y1="75.23389587859282" y2="128.79311837935444" /><line stroke="#EF5350" stroke-width="1" x1="642.3762376237624" x2="645.5445544554456" y1="93.85569940910227" y2="93.85569940910227" /><line stroke="#EF5350" stroke-width="1" x1="645.5445544554456" x2="648.7128712871287" y1="111.93576301039383" y2="111.93576301039383" /><line stroke="#EF5350" stroke-width="1" x1="653.4653465346535" x2="653.4653465346535" y1="34.59814863461696" y2="161.52434002487968" /><line stroke="#EF5350" stroke-width="1" x1="650.2970297029703" x2="653.4653465346535" y1="79.20338243941956" y2="79.20338243941956" /><line stroke="#EF5350" stroke-width="1" x1="653.4653465346535" x2="656.6336633663366" y1="101.79176695537888" y2="101.79176695537888" /><line stroke="#26A69A" stroke-width="1" x1="661.3861386138614" x2="661.3861386138614" y1="33.596915437286896" y2="93.37249322317092" /><line stroke="#26A69A" stroke-width="1" x1="658.2178217821782" x2="661.3861386138614" y1="78.58612688241834" y2="78.58612688241834" /><line stroke="#26A69A" stroke-width="1" x1="661.3861386138614" x2="664.5544554455445" y1="68.40931412708727" y2="68.40931412708727" /><line stroke="#EF5350" stroke-width="1" x1="669.3069306930693" x2="669.3069306930693" y1="20.019875468161217" y2="106.07284047943864" /><line stroke="#EF5350" stroke-width="1" x1="666.1386138613861" x2="669.3069306930693" y1="80.00943637409682" y2="80.00943637409682" /><line stroke="#EF5350" stroke-width="1" x1="669.3069306930693" x2="672.4752475247524" y1="84.72294714113144" y2="84.72294714113144" /><line stroke="#26A69A" stroke-width="1" x1="677.2277227722773" x2="677.2277227722773" y1="9.314994806177367" y2="83.5057604700217" /><line stroke="#26A69A" stroke-width="1" x1="674.0594059405942" x2="677.2277227722773" y1="79.27607643371698" y2="79.27607643371698" /><line stroke="#26A69A" stroke-width="1" x1="677.2277227722773" x2="680.3960396039604" y1="64.21563130562282" y2="64.21563130562282" /><line stroke="#26A69A" stroke-width="1" x1="685.1485148514852" x2="685.1485148514852" y1="54.32781261581238" y2="78.19021472757288" /><line stroke="#26A69A" stroke-width="1" x1="681.9801980198021" x2="685.1485148514852" y1="68.57864879173496" y2="68.57864879173496" /><line stroke="#26A69A" stroke-width="1" x1="685.1485148514852" x2="688.3168316831683" y1="58.596625899016544" y2="58.596625899016544" /><line stroke="#EF5350" stroke-width="1" x1="693.0693069306931" x2="693.0693069306931" y1="45.46010429764851" y2="116.30770020669405" /><line stroke="#EF5350" stroke-width="1" x1="689.90099009901" x2="693.0693069306931" y1="62.00597334487037" y2="62.00597334487037" /><line stroke="#EF5350" stroke-width="1" x1="693.0693069306931" x2="696.2376237623762" y1="63.54215693561457" y2="63.54215693561457" /><line stroke="#EF5350" stroke-width="1" x1="700.990099009901" x2="700.990099009901" y1="53.56687160128007" y2="106.06074080880882" /><line stroke="#EF5350" stroke-width="1" x1="697.8217821782179" x2="700.990099009901" y1="61.46950405131366" y2="61.46950405131366" /><line stroke="#EF5350" stroke-width="1" x1="700.990099009901" x2="704.1584158415841" y1="79.3309627355975" y2="79.3309627355975" /><line stroke="#EF5350" stroke-width="1" x1="708.9108910891089" x2="708.9108910891089" y1="36.086652189450035" y2="101.77710706455548" /><line stroke="#EF5350" stroke-width="1" x1="705.7425742574258" x2="708.9108910891089" y1="53.599491516867545" y2="53.599491516867545" /><line stroke="#EF5350" stroke-width="1" x1="708.9108910891089" x2="712.079207920792" y1="85.55223341775013" y2="85.55223341775013" /><line stroke="#EF5350" stroke-width="1" x1="716.8316831683168" x2="716.8316831683168" y1="42.802473529658016" y2="83.34114583598688" /><line stroke="#EF5350" stroke-width="1" x1="713.6633663366337" x2="716.8316831683168" y1="48.655716409976435" y2="48.655716409976435" /><line stroke="#EF5350" stroke-width="1" x1="716.8316831683168" x2="719.9999999999999" y1="58.074076747429615" y2="58.074076747429615" /><line stroke="#26A69A" stroke-width="1" x1="724.7524752475248" x2="724.7524752475248" y1="5.654689921584463" y2="51.41870214004996" /><line stroke="#26A69A" stroke-width="1" x1="721.5841584158417" x2="724.7524752475248" y1="37.58393731615581" y2="37.58393731615581" /><line stroke="#26A69A" stroke-width="1" x1="724.7524752475248" x2="727.9207920792079" y1="19.5198783184444" y2="19.5198783184444" /><line stroke="#26A69A" stroke-width="1" x1="732.6732673267327" x2="732.6732673267327" y1="17.167642391448112" y2="75.38918131248926" /><line stroke="#26A69A" stroke-width="1" x1="729.5049504950496" x2="732.6732673267327" y1="38.258861963704305" y2="38.258861963704305" /><line stroke="#26A69A" stroke-width="1" x1="732.6732673267327" x2="735.8415841584158" y1="33.74297281177701" y2="33.74297281177701" /><line stroke="#EF5350" stroke-width="1" x1="740.5940594059406" x2="740.5940594059406" y1="12.407176877456607" y2="114.08592145629126" /><line stroke="#EF5350" stroke-width="1" x1="737.4257425742575" x2="740.5940594059406" y1="36.30143814435627" y2="36.30143814435627" /><line stroke="#EF5350" stroke-width="1" x1="740.5940594059406" x2="743.7623762376237" y1="62.57786326726534" y2="62.57786326726534" /><line stroke="#26A69A" stroke-width="1" x1="748.5148514851485" x2="748.5148514851485" y1="21.10349664675084" y2="67.96778117160363" /><line stroke="#26A69A" stroke-width="1" x1="745.3465346534654" x2="748.5148514851485" y1="34.797135180977364" y2="34.797135180977364" /><line stroke="#26A69A" stroke-width="1" x1="748.5148514851485" x2="751.6831683168316" y1="31.14422197910244" y2="31.14422197910244" /><line stroke="#26A69A" stroke-width="1" x1="756.4356435643564" x2="756.4356435643564" y1="13.210960834457808" y2="54.02103444770364" /><line stroke="#26A69A" stroke-width="1" x1="753.2673267326733" x2="756.4356435643564" y1="40.825909752548455" y2="40.825909752548455" /><line stroke="#26A69A" stroke-width="1" x1="756.4356435643564" x2="759.6039603960395" y1="32.698392611700626" y2="32.698392611700626" /><line stroke="#EF5350" stroke-width="1" x1="764.3564356435644" x2="764.3564356435644" y1="9.182260347271438" y2="101.30620770405574" /><line stroke="#EF5350" stroke-width="1" x1="761.1881188118813" x2="764.3564356435644" y1="34.48266218789985" y2="34.48266218789985" /><line stroke="#EF5350" stroke-width="1" x1="764.3564356435644" x2="767.5247524752475" y1="53.12590757653436" y2="53.12590757653436" /><line stroke="#26A69A" stroke-width="1" x1="772.2772277227723" x2="772.2772277227723" y1="16.50091601285709" y2="66.46234654811235" /><line stroke="#26A69A" stroke-width="1" x1="769.1089108910892" x2="772.2772277227723" y1="28.38595720800282" y2="28.38595720800282" /><line stroke="#26A69A" stroke-width="1" x1="772.2772277227723" x2="775.4455445544554" y1="25.143426506610183" y2="25.143426506610183" /><line stroke="#26A69A" stroke-width="1" x1="780.1980198019802" x2="780.1980198019802" y1="0.0" y2="27.31010864464207" /><line stroke="#26A69A" stroke-width="1" x1="777.0297029702971" x2="780.1980198019802" y1="24.08878304112426" y2="24.08878304112426" /><line stroke="#26A69A" stroke-width="1" x1="780.1980198019802" x2="783.3663366336633" y1="22.860983876576995" y2="22.860983876576995" /><line stroke="#EF5350" stroke-width="1" x1="788.1188118811881" x2="788.1188118811881" y1="3.7692273771880878" y2="80.39809378959558" /><line stroke="#EF5350" stroke-width="1" x1="784.950495049505" x2="788.1188118811881" y1="21.476947382646017" y2="21.476947382646017" /><line stroke="#EF5350" stroke-width="1" x1="788.1188118811881" x2="791.2871287128712" y1="45.58567223081019" y2="45.58567223081019" /></g><g id="volume"><rect fill="#EF5350" height="108.12040133779264" opacity="0.5" width="3.9603960396039604" x="1.9801980198019802" y="491.87959866220734" /><rect fill="#EF5350" height="157.7257525083612" opacity="0.5" width="3.9603960396039604" x="9.900990099009901" y="442.2742474916388" /><rect fill="#EF5350" height="142.55518394648828" opacity="0.5" width="3.9603960396039604" x="17.821782178217823" y="457.4448160535117" /><rect fill="#EF5350" height="144.96321070234114" opacity="0.5" width="3.9603960396039604" x="25.742574257425744" y="455.03678929765886" /><rect fill="#EF5350" height="158.5685618729097" opacity="0.5" width="3.9603960396039604" x="33.663366336633665" y="441.4314381270903" /><rect fill="#26A69A" height="153.51170568561872" opacity="0.5" width="3.9603960396039604" x="41.584158415841586" y="446.4882943143813" /><rect fill="#26A69A" height="173.85953177257525" opacity="0.5" width="3.9603960396039604" x="49.504950495049506" y="426.1404682274248" /><rect fill="#26A69A" height="148.8160535117057" opacity="0.5" width="3.9603960396039604" x="57.42574257425743" y="451.1839464882943" /><rect fill="#26A69A" height="98.96989966555184" opacity="0.5" width="3.9603960396039604" x="65.34653465346534" y="501.03010033444815" /><rect fill="#EF5350" height="164.22742474916387" opacity="0.5" width="3.9603960396039604" x="73.26732673267327" y="435.7725752508361" /><rect fill="#EF5350" height="177.7123745819398" opacity="0.5" width="3.9603960396039604" x="81.18811881188118" y="422.2876254180602" /><rect fill="#EF5350" height="151.34448160535118" opacity="0.5" width="3.9603960396039604" x="89.10891089108911" y="448.6555183946488" /><rect fill="#26A69A" height="106.19397993311037" opacity="0.5" width="3.9603960396039604" x="97.02970297029702" y="493.80602006688963" /><rect fill="#26A69A" height="113.65886287625418" opacity="0.5" width="3.9603960396039604" x="104.95049504950495" y="486.34113712374585" /><rect fill="#EF5350" height="106.43478260869566" opacity="0.5" width="3.9603960396039604" x="112.87128712871286" y="493.5652173913044" /><rect fill="#26A69A" height="105.59197324414716" opacity="0.5" width="3.9603960396039604" x="120.79207920792079" y="494.40802675585286" /><rect fill="#EF5350" height="151.22408026755852" opacity="0.5" width="3.9603960396039604" x="128.7128712871287" y="448.7759197324415" /><rect fill="#EF5350" height="96.3210702341137" opacity="0.5" width="3.9603960396039604" x="136.63366336633663" y="503.6789297658863" /><rect fill="#26A69A" height="102.34113712374581" opacity="0.5" width="3.9603960396039604" x="144.55445544554456" y="497.6588628762542" /><rect fill="#26A69A" height="178.67558528428094" opacity="0.5" width="3.9603960396039604" x="152.47524752475246" y="421.32441471571906" /><rect fill="#26A69A" height="149.89966555183946" opacity="0.5" width="3.9603960396039604" x="160.3960396039604" y="450.10033444816054" /><rect fill="#EF5350" height="150.26086956521738" opacity="0.5" width="3.9603960396039604" x="168.31683168316832" y="449.7391304347826" /><rect fill="#26A69A" height="154.95652173913044" opacity="0.5" width="3.9603960396039604" x="176.23762376237624" y="445.04347826086956" /><rect fill="#EF5350" height="100.29431438127091" opacity="0.5" width="3.9603960396039604" x="184.15841584158414" y="499.7056856187291" /><rect fill="#26A69A" height="138.10033444816054" opacity="0.5" width="3.9603960396039604" x="192.07920792079207" y="461.89966555183946" /><rect fill="#26A69A" height="107.63879598662207" opacity="0.5" width="3.9603960396039604" x="200.0" y="492.3612040133779" /><rect fill="#EF5350" height="104.8695652173913" opacity="0.5" width="3.9603960396039604" x="207.92079207920793" y="495.1304347826087" /><rect fill="#EF5350" height="162.54180602006687" opacity="0.5" width="3.9603960396039604" x="215.84158415841583" y="437.4581939799331" /><rect fill="#26A69A" height="114.74247491638795" opacity="0.5" width="3.9603960396039604" x="223.76237623762376" y="485.25752508361205" /><rect fill="#EF5350" height="126.3010033444816" opacity="0.5" width="3.9603960396039604" x="231.68316831683168" y="473.6989966555184" /><rect fill="#EF5350" height="177.35117056856186" opacity="0.5" width="3.9603960396039604" x="239.6039603960396" y="422.6488294314381" /><rect fill="#26A69A" height="148.93645484949835" opacity="0.5" width="3.9603960396039604" x="247.5247524752475" y="451.0635451505017" /><rect fill="#EF5350" height="110.40802675585283" opacity="0.5" width="3.9603960396039604" x="255.44554455445544" y="489.5919732441472" /><rect fill="#26A69A" height="133.04347826086956" opacity="0.5" width="3.9603960396039604" x="263.36633663366337" y="466.95652173913044" /><rect fill="#EF5350" height="128.46822742474916" opacity="0.5" width="3.9603960396039604" x="271.28712871287127" y="471.53177257525084" /><rect fill="#26A69A" height="102.70234113712375" opacity="0.5" width="3.9603960396039604" x="279.2079207920792" y="497.29765886287623" /><rect fill="#EF5350" height="124.61538461538461" opacity="0.5" width="3.9603960396039604" x="287.1287128712871" y="475.38461538461536" /><rect fill="#EF5350" height="143.03678929765886" opacity="0.5" width="3.9603960396039604" x="295.049504950495" y="456.96321070234114" /><rect fill="#26A69A" height="144.48160535117057" opacity="0.5" width="3.9603960396039604" x="302.970297029703" y="455.5183946488294" /><rect fill="#EF5350" height="171.33110367892976" opacity="0.5" width="3.9603960396039604" x="310.8910891089109" y="428.66889632107024" /><rect fill="#26A69A" height="132.68227424749165" opacity="0.5" width="3.9603960396039604" x="318.81188118811883" y="467.31772575250835" /><rect fill="#26A69A" height="121.123745819398" opacity="0.5" width="3.9603960396039604" x="326.73267326732673" y="478.876254180602" /><rect fill="#EF5350" height="123.77257525083613" opacity="0.5" width="3.9603960396039604" x="334.65346534653463" y="476.2274247491639" /><rect fill="#26A69A" height="165.79264214046822" opacity="0.5" width="3.9603960396039604" x="342.5742574257426" y="434.2073578595318" /><rect fill="#26A69A" height="105.23076923076924" opacity="0.5" width="3.9603960396039604" x="350.4950495049505" y="494.7692307692308" /><rect fill="#26A69A" height="148.5752508361204" opacity="0.5" width="3.9603960396039604" x="358.4158415841584" y="451.4247491638796" /><rect fill="#EF5350" height="108.6020066889632" opacity="0.5" width="3.9603960396039604" x="366.33663366336634" y="491.39799331103677" /><rect fill="#EF5350" height="147.01003344481606" opacity="0.5" width="3.9603960396039604" x="374.25742574257424" y="452.98996655518397" /><rect fill="#26A69A" height="133.04347826086956" opacity="0.5" width="3.9603960396039604" x="382.1782178217822" y="466.95652173913044" /><rect fill="#26A69A" height="108.0" opacity="0.5" width="3.9603960396039604" x="390.0990099009901" y="492.0" /><rect fill="#26A69A" height="136.5351170568562" opacity="0.5" width="3.9603960396039604" x="398.019801980198" y="463.46488294314383" /><rect fill="#26A69A" height="148.5752508361204" opacity="0.5" width="3.9603960396039604" x="405.94059405940595" y="451.4247491638796" /><rect fill="#EF5350" height="150.02006688963212" opacity="0.5" width="3.9603960396039604" x="413.86138613861385" y="449.9799331103679" /><rect fill="#26A69A" height="133.28428093645485" opacity="0.5" width="3.9603960396039604" x="421.78217821782175" y="466.7157190635452" /><rect fill="#26A69A" height="126.18060200668897" opacity="0.5" width="3.9603960396039604" x="429.7029702970297" y="473.81939799331104" /><rect fill="#EF5350" height="116.18729096989966" opacity="0.5" width="3.9603960396039604" x="437.6237623762376" y="483.81270903010034" /><rect fill="#26A69A" height="154.11371237458195" opacity="0.5" width="3.9603960396039604" x="445.54455445544556" y="445.88628762541805" /><rect fill="#26A69A" height="136.5351170568562" opacity="0.5" width="3.9603960396039604" x="453.46534653465346" y="463.46488294314383" /><rect fill="#EF5350" height="161.4581939799331" opacity="0.5" width="3.9603960396039604" x="461.38613861386136" y="438.54180602006693" /><rect fill="#26A69A" height="108.96321070234114" opacity="0.5" width="3.9603960396039604" x="469.3069306930693" y="491.03678929765886" /><rect fill="#EF5350" height="163.9866220735786" opacity="0.5" width="3.9603960396039604" x="477.2277227722772" y="436.0133779264214" /><rect fill="#26A69A" height="105.9531772575251" opacity="0.5" width="3.9603960396039604" x="485.1485148514851" y="494.0468227424749" /><rect fill="#26A69A" height="112.21404682274247" opacity="0.5" width="3.9603960396039604" x="493.0693069306931" y="487.7859531772575" /><rect fill="#EF5350" height="112.81605351170568" opacity="0.5" width="3.9603960396039604" x="500.990099009901" y="487.18394648829434" /><rect fill="#26A69A" height="118.35451505016722" opacity="0.5" width="3.9603960396039604" x="508.91089108910893" y="481.6454849498328" /><rect fill="#26A69A" height="144.48160535117057" opacity="0.5" width="3.9603960396039604" x="516.8316831683168" y="455.5183946488294" /><rect fill="#26A69A" height="135.933110367893" opacity="0.5" width="3.9603960396039604" x="524.7524752475248" y="464.066889632107" /><rect fill="#26A69A" height="157.36454849498327" opacity="0.5" width="3.9603960396039604" x="532.6732673267327" y="442.6354515050167" /><rect fill="#EF5350" height="104.50836120401338" opacity="0.5" width="3.9603960396039604" x="540.5940594059406" y="495.4916387959866" /><rect fill="#EF5350" height="161.93979933110367" opacity="0.5" width="3.9603960396039604" x="548.5148514851485" y="438.0602006688963" /><rect fill="#EF5350" height="102.58193979933111" opacity="0.5" width="3.9603960396039604" x="556.4356435643564" y="497.4180602006689" /><rect fill="#EF5350" height="150.38127090301003" opacity="0.5" width="3.9603960396039604" x="564.3564356435644" y="449.61872909698997" /><rect fill="#EF5350" height="120.88294314381271" opacity="0.5" width="3.9603960396039604" x="572.2772277227723" y="479.1170568561873" /><rect fill="#26A69A" height="111.37123745819399" opacity="0.5" width="3.9603960396039604" x="580.1980198019802" y="488.628762541806" /><rect fill="#26A69A" height="101.37792642140468" opacity="0.5" width="3.9603960396039604" x="588.1188118811881" y="498.6220735785953" /><rect fill="#26A69A" height="109.56521739130436" opacity="0.5" width="3.9603960396039604" x="596.039603960396" y="490.4347826086956" /><rect fill="#26A69A" height="176.0267558528428" opacity="0.5" width="3.9603960396039604" x="603.960396039604" y="423.9732441471572" /><rect fill="#26A69A" height="118.2341137123746" opacity="0.5" width="3.9603960396039604" x="611.8811881188119" y="481.7658862876254" /><rect fill="#EF5350" height="107.63879598662207" opacity="0.5" width="3.9603960396039604" x="619.8019801980198" y="492.3612040133779" /><rect fill="#26A69A" height="141.23076923076923" opacity="0.5" width="3.9603960396039604" x="627.7227722772277" y="458.7692307692308" /><rect fill="#26A69A" height="158.80936454849498" opacity="0.5" width="3.9603960396039604" x="635.6435643564356" y="441.19063545150505" /><rect fill="#EF5350" height="139.54515050167225" opacity="0.5" width="3.9603960396039604" x="643.5643564356435" y="460.45484949832775" /><rect fill="#EF5350" height="180.0" opacity="0.5" width="3.9603960396039604" x="651.4851485148515" y="420.0" /><rect fill="#26A69A" height="130.0334448160535" opacity="0.5" width="3.9603960396039604" x="659.4059405940594" y="469.9665551839465" /><rect fill="#EF5350" height="119.67892976588628" opacity="0.5" width="3.9603960396039604" x="667.3267326732673" y="480.32107023411373" /><rect fill="#26A69A" height="119.67892976588628" opacity="0.5" width="3.9603960396039604" x="675.2475247524752" y="480.32107023411373" /><rect fill="#26A69A" height="176.5083612040134" opacity="0.5" width="3.9603960396039604" x="683.1683168316831" y="423.4916387959866" /><rect fill="#EF5350" height="107.39799331103679" opacity="0.5" width="3.9603960396039604" x="691.0891089108911" y="492.60200668896323" /><rect fill="#EF5350" height="177.1103678929766" opacity="0.5" width="3.9603960396039604" x="699.009900990099" y="422.88963210702343" /><rect fill="#EF5350" height="103.54515050167223" opacity="0.5" width="3.9603960396039604" x="706.9306930693069" y="496.4548494983278" /><rect fill="#EF5350" height="172.5351170568562" opacity="0.5" width="3.9603960396039604" x="714.8514851485148" y="427.46488294314383" /><rect fill="#26A69A" height="102.34113712374581" opacity="0.5" width="3.9603960396039604" x="722.7722772277227" y="497.6588628762542" /><rect fill="#26A69A" height="144.72240802675586" opacity="0.5" width="3.9603960396039604" x="730.6930693069307" y="455.27759197324417" /><rect fill="#EF5350" height="96.80267558528428" opacity="0.5" width="3.9603960396039604" x="738.6138613861386" y="503.1973244147157" /><rect fill="#26A69A" height="152.3076923076923" opacity="0.5" width="3.9603960396039604" x="746.5346534653465" y="447.69230769230774" /><rect fill="#26A69A" height="168.92307692307693" opacity="0.5" width="3.9603960396039604" x="754.4554455445544" y="431.0769230769231" /><rect fill="#EF5350" height="178.31438127090303" opacity="0.5" width="3.9603960396039604" x="762.3762376237623" y="421.685618729097" /><rect fill="#26A69A" height="160.49498327759198" opacity="0.5" width="3.9603960396039604" x="770.2970297029702" y="439.505016722408" /><rect fill="#26A69A" height="144.96321070234114" opacity="0.5" width="3.9603960396039604" x="778.2178217821782" y="455.03678929765886" /><rect fill="#EF5350" height="157.9665551839465" opacity="0.5" width="3.9603960396039604" x="786.1386138613861" y="442.0334448160535" /></g></svg>