<?xml version="1.0" encoding="utf-8" ?>
<svg baseProfile="full" height="600" version="1.1" width="800" xmlns="http://www.w3.org/2000/svg" xmlns:ev="http://www.w3.org/2001/xml-events" xmlns:xlink="http://www.w3.org/1999/xlink"><defs /><rect fill="#1E1E1E" height="100%" width="100%" x="0" y="0" /><g id="grid" opacity="0.25" stroke="#424242" stroke-width="1"><line x1="0" x2="800" y1="42" y2="42" /><line x1="0" x2="800" y1="84" y2="84" /><line x1="0" x2="800" y1="126" y2="126" /><line x1="0" x2="800" y1="168" y2="168" /><line x1="0" x2="800" y1="210" y2="210" /><line x1="0" x2="800" y1="252" y2="252" /><line x1="0" x2="800" y1="294" y2="294" /><line x1="0" x2="800" y1="336" y2="336" /><line x1="0" x2="800" y1="378" y2="378" /><line x1="0" x2="0" y1="0" y2="600" /><line x1="363" x2="363" y1="0" y2="600" /></g><g id="candles"><line stroke="#EF5350" stroke-width="5.818181818181819" x1="36.36363636363637" x2="36.36363636363637" y1="264.4897357711955" y2="395.25982182738505" /><rect fill="#EF5350" height="6.065152920989192" width="58.18181818181819" x="7.272727272727273" y="370.44301703297083" /><line stroke="#26A69A" stroke-width="5.818181818181819" x1="109.0909090909091" x2="109.0909090909091" y1="355.36940050291713" y2="420.0" /><rect fill="none" height="7.206721524208149" stroke="#26A69A" stroke-width="1" width="58.18181818181819" x="80.0" y="386.8585014644382" /><line stroke="#26A69A" stroke-width="5.818181818181819" x1="181.81818181818184" x2="181.81818181818184" y1="312.71788919104506" y2="401.9475879356564" /><rect fill="none" height="12.668431132538046" stroke="#26A69A" stroke-width="1" width="58.18181818181819" x="152.72727272727275" y="338.37316556721925" /><line stroke="#EF5350" stroke-width="5.818181818181819" x1="254.54545454545456" x2="254.54545454545456" y1="152.85555553831642" y2="241.746913954465" /><rect fill="#EF5350" height="11.447373459696536" width="58.18181818181819" x="225.45454545454547" y="212.913253942216" /><line stroke="#EF5350" stroke-width="5.818181818181819" x1="327.27272727272725" x2="327.27272727272725" y1="210.520523875565" y2="263.82824313277763" /><rect fill="#EF5350" height="19.294906122886317" width="58.18181818181819" x="298.1818181818182" y="222.59421585177355" /><line stroke="#EF5350" stroke-width="5.818181818181819" x1="400.0" x2="400.0" y1="211.74085053345618" y2="312.8920419740679" /><rect fill="#EF5350" height="17.428681663165094" width="58.18181818181819" x="370.90909090909093" y="241.98770586558862" /><line stroke="#26A69A" stroke-width="5.818181818181819" x1="472.72727272727275" x2="472.72727272727275" y1="0.0" y2="296.573870684003" /><rect fill="none" height="15.705752499342452" stroke="#26A69A" stroke-width="1" width="58.18181818181819" x="443.6363636363636" y="141.19804752600731" /><line stroke="#26A69A" stroke-width="5.818181818181819" x1="545.4545454545455" x2="545.4545454545455" y1="70.67990210466127" y2="125.00613552047162" /><rect fill="none" height="5.786834653075516" stroke="#26A69A" stroke-width="1" width="58.18181818181819" x="516.3636363636364" y="83.74862788476418" /><line stroke="#EF5350" stroke-width="5.818181818181819" x1="618.1818181818182" x2="618.1818181818182" y1="93.41353785118662" y2="208.07284975648219" /><rect fill="#EF5350" height="6.199514811998199" width="58.18181818181819" x="589.0909090909091" y="112.6935103535128" /><line stroke="#EF5350" stroke-width="5.818181818181819" x1="690.909090909091" x2="690.909090909091" y1="54.44746680341319" y2="127.42647290518357" /><rect fill="#EF5350" height="18.257090557031574" width="58.18181818181819" x="661.8181818181819" y="60.020415867300585" /></g><g id="volume"><rect fill="#EF5350" height="108.93832325997347" opacity="0.5" width="58.18181818181819" x="7.272727272727273" y="491.06167674002654" /><rect fill="#26A69A" height="113.0658052605474" opacity="0.5" width="58.18181818181819" x="80.0" y="486.9341947394526" /><rect fill="#26A69A" height="123.68490165181444" opacity="0.5" width="58.18181818181819" x="152.72727272727275" y="476.31509834818553" /><rect fill="#EF5350" height="123.09018640366473" opacity="0.5" width="58.18181818181819" x="225.45454545454547" y="476.90981359633525" /><rect fill="#EF5350" height="129.6752858080162" opacity="0.5" width="58.18181818181819" x="298.1818181818182" y="470.3247141919838" /><rect fill="#EF5350" height="120.73205973918861" opacity="0.5" width="58.18181818181819" x="370.90909090909093" y="479.2679402608114" /><rect fill="#26A69A" height="112.13559895558757" opacity="0.5" width="58.18181818181819" x="443.6363636363636" y="487.86440104441243" /><rect fill="#26A69A" height="112.11019697275339" opacity="0.5" width="58.18181818181819" x="516.3636363636364" y="487.8898030272466" /><rect fill="#EF5350" height="112.13585146946221" opacity="0.5" width="58.18181818181819" x="589.0909090909091" y="487.8641485305378" /><rect fill="#EF5350" height="180.0" opacity="0.5" width="58.18181818181819" x="661.8181818181819" y="420.0" /></g></svg>