<?xml version="1.0" encoding="utf-8" ?>
<svg baseProfile="full" height="2160" version="1.1" width="3840" xmlns="http://www.w3.org/2000/svg" xmlns:ev="http://www.w3.org/2001/xml-events" xmlns:xlink="http://www.w3.org/1999/xlink"><defs /><rect fill="#131722" height="100%" width="100%" x="0" y="0" /><g id="grid" opacity="0.25" stroke="#2A2E39" stroke-width="1"><line x1="0" x2="3840" y1="151" y2="151" /><line x1="0" x2="3840" y1="302" y2="302" /><line x1="0" x2="3840" y1="453" y2="453" /><line x1="0" x2="3840" y1="604" y2="604" /><line x1="0" x2="3840" y1="756" y2="756" /><line x1="0" x2="3840" y1="907" y2="907" /><line x1="0" x2="3840" y1="1058" y2="1058" /><line x1="0" x2="3840" y1="1209" y2="1209" /><line x1="0" x2="3840" y1="1360" y2="1360" /><line x1="0" x2="0" y1="0" y2="2160" /><line x1="539" x2="539" y1="0" y2="2160" /><line x1="1079" x2="1079" y1="0" y2="2160" /><line x1="1618" x2="1618" y1="0" y2="2160" /><line x1="2158" x2="2158" y1="0" y2="2160" /><line x1="2697" x2="2697" y1="0" y2="2160" /><line x1="3237" x2="3237" y1="0" y2="2160" /></g><g id="candles"><line stroke="#089981" stroke-width="5.036065573770492" x1="31.475409836065573" x2="31.475409836065573" y1="1178.3221819511007" y2="1305.781298007871" /><rect fill="#089981" height="17.230482994770455" width="50.36065573770492" x="6.295081967213115" y="1211.2116725388114" /><line stroke="#F23645" stroke-width="5.036065573770492" x1="94.42622950819671" x2="94.42622950819671" y1="1109.0953911106403" y2="1289.7096699753029" /><rect fill="#F23645" height="53.473540998748604" width="50.36065573770492" x="69.24590163934425" y="1211.2116725388114" /><line stroke="#089981" stroke-width="5.036065573770492" x1="157.37704918032787" x2="157.37704918032787" y1="1221.1271505357763" y2="1288.334874517178" /><rect fill="#089981" height="20.025807991329202" width="50.36065573770492" x="132.19672131147541" y="1244.6594055462308" /><line stroke="#F23645" stroke-width="5.036065573770492" x1="220.327868852459" x2="220.327868852459" y1="1217.6538269713112" y2="1279.5422319393554" /><rect fill="#F23645" height="28.917444604641105" width="50.36065573770492" x="195.14754098360655" y="1244.6594055462308" /><line stroke="#F23645" stroke-width="5.036065573770492" x1="283.27868852459017" x2="283.27868852459017" y1="1241.6122412615002" y2="1500.079880544976" /><rect fill="#F23645" height="196.15090817151236" width="50.36065573770492" x="258.0983606557377" y="1273.576850150872" /><line stroke="#089981" stroke-width="5.036065573770492" x1="346.2295081967213" x2="346.2295081967213" y1="1420.1726252229914" y2="1512.0" /><rect fill="#089981" height="28.379394824855808" width="50.36065573770492" x="321.04918032786884" y="1441.3483634975285" /><line stroke="#089981" stroke-width="5.036065573770492" x1="409.1803278688524" x2="409.1803278688524" y1="1382.345295528355" y2="1473.621956229288" /><rect fill="#089981" height="44.22442131705634" width="50.36065573770492" x="383.99999999999994" y="1397.123942180472" /><line stroke="#089981" stroke-width="5.036065573770492" x1="472.13114754098353" x2="472.13114754098353" y1="1207.2943621430613" y2="1416.1950369477229" /><rect fill="#089981" height="171.13393545259896" width="50.36065573770492" x="446.9508196721311" y="1225.9900067278732" /><line stroke="#F23645" stroke-width="5.036065573770492" x1="535.0819672131147" x2="535.0819672131147" y1="1215.3839563843417" y2="1374.185284822556" /><rect fill="#F23645" height="48.683632754525206" width="50.36065573770492" x="509.90163934426226" y="1225.9900067278732" /><line stroke="#089981" stroke-width="5.036065573770492" x1="598.032786885246" x2="598.032786885246" y1="1142.6276292331336" y2="1355.0729936015882" /><rect fill="#089981" height="80.80486433724786" width="50.36065573770492" x="572.8524590163935" y="1193.8687751451505" /><line stroke="#089981" stroke-width="5.036065573770492" x1="660.9836065573771" x2="660.9836065573771" y1="985.9945487933207" y2="1215.1506937626457" /><rect fill="#089981" height="202.97821740150164" width="50.36065573770492" x="635.8032786885246" y="990.8905577436489" /><line stroke="#F23645" stroke-width="5.036065573770492" x1="723.9344262295083" x2="723.9344262295083" y1="956.5165979651362" y2="1032.2870451488889" /><rect fill="#F23645" height="10.335691419022055" width="50.36065573770492" x="698.7540983606558" y="990.8905577436489" /><line stroke="#F23645" stroke-width="5.036065573770492" x1="786.8852459016393" x2="786.8852459016393" y1="977.0529046035077" y2="1101.6401010867328" /><rect fill="#F23645" height="34.21420117481216" width="50.36065573770492" x="761.7049180327868" y="1001.2262491626709" /><line stroke="#F23645" stroke-width="5.036065573770492" x1="849.8360655737705" x2="849.8360655737705" y1="1018.618961507143" y2="1148.607345463876" /><rect fill="#F23645" height="63.62891446293179" width="50.36065573770492" x="824.655737704918" y="1035.440450337483" /><line stroke="#F23645" stroke-width="5.036065573770492" x1="912.7868852459017" x2="912.7868852459017" y1="1039.1636117528446" y2="1182.4251596732397" /><rect fill="#F23645" height="37.74498067320451" width="50.36065573770492" x="887.6065573770492" y="1099.0693648004149" /><line stroke="#F23645" stroke-width="5.036065573770492" x1="975.7377049180328" x2="975.7377049180328" y1="1089.3980606997852" y2="1196.450637345498" /><rect fill="#F23645" height="19.81436159303871" width="50.36065573770492" x="950.5573770491803" y="1136.8143454736194" /><line stroke="#F23645" stroke-width="5.036065573770492" x1="1038.688524590164" x2="1038.688524590164" y1="1152.2084748669306" y2="1239.6993060737952" /><rect fill="#F23645" height="67.88706732439073" width="50.36065573770492" x="1013.5081967213115" y="1156.628707066658" /><line stroke="#089981" stroke-width="5.036065573770492" x1="1101.6393442622948" x2="1101.6393442622948" y1="1071.518001467468" y2="1276.7232815039179" /><rect fill="#089981" height="137.88314444281377" width="50.36065573770492" x="1076.4590163934424" y="1086.632629948235" /><line stroke="#089981" stroke-width="5.036065573770492" x1="1164.590163934426" x2="1164.590163934426" y1="1056.7502435824508" y2="1108.308939405442" /><rect fill="#089981" height="19.108873061191616" width="50.36065573770492" x="1139.4098360655737" y="1067.5237568870434" /><line stroke="#089981" stroke-width="5.036065573770492" x1="1227.5409836065571" x2="1227.5409836065571" y1="950.8151933142731" y2="1083.578596019712" /><rect fill="#089981" height="85.71653721411178" width="50.36065573770492" x="1202.3606557377047" y="981.8072196729316" /><line stroke="#089981" stroke-width="5.036065573770492" x1="1290.4918032786884" x2="1290.4918032786884" y1="907.0519710129362" y2="1000.0766798025553" /><rect fill="#089981" height="35.449508033606435" width="50.36065573770492" x="1265.311475409836" y="946.3577116393252" /><line stroke="#F23645" stroke-width="5.036065573770492" x1="1353.4426229508194" x2="1353.4426229508194" y1="926.4465403692236" y2="1078.743745652661" /><rect fill="#F23645" height="58.06904632552562" width="50.36065573770492" x="1328.262295081967" y="946.3577116393252" /><line stroke="#F23645" stroke-width="5.036065573770492" x1="1416.3934426229507" x2="1416.3934426229507" y1="937.9077318233979" y2="1234.1511542823341" /><rect fill="#F23645" height="80.24577421054482" width="50.36065573770492" x="1391.2131147540983" y="1004.4267579648508" /><line stroke="#089981" stroke-width="5.036065573770492" x1="1479.3442622950818" x2="1479.3442622950818" y1="963.7670370958872" y2="1093.5375575605806" /><rect fill="#089981" height="25.125363434054634" width="50.36065573770492" x="1454.1639344262294" y="1059.547168741341" /><line stroke="#F23645" stroke-width="5.036065573770492" x1="1542.2950819672128" x2="1542.2950819672128" y1="1018.0157202138353" y2="1113.4322730461454" /><rect fill="#F23645" height="1" width="50.36065573770492" x="1517.1147540983604" y="1059.547168741341" /><line stroke="#F23645" stroke-width="5.036065573770492" x1="1605.245901639344" x2="1605.245901639344" y1="1054.6824810152996" y2="1209.3764241074653" /><rect fill="#F23645" height="127.52893866854834" width="50.36065573770492" x="1580.0655737704917" y="1059.879675258944" /><line stroke="#F23645" stroke-width="5.036065573770492" x1="1668.1967213114751" x2="1668.1967213114751" y1="1124.5931924797142" y2="1286.1495444665525" /><rect fill="#F23645" height="26.304626524282185" width="50.36065573770492" x="1643.0163934426228" y="1187.4086139274923" /><line stroke="#F23645" stroke-width="5.036065573770492" x1="1731.1475409836064" x2="1731.1475409836064" y1="1104.0934505775017" y2="1287.8540084656347" /><rect fill="#F23645" height="11.591315701564781" width="50.36065573770492" x="1705.967213114754" y="1213.7132404517745" /><line stroke="#089981" stroke-width="5.036065573770492" x1="1794.0983606557375" x2="1794.0983606557375" y1="1162.530421303957" y2="1295.5845893534993" /><rect fill="#089981" height="22.057482082687784" width="50.36065573770492" x="1768.918032786885" y="1203.2470740706515" /><line stroke="#089981" stroke-width="5.036065573770492" x1="1857.0491803278687" x2="1857.0491803278687" y1="1160.4688468234258" y2="1230.8453178925397" /><rect fill="#089981" height="16.75745563966143" width="50.36065573770492" x="1831.8688524590164" y="1186.48961843099" /><line stroke="#089981" stroke-width="5.036065573770492" x1="1919.9999999999998" x2="1919.9999999999998" y1="1030.2841966787983" y2="1205.0516286494621" /><rect fill="#089981" height="155.74107375858216" width="50.36065573770492" x="1894.8196721311474" y="1030.748544672408" /><line stroke="#F23645" stroke-width="5.036065573770492" x1="1982.950819672131" x2="1982.950819672131" y1="1023.4635621946153" y2="1116.6782351996526" /><rect fill="#F23645" height="54.59836585462904" width="50.36065573770492" x="1957.7704918032787" y="1030.748544672408" /><line stroke="#F23645" stroke-width="5.036065573770492" x1="2045.901639344262" x2="2045.901639344262" y1="1044.0366737547743" y2="1209.615724441351" /><rect fill="#F23645" height="61.76577739491563" width="50.36065573770492" x="2020.7213114754097" y="1085.346910527037" /><line stroke="#089981" stroke-width="5.036065573770492" x1="2108.852459016394" x2="2108.852459016394" y1="865.4309975815215" y2="1157.5665574223926" /><rect fill="#089981" height="265.20410632357243" width="50.36065573770492" x="2083.672131147541" y="881.9085815983801" /><line stroke="#089981" stroke-width="5.036065573770492" x1="2171.8032786885246" x2="2171.8032786885246" y1="743.8094880992566" y2="948.9610964921416" /><rect fill="#089981" height="75.28699112320999" width="50.36065573770492" x="2146.622950819672" y="806.6215904751701" /><line stroke="#089981" stroke-width="5.036065573770492" x1="2234.754098360656" x2="2234.754098360656" y1="668.5241474367713" y2="849.6524607179423" /><rect fill="#089981" height="126.60657131228004" width="50.36065573770492" x="2209.5737704918033" y="680.0150191628901" /><line stroke="#F23645" stroke-width="5.036065573770492" x1="2297.704918032787" x2="2297.704918032787" y1="533.7967910724395" y2="851.6238136823548" /><rect fill="#F23645" height="130.82359808669116" width="50.36065573770492" x="2272.5245901639346" y="680.0150191628901" /><line stroke="#F23645" stroke-width="5.036065573770492" x1="2360.6557377049185" x2="2360.6557377049185" y1="772.6938807538348" y2="901.1084800838596" /><rect fill="#F23645" height="32.86695908332217" width="50.36065573770492" x="2335.475409836066" y="810.8386172495813" /><line stroke="#089981" stroke-width="5.036065573770492" x1="2423.6065573770493" x2="2423.6065573770493" y1="780.1677972555505" y2="899.813603730421" /><rect fill="#089981" height="14.794527327549645" width="50.36065573770492" x="2398.4262295081967" y="828.9110490053538" /><line stroke="#089981" stroke-width="5.036065573770492" x1="2486.5573770491806" x2="2486.5573770491806" y1="672.3358024604668" y2="904.9941929304525" /><rect fill="#089981" height="129.17400240897666" width="50.36065573770492" x="2461.377049180328" y="699.7370465963771" /><line stroke="#089981" stroke-width="5.036065573770492" x1="2549.508196721312" x2="2549.508196721312" y1="554.8978200610476" y2="742.7656873795088" /><rect fill="#089981" height="46.51044134590575" width="50.36065573770492" x="2524.3278688524592" y="653.2266052504714" /><line stroke="#F23645" stroke-width="5.036065573770492" x1="2612.4590163934427" x2="2612.4590163934427" y1="604.3248700704738" y2="774.355697848097" /><rect fill="#F23645" height="71.50809338481588" width="50.36065573770492" x="2587.27868852459" y="653.2266052504714" /><line stroke="#089981" stroke-width="5.036065573770492" x1="2675.409836065574" x2="2675.409836065574" y1="677.4439614918944" y2="742.4518288480522" /><rect fill="#089981" height="16.468635604639758" width="50.36065573770492" x="2650.2295081967213" y="708.2660630306475" /><line stroke="#089981" stroke-width="5.036065573770492" x1="2738.360655737705" x2="2738.360655737705" y1="632.6630200702066" y2="747.7244915997377" /><rect fill="#089981" height="52.62710397650744" width="50.36065573770492" x="2713.1803278688526" y="655.6389590541401" /><line stroke="#F23645" stroke-width="5.036065573770492" x1="2801.3114754098365" x2="2801.3114754098365" y1="537.9279307657387" y2="759.6193912708077" /><rect fill="#F23645" height="90.37051550250271" width="50.36065573770492" x="2776.131147540984" y="655.6389590541401" /><line stroke="#089981" stroke-width="5.036065573770492" x1="2864.2622950819673" x2="2864.2622950819673" y1="652.4769131114789" y2="798.163459174876" /><rect fill="#089981" height="50.10362401420218" width="50.36065573770492" x="2839.0819672131147" y="695.9058505424406" /><line stroke="#089981" stroke-width="5.036065573770492" x1="2927.2131147540986" x2="2927.2131147540986" y1="501.1600627682167" y2="781.8160332025057" /><rect fill="#089981" height="160.87854053607975" width="50.36065573770492" x="2902.032786885246" y="535.0273100063608" /><line stroke="#089981" stroke-width="5.036065573770492" x1="2990.16393442623" x2="2990.16393442623" y1="183.88323471725244" y2="592.6910993702556" /><rect fill="#089981" height="322.1543727183074" width="50.36065573770492" x="2964.9836065573772" y="212.87293728805344" /><line stroke="#F23645" stroke-width="5.036065573770492" x1="3053.1147540983607" x2="3053.1147540983607" y1="133.62817051169418" y2="349.8715014744578" /><rect fill="#F23645" height="35.42130014877603" width="50.36065573770492" x="3027.934426229508" y="212.87293728805344" /><line stroke="#F23645" stroke-width="5.036065573770492" x1="3116.065573770492" x2="3116.065573770492" y1="227.33428771810532" y2="357.04454656722555" /><rect fill="#F23645" height="78.503647151329" width="50.36065573770492" x="3090.8852459016393" y="248.29423743682946" /><line stroke="#089981" stroke-width="5.036065573770492" x1="3179.016393442623" x2="3179.016393442623" y1="262.01434110955165" y2="381.5255424738525" /><rect fill="#089981" height="61.51941734597881" width="50.36065573770492" x="3153.8360655737706" y="265.27846724217966" /><line stroke="#089981" stroke-width="5.036065573770492" x1="3241.9672131147545" x2="3241.9672131147545" y1="193.7771533323421" y2="330.84615557000757" /><rect fill="#089981" height="52.48318626360515" width="50.36065573770492" x="3216.786885245902" y="212.7952809785745" /><line stroke="#F23645" stroke-width="5.036065573770492" x1="3304.9180327868853" x2="3304.9180327868853" y1="131.9039935052342" y2="274.77009015380963" /><rect fill="#F23645" height="39.939344138121214" width="50.36065573770492" x="3279.7377049180327" y="212.7952809785745" /><line stroke="#089981" stroke-width="5.036065573770492" x1="3367.8688524590166" x2="3367.8688524590166" y1="132.69138208609002" y2="270.1586483321064" /><rect fill="#089981" height="41.39404161594166" width="50.36065573770492" x="3342.688524590164" y="211.34058350075406" /><line stroke="#089981" stroke-width="5.036065573770492" x1="3430.819672131148" x2="3430.819672131148" y1="45.17446059922645" y2="295.19584653519087" /><rect fill="#089981" height="147.00709623721832" width="50.36065573770492" x="3405.6393442622953" y="64.33348726353574" /><line stroke="#F23645" stroke-width="5.036065573770492" x1="3493.770491803279" x2="3493.770491803279" y1="0.0" y2="211.76706104034565" /><rect fill="#F23645" height="111.49826404146847" width="50.36065573770492" x="3468.5901639344265" y="64.33348726353574" /><line stroke="#F23645" stroke-width="5.036065573770492" x1="3556.72131147541" x2="3556.72131147541" y1="161.5801545298243" y2="258.55655631251375" /><rect fill="#F23645" height="52.05503219081584" width="50.36065573770492" x="3531.5409836065573" y="175.83175130500422" /><line stroke="#F23645" stroke-width="5.036065573770492" x1="3619.672131147541" x2="3619.672131147541" y1="215.06142477886624" y2="531.328145096692" /><rect fill="#F23645" height="240.0791885738788" width="50.36065573770492" x="3594.4918032786886" y="227.88678349582005" /><line stroke="#089981" stroke-width="5.036065573770492" x1="3682.6229508196725" x2="3682.6229508196725" y1="279.7569869618642" y2="491.61233326070703" /><rect fill="#089981" height="181.688242750173" width="50.36065573770492" x="3657.44262295082" y="286.27772931952586" /><line stroke="#089981" stroke-width="5.036065573770492" x1="3745.5737704918033" x2="3745.5737704918033" y1="127.88239134855303" y2="307.2942083268081" /><rect fill="#089981" height="60.210441418598975" width="50.36065573770492" x="3720.3934426229507" y="226.06728790092689" /></g><g id="volume"><rect fill="#089981" height="439.35078534031413" opacity="0.5" width="50.36065573770492" x="6.295081967213115" y="1720.6492146596859" /><rect fill="#F23645" height="608.201369311317" opacity="0.5" width="50.36065573770492" x="69.24590163934425" y="1551.798630688683" /><rect fill="#089981" height="362.4285138944825" opacity="0.5" width="50.36065573770492" x="132.19672131147541" y="1797.5714861055176" /><rect fill="#F23645" height="244.4679822795006" opacity="0.5" width="50.36065573770492" x="195.14754098360655" y="1915.5320177204994" /><rect fill="#F23645" height="569.8380990737012" opacity="0.5" width="50.36065573770492" x="258.0983606557377" y="1590.1619009262988" /><rect fill="#089981" height="417.1026983487717" opacity="0.5" width="50.36065573770492" x="321.04918032786884" y="1742.8973016512282" /><rect fill="#089981" height="423.17035843737415" opacity="0.5" width="50.36065573770492" x="383.99999999999994" y="1736.829641562626" /><rect fill="#089981" height="270.8916633105115" opacity="0.5" width="50.36065573770492" x="446.9508196721311" y="1889.1083366894886" /><rect fill="#F23645" height="315.9750302053967" opacity="0.5" width="50.36065573770492" x="509.90163934426226" y="1844.0249697946033" /><rect fill="#089981" height="621.7068062827225" opacity="0.5" width="50.36065573770492" x="572.8524590163935" y="1538.2931937172775" /><rect fill="#089981" height="631.81957309706" opacity="0.5" width="50.36065573770492" x="635.8032786885246" y="1528.1804269029399" /><rect fill="#F23645" height="408.294804671768" opacity="0.5" width="50.36065573770492" x="698.7540983606558" y="1751.705195328232" /><rect fill="#F23645" height="297.5763189689891" opacity="0.5" width="50.36065573770492" x="761.7049180327868" y="1862.4236810310108" /><rect fill="#F23645" height="267.7599677809102" opacity="0.5" width="50.36065573770492" x="824.655737704918" y="1892.2400322190897" /><rect fill="#F23645" height="597.2404349577124" opacity="0.5" width="50.36065573770492" x="887.6065573770492" y="1562.7595650422877" /><rect fill="#F23645" height="517.9041482078131" opacity="0.5" width="50.36065573770492" x="950.5573770491803" y="1642.0958517921867" /><rect fill="#F23645" height="636.4518727345952" opacity="0.5" width="50.36065573770492" x="1013.5081967213115" y="1523.5481272654047" /><rect fill="#089981" height="174.72251308900522" opacity="0.5" width="50.36065573770492" x="1076.4590163934424" y="1985.2774869109949" /><rect fill="#089981" height="271.217881594845" opacity="0.5" width="50.36065573770492" x="1139.4098360655737" y="1888.782118405155" /><rect fill="#089981" height="301.8824003221909" opacity="0.5" width="50.36065573770492" x="1202.3606557377047" y="1858.117599677809" /><rect fill="#089981" height="430.0861860652436" opacity="0.5" width="50.36065573770492" x="1265.311475409836" y="1729.9138139347565" /><rect fill="#F23645" height="447.83246073298426" opacity="0.5" width="50.36065573770492" x="1328.262295081967" y="1712.1675392670159" /><rect fill="#F23645" height="108.50020136931131" opacity="0.5" width="50.36065573770492" x="1391.2131147540983" y="2051.4997986306885" /><rect fill="#089981" height="406.598469593234" opacity="0.5" width="50.36065573770492" x="1454.1639344262294" y="1753.4015304067661" /><rect fill="#F23645" height="558.0942408376964" opacity="0.5" width="50.36065573770492" x="1517.1147540983604" y="1601.9057591623036" /><rect fill="#F23645" height="374.3028594442207" opacity="0.5" width="50.36065573770492" x="1580.0655737704917" y="1785.6971405557792" /><rect fill="#F23645" height="407.7076117599678" opacity="0.5" width="50.36065573770492" x="1643.0163934426228" y="1752.2923882400323" /><rect fill="#F23645" height="294.24889246878774" opacity="0.5" width="50.36065573770492" x="1705.967213114754" y="1865.7511075312123" /><rect fill="#089981" height="256.4728151429722" opacity="0.5" width="50.36065573770492" x="1768.918032786885" y="1903.5271848570278" /><rect fill="#089981" height="344.61699556987514" opacity="0.5" width="50.36065573770492" x="1831.8688524590164" y="1815.3830044301249" /><rect fill="#089981" height="609.245267821184" opacity="0.5" width="50.36065573770492" x="1894.8196721311474" y="1550.754732178816" /><rect fill="#F23645" height="501.98469593233995" opacity="0.5" width="50.36065573770492" x="1957.7704918032787" y="1658.01530406766" /><rect fill="#F23645" height="640.3664921465968" opacity="0.5" width="50.36065573770492" x="2020.7213114754097" y="1519.6335078534032" /><rect fill="#089981" height="361.97180829641565" opacity="0.5" width="50.36065573770492" x="2083.672131147541" y="1798.0281917035843" /><rect fill="#089981" height="212.3681031010874" opacity="0.5" width="50.36065573770492" x="2146.622950819672" y="1947.6318968989126" /><rect fill="#089981" height="232.07168747482885" opacity="0.5" width="50.36065573770492" x="2209.5737704918033" y="1927.9283125251711" /><rect fill="#F23645" height="127.61659283125252" opacity="0.5" width="50.36065573770492" x="2272.5245901639346" y="2032.3834071687475" /><rect fill="#F23645" height="325.37011679420056" opacity="0.5" width="50.36065573770492" x="2335.475409836066" y="1834.6298832057994" /><rect fill="#089981" height="362.4285138944825" opacity="0.5" width="50.36065573770492" x="2398.4262295081967" y="1797.5714861055176" /><rect fill="#089981" height="289.42086186065245" opacity="0.5" width="50.36065573770492" x="2461.377049180328" y="1870.5791381393476" /><rect fill="#089981" height="523.3846153846154" opacity="0.5" width="50.36065573770492" x="2524.3278688524592" y="1636.6153846153848" /><rect fill="#F23645" height="368.10471204188485" opacity="0.5" width="50.36065573770492" x="2587.27868852459" y="1791.8952879581152" /><rect fill="#089981" height="134.40193314538865" opacity="0.5" width="50.36065573770492" x="2650.2295081967213" y="2025.5980668546113" /><rect fill="#089981" height="129.18244059605317" opacity="0.5" width="50.36065573770492" x="2713.1803278688526" y="2030.817559403947" /><rect fill="#F23645" height="447.1800241643174" opacity="0.5" width="50.36065573770492" x="2776.131147540984" y="1712.8199758356827" /><rect fill="#089981" height="116.39468385018122" opacity="0.5" width="50.36065573770492" x="2839.0819672131147" y="2043.6053161498187" /><rect fill="#089981" height="185.35722915827628" opacity="0.5" width="50.36065573770492" x="2902.032786885246" y="1974.6427708417236" /><rect fill="#089981" height="499.4401933145389" opacity="0.5" width="50.36065573770492" x="2964.9836065573772" y="1660.5598066854611" /><rect fill="#F23645" height="120.89649617398308" opacity="0.5" width="50.36065573770492" x="3027.934426229508" y="2039.103503826017" /><rect fill="#F23645" height="376.9126057188884" opacity="0.5" width="50.36065573770492" x="3090.8852459016393" y="1783.0873942811115" /><rect fill="#089981" height="269.06484091824404" opacity="0.5" width="50.36065573770492" x="3153.8360655737706" y="1890.935159081756" /><rect fill="#089981" height="519.7309706000806" opacity="0.5" width="50.36065573770492" x="3216.786885245902" y="1640.2690293999194" /><rect fill="#F23645" height="648.0" opacity="0.5" width="50.36065573770492" x="3279.7377049180327" y="1512.0" /><rect fill="#089981" height="406.9246878775674" opacity="0.5" width="50.36065573770492" x="3342.688524590164" y="1753.0753121224325" /><rect fill="#089981" height="522.2102295610149" opacity="0.5" width="50.36065573770492" x="3405.6393442622953" y="1637.7897704389852" /><rect fill="#F23645" height="244.27225130890054" opacity="0.5" width="50.36065573770492" x="3468.5901639344265" y="1915.7277486910994" /><rect fill="#F23645" height="496.9609343536045" opacity="0.5" width="50.36065573770492" x="3531.5409836065573" y="1663.0390656463956" /><rect fill="#F23645" height="448.94160289971813" opacity="0.5" width="50.36065573770492" x="3594.4918032786886" y="1711.0583971002818" /><rect fill="#089981" height="515.7511075312123" opacity="0.5" width="50.36065573770492" x="3657.44262295082" y="1644.2488924687877" /><rect fill="#089981" height="250.4703987112364" opacity="0.5" width="50.36065573770492" x="3720.3934426229507" y="1909.5296012887636" /></g></svg>