<?xml version="1.0" encoding="utf-8" ?>
<svg baseProfile="full" height="1080" version="1.1" width="1920" xmlns="http://www.w3.org/2000/svg" xmlns:ev="http://www.w3.org/2001/xml-events" xmlns:xlink="http://www.w3.org/1999/xlink"><defs /><rect fill="#131722" height="100%" width="100%" x="0" y="0" /><g id="grid" opacity="0.25" stroke="#2A2E39" stroke-width="1"><line x1="0" x2="1920" y1="75" y2="75" /><line x1="0" x2="1920" y1="151" y2="151" /><line x1="0" x2="1920" y1="226" y2="226" /><line x1="0" x2="1920" y1="302" y2="302" /><line x1="0" x2="1920" y1="378" y2="378" /><line x1="0" x2="1920" y1="453" y2="453" /><line x1="0" x2="1920" y1="529" y2="529" /><line x1="0" x2="1920" y1="604" y2="604" /><line x1="0" x2="1920" y1="680" y2="680" /><line x1="0" x2="0" y1="0" y2="1080" /><line x1="313" x2="313" y1="0" y2="1080" /><line x1="627" x2="627" y1="0" y2="1080" /><line x1="941" x2="941" y1="0" y2="1080" /><line x1="1254" x2="1254" y1="0" y2="1080" /><line x1="1568" x2="1568" y1="0" y2="1080" /></g><g id="candles"><line stroke="#089981" stroke-width="3.011764705882353" x1="18.823529411764707" x2="18.823529411764707" y1="572.9866613288123" y2="642.8945698317668" /><rect fill="#089981" height="9.450458044316179" width="30.11764705882353" x="3.7647058823529416" y="591.0256652843267" /><line stroke="#F23645" stroke-width="3.011764705882353" x1="56.470588235294116" x2="56.470588235294116" y1="535.0176222380928" y2="634.0797126700877" /><rect fill="#F23645" height="29.328803832316794" width="30.11764705882353" x="41.411764705882355" y="591.0256652843267" /><line stroke="#089981" stroke-width="3.011764705882353" x1="94.11764705882354" x2="94.11764705882354" y1="596.4640391725164" y2="633.3256742139127" /><rect fill="#089981" height="10.983618873773139" width="30.11764705882353" x="79.05882352941177" y="609.3708502428703" /><line stroke="#F23645" stroke-width="3.011764705882353" x1="131.76470588235293" x2="131.76470588235293" y1="594.5590143029133" y2="628.5031454545275" /><rect fill="#F23645" height="15.860443208001698" width="30.11764705882353" x="116.70588235294117" y="609.3708502428703" /><line stroke="#F23645" stroke-width="3.011764705882353" x1="169.41176470588235" x2="169.41176470588235" y1="607.6995623146257" y2="749.4621340082498" /><rect fill="#F23645" height="107.58351513373077" width="30.11764705882353" x="154.35294117647058" y="625.231293450872" /><line stroke="#089981" stroke-width="3.011764705882353" x1="207.05882352941177" x2="207.05882352941177" y1="705.6351464486982" y2="756.0" /><rect fill="#089981" height="15.565337326688905" width="30.11764705882353" x="192.0" y="717.2494712579139" /><line stroke="#089981" stroke-width="3.011764705882353" x1="244.70588235294116" x2="244.70588235294116" y1="684.8878701061736" y2="734.950671749125" /><rect fill="#089981" height="24.255909617730936" width="30.11764705882353" x="229.6470588235294" y="692.993561640183" /><line stroke="#089981" stroke-width="3.011764705882353" x1="282.3529411764706" x2="282.3529411764706" y1="588.877125539223" y2="703.4535459024803" /><rect fill="#089981" height="93.86237619945666" width="30.11764705882353" x="267.29411764705884" y="599.1311854407263" /><line stroke="#F23645" stroke-width="3.011764705882353" x1="320.0" x2="320.0" y1="593.3140511318464" y2="680.4123229703371" /><rect fill="#F23645" height="26.70166755808134" width="30.11764705882353" x="304.94117647058823" y="599.1311854407263" /><line stroke="#089981" stroke-width="3.011764705882353" x1="357.6470588235294" x2="357.6470588235294" y1="553.4091559870202" y2="669.9297435574833" /><rect fill="#089981" height="44.319302043221114" width="30.11764705882353" x="342.5882352941176" y="581.5135509555865" /><line stroke="#089981" stroke-width="3.011764705882353" x1="395.29411764705884" x2="395.29411764705884" y1="467.5001100538501" y2="593.1861128366568" /><rect fill="#089981" height="111.32811123432577" width="30.11764705882353" x="380.2352941176471" y="470.18543972126076" /><line stroke="#F23645" stroke-width="3.011764705882353" x1="432.94117647058823" x2="432.94117647058823" y1="451.33224420709917" y2="492.89030339362665" /><rect fill="#F23645" height="5.668849685996122" width="30.11764705882353" x="417.88235294117646" y="470.18543972126076" /><line stroke="#F23645" stroke-width="3.011764705882353" x1="470.5882352941176" x2="470.5882352941176" y1="462.59585790440786" y2="530.9285955056134" /><rect fill="#F23645" height="18.765572202502312" width="30.11764705882353" x="455.52941176470586" y="475.8542894072569" /><line stroke="#F23645" stroke-width="3.011764705882353" x1="508.2352941176471" x2="508.2352941176471" y1="485.3937259011833" y2="556.6888700480072" /><rect fill="#F23645" height="34.898753953665675" width="30.11764705882353" x="493.1764705882353" y="494.6198616097592" /><line stroke="#F23645" stroke-width="3.011764705882353" x1="545.8823529411765" x2="545.8823529411765" y1="496.6619158434547" y2="575.2370346254638" /><rect fill="#F23645" height="20.702110111707498" width="30.11764705882353" x="530.8235294117648" y="529.5186155634249" /><line stroke="#F23645" stroke-width="3.011764705882353" x1="583.5294117647059" x2="583.5294117647059" y1="524.2141645120781" y2="582.9296331633805" /><rect fill="#F23645" height="10.867646192318148" width="30.11764705882353" x="568.4705882352941" y="550.2207256751324" /><line stroke="#F23645" stroke-width="3.011764705882353" x1="621.1764705882352" x2="621.1764705882352" y1="558.6639929941282" y2="606.6503686420867" /><rect fill="#F23645" height="37.23423665462758" width="30.11764705882353" x="606.1176470588235" y="561.0883718674505" /><line stroke="#089981" stroke-width="3.011764705882353" x1="658.8235294117646" x2="658.8235294117646" y1="514.4074313139323" y2="626.9570267051463" /><rect fill="#089981" height="75.62520864741145" width="30.11764705882353" x="643.7647058823529" y="522.6973998746666" /><line stroke="#089981" stroke-width="3.011764705882353" x1="696.470588235294" x2="696.470588235294" y1="506.30771197679417" y2="534.5862745593241" /><rect fill="#089981" height="10.480704643843296" width="30.11764705882353" x="681.4117647058823" y="512.2166952308233" /><line stroke="#089981" stroke-width="3.011764705882353" x1="734.1176470588235" x2="734.1176470588235" y1="448.20517658728824" y2="521.0223441309487" /><rect fill="#089981" height="47.01322295445118" width="30.11764705882353" x="719.0588235294118" y="465.20347227637217" /><line stroke="#089981" stroke-width="3.011764705882353" x1="771.7647058823529" x2="771.7647058823529" y1="424.20222226683256" y2="475.2237814284555" /><rect fill="#089981" height="19.443104901059485" width="30.11764705882353" x="756.7058823529412" y="445.7603673753127" /><line stroke="#F23645" stroke-width="3.011764705882353" x1="809.4117647058823" x2="809.4117647058823" y1="434.8396236701944" y2="518.3705583070557" /><rect fill="#F23645" height="31.84931531747452" width="30.11764705882353" x="794.3529411764706" y="445.7603673753127" /><line stroke="#F23645" stroke-width="3.011764705882353" x1="847.0588235294117" x2="847.0588235294117" y1="441.12577995544893" y2="603.6073561075796" /><rect fill="#F23645" height="44.0126560956291" width="30.11764705882353" x="832.0" y="477.6096826927872" /><line stroke="#089981" stroke-width="3.011764705882353" x1="884.7058823529411" x2="884.7058823529411" y1="455.30891571589126" y2="526.4845675773548" /><rect fill="#089981" height="13.78058833602006" width="30.11764705882353" x="869.6470588235294" y="507.84175045239624" /><line stroke="#F23645" stroke-width="3.011764705882353" x1="922.3529411764705" x2="922.3529411764705" y1="485.0628642222197" y2="537.3962857257666" /><rect fill="#F23645" height="1" width="30.11764705882353" x="907.2941176470588" y="507.84175045239624" /><line stroke="#F23645" stroke-width="3.011764705882353" x1="960.0" x2="960.0" y1="505.17359963691365" y2="590.0190807151886" /><rect fill="#F23645" height="69.9462043338579" width="30.11764705882353" x="944.9411764705883" y="508.0241213641705" /><line stroke="#F23645" stroke-width="3.011764705882353" x1="997.6470588235294" x2="997.6470588235294" y1="543.5177508567757" y2="632.1270792608468" /><rect fill="#F23645" height="14.427382529821216" width="30.11764705882353" x="982.5882352941177" y="577.9703256980284" /><line stroke="#F23645" stroke-width="3.011764705882353" x1="1035.2941176470588" x2="1035.2941176470588" y1="532.2741919371002" y2="633.0619320746806" /><rect fill="#F23645" height="6.357525946852888" width="30.11764705882353" x="1020.2352941176471" y="592.3977082278496" /><line stroke="#089981" stroke-width="3.011764705882353" x1="1072.9411764705883" x2="1072.9411764705883" y1="564.3253039259462" y2="637.3019484666255" /><rect fill="#089981" height="12.097937652064843" width="30.11764705882353" x="1057.8823529411766" y="586.6572965226377" /><line stroke="#089981" stroke-width="3.011764705882353" x1="1110.5882352941176" x2="1110.5882352941176" y1="563.1945855856998" y2="601.7941934636416" /><rect fill="#089981" height="9.191015219954807" width="30.11764705882353" x="1095.5294117647059" y="577.4662813026829" /><line stroke="#089981" stroke-width="3.011764705882353" x1="1148.235294117647" x2="1148.235294117647" y1="491.79179469590406" y2="587.647046336436" /><rect fill="#089981" height="85.41980417954198" width="30.11764705882353" x="1133.1764705882354" y="492.0464771231409" /><line stroke="#F23645" stroke-width="3.011764705882353" x1="1185.8823529411764" x2="1185.8823529411764" y1="488.0508595144615" y2="539.1766089560826" /><rect fill="#F23645" height="29.94574011384327" width="30.11764705882353" x="1170.8235294117646" y="492.0464771231409" /><line stroke="#F23645" stroke-width="3.011764705882353" x1="1223.5294117647059" x2="1223.5294117647059" y1="499.3346597247821" y2="590.150330533668" /><rect fill="#F23645" height="33.876873214893635" width="30.11764705882353" x="1208.4705882352941" y="521.9922172369842" /><line stroke="#089981" stroke-width="3.011764705882353" x1="1261.1764705882354" x2="1261.1764705882354" y1="401.3742340266561" y2="561.6027576476638" /><rect fill="#089981" height="145.45734328816815" width="30.11764705882353" x="1246.1176470588236" y="410.41174716370966" /><line stroke="#089981" stroke-width="3.011764705882353" x1="1298.8235294117646" x2="1298.8235294117646" y1="334.66809624761765" y2="447.188254181052" /><rect fill="#089981" height="41.292896496786454" width="30.11764705882353" x="1283.764705882353" y="369.1188506669232" /><line stroke="#089981" stroke-width="3.011764705882353" x1="1336.4705882352941" x2="1336.4705882352941" y1="293.37610498429666" y2="392.72012951459993" /><rect fill="#089981" height="69.4403105638163" width="30.11764705882353" x="1321.4117647058824" y="299.6785401031069" /><line stroke="#F23645" stroke-width="3.011764705882353" x1="1374.1176470588234" x2="1374.1176470588234" y1="219.48176150424592" y2="393.80136377172283" /><rect fill="#F23645" height="71.75323670845347" width="30.11764705882353" x="1359.0588235294117" y="299.6785401031069" /><line stroke="#F23645" stroke-width="3.011764705882353" x1="1411.764705882353" x2="1411.764705882353" y1="350.5104113469966" y2="420.94237681275797" /><rect fill="#F23645" height="18.0266460293343" width="30.11764705882353" x="1396.7058823529412" y="371.4317768115604" /><line stroke="#089981" stroke-width="3.011764705882353" x1="1449.4117647058824" x2="1449.4117647058824" y1="354.6096542032544" y2="420.2321718432013" /><rect fill="#089981" height="8.114401658788722" width="30.11764705882353" x="1434.3529411764707" y="381.34402118210596" /><line stroke="#089981" stroke-width="3.011764705882353" x1="1487.0588235294117" x2="1487.0588235294117" y1="295.4666955900141" y2="423.07358614914926" /><rect fill="#089981" height="70.8484776980963" width="30.11764705882353" x="1472.0" y="310.49554348400966" /><line stroke="#089981" stroke-width="3.011764705882353" x1="1524.7058823529412" x2="1524.7058823529412" y1="231.05511027277794" y2="334.0955995328362" /><rect fill="#089981" height="25.50973032476861" width="30.11764705882353" x="1509.6470588235295" y="284.98581315924105" /><line stroke="#F23645" stroke-width="3.011764705882353" x1="1562.3529411764705" x2="1562.3529411764705" y1="258.1645222672163" y2="351.42187347672433" /><rect fill="#F23645" height="39.220272383968734" width="30.11764705882353" x="1547.2941176470588" y="284.98581315924105" /><line stroke="#089981" stroke-width="3.011764705882353" x1="1600.0" x2="1600.0" y1="298.26838389003746" y2="333.92345654158737" /><rect fill="#089981" height="9.032605172821548" width="30.11764705882353" x="1584.9411764705883" y="315.17348037038823" /><line stroke="#089981" stroke-width="3.011764705882353" x1="1637.6470588235295" x2="1637.6470588235295" y1="273.70723791292926" y2="336.8153707225047" /><rect fill="#089981" height="28.86455581510944" width="30.11764705882353" x="1622.5882352941178" y="286.3089245552788" /><line stroke="#F23645" stroke-width="3.011764705882353" x1="1675.2941176470588" x2="1675.2941176470588" y1="221.74758088717203" y2="343.3394043387948" /><rect fill="#F23645" height="49.565805291635" width="30.11764705882353" x="1660.235294117647" y="286.3089245552788" /><line stroke="#089981" stroke-width="3.011764705882353" x1="1712.9411764705883" x2="1712.9411764705883" y1="284.5746271171635" y2="364.47979237639214" /><rect fill="#089981" height="27.480494699894166" width="30.11764705882353" x="1697.8823529411766" y="308.39423514701963" /><line stroke="#089981" stroke-width="3.011764705882353" x1="1750.5882352941176" x2="1750.5882352941176" y1="201.5813908857083" y2="355.51366743773895" /><rect fill="#089981" height="88.23756699266488" width="30.11764705882353" x="1735.5294117647059" y="220.15666815435475" /><line stroke="#089981" stroke-width="3.011764705882353" x1="1788.235294117647" x2="1788.235294117647" y1="27.56355558536484" y2="251.78371089164563" /><rect fill="#089981" height="176.6930378034882" width="30.11764705882353" x="1773.1764705882354" y="43.46363035086654" /><line stroke="#F23645" stroke-width="3.011764705882353" x1="1825.8823529411764" x2="1825.8823529411764" y1="0.0" y2="118.60367043959252" /><rect fill="#F23645" height="19.427633632367474" width="30.11764705882353" x="1810.8235294117646" y="43.46363035086654" /><line stroke="#F23645" stroke-width="3.011764705882353" x1="1863.5294117647059" x2="1863.5294117647059" y1="51.39529341247885" y2="122.5378933931662" /><rect fill="#F23645" height="43.05714610290363" width="30.11764705882353" x="1848.4705882352941" y="62.89126398323401" /></g><g id="volume"><rect fill="#089981" height="222.29403973509932" opacity="0.5" width="30.11764705882353" x="3.7647058823529416" y="857.7059602649007" /><rect fill="#F23645" height="307.7257259296994" opacity="0.5" width="30.11764705882353" x="41.411764705882355" y="772.2742740703006" /><rect fill="#089981" height="183.3744268976057" opacity="0.5" width="30.11764705882353" x="79.05882352941177" y="896.6255731023944" /><rect fill="#F23645" height="123.69108507386653" opacity="0.5" width="30.11764705882353" x="116.70588235294117" y="956.3089149261334" /><rect fill="#F23645" height="288.3154355578197" opacity="0.5" width="30.11764705882353" x="154.35294117647058" y="791.6845644421803" /><rect fill="#089981" height="211.03739174732553" opacity="0.5" width="30.11764705882353" x="192.0" y="868.9626082526745" /><rect fill="#089981" height="214.10738665308202" opacity="0.5" width="30.11764705882353" x="229.6470588235294" y="865.892613346918" /><rect fill="#089981" height="137.0604177279674" opacity="0.5" width="30.11764705882353" x="267.29411764705884" y="942.9395822720326" /><rect fill="#F23645" height="159.87080998471728" opacity="0.5" width="30.11764705882353" x="304.94117647058823" y="920.1291900152827" /><rect fill="#089981" height="314.55894039735097" opacity="0.5" width="30.11764705882353" x="342.5882352941176" y="765.441059602649" /><rect fill="#089981" height="319.6755985736118" opacity="0.5" width="30.11764705882353" x="380.2352941176471" y="760.3244014263882" /><rect fill="#F23645" height="206.5809475292919" opacity="0.5" width="30.11764705882353" x="417.88235294117646" y="873.419052470708" /><rect fill="#F23645" height="150.5617931737137" opacity="0.5" width="30.11764705882353" x="455.52941176470586" y="929.4382068262863" /><rect fill="#F23645" height="135.4759042282221" opacity="0.5" width="30.11764705882353" x="493.1764705882353" y="944.5240957717779" /><rect fill="#F23645" height="302.17992868059093" opacity="0.5" width="30.11764705882353" x="530.8235294117648" y="777.8200713194091" /><rect fill="#F23645" height="262.03892002037696" opacity="0.5" width="30.11764705882353" x="568.4705882352941" y="817.961079979623" /><rect fill="#F23645" height="322.0193581253184" opacity="0.5" width="30.11764705882353" x="606.1176470588235" y="757.9806418746816" /><rect fill="#089981" height="88.40264900662251" opacity="0.5" width="30.11764705882353" x="643.7647058823529" y="991.5973509933775" /><rect fill="#089981" height="137.2254712175242" opacity="0.5" width="30.11764705882353" x="681.4117647058823" y="942.7745287824758" /><rect fill="#089981" height="152.74049923586347" opacity="0.5" width="30.11764705882353" x="719.0588235294118" y="927.2595007641365" /><rect fill="#089981" height="217.6065206316862" opacity="0.5" width="30.11764705882353" x="756.7058823529412" y="862.3934793683138" /><rect fill="#F23645" height="226.58543046357616" opacity="0.5" width="30.11764705882353" x="794.3529411764706" y="853.4145695364239" /><rect fill="#F23645" height="54.89679062659195" opacity="0.5" width="30.11764705882353" x="832.0" y="1025.103209373408" /><rect fill="#089981" height="205.72266938359652" opacity="0.5" width="30.11764705882353" x="869.6470588235294" y="874.2773306164034" /><rect fill="#F23645" height="282.37350993377487" opacity="0.5" width="30.11764705882353" x="907.2941176470588" y="797.6264900662252" /><rect fill="#F23645" height="189.38237391747327" opacity="0.5" width="30.11764705882353" x="944.9411764705883" y="890.6176260825267" /><rect fill="#F23645" height="206.2838512480897" opacity="0.5" width="30.11764705882353" x="982.5882352941177" y="873.7161487519103" /><rect fill="#F23645" height="148.87824758023433" opacity="0.5" width="30.11764705882353" x="1020.2352941176471" y="931.1217524197657" /><rect fill="#089981" height="129.7650534895568" opacity="0.5" width="30.11764705882353" x="1057.8823529411766" y="950.2349465104433" /><rect fill="#089981" height="174.3625063678044" opacity="0.5" width="30.11764705882353" x="1095.5294117647059" y="905.6374936321956" /><rect fill="#089981" height="308.2538970962812" opacity="0.5" width="30.11764705882353" x="1133.1764705882354" y="771.7461029037188" /><rect fill="#F23645" height="253.9843097300051" opacity="0.5" width="30.11764705882353" x="1170.8235294117646" y="826.0156902699949" /><rect fill="#F23645" height="324.0" opacity="0.5" width="30.11764705882353" x="1208.4705882352941" y="756.0" /><rect fill="#089981" height="183.1433520122262" opacity="0.5" width="30.11764705882353" x="1246.1176470588236" y="896.8566479877738" /><rect fill="#089981" height="107.44982170147732" opacity="0.5" width="30.11764705882353" x="1283.764705882353" y="972.5501782985227" /><rect fill="#089981" height="117.4190524707081" opacity="0.5" width="30.11764705882353" x="1321.4117647058824" y="962.580947529292" /><rect fill="#F23645" height="64.56892511462048" opacity="0.5" width="30.11764705882353" x="1359.0588235294117" y="1015.4310748853795" /><rect fill="#F23645" height="164.62435048395312" opacity="0.5" width="30.11764705882353" x="1396.7058823529412" y="915.3756495160469" /><rect fill="#089981" height="183.3744268976057" opacity="0.5" width="30.11764705882353" x="1434.3529411764707" y="896.6255731023944" /><rect fill="#089981" height="146.43545593479368" opacity="0.5" width="30.11764705882353" x="1472.0" y="933.5645440652063" /><rect fill="#089981" height="264.81181864493124" opacity="0.5" width="30.11764705882353" x="1509.6470588235295" y="815.1881813550688" /><rect fill="#F23645" height="186.24635761589406" opacity="0.5" width="30.11764705882353" x="1547.2941176470588" y="893.7536423841059" /><rect fill="#089981" height="68.00203769740193" opacity="0.5" width="30.11764705882353" x="1584.9411764705883" y="1011.9979623025981" /><rect fill="#089981" height="65.36118186449312" opacity="0.5" width="30.11764705882353" x="1622.5882352941178" y="1014.6388181355069" /><rect fill="#F23645" height="226.25532348446256" opacity="0.5" width="30.11764705882353" x="1660.235294117647" y="853.7446765155374" /><rect fill="#089981" height="58.891085073866535" opacity="0.5" width="30.11764705882353" x="1697.8823529411766" y="1021.1089149261335" /><rect fill="#089981" height="93.78339276617423" opacity="0.5" width="30.11764705882353" x="1735.5294117647059" y="986.2166072338258" /><rect fill="#089981" height="252.69689251146204" opacity="0.5" width="30.11764705882353" x="1773.1764705882354" y="827.303107488538" /><rect fill="#F23645" height="61.16882322975039" opacity="0.5" width="30.11764705882353" x="1810.8235294117646" y="1018.8311767702496" /><rect fill="#F23645" height="190.70280183392765" opacity="0.5" width="30.11764705882353" x="1848.4705882352941" y="889.2971981660723" /></g></svg>