<?xml version="1.0" encoding="utf-8" ?>
<svg baseProfile="full" height="1080" version="1.1" width="1920" xmlns="http://www.w3.org/2000/svg" xmlns:ev="http://www.w3.org/2001/xml-events" xmlns:xlink="http://www.w3.org/1999/xlink"><defs /><rect fill="#0B0E11" height="100%" width="100%" x="0" y="0" /><g id="grid" opacity="0.25" stroke="#2A2E39" stroke-width="1"><line x1="0" x2="1920" y1="75" y2="75" /><line x1="0" x2="1920" y1="151" y2="151" /><line x1="0" x2="1920" y1="226" y2="226" /><line x1="0" x2="1920" y1="302" y2="302" /><line x1="0" x2="1920" y1="378" y2="378" /><line x1="0" x2="1920" y1="453" y2="453" /><line x1="0" x2="1920" y1="529" y2="529" /><line x1="0" x2="1920" y1="604" y2="604" /><line x1="0" x2="1920" y1="680" y2="680" /><line x1="0" x2="0" y1="0" y2="1080" /><line x1="236" x2="236" y1="0" y2="1080" /><line x1="473" x2="473" y1="0" y2="1080" /><line x1="710" x2="710" y1="0" y2="1080" /><line x1="947" x2="947" y1="0" y2="1080" /><line x1="1184" x2="1184" y1="0" y2="1080" /><line x1="1421" x2="1421" y1="0" y2="1080" /><line x1="1657" x2="1657" y1="0" y2="1080" /></g><g id="candles"><line stroke="#0ECB81" stroke-width="2.0210526315789474" x1="12.631578947368421" x2="12.631578947368421" y1="610.0026415653766" y2="665.7710901889934" /><rect fill="#0ECB81" height="7.539023769990422" width="20.210526315789473" x="2.5263157894736845" y="624.3931059185164" /><line stroke="#F6465D" stroke-width="2.0210526315789474" x1="37.89473684210526" x2="37.89473684210526" y1="579.713158570339" y2="658.739111700825" /><rect fill="#F6465D" height="23.396807667984604" width="20.210526315789473" x="27.789473684210527" y="624.3931059185164" /><line stroke="#0ECB81" stroke-width="2.0210526315789474" x1="63.15789473684211" x2="63.15789473684211" y1="628.7315231487603" y2="658.1375838364684" /><rect fill="#0ECB81" height="8.76208998353195" width="20.210526315789473" x="53.05263157894737" y="639.0278236029691" /><line stroke="#F6465D" stroke-width="2.0210526315789474" x1="88.42105263157895" x2="88.42105263157895" y1="627.2118055110528" y2="654.2904519008544" /><rect fill="#F6465D" height="12.652535759324678" width="20.210526315789473" x="78.3157894736842" y="639.0278236029691" /><line stroke="#F6465D" stroke-width="2.0210526315789474" x1="113.6842105263158" x2="113.6842105263158" y1="637.6945676529982" y2="750.7844721509069" /><rect fill="#F6465D" height="85.82384833083654" width="20.210526315789473" x="103.57894736842105" y="651.6803593622938" /><line stroke="#0ECB81" stroke-width="2.0210526315789474" x1="138.94736842105263" x2="138.94736842105263" y1="715.8218598172901" y2="756.0" /><rect fill="#0ECB81" height="12.417117513621974" width="20.210526315789473" x="128.8421052631579" y="725.0870901795083" /><line stroke="#0ECB81" stroke-width="2.0210526315789474" x1="164.21052631578945" x2="164.21052631578945" y1="699.270893845548" y2="739.2080746476495" /><rect fill="#0ECB81" height="19.349948786958066" width="20.210526315789473" x="154.1052631578947" y="705.7371413925503" /><line stroke="#0ECB81" stroke-width="2.0210526315789474" x1="189.4736842105263" x2="189.4736842105263" y1="622.6791263279877" y2="714.0815062495124" /><rect fill="#0ECB81" height="74.87792464208474" width="20.210526315789473" x="179.36842105263156" y="630.8592167504655" /><line stroke="#F6465D" stroke-width="2.0210526315789474" x1="214.73684210526315" x2="214.73684210526315" y1="626.2186465662247" y2="695.7005635946163" /><rect fill="#F6465D" height="21.301031703942613" width="20.210526315789473" x="204.6315789473684" y="630.8592167504655" /><line stroke="#0ECB81" stroke-width="2.0210526315789474" x1="240.0" x2="240.0" y1="594.3848506142116" y2="687.3381736455018" /><rect fill="#0ECB81" height="35.35535209049306" width="20.210526315789473" x="229.89473684210526" y="616.8048963639151" /><line stroke="#0ECB81" stroke-width="2.0210526315789474" x1="265.2631578947368" x2="265.2631578947368" y1="525.8516285936237" y2="626.1165848625482" /><rect fill="#0ECB81" height="88.81106851413529" width="20.210526315789473" x="255.1578947368421" y="527.9938278497798" /><line stroke="#F6465D" stroke-width="2.0210526315789474" x1="290.5263157894737" x2="290.5263157894737" y1="512.9538489984874" y2="546.1064427217445" /><rect fill="#F6465D" height="4.522277368019445" width="20.210526315789473" x="280.42105263157896" y="527.9938278497798" /><line stroke="#F6465D" stroke-width="2.0210526315789474" x1="315.7894736842105" x2="315.7894736842105" y1="521.9393025079152" y2="576.4511717345973" /><rect fill="#F6465D" height="14.97007808814351" width="20.210526315789473" x="305.6842105263158" y="532.5161052177992" /><line stroke="#F6465D" stroke-width="2.0210526315789474" x1="341.0526315789474" x2="341.0526315789474" y1="540.1261108008915" y2="597.0012150431743" /><rect fill="#F6465D" height="27.84018873645732" width="20.210526315789473" x="330.94736842105266" y="547.4861833059427" /><line stroke="#F6465D" stroke-width="2.0210526315789474" x1="366.3157894736842" x2="366.3157894736842" y1="549.1152149714184" y2="611.7978580189338" /><rect fill="#F6465D" height="16.51493498931427" width="20.210526315789473" x="356.2105263157895" y="575.3263720424001" /><line stroke="#F6465D" stroke-width="2.0210526315789474" x1="391.5789473684211" x2="391.5789473684211" y1="571.0947906338243" y2="617.9345640874008" /><rect fill="#F6465D" height="8.669573748016205" width="20.210526315789473" x="381.47368421052636" y="591.8413070317143" /><line stroke="#F6465D" stroke-width="2.0210526315789474" x1="416.8421052631579" x2="416.8421052631579" y1="598.5768528344468" y2="636.8575821863147" /><rect fill="#F6465D" height="29.70330050462644" width="20.210526315789473" x="406.7368421052632" y="600.5108807797305" /><line stroke="#0ECB81" stroke-width="2.0210526315789474" x1="442.10526315789474" x2="442.10526315789474" y1="563.271551343191" y2="653.0570486151985" /><rect fill="#0ECB81" height="60.329376939165854" width="20.210526315789473" x="432.0" y="569.8848043451911" /><line stroke="#0ECB81" stroke-width="2.0210526315789474" x1="467.3684210526316" x2="467.3684210526316" y1="556.8100680662337" y2="579.3690545715574" /><rect fill="#0ECB81" height="8.360894367835044" width="20.210526315789473" x="457.2631578947369" y="561.5239099773561" /><line stroke="#0ECB81" stroke-width="2.0210526315789474" x1="492.63157894736844" x2="492.63157894736844" y1="510.4592569897645" y2="568.5485426519768" /><rect fill="#0ECB81" height="37.5044049394661" width="20.210526315789473" x="482.5263157894737" y="524.01950503789" /><line stroke="#0ECB81" stroke-width="2.0210526315789474" x1="517.8947368421053" x2="517.8947368421053" y1="491.3111011730477" y2="532.0131227573659" /><rect fill="#0ECB81" height="15.510574124993354" width="20.210526315789473" x="507.7894736842106" y="508.50893091289663" /><line stroke="#F6465D" stroke-width="2.0210526315789474" x1="543.157894736842" x2="543.157894736842" y1="499.79699906866426" y2="566.4331027161022" /><rect fill="#F6465D" height="25.40752459937903" width="20.210526315789473" x="533.0526315789473" y="508.50893091289663" /><line stroke="#F6465D" stroke-width="2.0210526315789474" x1="568.4210526315788" x2="568.4210526315788" y1="504.81172760713036" y2="634.4300444180448" /><rect fill="#F6465D" height="35.1107278535485" width="20.210526315789473" x="558.3157894736842" y="533.9164555122757" /><line stroke="#0ECB81" stroke-width="2.0210526315789474" x1="593.6842105263157" x2="593.6842105263157" y1="516.1262053953562" y2="572.9059856675798" /><rect fill="#0ECB81" height="10.993348951185908" width="20.210526315789473" x="583.578947368421" y="558.0338344146382" /><line stroke="#F6465D" stroke-width="2.0210526315789474" x1="618.9473684210525" x2="618.9473684210525" y1="539.8621686670194" y2="581.6107174495264" /><rect fill="#F6465D" height="1" width="20.210526315789473" x="608.8421052631578" y="558.0338344146382" /><line stroke="#F6465D" stroke-width="2.0210526315789474" x1="644.2105263157894" x2="644.2105263157894" y1="555.905339443758" y2="623.590111507277" /><rect fill="#F6465D" height="55.79899880204391" width="20.210526315789473" x="634.1052631578947" y="558.1793192823953" /><line stroke="#F6465D" stroke-width="2.0210526315789474" x1="669.4736842105262" x2="669.4736842105262" y1="586.49406499876" y2="657.181414749279" /><rect fill="#F6465D" height="11.5093236032601" width="20.210526315789473" x="659.3684210526316" y="613.9783180844393" /><line stroke="#F6465D" stroke-width="2.0210526315789474" x1="694.7368421052631" x2="694.7368421052631" y1="577.5246100202575" y2="657.9271857533812" /><rect fill="#F6465D" height="5.071663088381342" width="20.210526315789473" x="684.6315789473684" y="625.4876416876994" /><line stroke="#0ECB81" stroke-width="2.0210526315789474" x1="719.9999999999999" x2="719.9999999999999" y1="603.0931162244474" y2="661.3096233256264" /><rect fill="#0ECB81" height="9.651028457994585" width="20.210526315789473" x="709.8947368421052" y="620.9082763180861" /><line stroke="#0ECB81" stroke-width="2.0210526315789474" x1="745.2631578947368" x2="745.2631578947368" y1="602.1910951367596" y2="632.9836091016392" /><rect fill="#0ECB81" height="7.332055429340471" width="20.210526315789473" x="735.1578947368421" y="613.5762208887456" /><line stroke="#0ECB81" stroke-width="2.0210526315789474" x1="770.5263157894736" x2="770.5263157894736" y1="545.2301166066677" y2="621.6978409442215" /><rect fill="#0ECB81" height="68.14293350837215" width="20.210526315789473" x="760.421052631579" y="545.4332873803735" /><line stroke="#F6465D" stroke-width="2.0210526315789474" x1="795.7894736842104" x2="795.7894736842104" y1="542.2458168909675" y2="583.030955398701" /><rect fill="#F6465D" height="23.888963420561595" width="20.210526315789473" x="785.6842105263157" y="545.4332873803735" /><line stroke="#F6465D" stroke-width="2.0210526315789474" x1="821.0526315789473" x2="821.0526315789473" y1="551.2473740221157" y2="623.6948149509285" /><rect fill="#F6465D" height="27.02499193397739" width="20.210526315789473" x="810.9473684210526" y="569.3222508009351" /><line stroke="#0ECB81" stroke-width="2.0210526315789474" x1="846.3157894736842" x2="846.3157894736842" y1="473.10026470811465" y2="600.9212277286073" /><rect fill="#0ECB81" height="116.03737759871842" width="20.210526315789473" x="836.2105263157895" y="480.30986513619405" /><line stroke="#0ECB81" stroke-width="2.0210526315789474" x1="871.5789473684209" x2="871.5789473684209" y1="419.8860018689827" y2="509.6480156555456" /><rect fill="#0ECB81" height="32.941062407896766" width="20.210526315789473" x="861.4736842105262" y="447.3688027282973" /><line stroke="#0ECB81" stroke-width="2.0210526315789474" x1="896.8421052631578" x2="896.8421052631578" y1="386.94566160350297" y2="466.1965253000959" /><rect fill="#0ECB81" height="55.39542628317241" width="20.210526315789473" x="886.7368421052631" y="391.97337644512487" /><line stroke="#F6465D" stroke-width="2.0210526315789474" x1="922.1052631578947" x2="922.1052631578947" y1="327.99706785793364" y2="467.0590708748345" /><rect fill="#F6465D" height="57.24054374741422" width="20.210526315789473" x="912.0" y="391.97337644512487" /><line stroke="#F6465D" stroke-width="2.0210526315789474" x1="947.3684210526314" x2="947.3684210526314" y1="432.52407608145216" y2="488.7105867588766" /><rect fill="#F6465D" height="14.380605921010556" width="20.210526315789473" x="937.2631578947368" y="449.2139201925391" /><line stroke="#0ECB81" stroke-width="2.0210526315789474" x1="972.6315789473683" x2="972.6315789473683" y1="435.79421274439187" y2="488.1440266914232" /><rect fill="#0ECB81" height="6.473195976109423" width="20.210526315789473" x="962.5263157894736" y="457.1213301374402" /><line stroke="#0ECB81" stroke-width="2.0210526315789474" x1="997.8947368421052" x2="997.8947368421052" y1="388.61341275333234" y2="490.4107411609738" /><rect fill="#0ECB81" height="56.518779823040404" width="20.210526315789473" x="987.7894736842105" y="400.6025503143998" /><line stroke="#0ECB81" stroke-width="2.0210526315789474" x1="1023.1578947368421" x2="1023.1578947368421" y1="337.2296099268155" y2="419.4292974086551" /><rect fill="#0ECB81" height="20.350173756936954" width="20.210526315789473" x="1013.0526315789474" y="380.25237655746287" /><line stroke="#F6465D" stroke-width="2.0210526315789474" x1="1048.4210526315792" x2="1048.4210526315792" y1="358.85591634055123" y2="433.25118736317427" /><rect fill="#F6465D" height="31.287643877332926" width="20.210526315789473" x="1038.3157894736844" y="380.25237655746287" /><line stroke="#0ECB81" stroke-width="2.0210526315789474" x1="1073.6842105263158" x2="1073.6842105263158" y1="390.84843613430843" y2="419.29197177885214" /><rect fill="#0ECB81" height="7.205685140710898" width="20.210526315789473" x="1063.578947368421" y="404.3343352940849" /><line stroke="#0ECB81" stroke-width="2.0210526315789474" x1="1098.9473684210527" x2="1098.9473684210527" y1="371.25498759760075" y2="421.5989721007911" /><rect fill="#0ECB81" height="23.02645769970951" width="20.210526315789473" x="1088.842105263158" y="381.3078775943754" /><line stroke="#F6465D" stroke-width="2.0210526315789474" x1="1124.2105263157896" x2="1124.2105263157896" y1="329.80460629747614" y2="426.8034652881884" /><rect fill="#F6465D" height="39.54070612451392" width="20.210526315789473" x="1114.1052631578948" y="381.3078775943754" /><line stroke="#0ECB81" stroke-width="2.0210526315789474" x1="1149.4736842105265" x2="1149.4736842105265" y1="379.924356335525" y2="443.6680328228936" /><rect fill="#0ECB81" height="21.922334534694983" width="20.210526315789473" x="1139.3684210526317" y="398.9262491841943" /><line stroke="#0ECB81" stroke-width="2.0210526315789474" x1="1174.7368421052633" x2="1174.7368421052633" y1="313.7171970884995" y2="436.51538173230813" /><rect fill="#0ECB81" height="70.39078019757096" width="20.210526315789473" x="1164.6315789473686" y="328.53546898662336" /><line stroke="#0ECB81" stroke-width="2.0210526315789474" x1="1200.0000000000002" x2="1200.0000000000002" y1="174.89592614273715" y2="353.76567749639446" /><rect fill="#0ECB81" height="140.95539134142672" width="20.210526315789473" x="1189.8947368421054" y="187.58007764519664" /><line stroke="#F6465D" stroke-width="2.0210526315789474" x1="1225.2631578947369" x2="1225.2631578947369" y1="152.907330482181" y2="247.52241542930471" /><rect fill="#F6465D" height="15.498232049945273" width="20.210526315789473" x="1215.157894736842" y="187.58007764519664" /><line stroke="#F6465D" stroke-width="2.0210526315789474" x1="1250.5263157894738" x2="1250.5263157894738" y1="193.90749543559832" y2="250.66090884669768" /><rect fill="#F6465D" height="34.34847775796152" width="20.210526315789473" x="1240.421052631579" y="203.0783096951419" /><line stroke="#0ECB81" stroke-width="2.0210526315789474" x1="1275.7894736842106" x2="1275.7894736842106" y1="209.08140245503603" y2="261.37232129573437" /><rect fill="#0ECB81" height="26.917199583323168" width="20.210526315789473" x="1265.6842105263158" y="210.50958786978026" /><line stroke="#0ECB81" stroke-width="2.0210526315789474" x1="1301.0526315789475" x2="1301.0526315789475" y1="179.2249102832369" y2="239.19806752510067" /><rect fill="#0ECB81" height="22.96348795830295" width="20.210526315789473" x="1290.9473684210527" y="187.5460999114773" /><line stroke="#F6465D" stroke-width="2.0210526315789474" x1="1326.3157894736844" x2="1326.3157894736844" y1="152.15293425084394" y2="214.6625515892698" /><rect fill="#F6465D" height="17.475056555669994" width="20.210526315789473" x="1316.2105263157896" y="187.5460999114773" /><line stroke="#0ECB81" stroke-width="2.0210526315789474" x1="1351.5789473684213" x2="1351.5789473684213" y1="152.49744817010503" y2="212.64486180551273" /><rect fill="#0ECB81" height="18.11154474156467" width="20.210526315789473" x="1341.4736842105265" y="186.90961172558264" /><line stroke="#0ECB81" stroke-width="2.0210526315789474" x1="1376.8421052631581" x2="1376.8421052631581" y1="114.20530327979066" y2="223.5996349505432" /><rect fill="#0ECB81" height="64.32146987557053" width="20.210526315789473" x="1366.7368421052633" y="122.58814185001211" /><line stroke="#F6465D" stroke-width="2.0210526315789474" x1="1402.1052631578948" x2="1402.1052631578948" y1="94.43967440232802" y2="187.09621266470447" /><rect fill="#F6465D" height="48.78493906273093" width="20.210526315789473" x="1392.0" y="122.58814185001211" /><line stroke="#F6465D" stroke-width="2.0210526315789474" x1="1427.3684210526317" x2="1427.3684210526317" y1="165.1374387150745" y2="207.56848364804193" /><rect fill="#F6465D" height="22.776153469016776" width="20.210526315789473" x="1417.2631578947369" y="171.37308091274303" /><line stroke="#F6465D" stroke-width="2.0210526315789474" x1="1452.6315789473686" x2="1452.6315789473686" y1="188.53762823844306" y2="326.9169367497981" /><rect fill="#F6465D" height="105.0442236522224" width="20.210526315789473" x="1442.5263157894738" y="194.1492343817598" /><line stroke="#0ECB81" stroke-width="2.0210526315789474" x1="1477.8947368421054" x2="1477.8947368421054" y1="216.84451790941432" y2="309.53968449477816" /><rect fill="#0ECB81" height="79.4958551792813" width="20.210526315789473" x="1467.7894736842106" y="219.6976028547009" /><line stroke="#0ECB81" stroke-width="2.0210526315789474" x1="1503.1578947368423" x2="1503.1578947368423" y1="150.3933228538874" y2="228.89315093338757" /><rect fill="#0ECB81" height="26.344470389727576" width="20.210526315789473" x="1493.0526315789475" y="193.35313246497333" /><line stroke="#0ECB81" stroke-width="2.0210526315789474" x1="1528.4210526315792" x2="1528.4210526315792" y1="140.22377351048544" y2="216.2936936534138" /><rect fill="#0ECB81" height="39.62428926033704" width="20.210526315789473" x="1518.3157894736844" y="153.7288432046363" /><line stroke="#F6465D" stroke-width="2.0210526315789474" x1="1553.6842105263158" x2="1553.6842105263158" y1="143.81310349980765" y2="181.8504324233145" /><rect fill="#F6465D" height="2.8763461748809505" width="20.210526315789473" x="1543.578947368421" y="153.7288432046363" /><line stroke="#F6465D" stroke-width="2.0210526315789474" x1="1578.9473684210527" x2="1578.9473684210527" y1="136.98478356975352" y2="176.7649135373423" /><rect fill="#F6465D" height="4.620812655189411" width="20.210526315789473" x="1568.842105263158" y="156.60518937951724" /><line stroke="#F6465D" stroke-width="2.0210526315789474" x1="1604.2105263157896" x2="1604.2105263157896" y1="141.56311930365814" y2="174.32506954011183" /><rect fill="#F6465D" height="2.7780591879643453" width="20.210526315789473" x="1594.1052631578948" y="161.22600203470665" /><line stroke="#F6465D" stroke-width="2.0210526315789474" x1="1629.4736842105265" x2="1629.4736842105265" y1="140.83135107968337" y2="250.2001754587144" /><rect fill="#F6465D" height="56.72432010120963" width="20.210526315789473" x="1619.3684210526317" y="164.004061222671" /><line stroke="#F6465D" stroke-width="2.0210526315789474" x1="1654.7368421052633" x2="1654.7368421052633" y1="219.60094261208064" y2="249.46757380585103" /><rect fill="#F6465D" height="17.750080131669506" width="20.210526315789473" x="1644.6315789473686" y="220.72838132388063" /><line stroke="#0ECB81" stroke-width="2.0210526315789474" x1="1680.0000000000002" x2="1680.0000000000002" y1="199.95766835961933" y2="241.08526307057207" /><rect fill="#0ECB81" height="38.05639759536041" width="20.210526315789473" x="1669.8947368421054" y="200.42206386018972" /><line stroke="#F6465D" stroke-width="2.0210526315789474" x1="1705.263157894737" x2="1705.263157894737" y1="196.4118478171257" y2="263.07911290119984" /><rect fill="#F6465D" height="38.86044933779101" width="20.210526315789473" x="1695.1578947368423" y="200.42206386018972" /><line stroke="#0ECB81" stroke-width="2.0210526315789474" x1="1730.5263157894738" x2="1730.5263157894738" y1="170.22780497193412" y2="269.0994809758335" /><rect fill="#0ECB81" height="55.127063539718165" width="20.210526315789473" x="1720.421052631579" y="184.15544965826257" /><line stroke="#0ECB81" stroke-width="2.0210526315789474" x1="1755.7894736842106" x2="1755.7894736842106" y1="157.72133661870612" y2="203.12921855363584" /><rect fill="#0ECB81" height="21.118972005523574" width="20.210526315789473" x="1745.6842105263158" y="163.036477652739" /><line stroke="#0ECB81" stroke-width="2.0210526315789474" x1="1781.0526315789475" x2="1781.0526315789475" y1="152.91700682419946" y2="208.02210520796564" /><rect fill="#0ECB81" height="5.671281234524827" width="20.210526315789473" x="1770.9473684210527" y="157.36519641821417" /><line stroke="#0ECB81" stroke-width="2.0210526315789474" x1="1806.3157894736844" x2="1806.3157894736844" y1="52.252326791750306" y2="162.90451325474646" /><rect fill="#0ECB81" height="97.50116646044421" width="20.210526315789473" x="1796.2105263157896" y="59.86402995776996" /><line stroke="#F6465D" stroke-width="2.0210526315789474" x1="1831.5789473684213" x2="1831.5789473684213" y1="13.427627057557515" y2="113.91651405457912" /><rect fill="#F6465D" height="14.716707515770395" width="20.210526315789473" x="1821.4736842105265" y="59.86402995776996" /><line stroke="#0ECB81" stroke-width="2.0210526315789474" x1="1856.8421052631581" x2="1856.8421052631581" y1="17.688550556581504" y2="76.41885767680617" /><rect fill="#0ECB81" height="54.8909374337494" width="20.210526315789473" x="1846.7368421052633" y="19.689800039790953" /><line stroke="#F6465D" stroke-width="2.0210526315789474" x1="1882.1052631578948" x2="1882.1052631578948" y1="0.0" y2="68.53417252735699" /><rect fill="#F6465D" height="43.65191180114459" width="20.210526315789473" x="1872.0" y="19.689800039790953" /></g><g id="volume"><rect fill="#0ECB81" height="219.67539267015707" opacity="0.5" width="20.210526315789473" x="2.5263157894736845" y="860.3246073298429" /><rect fill="#F6465D" height="304.1006846556585" opacity="0.5" width="20.210526315789473" x="27.789473684210527" y="775.8993153443415" /><rect fill="#0ECB81" height="181.21425694724124" opacity="0.5" width="20.210526315789473" x="53.05263157894737" y="898.7857430527588" /><rect fill="#F6465D" height="122.2339911397503" opacity="0.5" width="20.210526315789473" x="78.3157894736842" y="957.7660088602497" /><rect fill="#F6465D" height="284.9190495368506" opacity="0.5" width="20.210526315789473" x="103.57894736842105" y="795.0809504631494" /><rect fill="#0ECB81" height="208.55134917438585" opacity="0.5" width="20.210526315789473" x="128.8421052631579" y="871.4486508256141" /><rect fill="#0ECB81" height="211.58517921868707" opacity="0.5" width="20.210526315789473" x="154.1052631578947" y="868.414820781313" /><rect fill="#0ECB81" height="135.44583165525574" opacity="0.5" width="20.210526315789473" x="179.36842105263156" y="944.5541683447443" /><rect fill="#F6465D" height="157.98751510269835" opacity="0.5" width="20.210526315789473" x="204.6315789473684" y="922.0124848973016" /><rect fill="#0ECB81" height="310.85340314136124" opacity="0.5" width="20.210526315789473" x="229.89473684210526" y="769.1465968586388" /><rect fill="#0ECB81" height="315.90978654853" opacity="0.5" width="20.210526315789473" x="255.1578947368421" y="764.0902134514699" /><rect fill="#F6465D" height="204.147402335884" opacity="0.5" width="20.210526315789473" x="280.42105263157896" y="875.852597664116" /><rect fill="#F6465D" height="148.78815948449454" opacity="0.5" width="20.210526315789473" x="305.6842105263158" y="931.2118405155054" /><rect fill="#F6465D" height="133.8799838904551" opacity="0.5" width="20.210526315789473" x="330.94736842105266" y="946.1200161095448" /><rect fill="#F6465D" height="298.6202174788562" opacity="0.5" width="20.210526315789473" x="356.2105263157895" y="781.3797825211439" /><rect fill="#F6465D" height="258.95207410390657" opacity="0.5" width="20.210526315789473" x="381.47368421052636" y="821.0479258960934" /><rect fill="#F6465D" height="318.2259363672976" opacity="0.5" width="20.210526315789473" x="406.7368421052632" y="761.7740636327023" /><rect fill="#0ECB81" height="87.36125654450261" opacity="0.5" width="20.210526315789473" x="432.0" y="992.6387434554974" /><rect fill="#0ECB81" height="135.6089407974225" opacity="0.5" width="20.210526315789473" x="457.2631578947369" y="944.3910592025775" /><rect fill="#0ECB81" height="150.94120016109545" opacity="0.5" width="20.210526315789473" x="482.5263157894737" y="929.0587998389045" /><rect fill="#0ECB81" height="215.0430930326218" opacity="0.5" width="20.210526315789473" x="507.7894736842106" y="864.9569069673782" /><rect fill="#F6465D" height="223.91623036649213" opacity="0.5" width="20.210526315789473" x="533.0526315789473" y="856.0837696335079" /><rect fill="#F6465D" height="54.250100684655656" opacity="0.5" width="20.210526315789473" x="558.3157894736842" y="1025.7498993153442" /><rect fill="#0ECB81" height="203.299234796617" opacity="0.5" width="20.210526315789473" x="583.578947368421" y="876.7007652033831" /><rect fill="#F6465D" height="279.0471204188482" opacity="0.5" width="20.210526315789473" x="608.8421052631578" y="800.9528795811518" /><rect fill="#F6465D" height="187.15142972211035" opacity="0.5" width="20.210526315789473" x="634.1052631578947" y="892.8485702778896" /><rect fill="#F6465D" height="203.8538058799839" opacity="0.5" width="20.210526315789473" x="659.3684210526316" y="876.1461941200162" /><rect fill="#F6465D" height="147.12444623439387" opacity="0.5" width="20.210526315789473" x="684.6315789473684" y="932.8755537656061" /><rect fill="#0ECB81" height="128.2364075714861" opacity="0.5" width="20.210526315789473" x="709.8947368421052" y="951.7635924285139" /><rect fill="#0ECB81" height="172.30849778493757" opacity="0.5" width="20.210526315789473" x="735.1578947368421" y="907.6915022150624" /><rect fill="#0ECB81" height="304.622633910592" opacity="0.5" width="20.210526315789473" x="760.421052631579" y="775.377366089408" /><rect fill="#F6465D" height="250.99234796616997" opacity="0.5" width="20.210526315789473" x="785.6842105263157" y="829.00765203383" /><rect fill="#F6465D" height="320.1832460732984" opacity="0.5" width="20.210526315789473" x="810.9473684210526" y="759.8167539267016" /><rect fill="#0ECB81" height="180.98590414820782" opacity="0.5" width="20.210526315789473" x="836.2105263157895" y="899.0140958517921" /><rect fill="#0ECB81" height="106.1840515505437" opacity="0.5" width="20.210526315789473" x="861.4736842105262" y="973.8159484494563" /><rect fill="#0ECB81" height="116.03584373741442" opacity="0.5" width="20.210526315789473" x="886.7368421052631" y="963.9641562625856" /><rect fill="#F6465D" height="63.80829641562626" opacity="0.5" width="20.210526315789473" x="912.0" y="1016.1917035843737" /><rect fill="#F6465D" height="162.68505839710028" opacity="0.5" width="20.210526315789473" x="937.2631578947368" y="917.3149416028997" /><rect fill="#0ECB81" height="181.21425694724124" opacity="0.5" width="20.210526315789473" x="962.5263157894736" y="898.7857430527588" /><rect fill="#0ECB81" height="144.71043093032623" opacity="0.5" width="20.210526315789473" x="987.7894736842105" y="935.2895690696738" /><rect fill="#0ECB81" height="261.6923076923077" opacity="0.5" width="20.210526315789473" x="1013.0526315789474" y="818.3076923076924" /><rect fill="#F6465D" height="184.05235602094243" opacity="0.5" width="20.210526315789473" x="1038.3157894736844" y="895.9476439790576" /><rect fill="#0ECB81" height="67.20096657269433" opacity="0.5" width="20.210526315789473" x="1063.578947368421" y="1012.7990334273056" /><rect fill="#0ECB81" height="64.59122029802658" opacity="0.5" width="20.210526315789473" x="1088.842105263158" y="1015.4087797019735" /><rect fill="#F6465D" height="223.5900120821587" opacity="0.5" width="20.210526315789473" x="1114.1052631578948" y="856.4099879178414" /><rect fill="#0ECB81" height="58.19734192509061" opacity="0.5" width="20.210526315789473" x="1139.3684210526317" y="1021.8026580749093" /><rect fill="#0ECB81" height="92.67861457913814" opacity="0.5" width="20.210526315789473" x="1164.6315789473686" y="987.3213854208618" /><rect fill="#0ECB81" height="249.72009665726944" opacity="0.5" width="20.210526315789473" x="1189.8947368421054" y="830.2799033427306" /><rect fill="#F6465D" height="60.44824808699154" opacity="0.5" width="20.210526315789473" x="1215.157894736842" y="1019.5517519130085" /><rect fill="#F6465D" height="188.4563028594442" opacity="0.5" width="20.210526315789473" x="1240.421052631579" y="891.5436971405558" /><rect fill="#0ECB81" height="134.53242045912202" opacity="0.5" width="20.210526315789473" x="1265.6842105263158" y="945.467579540878" /><rect fill="#0ECB81" height="259.8654853000403" opacity="0.5" width="20.210526315789473" x="1290.9473684210527" y="820.1345146999597" /><rect fill="#F6465D" height="324.0" opacity="0.5" width="20.210526315789473" x="1316.2105263157896" y="756.0" /><rect fill="#0ECB81" height="203.4623439387837" opacity="0.5" width="20.210526315789473" x="1341.4736842105265" y="876.5376560612162" /><rect fill="#0ECB81" height="261.10511478050745" opacity="0.5" width="20.210526315789473" x="1366.7368421052633" y="818.8948852194926" /><rect fill="#F6465D" height="122.13612565445027" opacity="0.5" width="20.210526315789473" x="1392.0" y="957.8638743455497" /><rect fill="#F6465D" height="248.48046717680225" opacity="0.5" width="20.210526315789473" x="1417.2631578947369" y="831.5195328231978" /><rect fill="#F6465D" height="224.47080144985907" opacity="0.5" width="20.210526315789473" x="1442.5263157894738" y="855.5291985501409" /><rect fill="#0ECB81" height="257.8755537656061" opacity="0.5" width="20.210526315789473" x="1467.7894736842106" y="822.1244462343939" /><rect fill="#0ECB81" height="125.2351993556182" opacity="0.5" width="20.210526315789473" x="1493.0526315789475" y="954.7648006443818" /><rect fill="#0ECB81" height="111.79500604107935" opacity="0.5" width="20.210526315789473" x="1518.3157894736844" y="968.2049939589207" /><rect fill="#F6465D" height="213.2162706403544" opacity="0.5" width="20.210526315789473" x="1543.578947368421" y="866.7837293596456" /><rect fill="#F6465D" height="142.6552557390254" opacity="0.5" width="20.210526315789473" x="1568.842105263158" y="937.3447442609746" /><rect fill="#F6465D" height="46.225130890052355" opacity="0.5" width="20.210526315789473" x="1594.1052631578948" y="1033.7748691099478" /><rect fill="#F6465D" height="46.06202174788562" opacity="0.5" width="20.210526315789473" x="1619.3684210526317" y="1033.9379782521144" /><rect fill="#F6465D" height="227.96133709222713" opacity="0.5" width="20.210526315789473" x="1644.6315789473686" y="852.0386629077728" /><rect fill="#0ECB81" height="198.11236407571488" opacity="0.5" width="20.210526315789473" x="1669.8947368421054" y="881.8876359242852" /><rect fill="#F6465D" height="144.8409182440596" opacity="0.5" width="20.210526315789473" x="1695.1578947368423" y="935.1590817559404" /><rect fill="#0ECB81" height="319.2698348771647" opacity="0.5" width="20.210526315789473" x="1720.421052631579" y="760.7301651228353" /><rect fill="#0ECB81" height="45.50745066451872" opacity="0.5" width="20.210526315789473" x="1745.6842105263158" y="1034.4925493354813" /><rect fill="#0ECB81" height="211.58517921868707" opacity="0.5" width="20.210526315789473" x="1770.9473684210527" y="868.414820781313" /><rect fill="#0ECB81" height="289.02939991945226" opacity="0.5" width="20.210526315789473" x="1796.2105263157896" y="790.9706000805477" /><rect fill="#F6465D" height="206.62666129681836" opacity="0.5" width="20.210526315789473" x="1821.4736842105265" y="873.3733387031816" /><rect fill="#0ECB81" height="82.92468787756745" opacity="0.5" width="20.210526315789473" x="1846.7368421052633" y="997.0753121224326" /><rect fill="#F6465D" height="82.85944422070077" opacity="0.5" width="20.210526315789473" x="1872.0" y="997.1405557792992" /></g></svg>