<?xml version="1.0" encoding="utf-8" ?>
<svg baseProfile="full" height="900" version="1.1" width="1600" xmlns="http://www.w3.org/2000/svg" xmlns:ev="http://www.w3.org/2001/xml-events" xmlns:xlink="http://www.w3.org/1999/xlink"><defs /><rect fill="#FFFFFF" height="100%" width="100%" x="0" y="0" /><g id="grid" opacity="0.25" stroke="#E0E0E0" stroke-width="1"><line x1="0" x2="1600" y1="63" y2="63" /><line x1="0" x2="1600" y1="126" y2="126" /><line x1="0" x2="1600" y1="189" y2="189" /><line x1="0" x2="1600" y1="252" y2="252" /><line x1="0" x2="1600" y1="315" y2="315" /><line x1="0" x2="1600" y1="378" y2="378" /><line x1="0" x2="1600" y1="441" y2="441" /><line x1="0" x2="1600" y1="504" y2="504" /><line x1="0" x2="1600" y1="567" y2="567" /><line x1="0" x2="0" y1="0" y2="900" /><line x1="144" x2="144" y1="0" y2="900" /><line x1="288" x2="288" y1="0" y2="900" /><line x1="432" x2="432" y1="0" y2="900" /><line x1="576" x2="576" y1="0" y2="900" /><line x1="720" x2="720" y1="0" y2="900" /><line x1="864" x2="864" y1="0" y2="900" /><line x1="1008" x2="1008" y1="0" y2="900" /><line x1="1152" x2="1152" y1="0" y2="900" /><line x1="1296" x2="1296" y1="0" y2="900" /><line x1="1440" x2="1440" y1="0" y2="900" /></g><g id="line"><polyline fill="none" points="7.920792079207921,500.04850862204154 23.762376237623762,523.3644459662221 39.603960396039604,516.0853326243875 55.445544554455445,529.1794785629079 71.2871287128713,611.8867076719606 87.12871287128712,601.1303062167815 102.97029702970298,583.778208400869 118.8118811881188,513.5983907361912 134.65346534653466,534.9204670798727 150.4950495049505,502.34128870205285 166.33663366336634,418.90587852297114 182.17821782178217,424.26513036568434 198.01980198019803,439.5641194485672 213.86138613861385,467.10736179804826 229.7029702970297,483.8760833234462 245.54455445544554,493.18095371101487 261.38613861386136,522.4967070339296 277.2277227722772,466.1579593960324 293.0693069306931,459.26053202895554 308.91089108910893,424.6368065539763 324.7524752475247,410.93737941285804 340.5940594059406,436.16625503924814 356.43564356435644,470.6264792832119 372.2772277227723,461.2246103062576 388.1188118811881,462.4199075931035 403.96039603960395,516.5623580481197 419.8019801980198,528.5688848076907 435.64356435643566,534.4508064304064 451.48514851485146,526.3259825801567 467.3267326732673,520.4073630009613 483.16831683168317,456.6350222759068 499.009900990099,480.41918245405 514.8514851485148,507.1868700018329 530.6930693069307,397.8491320917926 546.5346534653465,367.56683950931887 562.3762376237623,315.922110678851 578.2178217821782,371.4360055517606 594.059405940594,386.1741877616325 609.9009900990098,381.0726623747976 625.7425742574258,328.3592072819121 641.5841584158416,310.05552418513776 657.4257425742575,340.878576244386 673.2673267326733,335.08018172475965 689.1089108910891,314.23035902560895 704.950495049505,352.9051372386434 720.7920792079208,333.10574557613086 736.6336633663366,267.194868134561 752.4752475247525,134.15084832038815 768.3168316831683,149.9523078985738 784.1584158415842,183.68734931560675 800.0,159.13598664374638 815.8415841584158,138.34607154624615 831.6831683168317,156.02822512723577 847.5247524752475,139.8543093170979 863.3663366336633,79.71759922861838 879.2079207920792,127.18707489561655 895.049504950495,149.91253967815408 910.8910891089109,250.9054812993179 926.7326732673267,176.33229728293753 942.5742574257425,152.32581270041038 958.4158415841584,115.68529022733878 974.2574257425742,119.47865045195425 990.09900990099,124.93164593407937 1005.940594059406,128.63149874500567 1021.7821782178218,183.6542732818857 1037.6237623762377,201.59807638639887 1053.4653465346535,166.44920096789855 1069.3069306930693,204.47680243082067 1085.148514851485,153.08738619928573 1100.990099009901,134.0522905510702 1116.8316831683169,129.71368379504491 1132.6732673267327,38.01076426241332 1148.5148514851485,53.06870386691833 1164.3564356435643,1.9039312241869766 1180.19801980198,44.48999232446954 1196.039603960396,75.41747863709531 1211.881188118812,97.37145483818642 1227.7227722772277,151.2660474291839 1243.5643564356435,167.21734589497396 1259.4059405940593,224.53900255328227 1275.2475247524753,245.63673702171474 1291.0891089108911,184.5476051626136 1306.930693069307,176.42638468120555 1322.7722772277227,182.27815421820077 1338.6138613861385,226.02322819980543 1354.4554455445545,159.3122516560079 1370.2970297029703,185.76892622564833 1386.1386138613861,175.7141954496929 1401.980198019802,131.1677070799812 1417.8217821782177,102.04490677894194 1433.6633663366335,159.3643138375702 1449.5049504950496,241.3906755347764 1465.3465346534654,190.09263707529675 1481.1881188118812,130.78471774862317 1497.029702970297,164.1756883751529 1512.8712871287128,144.8827552786102 1528.7128712871288,182.64964556737323 1544.5544554455446,204.6142119284924 1560.3960396039604,190.04622713979205 1576.2376237623762,161.08679199615813" stroke="#26A69A" stroke-linecap="round" stroke-linejoin="round" stroke-width="2" /></g><g id="volume"><rect fill="#26A69A" height="270.0" opacity="0.5" width="12.673267326732674" x="1.5841584158415842" y="630.0" /><rect fill="#26A69A" height="270.0" opacity="0.5" width="12.673267326732674" x="17.425742574257427" y="630.0" /><rect fill="#26A69A" height="270.0" opacity="0.5" width="12.673267326732674" x="33.26732673267327" y="630.0" /><rect fill="#26A69A" height="270.0" opacity="0.5" width="12.673267326732674" x="49.10891089108911" y="630.0" /><rect fill="#26A69A" height="270.0" opacity="0.5" width="12.673267326732674" x="64.95049504950495" y="630.0" /><rect fill="#26A69A" height="270.0" opacity="0.5" width="12.673267326732674" x="80.79207920792079" y="630.0" /><rect fill="#26A69A" height="270.0" opacity="0.5" width="12.673267326732674" x="96.63366336633663" y="630.0" /><rect fill="#26A69A" height="270.0" opacity="0.5" width="12.673267326732674" x="112.47524752475248" y="630.0" /><rect fill="#26A69A" height="270.0" opacity="0.5" width="12.673267326732674" x="128.31683168316832" y="630.0" /><rect fill="#26A69A" height="270.0" opacity="0.5" width="12.673267326732674" x="144.15841584158417" y="630.0" /><rect fill="#26A69A" height="270.0" opacity="0.5" width="12.673267326732674" x="160.0" y="630.0" /><rect fill="#26A69A" height="270.0" opacity="0.5" width="12.673267326732674" x="175.84158415841583" y="630.0" /><rect fill="#26A69A" height="270.0" opacity="0.5" width="12.673267326732674" x="191.68316831683168" y="630.0" /><rect fill="#26A69A" height="270.0" opacity="0.5" width="12.673267326732674" x="207.52475247524754" y="630.0" /><rect fill="#26A69A" height="270.0" opacity="0.5" width="12.673267326732674" x="223.36633663366337" y="630.0" /><rect fill="#26A69A" height="270.0" opacity="0.5" width="12.673267326732674" x="239.2079207920792" y="630.0" /><rect fill="#26A69A" height="270.0" opacity="0.5" width="12.673267326732674" x="255.04950495049505" y="630.0" /><rect fill="#26A69A" height="270.0" opacity="0.5" width="12.673267326732674" x="270.8910891089109" y="630.0" /><rect fill="#26A69A" height="270.0" opacity="0.5" width="12.673267326732674" x="286.73267326732673" y="630.0" /><rect fill="#26A69A" height="270.0" opacity="0.5" width="12.673267326732674" x="302.57425742574253" y="630.0" /><rect fill="#26A69A" height="270.0" opacity="0.5" width="12.673267326732674" x="318.4158415841584" y="630.0" /><rect fill="#26A69A" height="270.0" opacity="0.5" width="12.673267326732674" x="334.25742574257424" y="630.0" /><rect fill="#26A69A" height="270.0" opacity="0.5" width="12.673267326732674" x="350.09900990099004" y="630.0" /><rect fill="#26A69A" height="270.0" opacity="0.5" width="12.673267326732674" x="365.9405940594059" y="630.0" /><rect fill="#26A69A" height="270.0" opacity="0.5" width="12.673267326732674" x="381.78217821782175" y="630.0" /><rect fill="#26A69A" height="270.0" opacity="0.5" width="12.673267326732674" x="397.6237623762376" y="630.0" /><rect fill="#26A69A" height="270.0" opacity="0.5" width="12.673267326732674" x="413.46534653465346" y="630.0" /><rect fill="#26A69A" height="270.0" opacity="0.5" width="12.673267326732674" x="429.30693069306926" y="630.0" /><rect fill="#26A69A" height="270.0" opacity="0.5" width="12.673267326732674" x="445.1485148514851" y="630.0" /><rect fill="#26A69A" height="270.0" opacity="0.5" width="12.673267326732674" x="460.990099009901" y="630.0" /><rect fill="#26A69A" height="270.0" opacity="0.5" width="12.673267326732674" x="476.8316831683168" y="630.0" /><rect fill="#26A69A" height="270.0" opacity="0.5" width="12.673267326732674" x="492.6732673267326" y="630.0" /><rect fill="#26A69A" height="270.0" opacity="0.5" width="12.673267326732674" x="508.5148514851485" y="630.0" /><rect fill="#26A69A" height="270.0" opacity="0.5" width="12.673267326732674" x="524.3564356435643" y="630.0" /><rect fill="#26A69A" height="270.0" opacity="0.5" width="12.673267326732674" x="540.1980198019802" y="630.0" /><rect fill="#26A69A" height="270.0" opacity="0.5" width="12.673267326732674" x="556.039603960396" y="630.0" /><rect fill="#26A69A" height="270.0" opacity="0.5" width="12.673267326732674" x="571.8811881188119" y="630.0" /><rect fill="#26A69A" height="270.0" opacity="0.5" width="12.673267326732674" x="587.7227722772277" y="630.0" /><rect fill="#26A69A" height="270.0" opacity="0.5" width="12.673267326732674" x="603.5643564356435" y="630.0" /><rect fill="#26A69A" height="270.0" opacity="0.5" width="12.673267326732674" x="619.4059405940594" y="630.0" /><rect fill="#26A69A" height="270.0" opacity="0.5" width="12.673267326732674" x="635.2475247524752" y="630.0" /><rect fill="#26A69A" height="270.0" opacity="0.5" width="12.673267326732674" x="651.089108910891" y="630.0" /><rect fill="#26A69A" height="270.0" opacity="0.5" width="12.673267326732674" x="666.9306930693069" y="630.0" /><rect fill="#26A69A" height="270.0" opacity="0.5" width="12.673267326732674" x="682.7722772277227" y="630.0" /><rect fill="#26A69A" height="270.0" opacity="0.5" width="12.673267326732674" x="698.6138613861385" y="630.0" /><rect fill="#26A69A" height="270.0" opacity="0.5" width="12.673267326732674" x="714.4554455445544" y="630.0" /><rect fill="#26A69A" height="270.0" opacity="0.5" width="12.673267326732674" x="730.2970297029702" y="630.0" /><rect fill="#26A69A" height="270.0" opacity="0.5" width="12.673267326732674" x="746.1386138613861" y="630.0" /><rect fill="#26A69A" height="270.0" opacity="0.5" width="12.673267326732674" x="761.980198019802" y="630.0" /><rect fill="#26A69A" height="270.0" opacity="0.5" width="12.673267326732674" x="777.8217821782177" y="630.0" /><rect fill="#26A69A" height="270.0" opacity="0.5" width="12.673267326732674" x="793.6633663366337" y="630.0" /><rect fill="#26A69A" height="270.0" opacity="0.5" width="12.673267326732674" x="809.5049504950495" y="630.0" /><rect fill="#26A69A" height="270.0" opacity="0.5" width="12.673267326732674" x="825.3465346534654" y="630.0" /><rect fill="#26A69A" height="270.0" opacity="0.5" width="12.673267326732674" x="841.1881188118812" y="630.0" /><rect fill="#26A69A" height="270.0" opacity="0.5" width="12.673267326732674" x="857.029702970297" y="630.0" /><rect fill="#26A69A" height="270.0" opacity="0.5" width="12.673267326732674" x="872.8712871287129" y="630.0" /><rect fill="#26A69A" height="270.0" opacity="0.5" width="12.673267326732674" x="888.7128712871287" y="630.0" /><rect fill="#26A69A" height="270.0" opacity="0.5" width="12.673267326732674" x="904.5544554455445" y="630.0" /><rect fill="#26A69A" height="270.0" opacity="0.5" width="12.673267326732674" x="920.3960396039604" y="630.0" /><rect fill="#26A69A" height="270.0" opacity="0.5" width="12.673267326732674" x="936.2376237623762" y="630.0" /><rect fill="#26A69A" height="270.0" opacity="0.5" width="12.673267326732674" x="952.079207920792" y="630.0" /><rect fill="#26A69A" height="270.0" opacity="0.5" width="12.673267326732674" x="967.9207920792079" y="630.0" /><rect fill="#26A69A" height="270.0" opacity="0.5" width="12.673267326732674" x="983.7623762376237" y="630.0" /><rect fill="#26A69A" height="270.0" opacity="0.5" width="12.673267326732674" x="999.6039603960396" y="630.0" /><rect fill="#26A69A" height="270.0" opacity="0.5" width="12.673267326732674" x="1015.4455445544554" y="630.0" /><rect fill="#26A69A" height="270.0" opacity="0.5" width="12.673267326732674" x="1031.2871287128712" y="630.0" /><rect fill="#26A69A" height="270.0" opacity="0.5" width="12.673267326732674" x="1047.128712871287" y="630.0" /><rect fill="#26A69A" height="270.0" opacity="0.5" width="12.673267326732674" x="1062.970297029703" y="630.0" /><rect fill="#26A69A" height="270.0" opacity="0.5" width="12.673267326732674" x="1078.8118811881188" y="630.0" /><rect fill="#26A69A" height="270.0" opacity="0.5" width="12.673267326732674" x="1094.6534653465346" y="630.0" /><rect fill="#26A69A" height="270.0" opacity="0.5" width="12.673267326732674" x="1110.4950495049504" y="630.0" /><rect fill="#26A69A" height="270.0" opacity="0.5" width="12.673267326732674" x="1126.3366336633662" y="630.0" /><rect fill="#26A69A" height="270.0" opacity="0.5" width="12.673267326732674" x="1142.1782178217823" y="630.0" /><rect fill="#26A69A" height="270.0" opacity="0.5" width="12.673267326732674" x="1158.019801980198" y="630.0" /><rect fill="#26A69A" height="270.0" opacity="0.5" width="12.673267326732674" x="1173.8613861386139" y="630.0" /><rect fill="#26A69A" height="270.0" opacity="0.5" width="12.673267326732674" x="1189.7029702970297" y="630.0" /><rect fill="#26A69A" height="270.0" opacity="0.5" width="12.673267326732674" x="1205.5445544554455" y="630.0" /><rect fill="#26A69A" height="270.0" opacity="0.5" width="12.673267326732674" x="1221.3861386138612" y="630.0" /><rect fill="#26A69A" height="270.0" opacity="0.5" width="12.673267326732674" x="1237.2277227722773" y="630.0" /><rect fill="#26A69A" height="270.0" opacity="0.5" width="12.673267326732674" x="1253.069306930693" y="630.0" /><rect fill="#26A69A" height="270.0" opacity="0.5" width="12.673267326732674" x="1268.9108910891089" y="630.0" /><rect fill="#26A69A" height="270.0" opacity="0.5" width="12.673267326732674" x="1284.7524752475247" y="630.0" /><rect fill="#26A69A" height="270.0" opacity="0.5" width="12.673267326732674" x="1300.5940594059405" y="630.0" /><rect fill="#26A69A" height="270.0" opacity="0.5" width="12.673267326732674" x="1316.4356435643565" y="630.0" /><rect fill="#26A69A" height="270.0" opacity="0.5" width="12.673267326732674" x="1332.2772277227723" y="630.0" /><rect fill="#26A69A" height="270.0" opacity="0.5" width="12.673267326732674" x="1348.118811881188" y="630.0" /><rect fill="#26A69A" height="270.0" opacity="0.5" width="12.673267326732674" x="1363.960396039604" y="630.0" /><rect fill="#26A69A" height="270.0" opacity="0.5" width="12.673267326732674" x="1379.8019801980197" y="630.0" /><rect fill="#26A69A" height="270.0" opacity="0.5" width="12.673267326732674" x="1395.6435643564355" y="630.0" /><rect fill="#26A69A" height="270.0" opacity="0.5" width="12.673267326732674" x="1411.4851485148515" y="630.0" /><rect fill="#26A69A" height="270.0" opacity="0.5" width="12.673267326732674" x="1427.3267326732673" y="630.0" /><rect fill="#26A69A" height="270.0" opacity="0.5" width="12.673267326732674" x="1443.1683168316831" y="630.0" /><rect fill="#26A69A" height="270.0" opacity="0.5" width="12.673267326732674" x="1459.009900990099" y="630.0" /><rect fill="#26A69A" height="270.0" opacity="0.5" width="12.673267326732674" x="1474.8514851485147" y="630.0" /><rect fill="#26A69A" height="270.0" opacity="0.5" width="12.673267326732674" x="1490.6930693069307" y="630.0" /><rect fill="#26A69A" height="270.0" opacity="0.5" width="12.673267326732674" x="1506.5346534653465" y="630.0" /><rect fill="#26A69A" height="270.0" opacity="0.5" width="12.673267326732674" x="1522.3762376237623" y="630.0" /><rect fill="#26A69A" height="270.0" opacity="0.5" width="12.673267326732674" x="1538.2178217821781" y="630.0" /><rect fill="#26A69A" height="270.0" opacity="0.5" width="12.673267326732674" x="1554.059405940594" y="630.0" /><rect fill="#26A69A" height="270.0" opacity="0.5" width="12.673267326732674" x="1569.90099009901" y="630.0" /></g></svg>