<?xml version="1.0" encoding="utf-8" ?>
<svg baseProfile="full" height="1080" version="1.1" width="1920" xmlns="http://www.w3.org/2000/svg" xmlns:ev="http://www.w3.org/2001/xml-events" xmlns:xlink="http://www.w3.org/1999/xlink"><defs /><rect fill="#000000" height="100%" width="100%" x="0" y="0" /><g id="grid" opacity="0.25" stroke="#333333" stroke-width="1"><line x1="0" x2="1920" y1="75" y2="75" /><line x1="0" x2="1920" y1="151" y2="151" /><line x1="0" x2="1920" y1="226" y2="226" /><line x1="0" x2="1920" y1="302" y2="302" /><line x1="0" x2="1920" y1="378" y2="378" /><line x1="0" x2="1920" y1="453" y2="453" /><line x1="0" x2="1920" y1="529" y2="529" /><line x1="0" x2="1920" y1="604" y2="604" /><line x1="0" x2="1920" y1="680" y2="680" /><line x1="0" x2="0" y1="0" y2="1080" /><line x1="172" x2="172" y1="0" y2="1080" /><line x1="345" x2="345" y1="0" y2="1080" /><line x1="518" x2="518" y1="0" y2="1080" /><line x1="691" x2="691" y1="0" y2="1080" /><line x1="864" x2="864" y1="0" y2="1080" /><line x1="1036" x2="1036" y1="0" y2="1080" /><line x1="1209" x2="1209" y1="0" y2="1080" /><line x1="1382" x2="1382" y1="0" y2="1080" /><line x1="1555" x2="1555" y1="0" y2="1080" /><line x1="1728" x2="1728" y1="0" y2="1080" /></g><g id="candles"><line stroke="#00FF00" stroke-width="1.5207920792079208" x1="9.504950495049505" x2="9.504950495049505" y1="229.80814257476163" y2="253.6010837547796" /><rect fill="none" height="14.187872026392029" stroke="#00FF00" stroke-width="1" width="15.207920792079207" x="1.900990099009901" y="236.98116251995032" /><line stroke="#00FF00" stroke-width="1.5207920792079208" x1="28.51485148514851" x2="28.51485148514851" y1="231.28232114503203" y2="253.75574882289862" /><rect fill="none" height="4.21660687944518" stroke="#00FF00" stroke-width="1" width="15.207920792079207" x="20.910891089108908" y="242.52508441279224" /><line stroke="#00FF00" stroke-width="1.5207920792079208" x1="47.524752475247524" x2="47.524752475247524" y1="194.84169571934308" y2="231.5369554139237" /><rect fill="none" height="3.4354177019545205" stroke="#00FF00" stroke-width="1" width="15.207920792079207" x="39.92079207920792" y="216.55500655680612" /><line stroke="#00FF00" stroke-width="1.5207920792079208" x1="66.53465346534654" x2="66.53465346534654" y1="134.3598440916894" y2="167.72363093371575" /><rect fill="none" height="8.042138280257063" stroke="#00FF00" stroke-width="1" width="15.207920792079207" x="58.930693069306926" y="155.48675905640175" /><line stroke="#00FF00" stroke-width="1.5207920792079208" x1="85.54455445544554" x2="85.54455445544554" y1="137.25560579924195" y2="165.2945432140723" /><rect fill="none" height="1.616750275258596" stroke="#00FF00" stroke-width="1" width="15.207920792079207" x="77.94059405940594" y="164.87550227801137" /><line stroke="#FF0000" stroke-width="1.5207920792079208" x1="104.55445544554456" x2="104.55445544554456" y1="155.4618114507964" y2="176.61579903054667" /><rect fill="#FF0000" height="4.050261658181512" width="15.207920792079207" x="96.95049504950495" y="170.213325545286" /><line stroke="#FF0000" stroke-width="1.5207920792079208" x1="123.56435643564356" x2="123.56435643564356" y1="100.61702723226642" y2="136.5575758654087" /><rect fill="#FF0000" height="18.90738828301062" width="15.207920792079207" x="115.96039603960395" y="92.03520841757665" /><line stroke="#FF0000" stroke-width="1.5207920792079208" x1="142.5742574257426" x2="142.5742574257426" y1="69.87058650762003" y2="92.03109613785193" /><rect fill="#FF0000" height="1.7499921352883803" width="15.207920792079207" x="134.97029702970298" y="78.42111720204673" /><line stroke="#FF0000" stroke-width="1.5207920792079208" x1="161.58415841584159" x2="161.58415841584159" y1="88.66959552918047" y2="109.96377357469134" /><rect fill="#FF0000" height="2.5817207289647968" width="15.207920792079207" x="153.98019801980197" y="96.4136932500353" /><line stroke="#00FF00" stroke-width="1.5207920792079208" x1="180.59405940594058" x2="180.59405940594058" y1="0.0" y2="81.29424059667258" /><rect fill="none" height="1" stroke="#00FF00" stroke-width="1" width="15.207920792079207" x="172.99009900990097" y="77.24062638496014" /><line stroke="#00FF00" stroke-width="1.5207920792079208" x1="199.6039603960396" x2="199.6039603960396" y1="84.37670767298516" y2="100.18621147059355" /><rect fill="none" height="19.234027977115034" stroke="#00FF00" stroke-width="1" width="15.207920792079207" x="192.0" y="95.8220785092683" /><line stroke="#00FF00" stroke-width="1.5207920792079208" x1="218.6138613861386" x2="218.6138613861386" y1="91.73010230919613" y2="136.52481849229696" /><rect fill="none" height="1" stroke="#00FF00" stroke-width="1" width="15.207920792079207" x="211.009900990099" y="114.4962363005069" /><line stroke="#FF0000" stroke-width="1.5207920792079208" x1="237.6237623762376" x2="237.6237623762376" y1="85.66829205145825" y2="121.34255846275096" /><rect fill="#FF0000" height="1" width="15.207920792079207" x="230.019801980198" y="104.19062727935977" /><line stroke="#FF0000" stroke-width="1.5207920792079208" x1="256.63366336633663" x2="256.63366336633663" y1="168.45105419834874" y2="197.8197923006254" /><rect fill="#FF0000" height="24.691879536334227" width="15.207920792079207" x="249.02970297029702" y="156.81844660831678" /><line stroke="#00FF00" stroke-width="1.5207920792079208" x1="275.64356435643566" x2="275.64356435643566" y1="244.35298059465305" y2="276.8461857496146" /><rect fill="none" height="1.928252909364403" stroke="#00FF00" stroke-width="1" width="15.207920792079207" x="268.03960396039605" y="250.67358559788295" /><line stroke="#FF0000" stroke-width="1.5207920792079208" x1="294.65346534653463" x2="294.65346534653463" y1="258.00335254498054" y2="273.64046819348687" /><rect fill="#FF0000" height="3.022752255518583" width="15.207920792079207" x="287.049504950495" y="270.1966251123709" /><line stroke="#00FF00" stroke-width="1.5207920792079208" x1="313.66336633663366" x2="313.66336633663366" y1="298.33660053575824" y2="327.50239591948633" /><rect fill="none" height="1" stroke="#00FF00" stroke-width="1" width="15.207920792079207" x="306.05940594059405" y="313.8304141590973" /><line stroke="#00FF00" stroke-width="1.5207920792079208" x1="332.6732673267327" x2="332.6732673267327" y1="296.4823743838734" y2="307.45049304265365" /><rect fill="none" height="11.714990246145987" stroke="#00FF00" stroke-width="1" width="15.207920792079207" x="325.0693069306931" y="301.23017930320975" /><line stroke="#FF0000" stroke-width="1.5207920792079208" x1="351.68316831683165" x2="351.68316831683165" y1="327.90811222491243" y2="344.13779153932956" /><rect fill="#FF0000" height="11.455813914657597" width="15.207920792079207" x="344.07920792079204" y="326.1830009428372" /><line stroke="#FF0000" stroke-width="1.5207920792079208" x1="370.6930693069307" x2="370.6930693069307" y1="392.62588981374626" y2="396.8764691467893" /><rect fill="#FF0000" height="7.537480691964674" width="15.207920792079207" x="363.08910891089107" y="386.7298445102246" /><line stroke="#FF0000" stroke-width="1.5207920792079208" x1="389.7029702970297" x2="389.7029702970297" y1="289.0949464668078" y2="337.4444634528389" /><rect fill="#FF0000" height="7.929413615810688" width="15.207920792079207" x="382.0990099009901" y="327.5704479069368" /><line stroke="#00FF00" stroke-width="1.5207920792079208" x1="408.7128712871287" x2="408.7128712871287" y1="307.11726397528156" y2="356.4845855771446" /><rect fill="none" height="9.115825590928182" stroke="#00FF00" stroke-width="1" width="15.207920792079207" x="401.10891089108907" y="344.5527129424531" /><line stroke="#FF0000" stroke-width="1.5207920792079208" x1="427.7227722772277" x2="427.7227722772277" y1="328.0867306182339" y2="358.24897923160023" /><rect fill="#FF0000" height="14.061804141916582" width="15.207920792079207" x="420.1188118811881" y="327.78326055596045" /><line stroke="#00FF00" stroke-width="1.5207920792079208" x1="446.73267326732673" x2="446.73267326732673" y1="366.64038221429115" y2="440.921314737021" /><rect fill="none" height="14.052348892096916" stroke="#00FF00" stroke-width="1" width="15.207920792079207" x="439.1287128712871" y="398.9725559912098" /><line stroke="#FF0000" stroke-width="1.5207920792079208" x1="465.7425742574257" x2="465.7425742574257" y1="411.3390062517383" y2="440.96934148342956" /><rect fill="#FF0000" height="5.882736654960411" width="15.207920792079207" x="458.1386138613861" y="414.91769015334097" /><line stroke="#FF0000" stroke-width="1.5207920792079208" x1="484.7524752475247" x2="484.7524752475247" y1="394.52123058700073" y2="440.6952023897996" /><rect fill="#FF0000" height="21.957430074794956" width="15.207920792079207" x="477.1485148514851" y="394.3953832259396" /><line stroke="#00FF00" stroke-width="1.5207920792079208" x1="503.76237623762376" x2="503.76237623762376" y1="461.2149847888356" y2="485.72181545180086" /><rect fill="none" height="9.929273087903141" stroke="#00FF00" stroke-width="1" width="15.207920792079207" x="496.15841584158414" y="462.5036883880909" /><line stroke="#00FF00" stroke-width="1.5207920792079208" x1="522.7722772277227" x2="522.7722772277227" y1="425.8325674936559" y2="463.31096546868423" /><rect fill="none" height="5.676646745432322" stroke="#00FF00" stroke-width="1" width="15.207920792079207" x="515.1683168316831" y="447.43949284838214" /><line stroke="#FF0000" stroke-width="1.5207920792079208" x1="541.7821782178218" x2="541.7821782178218" y1="457.18242739055444" y2="484.03556065926296" /><rect fill="#FF0000" height="1" width="15.207920792079207" x="534.1782178217821" y="470.52411490593516" /><line stroke="#00FF00" stroke-width="1.5207920792079208" x1="560.7920792079207" x2="560.7920792079207" y1="469.59418428314194" y2="495.81619243095224" /><rect fill="none" height="5.046909574134759" stroke="#00FF00" stroke-width="1" width="15.207920792079207" x="553.188118811881" y="483.218947894323" /><line stroke="#00FF00" stroke-width="1.5207920792079208" x1="579.8019801980197" x2="579.8019801980197" y1="492.70271680509865" y2="507.59083570711084" /><rect fill="none" height="15.544064648461358" stroke="#00FF00" stroke-width="1" width="15.207920792079207" x="572.1980198019801" y="507.345309018271" /><line stroke="#FF0000" stroke-width="1.5207920792079208" x1="598.8118811881187" x2="598.8118811881187" y1="428.7357167843767" y2="451.06374222154705" /><rect fill="#FF0000" height="1" width="15.207920792079207" x="591.2079207920791" y="432.3880537093434" /><line stroke="#00FF00" stroke-width="1.5207920792079208" x1="617.8217821782177" x2="617.8217821782177" y1="432.70289378841636" y2="435.1362813837224" /><rect fill="none" height="10.648679314702122" stroke="#00FF00" stroke-width="1" width="15.207920792079207" x="610.2178217821781" y="433.6165306375516" /><line stroke="#FF0000" stroke-width="1.5207920792079208" x1="636.8316831683168" x2="636.8316831683168" y1="462.963629091225" y2="489.6030183172303" /><rect fill="#FF0000" height="4.747356009907321" width="15.207920792079207" x="629.2277227722772" y="471.2797370480678" /><line stroke="#00FF00" stroke-width="1.5207920792079208" x1="655.8415841584158" x2="655.8415841584158" y1="400.06349331453407" y2="462.5953473998037" /><rect fill="none" height="9.216435655844748" stroke="#00FF00" stroke-width="1" width="15.207920792079207" x="648.2376237623762" y="443.0458773180661" /><line stroke="#FF0000" stroke-width="1.5207920792079208" x1="674.8514851485148" x2="674.8514851485148" y1="479.28851568028745" y2="494.94574660054826" /><rect fill="#FF0000" height="15.53675679054544" width="15.207920792079207" x="667.2475247524752" y="476.46074275740926" /><line stroke="#00FF00" stroke-width="1.5207920792079208" x1="693.8613861386137" x2="693.8613861386137" y1="443.02217069767164" y2="500.17258541140427" /><rect fill="none" height="7.851439305448764" stroke="#00FF00" stroke-width="1" width="15.207920792079207" x="686.2574257425741" y="483.6227893215535" /><line stroke="#00FF00" stroke-width="1.5207920792079208" x1="712.8712871287128" x2="712.8712871287128" y1="558.4607188235562" y2="568.6420387210501" /><rect fill="none" height="3.228389170976129" stroke="#00FF00" stroke-width="1" width="15.207920792079207" x="705.2673267326732" y="562.1988064893856" /><line stroke="#FF0000" stroke-width="1.5207920792079208" x1="731.8811881188118" x2="731.8811881188118" y1="602.1868108564848" y2="623.7330529072105" /><rect fill="#FF0000" height="8.154809074678838" width="15.207920792079207" x="724.2772277227722" y="607.2996798423686" /><line stroke="#00FF00" stroke-width="1.5207920792079208" x1="750.8910891089108" x2="750.8910891089108" y1="590.4712126873251" y2="618.8627376517737" /><rect fill="none" height="12.338354103687948" stroke="#00FF00" stroke-width="1" width="15.207920792079207" x="743.2871287128712" y="607.5610319209751" /><line stroke="#FF0000" stroke-width="1.5207920792079208" x1="769.9009900990098" x2="769.9009900990098" y1="562.0623925553147" y2="594.4351693611177" /><rect fill="#FF0000" height="2.2800898361228974" width="15.207920792079207" x="762.2970297029702" y="575.6709776523131" /><line stroke="#FF0000" stroke-width="1.5207920792079208" x1="788.9108910891089" x2="788.9108910891089" y1="568.779522194649" y2="575.9652987100583" /><rect fill="#FF0000" height="13.102979711957573" width="15.207920792079207" x="781.3069306930693" y="557.9768103912081" /><line stroke="#00FF00" stroke-width="1.5207920792079208" x1="807.9207920792078" x2="807.9207920792078" y1="565.5927629765309" y2="580.6280451604073" /><rect fill="none" height="16.11363421536157" stroke="#00FF00" stroke-width="1" width="15.207920792079207" x="800.3168316831682" y="575.7168875981142" /><line stroke="#FF0000" stroke-width="1.5207920792079208" x1="826.9306930693068" x2="826.9306930693068" y1="570.4332083604554" y2="597.9534448882706" /><rect fill="#FF0000" height="1.8507953278730156" width="15.207920792079207" x="819.3267326732672" y="585.9393125870771" /><line stroke="#FF0000" stroke-width="1.5207920792079208" x1="845.9405940594058" x2="845.9405940594058" y1="623.0098690948739" y2="656.517249616722" /><rect fill="#FF0000" height="2.605101064415294" width="15.207920792079207" x="838.3366336633662" y="644.4686423371651" /><line stroke="#FF0000" stroke-width="1.5207920792079208" x1="864.9504950495049" x2="864.9504950495049" y1="669.2308416411419" y2="680.589216239304" /><rect fill="#FF0000" height="7.837100571977089" width="15.207920792079207" x="857.3465346534653" y="668.0999143505287" /><line stroke="#00FF00" stroke-width="1.5207920792079208" x1="883.9603960396039" x2="883.9603960396039" y1="684.8852069164758" y2="723.4386372005405" /><rect fill="none" height="12.399364963182165" stroke="#00FF00" stroke-width="1" width="15.207920792079207" x="876.3564356435643" y="694.4070418592056" /><line stroke="#00FF00" stroke-width="1.5207920792079208" x1="902.9702970297029" x2="902.9702970297029" y1="638.921959258628" y2="680.2373073675443" /><rect fill="none" height="13.23643967353928" stroke="#00FF00" stroke-width="1" width="15.207920792079207" x="895.3663366336633" y="652.0200843893318" /><line stroke="#FF0000" stroke-width="1.5207920792079208" x1="921.9801980198018" x2="921.9801980198018" y1="602.8478605580015" y2="652.6457438288353" /><rect fill="#FF0000" height="5.232014424361523" width="15.207920792079207" x="914.3762376237622" y="633.0101609734012" /><line stroke="#FF0000" stroke-width="1.5207920792079208" x1="940.9900990099009" x2="940.9900990099009" y1="700.8148232554688" y2="713.2132561188158" /><rect fill="#FF0000" height="2.9770154295604243" width="15.207920792079207" x="933.3861386138612" y="705.9569931636235" /><line stroke="#FF0000" stroke-width="1.5207920792079208" x1="959.9999999999999" x2="959.9999999999999" y1="670.6608082977535" y2="702.1725193631839" /><rect fill="#FF0000" height="2.5109749683570044" width="15.207920792079207" x="952.3960396039603" y="693.4283835392462" /><line stroke="#FF0000" stroke-width="1.5207920792079208" x1="979.0099009900989" x2="979.0099009900989" y1="692.9782804633916" y2="740.9581800520195" /><rect fill="#FF0000" height="3.4728447565582883" width="15.207920792079207" x="971.4059405940593" y="707.906985853112" /><line stroke="#00FF00" stroke-width="1.5207920792079208" x1="998.0198019801979" x2="998.0198019801979" y1="695.9764952219995" y2="755.7166668439986" /><rect fill="none" height="6.816661838410937" stroke="#00FF00" stroke-width="1" width="15.207920792079207" x="990.4158415841583" y="738.522069535076" /><line stroke="#FF0000" stroke-width="1.5207920792079208" x1="1017.029702970297" x2="1017.029702970297" y1="693.2968096751252" y2="717.2024506227365" /><rect fill="#FF0000" height="2.3281431748428076" width="15.207920792079207" x="1009.4257425742574" y="711.6678155687086" /><line stroke="#FF0000" stroke-width="1.5207920792079208" x1="1036.039603960396" x2="1036.039603960396" y1="642.1956823962013" y2="673.037673845354" /><rect fill="#FF0000" height="2.937798996463698" width="15.207920792079207" x="1028.4356435643565" y="669.7186326539869" /><line stroke="#00FF00" stroke-width="1.5207920792079208" x1="1055.049504950495" x2="1055.049504950495" y1="625.6072503032406" y2="655.4142948578964" /><rect fill="none" height="7.160757390072376" stroke="#00FF00" stroke-width="1" width="15.207920792079207" x="1047.4455445544554" y="635.3153089094151" /><line stroke="#FF0000" stroke-width="1.5207920792079208" x1="1074.0594059405942" x2="1074.0594059405942" y1="643.5656538072467" y2="669.3361953564047" /><rect fill="#FF0000" height="18.702781686639696" width="15.207920792079207" x="1066.4554455445545" y="650.2622571996421" /><line stroke="#FF0000" stroke-width="1.5207920792079208" x1="1093.069306930693" x2="1093.069306930693" y1="667.1758361813525" y2="687.150497552433" /><rect fill="#FF0000" height="4.7497667176932055" width="15.207920792079207" x="1085.4653465346535" y="676.6136226140646" /><line stroke="#00FF00" stroke-width="1.5207920792079208" x1="1112.079207920792" x2="1112.079207920792" y1="659.1830529342706" y2="674.550818510982" /><rect fill="none" height="11.94179098150562" stroke="#00FF00" stroke-width="1" width="15.207920792079207" x="1104.4752475247524" y="668.0808675665598" /><line stroke="#FF0000" stroke-width="1.5207920792079208" x1="1131.0891089108911" x2="1131.0891089108911" y1="613.4347928561529" y2="645.5494253061759" /><rect fill="#FF0000" height="6.581384156823901" width="15.207920792079207" x="1123.4851485148515" y="622.3834864249985" /><line stroke="#00FF00" stroke-width="1.5207920792079208" x1="1150.09900990099" x2="1150.09900990099" y1="629.5947474168162" y2="658.5901083916991" /><rect fill="none" height="9.770343834875348" stroke="#00FF00" stroke-width="1" width="15.207920792079207" x="1142.4950495049504" y="648.1781058506091" /><line stroke="#FF0000" stroke-width="1.5207920792079208" x1="1169.1089108910892" x2="1169.1089108910892" y1="654.4290100658193" y2="686.3511644675067" /><rect fill="#FF0000" height="7.889844900752905" width="15.207920792079207" x="1161.5049504950496" y="647.7325459649362" /><line stroke="#FF0000" stroke-width="1.5207920792079208" x1="1188.118811881188" x2="1188.118811881188" y1="635.0007858944799" y2="702.1630634236114" /><rect fill="#FF0000" height="11.613922286882485" width="15.207920792079207" x="1180.5148514851485" y="688.3686876032021" /><line stroke="#00FF00" stroke-width="1.5207920792079208" x1="1207.1287128712872" x2="1207.1287128712872" y1="727.4091655787681" y2="756.0" /><rect fill="none" height="8.226633037665351" stroke="#00FF00" stroke-width="1" width="15.207920792079207" x="1199.5247524752476" y="747.9463723032953" /><line stroke="#FF0000" stroke-width="1.5207920792079208" x1="1226.1386138613861" x2="1226.1386138613861" y1="710.3033313798234" y2="729.2030851287429" /><rect fill="#FF0000" height="9.65701552880671" width="15.207920792079207" x="1218.5346534653465" y="705.7098719970444" /><line stroke="#FF0000" stroke-width="1.5207920792079208" x1="1245.148514851485" x2="1245.148514851485" y1="635.9704349103758" y2="669.0301161893507" /><rect fill="#FF0000" height="4.137773088220229" width="15.207920792079207" x="1237.5445544554455" y="656.8485641245517" /><line stroke="#FF0000" stroke-width="1.5207920792079208" x1="1264.1584158415842" x2="1264.1584158415842" y1="631.1466616167475" y2="668.3663629233645" /><rect fill="#FF0000" height="8.240444712811382" width="15.207920792079207" x="1256.5544554455446" y="655.6332501631737" /><line stroke="#FF0000" stroke-width="1.5207920792079208" x1="1283.1683168316831" x2="1283.1683168316831" y1="594.9636149083304" y2="623.8879406878748" /><rect fill="#FF0000" height="19.01371513407628" width="15.207920792079207" x="1275.5643564356435" y="604.6217696205376" /><line stroke="#00FF00" stroke-width="1.5207920792079208" x1="1302.1782178217823" x2="1302.1782178217823" y1="600.3129931136126" y2="611.093364111493" /><rect fill="none" height="2.459804405453724" stroke="#00FF00" stroke-width="1" width="15.207920792079207" x="1294.5742574257426" y="609.1351266757799" /><line stroke="#00FF00" stroke-width="1.5207920792079208" x1="1321.1881188118812" x2="1321.1881188118812" y1="632.3810819186393" y2="650.4997190880168" /><rect fill="none" height="7.555555533157076" stroke="#00FF00" stroke-width="1" width="15.207920792079207" x="1313.5841584158416" y="635.0022051679506" /><line stroke="#00FF00" stroke-width="1.5207920792079208" x1="1340.1980198019803" x2="1340.1980198019803" y1="591.616441605316" y2="621.002873835688" /><rect fill="none" height="8.916615638721964" stroke="#00FF00" stroke-width="1" width="15.207920792079207" x="1332.5940594059407" y="620.5114870839358" /><line stroke="#00FF00" stroke-width="1.5207920792079208" x1="1359.2079207920792" x2="1359.2079207920792" y1="530.0549607470999" y2="568.8255296996252" /><rect fill="none" height="8.177795101328798" stroke="#00FF00" stroke-width="1" width="15.207920792079207" x="1351.6039603960396" y="558.841522236935" /><line stroke="#00FF00" stroke-width="1.5207920792079208" x1="1378.2178217821781" x2="1378.2178217821781" y1="536.9585943438957" y2="589.3709512743378" /><rect fill="none" height="1" stroke="#00FF00" stroke-width="1" width="15.207920792079207" x="1370.6138613861385" y="560.2780229162361" /><line stroke="#FF0000" stroke-width="1.5207920792079208" x1="1397.2277227722773" x2="1397.2277227722773" y1="497.3360502612885" y2="516.7729323030999" /><rect fill="#FF0000" height="3.4197545677944845" width="15.207920792079207" x="1389.6237623762377" y="494.12145093073434" /><line stroke="#FF0000" stroke-width="1.5207920792079208" x1="1416.2376237623762" x2="1416.2376237623762" y1="582.9063972867991" y2="645.7515515197912" /><rect fill="#FF0000" height="2.7735868314528034" width="15.207920792079207" x="1408.6336633663366" y="599.8103673245682" /><line stroke="#FF0000" stroke-width="1.5207920792079208" x1="1435.2475247524753" x2="1435.2475247524753" y1="560.364118506447" y2="585.0124928999267" /><rect fill="#FF0000" height="8.291799265750342" width="15.207920792079207" x="1427.6435643564357" y="561.3366974859337" /><line stroke="#FF0000" stroke-width="1.5207920792079208" x1="1454.2574257425742" x2="1454.2574257425742" y1="562.1474055322756" y2="583.6267347208413" /><rect fill="#FF0000" height="1" width="15.207920792079207" x="1446.6534653465346" y="566.0078765964419" /><line stroke="#FF0000" stroke-width="1.5207920792079208" x1="1473.2673267326732" x2="1473.2673267326732" y1="566.0940595204366" y2="581.8030646954095" /><rect fill="#FF0000" height="14.570426574476528" width="15.207920792079207" x="1465.6633663366335" y="563.5569468872574" /><line stroke="#00FF00" stroke-width="1.5207920792079208" x1="1492.2772277227723" x2="1492.2772277227723" y1="573.0486711100613" y2="618.3498574014792" /><rect fill="none" height="2.652956691368786" stroke="#00FF00" stroke-width="1" width="15.207920792079207" x="1484.6732673267327" y="574.4480826134799" /><line stroke="#FF0000" stroke-width="1.5207920792079208" x1="1511.2871287128712" x2="1511.2871287128712" y1="646.4178715776033" y2="670.3477326817567" /><rect fill="#FF0000" height="27.267351852844968" width="15.207920792079207" x="1503.6831683168316" y="626.87539327186" /><line stroke="#FF0000" stroke-width="1.5207920792079208" x1="1530.2970297029703" x2="1530.2970297029703" y1="660.6750035080761" y2="679.7858063528984" /><rect fill="#FF0000" height="6.271776007127642" width="15.207920792079207" x="1522.6930693069307" y="656.6790546313968" /><line stroke="#00FF00" stroke-width="1.5207920792079208" x1="1549.3069306930693" x2="1549.3069306930693" y1="635.3572685816838" y2="660.648636970499" /><rect fill="none" height="8.592265867578362" stroke="#00FF00" stroke-width="1" width="15.207920792079207" x="1541.7029702970297" y="648.631847454558" /><line stroke="#00FF00" stroke-width="1.5207920792079208" x1="1568.3168316831684" x2="1568.3168316831684" y1="557.5764866852031" y2="631.9538392604479" /><rect fill="none" height="10.734774476476446" stroke="#00FF00" stroke-width="1" width="15.207920792079207" x="1560.7128712871288" y="589.3733904230571" /><line stroke="#FF0000" stroke-width="1.5207920792079208" x1="1587.3267326732673" x2="1587.3267326732673" y1="585.3381723125153" y2="620.6947218173214" /><rect fill="#FF0000" height="4.836370203483284" width="15.207920792079207" x="1579.7227722772277" y="605.3178695433473" /><line stroke="#00FF00" stroke-width="1.5207920792079208" x1="1606.3366336633662" x2="1606.3366336633662" y1="599.808403442444" y2="657.7913479554554" /><rect fill="none" height="2.240021859058288" stroke="#00FF00" stroke-width="1" width="15.207920792079207" x="1598.7326732673266" y="642.572046420968" /><line stroke="#FF0000" stroke-width="1.5207920792079208" x1="1625.3465346534654" x2="1625.3465346534654" y1="623.5547783107434" y2="665.7059105812632" /><rect fill="#FF0000" height="7.157239680031807" width="15.207920792079207" x="1617.7425742574258" y="655.5335346790459" /><line stroke="#FF0000" stroke-width="1.5207920792079208" x1="1644.3564356435643" x2="1644.3564356435643" y1="622.9432751838161" y2="632.8379230586416" /><rect fill="#FF0000" height="4.743799384885278" width="15.207920792079207" x="1636.7524752475247" y="621.2425053598765" /><line stroke="#00FF00" stroke-width="1.5207920792079208" x1="1663.3663366336634" x2="1663.3663366336634" y1="601.0097723689498" y2="650.4185102552751" /><rect fill="none" height="1" stroke="#00FF00" stroke-width="1" width="15.207920792079207" x="1655.7623762376238" y="612.8045184217552" /><line stroke="#00FF00" stroke-width="1.5207920792079208" x1="1682.3762376237623" x2="1682.3762376237623" y1="628.4126738871721" y2="653.100436503471" /><rect fill="none" height="8.4883773189365" stroke="#00FF00" stroke-width="1" width="15.207920792079207" x="1674.7722772277227" y="634.0460765589078" /><line stroke="#00FF00" stroke-width="1.5207920792079208" x1="1701.3861386138615" x2="1701.3861386138615" y1="600.9817694970466" y2="625.0317457054714" /><rect fill="none" height="15.185038043278041" stroke="#00FF00" stroke-width="1" width="15.207920792079207" x="1693.7821782178219" y="613.4658216759291" /><line stroke="#00FF00" stroke-width="1.5207920792079208" x1="1720.3960396039604" x2="1720.3960396039604" y1="605.4008541336198" y2="627.5850123491473" /><rect fill="none" height="4.475927620645848" stroke="#00FF00" stroke-width="1" width="15.207920792079207" x="1712.7920792079208" y="609.5733465643114" /><line stroke="#FF0000" stroke-width="1.5207920792079208" x1="1739.4059405940593" x2="1739.4059405940593" y1="560.8502021968466" y2="580.596152861689" /><rect fill="#FF0000" height="8.584659931443639" width="15.207920792079207" x="1731.8019801980197" y="562.1493613412422" /><line stroke="#FF0000" stroke-width="1.5207920792079208" x1="1758.4158415841584" x2="1758.4158415841584" y1="587.0681827916571" y2="625.3523308663064" /><rect fill="#FF0000" height="2.1461052946240216" width="15.207920792079207" x="1750.8118811881188" y="596.7378251311499" /><line stroke="#00FF00" stroke-width="1.5207920792079208" x1="1777.4257425742574" x2="1777.4257425742574" y1="594.9889952877882" y2="648.7396449053415" /><rect fill="none" height="12.4874577703049" stroke="#00FF00" stroke-width="1" width="15.207920792079207" x="1769.8217821782177" y="612.0220530835516" /><line stroke="#FF0000" stroke-width="1.5207920792079208" x1="1796.4356435643565" x2="1796.4356435643565" y1="620.5866932699032" y2="651.3899801745322" /><rect fill="#FF0000" height="1.7359895470419815" width="15.207920792079207" x="1788.8316831683169" y="626.0082489169555" /><line stroke="#FF0000" stroke-width="1.5207920792079208" x1="1815.4455445544554" x2="1815.4455445544554" y1="672.534500097192" y2="695.8323065072539" /><rect fill="#FF0000" height="3.862474693533386" width="15.207920792079207" x="1807.8415841584158" y="682.5636685913305" /><line stroke="#00FF00" stroke-width="1.5207920792079208" x1="1834.4554455445543" x2="1834.4554455445543" y1="656.517313789397" y2="708.8981356744657" /><rect fill="none" height="8.859909154424258" stroke="#00FF00" stroke-width="1" width="15.207920792079207" x="1826.8514851485147" y="674.5527408734912" /><line stroke="#FF0000" stroke-width="1.5207920792079208" x1="1853.4653465346535" x2="1853.4653465346535" y1="657.9244985149863" y2="691.2281320584527" /><rect fill="#FF0000" height="1.5409617180861233" width="15.207920792079207" x="1845.8613861386139" y="662.5443625741136" /><line stroke="#FF0000" stroke-width="1.5207920792079208" x1="1872.4752475247524" x2="1872.4752475247524" y1="647.5838077535959" y2="666.1766187996892" /><rect fill="#FF0000" height="1" width="15.207920792079207" x="1864.8712871287128" y="663.2968000640262" /><line stroke="#00FF00" stroke-width="1.5207920792079208" x1="1891.4851485148515" x2="1891.4851485148515" y1="660.6634546101806" y2="698.1025114913692" /><rect fill="none" height="11.457292307806142" stroke="#00FF00" stroke-width="1" width="15.207920792079207" x="1883.881188118812" y="673.2864277548658" /></g><g id="volume"><rect fill="#00FF00" height="167.7864761866391" opacity="0.5" width="15.207920792079207" x="1.900990099009901" y="912.2135238133609" /><rect fill="#00FF00" height="63.07405824340984" opacity="0.5" width="15.207920792079207" x="20.910891089108908" y="1016.9259417565902" /><rect fill="#00FF00" height="0.5518104838698715" opacity="0.5" width="15.207920792079207" x="39.92079207920792" y="1079.4481895161302" /><rect fill="#00FF00" height="4.943910897094322" opacity="0.5" width="15.207920792079207" x="58.930693069306926" y="1075.0560891029056" /><rect fill="#00FF00" height="47.361759623438495" opacity="0.5" width="15.207920792079207" x="77.94059405940594" y="1032.6382403765615" /><rect fill="#FF0000" height="65.54439441968528" opacity="0.5" width="15.207920792079207" x="96.95049504950495" y="1014.4556055803147" /><rect fill="#FF0000" height="112.34894776375349" opacity="0.5" width="15.207920792079207" x="115.96039603960395" y="967.6510522362465" /><rect fill="#FF0000" height="14.983026631045293" opacity="0.5" width="15.207920792079207" x="134.97029702970298" y="1065.0169733689547" /><rect fill="#FF0000" height="12.65907552108537" opacity="0.5" width="15.207920792079207" x="153.98019801980197" y="1067.3409244789145" /><rect fill="#00FF00" height="54.13596452883212" opacity="0.5" width="15.207920792079207" x="172.99009900990097" y="1025.8640354711679" /><rect fill="#00FF00" height="74.88539987245574" opacity="0.5" width="15.207920792079207" x="192.0" y="1005.1146001275442" /><rect fill="#00FF00" height="118.34951088551281" opacity="0.5" width="15.207920792079207" x="211.009900990099" y="961.6504891144872" /><rect fill="#FF0000" height="161.43950423586787" opacity="0.5" width="15.207920792079207" x="230.019801980198" y="918.5604957641322" /><rect fill="#FF0000" height="134.45382138804396" opacity="0.5" width="15.207920792079207" x="249.02970297029702" y="945.5461786119561" /><rect fill="#00FF00" height="34.97041508904941" opacity="0.5" width="15.207920792079207" x="268.03960396039605" y="1045.0295849109507" /><rect fill="#FF0000" height="78.76551673528323" opacity="0.5" width="15.207920792079207" x="287.049504950495" y="1001.2344832647168" /><rect fill="#00FF00" height="163.23244429895703" opacity="0.5" width="15.207920792079207" x="306.05940594059405" y="916.767555701043" /><rect fill="#00FF00" height="12.172793895743654" opacity="0.5" width="15.207920792079207" x="325.0693069306931" y="1067.8272061042564" /><rect fill="#FF0000" height="124.10103261788376" opacity="0.5" width="15.207920792079207" x="344.07920792079204" y="955.8989673821162" /><rect fill="#FF0000" height="7.105175334101715" opacity="0.5" width="15.207920792079207" x="363.08910891089107" y="1072.8948246658983" /><rect fill="#FF0000" height="216.85877732849266" opacity="0.5" width="15.207920792079207" x="382.0990099009901" y="863.1412226715073" /><rect fill="#00FF00" height="184.71986034332602" opacity="0.5" width="15.207920792079207" x="401.10891089108907" y="895.280139656674" /><rect fill="#FF0000" height="26.199255224722855" opacity="0.5" width="15.207920792079207" x="420.1188118811881" y="1053.800744775277" /><rect fill="#00FF00" height="102.2413687612512" opacity="0.5" width="15.207920792079207" x="439.1287128712871" y="977.7586312387488" /><rect fill="#FF0000" height="67.91487578582172" opacity="0.5" width="15.207920792079207" x="458.1386138613861" y="1012.0851242141782" /><rect fill="#FF0000" height="144.02526509721102" opacity="0.5" width="15.207920792079207" x="477.1485148514851" y="935.974734902789" /><rect fill="#00FF00" height="101.54183311331622" opacity="0.5" width="15.207920792079207" x="496.15841584158414" y="978.4581668866838" /><rect fill="#00FF00" height="72.19528356832329" opacity="0.5" width="15.207920792079207" x="515.1683168316831" y="1007.8047164316768" /><rect fill="#FF0000" height="111.38123073732237" opacity="0.5" width="15.207920792079207" x="534.1782178217821" y="968.6187692626777" /><rect fill="#00FF00" height="185.0775099952602" opacity="0.5" width="15.207920792079207" x="553.188118811881" y="894.9224900047398" /><rect fill="#00FF00" height="124.51789528548255" opacity="0.5" width="15.207920792079207" x="572.1980198019801" y="955.4821047145174" /><rect fill="#FF0000" height="214.59460976203565" opacity="0.5" width="15.207920792079207" x="591.2079207920791" y="865.4053902379644" /><rect fill="#00FF00" height="28.350501299149517" opacity="0.5" width="15.207920792079207" x="610.2178217821781" y="1051.6494987008505" /><rect fill="#FF0000" height="75.50915587230396" opacity="0.5" width="15.207920792079207" x="629.2277227722772" y="1004.490844127696" /><rect fill="#00FF00" height="158.09760596849358" opacity="0.5" width="15.207920792079207" x="648.2376237623762" y="921.9023940315064" /><rect fill="#FF0000" height="7.797219298025379" opacity="0.5" width="15.207920792079207" x="667.2475247524752" y="1072.2027807019747" /><rect fill="#00FF00" height="171.38417158468903" opacity="0.5" width="15.207920792079207" x="686.2574257425741" y="908.615828415311" /><rect fill="#00FF00" height="145.2322776619515" opacity="0.5" width="15.207920792079207" x="705.2673267326732" y="934.7677223380485" /><rect fill="#FF0000" height="179.25211941802064" opacity="0.5" width="15.207920792079207" x="724.2772277227722" y="900.7478805819794" /><rect fill="#00FF00" height="5.845453449539127" opacity="0.5" width="15.207920792079207" x="743.2871287128712" y="1074.154546550461" /><rect fill="#FF0000" height="40.41637633863757" opacity="0.5" width="15.207920792079207" x="762.2970297029702" y="1039.5836236613625" /><rect fill="#FF0000" height="3.440567869141069" opacity="0.5" width="15.207920792079207" x="781.3069306930693" y="1076.559432130859" /><rect fill="#00FF00" height="217.56322575832465" opacity="0.5" width="15.207920792079207" x="800.3168316831682" y="862.4367742416754" /><rect fill="#FF0000" height="9.378373051287685" opacity="0.5" width="15.207920792079207" x="819.3267326732672" y="1070.6216269487122" /><rect fill="#FF0000" height="137.27329651829785" opacity="0.5" width="15.207920792079207" x="838.3366336633662" y="942.7267034817021" /><rect fill="#FF0000" height="70.47168088646941" opacity="0.5" width="15.207920792079207" x="857.3465346534653" y="1009.5283191135306" /><rect fill="#00FF00" height="38.578249411016685" opacity="0.5" width="15.207920792079207" x="876.3564356435643" y="1041.4217505889833" /><rect fill="#00FF00" height="98.90641103539502" opacity="0.5" width="15.207920792079207" x="895.3663366336633" y="981.093588964605" /><rect fill="#FF0000" height="54.07577999117898" opacity="0.5" width="15.207920792079207" x="914.3762376237622" y="1025.924220008821" /><rect fill="#FF0000" height="111.46426329644312" opacity="0.5" width="15.207920792079207" x="933.3861386138612" y="968.5357367035568" /><rect fill="#FF0000" height="6.595912209637243" opacity="0.5" width="15.207920792079207" x="952.3960396039603" y="1073.4040877903628" /><rect fill="#FF0000" height="100.51253396771443" opacity="0.5" width="15.207920792079207" x="971.4059405940593" y="979.4874660322855" /><rect fill="#00FF00" height="103.73095253822308" opacity="0.5" width="15.207920792079207" x="990.4158415841583" y="976.269047461777" /><rect fill="#FF0000" height="53.042349213160804" opacity="0.5" width="15.207920792079207" x="1009.4257425742574" y="1026.9576507868392" /><rect fill="#FF0000" height="55.80062335666366" opacity="0.5" width="15.207920792079207" x="1028.4356435643565" y="1024.1993766433363" /><rect fill="#00FF00" height="83.43642175024273" opacity="0.5" width="15.207920792079207" x="1047.4455445544554" y="996.5635782497573" /><rect fill="#FF0000" height="11.263130592793425" opacity="0.5" width="15.207920792079207" x="1066.4554455445545" y="1068.7368694072065" /><rect fill="#FF0000" height="108.94170100471226" opacity="0.5" width="15.207920792079207" x="1085.4653465346535" y="971.0582989952877" /><rect fill="#00FF00" height="58.262201784449154" opacity="0.5" width="15.207920792079207" x="1104.4752475247524" y="1021.7377982155508" /><rect fill="#FF0000" height="126.05633713814143" opacity="0.5" width="15.207920792079207" x="1123.4851485148515" y="953.9436628618586" /><rect fill="#00FF00" height="206.75400662369125" opacity="0.5" width="15.207920792079207" x="1142.4950495049504" y="873.2459933763088" /><rect fill="#FF0000" height="3.710890920968296" opacity="0.5" width="15.207920792079207" x="1161.5049504950496" y="1076.2891090790317" /><rect fill="#FF0000" height="73.63424526438395" opacity="0.5" width="15.207920792079207" x="1180.5148514851485" y="1006.3657547356161" /><rect fill="#00FF00" height="22.517757390118817" opacity="0.5" width="15.207920792079207" x="1199.5247524752476" y="1057.4822426098813" /><rect fill="#FF0000" height="11.82062261061964" opacity="0.5" width="15.207920792079207" x="1218.5346534653465" y="1068.1793773893803" /><rect fill="#FF0000" height="23.25330361998816" opacity="0.5" width="15.207920792079207" x="1237.5445544554455" y="1056.7466963800118" /><rect fill="#FF0000" height="64.63063145140352" opacity="0.5" width="15.207920792079207" x="1256.5544554455446" y="1015.3693685485965" /><rect fill="#FF0000" height="79.71484228337742" opacity="0.5" width="15.207920792079207" x="1275.5643564356435" y="1000.2851577166226" /><rect fill="#00FF00" height="55.82625067972319" opacity="0.5" width="15.207920792079207" x="1294.5742574257426" y="1024.1737493202768" /><rect fill="#00FF00" height="60.59510633101817" opacity="0.5" width="15.207920792079207" x="1313.5841584158416" y="1019.4048936689818" /><rect fill="#00FF00" height="28.94452738553562" opacity="0.5" width="15.207920792079207" x="1332.5940594059407" y="1051.0554726144644" /><rect fill="#00FF00" height="242.2381715219856" opacity="0.5" width="15.207920792079207" x="1351.6039603960396" y="837.7618284780144" /><rect fill="#00FF00" height="159.4481679200308" opacity="0.5" width="15.207920792079207" x="1370.6138613861385" y="920.5518320799692" /><rect fill="#FF0000" height="143.8403401118425" opacity="0.5" width="15.207920792079207" x="1389.6237623762377" y="936.1596598881575" /><rect fill="#FF0000" height="173.10495999415514" opacity="0.5" width="15.207920792079207" x="1408.6336633663366" y="906.8950400058449" /><rect fill="#FF0000" height="26.20682054163373" opacity="0.5" width="15.207920792079207" x="1427.6435643564357" y="1053.7931794583662" /><rect fill="#FF0000" height="60.67284433910692" opacity="0.5" width="15.207920792079207" x="1446.6534653465346" y="1019.327155660893" /><rect fill="#FF0000" height="32.753801249845246" opacity="0.5" width="15.207920792079207" x="1465.6633663366335" y="1047.2461987501547" /><rect fill="#00FF00" height="324.0" opacity="0.5" width="15.207920792079207" x="1484.6732673267327" y="756.0" /><rect fill="#FF0000" height="117.81627606649738" opacity="0.5" width="15.207920792079207" x="1503.6831683168316" y="962.1837239335026" /><rect fill="#FF0000" height="13.461157549831443" opacity="0.5" width="15.207920792079207" x="1522.6930693069307" y="1066.5388424501687" /><rect fill="#00FF00" height="100.55442935768295" opacity="0.5" width="15.207920792079207" x="1541.7029702970297" y="979.4455706423171" /><rect fill="#00FF00" height="169.0512365188302" opacity="0.5" width="15.207920792079207" x="1560.7128712871288" y="910.9487634811699" /><rect fill="#FF0000" height="21.411097772912925" opacity="0.5" width="15.207920792079207" x="1579.7227722772277" y="1058.5889022270871" /><rect fill="#00FF00" height="79.59309135941079" opacity="0.5" width="15.207920792079207" x="1598.7326732673266" y="1000.4069086405892" /><rect fill="#FF0000" height="149.66808739207025" opacity="0.5" width="15.207920792079207" x="1617.7425742574258" y="930.3319126079298" /><rect fill="#FF0000" height="68.04083286344739" opacity="0.5" width="15.207920792079207" x="1636.7524752475247" y="1011.9591671365527" /><rect fill="#00FF00" height="113.8145887975704" opacity="0.5" width="15.207920792079207" x="1655.7623762376238" y="966.1854112024296" /><rect fill="#00FF00" height="177.5430501441765" opacity="0.5" width="15.207920792079207" x="1674.7722772277227" y="902.4569498558235" /><rect fill="#00FF00" height="92.77763545349498" opacity="0.5" width="15.207920792079207" x="1693.7821782178219" y="987.222364546505" /><rect fill="#00FF00" height="0.8389853155374538" opacity="0.5" width="15.207920792079207" x="1712.7920792079208" y="1079.1610146844625" /><rect fill="#FF0000" height="155.73902688391118" opacity="0.5" width="15.207920792079207" x="1731.8019801980197" y="924.2609731160888" /><rect fill="#FF0000" height="8.141702533267381" opacity="0.5" width="15.207920792079207" x="1750.8118811881188" y="1071.8582974667327" /><rect fill="#00FF00" height="90.6355583704352" opacity="0.5" width="15.207920792079207" x="1769.8217821782177" y="989.3644416295648" /><rect fill="#FF0000" height="160.2829832451254" opacity="0.5" width="15.207920792079207" x="1788.8316831683169" y="919.7170167548746" /><rect fill="#FF0000" height="56.71114441141184" opacity="0.5" width="15.207920792079207" x="1807.8415841584158" y="1023.2888555885881" /><rect fill="#00FF00" height="109.15257033622768" opacity="0.5" width="15.207920792079207" x="1826.8514851485147" y="970.8474296637723" /><rect fill="#FF0000" height="20.029918511210738" opacity="0.5" width="15.207920792079207" x="1845.8613861386139" y="1059.9700814887892" /><rect fill="#FF0000" height="92.14397430311759" opacity="0.5" width="15.207920792079207" x="1864.8712871287128" y="987.8560256968824" /><rect fill="#00FF00" height="145.51622511727982" opacity="0.5" width="15.207920792079207" x="1883.881188118812" y="934.4837748827201" /></g></svg>