<?xml version="1.0" encoding="utf-8" ?>
<svg baseProfile="full" height="1080" version="1.1" width="1920" xmlns="http://www.w3.org/2000/svg" xmlns:ev="http://www.w3.org/2001/xml-events" xmlns:xlink="http://www.w3.org/1999/xlink"><defs /><rect fill="#000000" height="100%" width="100%" x="0" y="0" /><g id="grid" opacity="0.25" stroke="#333333" stroke-width="1"><line x1="0" x2="1920" y1="75" y2="75" /><line x1="0" x2="1920" y1="151" y2="151" /><line x1="0" x2="1920" y1="226" y2="226" /><line x1="0" x2="1920" y1="302" y2="302" /><line x1="0" x2="1920" y1="378" y2="378" /><line x1="0" x2="1920" y1="453" y2="453" /><line x1="0" x2="1920" y1="529" y2="529" /><line x1="0" x2="1920" y1="604" y2="604" /><line x1="0" x2="1920" y1="680" y2="680" /><line x1="0" x2="0" y1="0" y2="1080" /><line x1="172" x2="172" y1="0" y2="1080" /><line x1="345" x2="345" y1="0" y2="1080" /><line x1="518" x2="518" y1="0" y2="1080" /><line x1="691" x2="691" y1="0" y2="1080" /><line x1="864" x2="864" y1="0" y2="1080" /><line x1="1036" x2="1036" y1="0" y2="1080" /><line x1="1209" x2="1209" y1="0" y2="1080" /><line x1="1382" x2="1382" y1="0" y2="1080" /><line x1="1555" x2="1555" y1="0" y2="1080" /><line x1="1728" x2="1728" y1="0" y2="1080" /></g><g id="ohlc_bars"><line stroke="#00FF00" stroke-width="1" x1="9.504950495049505" x2="9.504950495049505" y1="229.80814257476163" y2="253.6010837547796" /><line stroke="#00FF00" stroke-width="1" x1="1.900990099009901" x2="9.504950495049505" y1="251.16903454634235" y2="251.16903454634235" /><line stroke="#00FF00" stroke-width="1" x1="9.504950495049505" x2="17.10891089108911" y1="236.98116251995032" y2="236.98116251995032" /><line stroke="#00FF00" stroke-width="1" x1="28.51485148514851" x2="28.51485148514851" y1="231.28232114503203" y2="253.75574882289862" /><line stroke="#00FF00" stroke-width="1" x1="20.910891089108908" x2="28.51485148514851" y1="246.74169129223742" y2="246.74169129223742" /><line stroke="#00FF00" stroke-width="1" x1="28.51485148514851" x2="36.118811881188115" y1="242.52508441279224" y2="242.52508441279224" /><line stroke="#00FF00" stroke-width="1" x1="47.524752475247524" x2="47.524752475247524" y1="194.84169571934308" y2="231.5369554139237" /><line stroke="#00FF00" stroke-width="1" x1="39.92079207920792" x2="47.524752475247524" y1="219.99042425876064" y2="219.99042425876064" /><line stroke="#00FF00" stroke-width="1" x1="47.524752475247524" x2="55.12871287128713" y1="216.55500655680612" y2="216.55500655680612" /><line stroke="#00FF00" stroke-width="1" x1="66.53465346534654" x2="66.53465346534654" y1="134.3598440916894" y2="167.72363093371575" /><line stroke="#00FF00" stroke-width="1" x1="58.93069306930693" x2="66.53465346534654" y1="163.52889733665882" y2="163.52889733665882" /><line stroke="#00FF00" stroke-width="1" x1="66.53465346534654" x2="74.13861386138615" y1="155.48675905640175" y2="155.48675905640175" /><line stroke="#00FF00" stroke-width="1" x1="85.54455445544554" x2="85.54455445544554" y1="137.25560579924195" y2="165.2945432140723" /><line stroke="#00FF00" stroke-width="1" x1="77.94059405940592" x2="85.54455445544554" y1="166.49225255326996" y2="166.49225255326996" /><line stroke="#00FF00" stroke-width="1" x1="85.54455445544554" x2="93.14851485148515" y1="164.87550227801137" y2="164.87550227801137" /><line stroke="#FF0000" stroke-width="1" x1="104.55445544554455" x2="104.55445544554455" y1="155.4618114507964" y2="176.61579903054667" /><line stroke="#FF0000" stroke-width="1" x1="96.95049504950495" x2="104.55445544554455" y1="170.213325545286" y2="170.213325545286" /><line stroke="#FF0000" stroke-width="1" x1="104.55445544554455" x2="112.15841584158414" y1="174.26358720346752" y2="174.26358720346752" /><line stroke="#FF0000" stroke-width="1" x1="123.56435643564356" x2="123.56435643564356" y1="100.61702723226642" y2="136.5575758654087" /><line stroke="#FF0000" stroke-width="1" x1="115.96039603960395" x2="123.56435643564356" y1="92.03520841757665" y2="92.03520841757665" /><line stroke="#FF0000" stroke-width="1" x1="123.56435643564356" x2="131.16831683168317" y1="110.94259670058727" y2="110.94259670058727" /><line stroke="#FF0000" stroke-width="1" x1="142.57425742574256" x2="142.57425742574256" y1="69.87058650762003" y2="92.03109613785193" /><line stroke="#FF0000" stroke-width="1" x1="134.97029702970295" x2="142.57425742574256" y1="78.42111720204673" y2="78.42111720204673" /><line stroke="#FF0000" stroke-width="1" x1="142.57425742574256" x2="150.17821782178217" y1="80.17110933733511" y2="80.17110933733511" /><line stroke="#FF0000" stroke-width="1" x1="161.58415841584159" x2="161.58415841584159" y1="88.66959552918047" y2="109.96377357469134" /><line stroke="#FF0000" stroke-width="1" x1="153.98019801980197" x2="161.58415841584159" y1="96.4136932500353" y2="96.4136932500353" /><line stroke="#FF0000" stroke-width="1" x1="161.58415841584159" x2="169.1881188118812" y1="98.99541397900009" y2="98.99541397900009" /><line stroke="#00FF00" stroke-width="1" x1="180.59405940594058" x2="180.59405940594058" y1="0.0" y2="81.29424059667258" /><line stroke="#00FF00" stroke-width="1" x1="172.99009900990097" x2="180.59405940594058" y1="77.98688253848775" y2="77.98688253848775" /><line stroke="#00FF00" stroke-width="1" x1="180.59405940594058" x2="188.1980198019802" y1="77.24062638496014" y2="77.24062638496014" /><line stroke="#00FF00" stroke-width="1" x1="199.60396039603958" x2="199.60396039603958" y1="84.37670767298516" y2="100.18621147059355" /><line stroke="#00FF00" stroke-width="1" x1="191.99999999999997" x2="199.60396039603958" y1="115.05610648638333" y2="115.05610648638333" /><line stroke="#00FF00" stroke-width="1" x1="199.60396039603958" x2="207.2079207920792" y1="95.8220785092683" y2="95.8220785092683" /><line stroke="#00FF00" stroke-width="1" x1="218.6138613861386" x2="218.6138613861386" y1="91.73010230919613" y2="136.52481849229696" /><line stroke="#00FF00" stroke-width="1" x1="211.009900990099" x2="218.6138613861386" y1="114.7620150541726" y2="114.7620150541726" /><line stroke="#00FF00" stroke-width="1" x1="218.6138613861386" x2="226.21782178217822" y1="114.4962363005069" y2="114.4962363005069" /><line stroke="#FF0000" stroke-width="1" x1="237.6237623762376" x2="237.6237623762376" y1="85.66829205145825" y2="121.34255846275096" /><line stroke="#FF0000" stroke-width="1" x1="230.019801980198" x2="237.6237623762376" y1="104.19062727935977" y2="104.19062727935977" /><line stroke="#FF0000" stroke-width="1" x1="237.6237623762376" x2="245.22772277227722" y1="104.7943832320426" y2="104.7943832320426" /><line stroke="#FF0000" stroke-width="1" x1="256.63366336633663" x2="256.63366336633663" y1="168.45105419834874" y2="197.8197923006254" /><line stroke="#FF0000" stroke-width="1" x1="249.02970297029702" x2="256.63366336633663" y1="156.81844660831678" y2="156.81844660831678" /><line stroke="#FF0000" stroke-width="1" x1="256.63366336633663" x2="264.23762376237624" y1="181.510326144651" y2="181.510326144651" /><line stroke="#00FF00" stroke-width="1" x1="275.6435643564356" x2="275.6435643564356" y1="244.35298059465305" y2="276.8461857496146" /><line stroke="#00FF00" stroke-width="1" x1="268.039603960396" x2="275.6435643564356" y1="252.60183850724735" y2="252.60183850724735" /><line stroke="#00FF00" stroke-width="1" x1="275.6435643564356" x2="283.2475247524752" y1="250.67358559788295" y2="250.67358559788295" /><line stroke="#FF0000" stroke-width="1" x1="294.65346534653463" x2="294.65346534653463" y1="258.00335254498054" y2="273.64046819348687" /><line stroke="#FF0000" stroke-width="1" x1="287.049504950495" x2="294.65346534653463" y1="270.1966251123709" y2="270.1966251123709" /><line stroke="#FF0000" stroke-width="1" x1="294.65346534653463" x2="302.25742574257424" y1="273.2193773678895" y2="273.2193773678895" /><line stroke="#00FF00" stroke-width="1" x1="313.66336633663366" x2="313.66336633663366" y1="298.33660053575824" y2="327.50239591948633" /><line stroke="#00FF00" stroke-width="1" x1="306.05940594059405" x2="313.66336633663366" y1="314.1783697383359" y2="314.1783697383359" /><line stroke="#00FF00" stroke-width="1" x1="313.66336633663366" x2="321.26732673267327" y1="313.8304141590973" y2="313.8304141590973" /><line stroke="#00FF00" stroke-width="1" x1="332.6732673267327" x2="332.6732673267327" y1="296.4823743838734" y2="307.45049304265365" /><line stroke="#00FF00" stroke-width="1" x1="325.0693069306931" x2="332.6732673267327" y1="312.94516954935574" y2="312.94516954935574" /><line stroke="#00FF00" stroke-width="1" x1="332.6732673267327" x2="340.2772277227723" y1="301.23017930320975" y2="301.23017930320975" /><line stroke="#FF0000" stroke-width="1" x1="351.68316831683165" x2="351.68316831683165" y1="327.90811222491243" y2="344.13779153932956" /><line stroke="#FF0000" stroke-width="1" x1="344.07920792079204" x2="351.68316831683165" y1="326.1830009428372" y2="326.1830009428372" /><line stroke="#FF0000" stroke-width="1" x1="351.68316831683165" x2="359.28712871287127" y1="337.6388148574948" y2="337.6388148574948" /><line stroke="#FF0000" stroke-width="1" x1="370.6930693069307" x2="370.6930693069307" y1="392.62588981374626" y2="396.8764691467893" /><line stroke="#FF0000" stroke-width="1" x1="363.08910891089107" x2="370.6930693069307" y1="386.7298445102246" y2="386.7298445102246" /><line stroke="#FF0000" stroke-width="1" x1="370.6930693069307" x2="378.2970297029703" y1="394.2673252021893" y2="394.2673252021893" /><line stroke="#FF0000" stroke-width="1" x1="389.7029702970297" x2="389.7029702970297" y1="289.0949464668078" y2="337.4444634528389" /><line stroke="#FF0000" stroke-width="1" x1="382.0990099009901" x2="389.7029702970297" y1="327.5704479069368" y2="327.5704479069368" /><line stroke="#FF0000" stroke-width="1" x1="389.7029702970297" x2="397.3069306930693" y1="335.4998615227475" y2="335.4998615227475" /><line stroke="#00FF00" stroke-width="1" x1="408.7128712871287" x2="408.7128712871287" y1="307.11726397528156" y2="356.4845855771446" /><line stroke="#00FF00" stroke-width="1" x1="401.10891089108907" x2="408.7128712871287" y1="353.6685385333813" y2="353.6685385333813" /><line stroke="#00FF00" stroke-width="1" x1="408.7128712871287" x2="416.3168316831683" y1="344.5527129424531" y2="344.5527129424531" /><line stroke="#FF0000" stroke-width="1" x1="427.7227722772277" x2="427.7227722772277" y1="328.0867306182339" y2="358.24897923160023" /><line stroke="#FF0000" stroke-width="1" x1="420.1188118811881" x2="427.7227722772277" y1="327.78326055596045" y2="327.78326055596045" /><line stroke="#FF0000" stroke-width="1" x1="427.7227722772277" x2="435.3267326732673" y1="341.84506469787704" y2="341.84506469787704" /><line stroke="#00FF00" stroke-width="1" x1="446.73267326732673" x2="446.73267326732673" y1="366.64038221429115" y2="440.921314737021" /><line stroke="#00FF00" stroke-width="1" x1="439.1287128712871" x2="446.73267326732673" y1="413.0249048833067" y2="413.0249048833067" /><line stroke="#00FF00" stroke-width="1" x1="446.73267326732673" x2="454.33663366336634" y1="398.9725559912098" y2="398.9725559912098" /><line stroke="#FF0000" stroke-width="1" x1="465.7425742574257" x2="465.7425742574257" y1="411.3390062517383" y2="440.96934148342956" /><line stroke="#FF0000" stroke-width="1" x1="458.1386138613861" x2="465.7425742574257" y1="414.91769015334097" y2="414.91769015334097" /><line stroke="#FF0000" stroke-width="1" x1="465.7425742574257" x2="473.3465346534653" y1="420.8004268083014" y2="420.8004268083014" /><line stroke="#FF0000" stroke-width="1" x1="484.7524752475247" x2="484.7524752475247" y1="394.52123058700073" y2="440.6952023897996" /><line stroke="#FF0000" stroke-width="1" x1="477.1485148514851" x2="484.7524752475247" y1="394.3953832259396" y2="394.3953832259396" /><line stroke="#FF0000" stroke-width="1" x1="484.7524752475247" x2="492.35643564356434" y1="416.35281330073457" y2="416.35281330073457" /><line stroke="#00FF00" stroke-width="1" x1="503.76237623762376" x2="503.76237623762376" y1="461.2149847888356" y2="485.72181545180086" /><line stroke="#00FF00" stroke-width="1" x1="496.15841584158414" x2="503.76237623762376" y1="472.43296147599403" y2="472.43296147599403" /><line stroke="#00FF00" stroke-width="1" x1="503.76237623762376" x2="511.36633663366337" y1="462.5036883880909" y2="462.5036883880909" /><line stroke="#00FF00" stroke-width="1" x1="522.7722772277227" x2="522.7722772277227" y1="425.8325674936559" y2="463.31096546868423" /><line stroke="#00FF00" stroke-width="1" x1="515.1683168316831" x2="522.7722772277227" y1="453.11613959381447" y2="453.11613959381447" /><line stroke="#00FF00" stroke-width="1" x1="522.7722772277227" x2="530.3762376237623" y1="447.43949284838214" y2="447.43949284838214" /><line stroke="#FF0000" stroke-width="1" x1="541.7821782178218" x2="541.7821782178218" y1="457.18242739055444" y2="484.03556065926296" /><line stroke="#FF0000" stroke-width="1" x1="534.1782178217821" x2="541.7821782178218" y1="470.52411490593516" y2="470.52411490593516" /><line stroke="#FF0000" stroke-width="1" x1="541.7821782178218" x2="549.3861386138614" y1="471.5230339687036" y2="471.5230339687036" /><line stroke="#00FF00" stroke-width="1" x1="560.7920792079208" x2="560.7920792079208" y1="469.59418428314194" y2="495.81619243095224" /><line stroke="#00FF00" stroke-width="1" x1="553.1881188118812" x2="560.7920792079208" y1="488.26585746845774" y2="488.26585746845774" /><line stroke="#00FF00" stroke-width="1" x1="560.7920792079208" x2="568.3960396039604" y1="483.218947894323" y2="483.218947894323" /><line stroke="#00FF00" stroke-width="1" x1="579.8019801980198" x2="579.8019801980198" y1="492.70271680509865" y2="507.59083570711084" /><line stroke="#00FF00" stroke-width="1" x1="572.1980198019802" x2="579.8019801980198" y1="522.8893736667324" y2="522.8893736667324" /><line stroke="#00FF00" stroke-width="1" x1="579.8019801980198" x2="587.4059405940594" y1="507.345309018271" y2="507.345309018271" /><line stroke="#FF0000" stroke-width="1" x1="598.8118811881188" x2="598.8118811881188" y1="428.7357167843767" y2="451.06374222154705" /><line stroke="#FF0000" stroke-width="1" x1="591.2079207920792" x2="598.8118811881188" y1="432.3880537093434" y2="432.3880537093434" /><line stroke="#FF0000" stroke-width="1" x1="598.8118811881188" x2="606.4158415841584" y1="433.07533844923233" y2="433.07533844923233" /><line stroke="#00FF00" stroke-width="1" x1="617.8217821782177" x2="617.8217821782177" y1="432.70289378841636" y2="435.1362813837224" /><line stroke="#00FF00" stroke-width="1" x1="610.2178217821781" x2="617.8217821782177" y1="444.2652099522537" y2="444.2652099522537" /><line stroke="#00FF00" stroke-width="1" x1="617.8217821782177" x2="625.4257425742574" y1="433.6165306375516" y2="433.6165306375516" /><line stroke="#FF0000" stroke-width="1" x1="636.8316831683168" x2="636.8316831683168" y1="462.963629091225" y2="489.6030183172303" /><line stroke="#FF0000" stroke-width="1" x1="629.2277227722772" x2="636.8316831683168" y1="471.2797370480678" y2="471.2797370480678" /><line stroke="#FF0000" stroke-width="1" x1="636.8316831683168" x2="644.4356435643564" y1="476.0270930579751" y2="476.0270930579751" /><line stroke="#00FF00" stroke-width="1" x1="655.8415841584158" x2="655.8415841584158" y1="400.06349331453407" y2="462.5953473998037" /><line stroke="#00FF00" stroke-width="1" x1="648.2376237623762" x2="655.8415841584158" y1="452.26231297391087" y2="452.26231297391087" /><line stroke="#00FF00" stroke-width="1" x1="655.8415841584158" x2="663.4455445544554" y1="443.0458773180661" y2="443.0458773180661" /><line stroke="#FF0000" stroke-width="1" x1="674.8514851485148" x2="674.8514851485148" y1="479.28851568028745" y2="494.94574660054826" /><line stroke="#FF0000" stroke-width="1" x1="667.2475247524752" x2="674.8514851485148" y1="476.46074275740926" y2="476.46074275740926" /><line stroke="#FF0000" stroke-width="1" x1="674.8514851485148" x2="682.4554455445544" y1="491.9974995479547" y2="491.9974995479547" /><line stroke="#00FF00" stroke-width="1" x1="693.8613861386139" x2="693.8613861386139" y1="443.02217069767164" y2="500.17258541140427" /><line stroke="#00FF00" stroke-width="1" x1="686.2574257425742" x2="693.8613861386139" y1="491.4742286270023" y2="491.4742286270023" /><line stroke="#00FF00" stroke-width="1" x1="693.8613861386139" x2="701.4653465346535" y1="483.6227893215535" y2="483.6227893215535" /><line stroke="#00FF00" stroke-width="1" x1="712.8712871287129" x2="712.8712871287129" y1="558.4607188235562" y2="568.6420387210501" /><line stroke="#00FF00" stroke-width="1" x1="705.2673267326733" x2="712.8712871287129" y1="565.4271956603617" y2="565.4271956603617" /><line stroke="#00FF00" stroke-width="1" x1="712.8712871287129" x2="720.4752475247525" y1="562.1988064893856" y2="562.1988064893856" /><line stroke="#FF0000" stroke-width="1" x1="731.8811881188118" x2="731.8811881188118" y1="602.1868108564848" y2="623.7330529072105" /><line stroke="#FF0000" stroke-width="1" x1="724.2772277227722" x2="731.8811881188118" y1="607.2996798423686" y2="607.2996798423686" /><line stroke="#FF0000" stroke-width="1" x1="731.8811881188118" x2="739.4851485148514" y1="615.4544889170475" y2="615.4544889170475" /><line stroke="#00FF00" stroke-width="1" x1="750.8910891089108" x2="750.8910891089108" y1="590.4712126873251" y2="618.8627376517737" /><line stroke="#00FF00" stroke-width="1" x1="743.2871287128712" x2="750.8910891089108" y1="619.899386024663" y2="619.899386024663" /><line stroke="#00FF00" stroke-width="1" x1="750.8910891089108" x2="758.4950495049504" y1="607.5610319209751" y2="607.5610319209751" /><line stroke="#FF0000" stroke-width="1" x1="769.9009900990098" x2="769.9009900990098" y1="562.0623925553147" y2="594.4351693611177" /><line stroke="#FF0000" stroke-width="1" x1="762.2970297029702" x2="769.9009900990098" y1="575.6709776523131" y2="575.6709776523131" /><line stroke="#FF0000" stroke-width="1" x1="769.9009900990098" x2="777.5049504950495" y1="577.951067488436" y2="577.951067488436" /><line stroke="#FF0000" stroke-width="1" x1="788.9108910891089" x2="788.9108910891089" y1="568.779522194649" y2="575.9652987100583" /><line stroke="#FF0000" stroke-width="1" x1="781.3069306930693" x2="788.9108910891089" y1="557.9768103912081" y2="557.9768103912081" /><line stroke="#FF0000" stroke-width="1" x1="788.9108910891089" x2="796.5148514851485" y1="571.0797901031657" y2="571.0797901031657" /><line stroke="#00FF00" stroke-width="1" x1="807.9207920792079" x2="807.9207920792079" y1="565.5927629765309" y2="580.6280451604073" /><line stroke="#00FF00" stroke-width="1" x1="800.3168316831683" x2="807.9207920792079" y1="591.8305218134758" y2="591.8305218134758" /><line stroke="#00FF00" stroke-width="1" x1="807.9207920792079" x2="815.5247524752475" y1="575.7168875981142" y2="575.7168875981142" /><line stroke="#FF0000" stroke-width="1" x1="826.9306930693069" x2="826.9306930693069" y1="570.4332083604554" y2="597.9534448882706" /><line stroke="#FF0000" stroke-width="1" x1="819.3267326732673" x2="826.9306930693069" y1="585.9393125870771" y2="585.9393125870771" /><line stroke="#FF0000" stroke-width="1" x1="826.9306930693069" x2="834.5346534653465" y1="587.7901079149501" y2="587.7901079149501" /><line stroke="#FF0000" stroke-width="1" x1="845.940594059406" x2="845.940594059406" y1="623.0098690948739" y2="656.517249616722" /><line stroke="#FF0000" stroke-width="1" x1="838.3366336633663" x2="845.940594059406" y1="644.4686423371651" y2="644.4686423371651" /><line stroke="#FF0000" stroke-width="1" x1="845.940594059406" x2="853.5445544554456" y1="647.0737434015804" y2="647.0737434015804" /><line stroke="#FF0000" stroke-width="1" x1="864.9504950495049" x2="864.9504950495049" y1="669.2308416411419" y2="680.589216239304" /><line stroke="#FF0000" stroke-width="1" x1="857.3465346534653" x2="864.9504950495049" y1="668.0999143505287" y2="668.0999143505287" /><line stroke="#FF0000" stroke-width="1" x1="864.9504950495049" x2="872.5544554455445" y1="675.9370149225058" y2="675.9370149225058" /><line stroke="#00FF00" stroke-width="1" x1="883.9603960396039" x2="883.9603960396039" y1="684.8852069164758" y2="723.4386372005405" /><line stroke="#00FF00" stroke-width="1" x1="876.3564356435643" x2="883.9603960396039" y1="706.8064068223878" y2="706.8064068223878" /><line stroke="#00FF00" stroke-width="1" x1="883.9603960396039" x2="891.5643564356435" y1="694.4070418592056" y2="694.4070418592056" /><line stroke="#00FF00" stroke-width="1" x1="902.9702970297029" x2="902.9702970297029" y1="638.921959258628" y2="680.2373073675443" /><line stroke="#00FF00" stroke-width="1" x1="895.3663366336633" x2="902.9702970297029" y1="665.2565240628711" y2="665.2565240628711" /><line stroke="#00FF00" stroke-width="1" x1="902.9702970297029" x2="910.5742574257425" y1="652.0200843893318" y2="652.0200843893318" /><line stroke="#FF0000" stroke-width="1" x1="921.980198019802" x2="921.980198019802" y1="602.8478605580015" y2="652.6457438288353" /><line stroke="#FF0000" stroke-width="1" x1="914.3762376237623" x2="921.980198019802" y1="633.0101609734012" y2="633.0101609734012" /><line stroke="#FF0000" stroke-width="1" x1="921.980198019802" x2="929.5841584158416" y1="638.2421753977627" y2="638.2421753977627" /><line stroke="#FF0000" stroke-width="1" x1="940.990099009901" x2="940.990099009901" y1="700.8148232554688" y2="713.2132561188158" /><line stroke="#FF0000" stroke-width="1" x1="933.3861386138614" x2="940.990099009901" y1="705.9569931636235" y2="705.9569931636235" /><line stroke="#FF0000" stroke-width="1" x1="940.990099009901" x2="948.5940594059406" y1="708.9340085931839" y2="708.9340085931839" /><line stroke="#FF0000" stroke-width="1" x1="960.0" x2="960.0" y1="670.6608082977535" y2="702.1725193631839" /><line stroke="#FF0000" stroke-width="1" x1="952.3960396039604" x2="960.0" y1="693.4283835392462" y2="693.4283835392462" /><line stroke="#FF0000" stroke-width="1" x1="960.0" x2="967.6039603960396" y1="695.9393585076032" y2="695.9393585076032" /><line stroke="#FF0000" stroke-width="1" x1="979.0099009900989" x2="979.0099009900989" y1="692.9782804633916" y2="740.9581800520195" /><line stroke="#FF0000" stroke-width="1" x1="971.4059405940593" x2="979.0099009900989" y1="707.906985853112" y2="707.906985853112" /><line stroke="#FF0000" stroke-width="1" x1="979.0099009900989" x2="986.6138613861385" y1="711.3798306096703" y2="711.3798306096703" /><line stroke="#00FF00" stroke-width="1" x1="998.0198019801979" x2="998.0198019801979" y1="695.9764952219995" y2="755.7166668439986" /><line stroke="#00FF00" stroke-width="1" x1="990.4158415841583" x2="998.0198019801979" y1="745.3387313734869" y2="745.3387313734869" /><line stroke="#00FF00" stroke-width="1" x1="998.0198019801979" x2="1005.6237623762376" y1="738.522069535076" y2="738.522069535076" /><line stroke="#FF0000" stroke-width="1" x1="1017.029702970297" x2="1017.029702970297" y1="693.2968096751252" y2="717.2024506227365" /><line stroke="#FF0000" stroke-width="1" x1="1009.4257425742574" x2="1017.029702970297" y1="711.6678155687086" y2="711.6678155687086" /><line stroke="#FF0000" stroke-width="1" x1="1017.029702970297" x2="1024.6336633663366" y1="713.9959587435515" y2="713.9959587435515" /><line stroke="#FF0000" stroke-width="1" x1="1036.0396039603959" x2="1036.0396039603959" y1="642.1956823962013" y2="673.037673845354" /><line stroke="#FF0000" stroke-width="1" x1="1028.4356435643563" x2="1036.0396039603959" y1="669.7186326539869" y2="669.7186326539869" /><line stroke="#FF0000" stroke-width="1" x1="1036.0396039603959" x2="1043.6435643564355" y1="672.6564316504506" y2="672.6564316504506" /><line stroke="#00FF00" stroke-width="1" x1="1055.049504950495" x2="1055.049504950495" y1="625.6072503032406" y2="655.4142948578964" /><line stroke="#00FF00" stroke-width="1" x1="1047.4455445544554" x2="1055.049504950495" y1="642.4760662994875" y2="642.4760662994875" /><line stroke="#00FF00" stroke-width="1" x1="1055.049504950495" x2="1062.6534653465346" y1="635.3153089094151" y2="635.3153089094151" /><line stroke="#FF0000" stroke-width="1" x1="1074.059405940594" x2="1074.059405940594" y1="643.5656538072467" y2="669.3361953564047" /><line stroke="#FF0000" stroke-width="1" x1="1066.4554455445543" x2="1074.059405940594" y1="650.2622571996421" y2="650.2622571996421" /><line stroke="#FF0000" stroke-width="1" x1="1074.059405940594" x2="1081.6633663366335" y1="668.9650388862818" y2="668.9650388862818" /><line stroke="#FF0000" stroke-width="1" x1="1093.069306930693" x2="1093.069306930693" y1="667.1758361813525" y2="687.150497552433" /><line stroke="#FF0000" stroke-width="1" x1="1085.4653465346535" x2="1093.069306930693" y1="676.6136226140646" y2="676.6136226140646" /><line stroke="#FF0000" stroke-width="1" x1="1093.069306930693" x2="1100.6732673267327" y1="681.3633893317578" y2="681.3633893317578" /><line stroke="#00FF00" stroke-width="1" x1="1112.079207920792" x2="1112.079207920792" y1="659.1830529342706" y2="674.550818510982" /><line stroke="#00FF00" stroke-width="1" x1="1104.4752475247524" x2="1112.079207920792" y1="680.0226585480655" y2="680.0226585480655" /><line stroke="#00FF00" stroke-width="1" x1="1112.079207920792" x2="1119.6831683168316" y1="668.0808675665598" y2="668.0808675665598" /><line stroke="#FF0000" stroke-width="1" x1="1131.0891089108911" x2="1131.0891089108911" y1="613.4347928561529" y2="645.5494253061759" /><line stroke="#FF0000" stroke-width="1" x1="1123.4851485148515" x2="1131.0891089108911" y1="622.3834864249985" y2="622.3834864249985" /><line stroke="#FF0000" stroke-width="1" x1="1131.0891089108911" x2="1138.6930693069307" y1="628.9648705818224" y2="628.9648705818224" /><line stroke="#00FF00" stroke-width="1" x1="1150.09900990099" x2="1150.09900990099" y1="629.5947474168162" y2="658.5901083916991" /><line stroke="#00FF00" stroke-width="1" x1="1142.4950495049504" x2="1150.09900990099" y1="657.9484496854844" y2="657.9484496854844" /><line stroke="#00FF00" stroke-width="1" x1="1150.09900990099" x2="1157.7029702970297" y1="648.1781058506091" y2="648.1781058506091" /><line stroke="#FF0000" stroke-width="1" x1="1169.108910891089" x2="1169.108910891089" y1="654.4290100658193" y2="686.3511644675067" /><line stroke="#FF0000" stroke-width="1" x1="1161.5049504950493" x2="1169.108910891089" y1="647.7325459649362" y2="647.7325459649362" /><line stroke="#FF0000" stroke-width="1" x1="1169.108910891089" x2="1176.7128712871286" y1="655.6223908656891" y2="655.6223908656891" /><line stroke="#FF0000" stroke-width="1" x1="1188.118811881188" x2="1188.118811881188" y1="635.0007858944799" y2="702.1630634236114" /><line stroke="#FF0000" stroke-width="1" x1="1180.5148514851485" x2="1188.118811881188" y1="688.3686876032021" y2="688.3686876032021" /><line stroke="#FF0000" stroke-width="1" x1="1188.118811881188" x2="1195.7227722772277" y1="699.9826098900846" y2="699.9826098900846" /><line stroke="#00FF00" stroke-width="1" x1="1207.128712871287" x2="1207.128712871287" y1="727.4091655787681" y2="756.0" /><line stroke="#00FF00" stroke-width="1" x1="1199.5247524752474" x2="1207.128712871287" y1="756.1730053409607" y2="756.1730053409607" /><line stroke="#00FF00" stroke-width="1" x1="1207.128712871287" x2="1214.7326732673266" y1="747.9463723032953" y2="747.9463723032953" /><line stroke="#FF0000" stroke-width="1" x1="1226.1386138613861" x2="1226.1386138613861" y1="710.3033313798234" y2="729.2030851287429" /><line stroke="#FF0000" stroke-width="1" x1="1218.5346534653465" x2="1226.1386138613861" y1="705.7098719970444" y2="705.7098719970444" /><line stroke="#FF0000" stroke-width="1" x1="1226.1386138613861" x2="1233.7425742574258" y1="715.3668875258511" y2="715.3668875258511" /><line stroke="#FF0000" stroke-width="1" x1="1245.148514851485" x2="1245.148514851485" y1="635.9704349103758" y2="669.0301161893507" /><line stroke="#FF0000" stroke-width="1" x1="1237.5445544554455" x2="1245.148514851485" y1="656.8485641245517" y2="656.8485641245517" /><line stroke="#FF0000" stroke-width="1" x1="1245.148514851485" x2="1252.7524752475247" y1="660.9863372127719" y2="660.9863372127719" /><line stroke="#FF0000" stroke-width="1" x1="1264.1584158415842" x2="1264.1584158415842" y1="631.1466616167475" y2="668.3663629233645" /><line stroke="#FF0000" stroke-width="1" x1="1256.5544554455446" x2="1264.1584158415842" y1="655.6332501631737" y2="655.6332501631737" /><line stroke="#FF0000" stroke-width="1" x1="1264.1584158415842" x2="1271.7623762376238" y1="663.873694875985" y2="663.873694875985" /><line stroke="#FF0000" stroke-width="1" x1="1283.1683168316831" x2="1283.1683168316831" y1="594.9636149083304" y2="623.8879406878748" /><line stroke="#FF0000" stroke-width="1" x1="1275.5643564356435" x2="1283.1683168316831" y1="604.6217696205376" y2="604.6217696205376" /><line stroke="#FF0000" stroke-width="1" x1="1283.1683168316831" x2="1290.7722772277227" y1="623.6354847546139" y2="623.6354847546139" /><line stroke="#00FF00" stroke-width="1" x1="1302.178217821782" x2="1302.178217821782" y1="600.3129931136126" y2="611.093364111493" /><line stroke="#00FF00" stroke-width="1" x1="1294.5742574257424" x2="1302.178217821782" y1="611.5949310812337" y2="611.5949310812337" /><line stroke="#00FF00" stroke-width="1" x1="1302.178217821782" x2="1309.7821782178216" y1="609.1351266757799" y2="609.1351266757799" /><line stroke="#00FF00" stroke-width="1" x1="1321.1881188118812" x2="1321.1881188118812" y1="632.3810819186393" y2="650.4997190880168" /><line stroke="#00FF00" stroke-width="1" x1="1313.5841584158416" x2="1321.1881188118812" y1="642.5577607011077" y2="642.5577607011077" /><line stroke="#00FF00" stroke-width="1" x1="1321.1881188118812" x2="1328.7920792079208" y1="635.0022051679506" y2="635.0022051679506" /><line stroke="#00FF00" stroke-width="1" x1="1340.19801980198" x2="1340.19801980198" y1="591.616441605316" y2="621.002873835688" /><line stroke="#00FF00" stroke-width="1" x1="1332.5940594059405" x2="1340.19801980198" y1="629.4281027226577" y2="629.4281027226577" /><line stroke="#00FF00" stroke-width="1" x1="1340.19801980198" x2="1347.8019801980197" y1="620.5114870839358" y2="620.5114870839358" /><line stroke="#00FF00" stroke-width="1" x1="1359.2079207920792" x2="1359.2079207920792" y1="530.0549607470999" y2="568.8255296996252" /><line stroke="#00FF00" stroke-width="1" x1="1351.6039603960396" x2="1359.2079207920792" y1="567.0193173382638" y2="567.0193173382638" /><line stroke="#00FF00" stroke-width="1" x1="1359.2079207920792" x2="1366.8118811881188" y1="558.841522236935" y2="558.841522236935" /><line stroke="#00FF00" stroke-width="1" x1="1378.2178217821781" x2="1378.2178217821781" y1="536.9585943438957" y2="589.3709512743378" /><line stroke="#00FF00" stroke-width="1" x1="1370.6138613861385" x2="1378.2178217821781" y1="561.0509011125162" y2="561.0509011125162" /><line stroke="#00FF00" stroke-width="1" x1="1378.2178217821781" x2="1385.8217821782177" y1="560.2780229162361" y2="560.2780229162361" /><line stroke="#FF0000" stroke-width="1" x1="1397.2277227722773" x2="1397.2277227722773" y1="497.3360502612885" y2="516.7729323030999" /><line stroke="#FF0000" stroke-width="1" x1="1389.6237623762377" x2="1397.2277227722773" y1="494.12145093073434" y2="494.12145093073434" /><line stroke="#FF0000" stroke-width="1" x1="1397.2277227722773" x2="1404.8316831683169" y1="497.5412054985288" y2="497.5412054985288" /><line stroke="#FF0000" stroke-width="1" x1="1416.2376237623762" x2="1416.2376237623762" y1="582.9063972867991" y2="645.7515515197912" /><line stroke="#FF0000" stroke-width="1" x1="1408.6336633663366" x2="1416.2376237623762" y1="599.8103673245682" y2="599.8103673245682" /><line stroke="#FF0000" stroke-width="1" x1="1416.2376237623762" x2="1423.8415841584158" y1="602.583954156021" y2="602.583954156021" /><line stroke="#FF0000" stroke-width="1" x1="1435.247524752475" x2="1435.247524752475" y1="560.364118506447" y2="585.0124928999267" /><line stroke="#FF0000" stroke-width="1" x1="1427.6435643564355" x2="1435.247524752475" y1="561.3366974859337" y2="561.3366974859337" /><line stroke="#FF0000" stroke-width="1" x1="1435.247524752475" x2="1442.8514851485147" y1="569.628496751684" y2="569.628496751684" /><line stroke="#FF0000" stroke-width="1" x1="1454.2574257425742" x2="1454.2574257425742" y1="562.1474055322756" y2="583.6267347208413" /><line stroke="#FF0000" stroke-width="1" x1="1446.6534653465346" x2="1454.2574257425742" y1="566.0078765964419" y2="566.0078765964419" /><line stroke="#FF0000" stroke-width="1" x1="1454.2574257425742" x2="1461.8613861386139" y1="566.1382093584414" y2="566.1382093584414" /><line stroke="#FF0000" stroke-width="1" x1="1473.2673267326732" x2="1473.2673267326732" y1="566.0940595204366" y2="581.8030646954095" /><line stroke="#FF0000" stroke-width="1" x1="1465.6633663366335" x2="1473.2673267326732" y1="563.5569468872574" y2="563.5569468872574" /><line stroke="#FF0000" stroke-width="1" x1="1473.2673267326732" x2="1480.8712871287128" y1="578.1273734617339" y2="578.1273734617339" /><line stroke="#00FF00" stroke-width="1" x1="1492.2772277227723" x2="1492.2772277227723" y1="573.0486711100613" y2="618.3498574014792" /><line stroke="#00FF00" stroke-width="1" x1="1484.6732673267327" x2="1492.2772277227723" y1="577.1010393048487" y2="577.1010393048487" /><line stroke="#00FF00" stroke-width="1" x1="1492.2772277227723" x2="1499.881188118812" y1="574.4480826134799" y2="574.4480826134799" /><line stroke="#FF0000" stroke-width="1" x1="1511.2871287128712" x2="1511.2871287128712" y1="646.4178715776033" y2="670.3477326817567" /><line stroke="#FF0000" stroke-width="1" x1="1503.6831683168316" x2="1511.2871287128712" y1="626.87539327186" y2="626.87539327186" /><line stroke="#FF0000" stroke-width="1" x1="1511.2871287128712" x2="1518.8910891089108" y1="654.142745124705" y2="654.142745124705" /><line stroke="#FF0000" stroke-width="1" x1="1530.2970297029701" x2="1530.2970297029701" y1="660.6750035080761" y2="679.7858063528984" /><line stroke="#FF0000" stroke-width="1" x1="1522.6930693069305" x2="1530.2970297029701" y1="656.6790546313968" y2="656.6790546313968" /><line stroke="#FF0000" stroke-width="1" x1="1530.2970297029701" x2="1537.9009900990097" y1="662.9508306385244" y2="662.9508306385244" /><line stroke="#00FF00" stroke-width="1" x1="1549.3069306930693" x2="1549.3069306930693" y1="635.3572685816838" y2="660.648636970499" /><line stroke="#00FF00" stroke-width="1" x1="1541.7029702970297" x2="1549.3069306930693" y1="657.2241133221364" y2="657.2241133221364" /><line stroke="#00FF00" stroke-width="1" x1="1549.3069306930693" x2="1556.9108910891089" y1="648.631847454558" y2="648.631847454558" /><line stroke="#00FF00" stroke-width="1" x1="1568.3168316831682" x2="1568.3168316831682" y1="557.5764866852031" y2="631.9538392604479" /><line stroke="#00FF00" stroke-width="1" x1="1560.7128712871286" x2="1568.3168316831682" y1="600.1081648995336" y2="600.1081648995336" /><line stroke="#00FF00" stroke-width="1" x1="1568.3168316831682" x2="1575.9207920792078" y1="589.3733904230571" y2="589.3733904230571" /><line stroke="#FF0000" stroke-width="1" x1="1587.3267326732673" x2="1587.3267326732673" y1="585.3381723125153" y2="620.6947218173214" /><line stroke="#FF0000" stroke-width="1" x1="1579.7227722772277" x2="1587.3267326732673" y1="605.3178695433473" y2="605.3178695433473" /><line stroke="#FF0000" stroke-width="1" x1="1587.3267326732673" x2="1594.930693069307" y1="610.1542397468306" y2="610.1542397468306" /><line stroke="#00FF00" stroke-width="1" x1="1606.3366336633662" x2="1606.3366336633662" y1="599.808403442444" y2="657.7913479554554" /><line stroke="#00FF00" stroke-width="1" x1="1598.7326732673266" x2="1606.3366336633662" y1="644.8120682800263" y2="644.8120682800263" /><line stroke="#00FF00" stroke-width="1" x1="1606.3366336633662" x2="1613.9405940594058" y1="642.572046420968" y2="642.572046420968" /><line stroke="#FF0000" stroke-width="1" x1="1625.3465346534654" x2="1625.3465346534654" y1="623.5547783107434" y2="665.7059105812632" /><line stroke="#FF0000" stroke-width="1" x1="1617.7425742574258" x2="1625.3465346534654" y1="655.5335346790459" y2="655.5335346790459" /><line stroke="#FF0000" stroke-width="1" x1="1625.3465346534654" x2="1632.950495049505" y1="662.6907743590777" y2="662.6907743590777" /><line stroke="#FF0000" stroke-width="1" x1="1644.3564356435643" x2="1644.3564356435643" y1="622.9432751838161" y2="632.8379230586416" /><line stroke="#FF0000" stroke-width="1" x1="1636.7524752475247" x2="1644.3564356435643" y1="621.2425053598765" y2="621.2425053598765" /><line stroke="#FF0000" stroke-width="1" x1="1644.3564356435643" x2="1651.960396039604" y1="625.9863047447618" y2="625.9863047447618" /><line stroke="#00FF00" stroke-width="1" x1="1663.3663366336632" x2="1663.3663366336632" y1="601.0097723689498" y2="650.4185102552751" /><line stroke="#00FF00" stroke-width="1" x1="1655.7623762376236" x2="1663.3663366336632" y1="613.5345655125266" y2="613.5345655125266" /><line stroke="#00FF00" stroke-width="1" x1="1663.3663366336632" x2="1670.9702970297028" y1="612.8045184217552" y2="612.8045184217552" /><line stroke="#00FF00" stroke-width="1" x1="1682.3762376237623" x2="1682.3762376237623" y1="628.4126738871721" y2="653.100436503471" /><line stroke="#00FF00" stroke-width="1" x1="1674.7722772277227" x2="1682.3762376237623" y1="642.5344538778443" y2="642.5344538778443" /><line stroke="#00FF00" stroke-width="1" x1="1682.3762376237623" x2="1689.980198019802" y1="634.0460765589078" y2="634.0460765589078" /><line stroke="#00FF00" stroke-width="1" x1="1701.3861386138612" x2="1701.3861386138612" y1="600.9817694970466" y2="625.0317457054714" /><line stroke="#00FF00" stroke-width="1" x1="1693.7821782178216" x2="1701.3861386138612" y1="628.6508597192071" y2="628.6508597192071" /><line stroke="#00FF00" stroke-width="1" x1="1701.3861386138612" x2="1708.9900990099009" y1="613.4658216759291" y2="613.4658216759291" /><line stroke="#00FF00" stroke-width="1" x1="1720.3960396039604" x2="1720.3960396039604" y1="605.4008541336198" y2="627.5850123491473" /><line stroke="#00FF00" stroke-width="1" x1="1712.7920792079208" x2="1720.3960396039604" y1="614.0492741849572" y2="614.0492741849572" /><line stroke="#00FF00" stroke-width="1" x1="1720.3960396039604" x2="1728.0" y1="609.5733465643114" y2="609.5733465643114" /><line stroke="#FF0000" stroke-width="1" x1="1739.4059405940593" x2="1739.4059405940593" y1="560.8502021968466" y2="580.596152861689" /><line stroke="#FF0000" stroke-width="1" x1="1731.8019801980197" x2="1739.4059405940593" y1="562.1493613412422" y2="562.1493613412422" /><line stroke="#FF0000" stroke-width="1" x1="1739.4059405940593" x2="1747.009900990099" y1="570.7340212726858" y2="570.7340212726858" /><line stroke="#FF0000" stroke-width="1" x1="1758.4158415841584" x2="1758.4158415841584" y1="587.0681827916571" y2="625.3523308663064" /><line stroke="#FF0000" stroke-width="1" x1="1750.8118811881188" x2="1758.4158415841584" y1="596.7378251311499" y2="596.7378251311499" /><line stroke="#FF0000" stroke-width="1" x1="1758.4158415841584" x2="1766.019801980198" y1="598.8839304257739" y2="598.8839304257739" /><line stroke="#00FF00" stroke-width="1" x1="1777.4257425742574" x2="1777.4257425742574" y1="594.9889952877882" y2="648.7396449053415" /><line stroke="#00FF00" stroke-width="1" x1="1769.8217821782177" x2="1777.4257425742574" y1="624.5095108538565" y2="624.5095108538565" /><line stroke="#00FF00" stroke-width="1" x1="1777.4257425742574" x2="1785.029702970297" y1="612.0220530835516" y2="612.0220530835516" /><line stroke="#FF0000" stroke-width="1" x1="1796.4356435643563" x2="1796.4356435643563" y1="620.5866932699032" y2="651.3899801745322" /><line stroke="#FF0000" stroke-width="1" x1="1788.8316831683167" x2="1796.4356435643563" y1="626.0082489169555" y2="626.0082489169555" /><line stroke="#FF0000" stroke-width="1" x1="1796.4356435643563" x2="1804.0396039603959" y1="627.7442384639975" y2="627.7442384639975" /><line stroke="#FF0000" stroke-width="1" x1="1815.4455445544554" x2="1815.4455445544554" y1="672.534500097192" y2="695.8323065072539" /><line stroke="#FF0000" stroke-width="1" x1="1807.8415841584158" x2="1815.4455445544554" y1="682.5636685913305" y2="682.5636685913305" /><line stroke="#FF0000" stroke-width="1" x1="1815.4455445544554" x2="1823.049504950495" y1="686.4261432848639" y2="686.4261432848639" /><line stroke="#00FF00" stroke-width="1" x1="1834.4554455445543" x2="1834.4554455445543" y1="656.517313789397" y2="708.8981356744657" /><line stroke="#00FF00" stroke-width="1" x1="1826.8514851485147" x2="1834.4554455445543" y1="683.4126500279154" y2="683.4126500279154" /><line stroke="#00FF00" stroke-width="1" x1="1834.4554455445543" x2="1842.059405940594" y1="674.5527408734912" y2="674.5527408734912" /><line stroke="#FF0000" stroke-width="1" x1="1853.4653465346535" x2="1853.4653465346535" y1="657.9244985149863" y2="691.2281320584527" /><line stroke="#FF0000" stroke-width="1" x1="1845.8613861386139" x2="1853.4653465346535" y1="662.5443625741136" y2="662.5443625741136" /><line stroke="#FF0000" stroke-width="1" x1="1853.4653465346535" x2="1861.069306930693" y1="664.0853242921997" y2="664.0853242921997" /><line stroke="#FF0000" stroke-width="1" x1="1872.4752475247524" x2="1872.4752475247524" y1="647.5838077535959" y2="666.1766187996892" /><line stroke="#FF0000" stroke-width="1" x1="1864.8712871287128" x2="1872.4752475247524" y1="663.2968000640262" y2="663.2968000640262" /><line stroke="#FF0000" stroke-width="1" x1="1872.4752475247524" x2="1880.079207920792" y1="663.8802923064444" y2="663.8802923064444" /><line stroke="#00FF00" stroke-width="1" x1="1891.4851485148513" x2="1891.4851485148513" y1="660.6634546101806" y2="698.1025114913692" /><line stroke="#00FF00" stroke-width="1" x1="1883.8811881188117" x2="1891.4851485148513" y1="684.743720062672" y2="684.743720062672" /><line stroke="#00FF00" stroke-width="1" x1="1891.4851485148513" x2="1899.089108910891" y1="673.2864277548658" y2="673.2864277548658" /></g><g id="volume"><rect fill="#00FF00" height="167.7864761866391" opacity="0.5" width="9.504950495049505" x="4.752475247524752" y="912.2135238133609" /><rect fill="#00FF00" height="63.07405824340984" opacity="0.5" width="9.504950495049505" x="23.762376237623762" y="1016.9259417565902" /><rect fill="#00FF00" height="0.5518104838698715" opacity="0.5" width="9.504950495049505" x="42.77227722772277" y="1079.4481895161302" /><rect fill="#00FF00" height="4.943910897094322" opacity="0.5" width="9.504950495049505" x="61.78217821782178" y="1075.0560891029056" /><rect fill="#00FF00" height="47.361759623438495" opacity="0.5" width="9.504950495049505" x="80.79207920792079" y="1032.6382403765615" /><rect fill="#FF0000" height="65.54439441968528" opacity="0.5" width="9.504950495049505" x="99.80198019801979" y="1014.4556055803147" /><rect fill="#FF0000" height="112.34894776375349" opacity="0.5" width="9.504950495049505" x="118.8118811881188" y="967.6510522362465" /><rect fill="#FF0000" height="14.983026631045293" opacity="0.5" width="9.504950495049505" x="137.8217821782178" y="1065.0169733689547" /><rect fill="#FF0000" height="12.65907552108537" opacity="0.5" width="9.504950495049505" x="156.83168316831683" y="1067.3409244789145" /><rect fill="#00FF00" height="54.13596452883212" opacity="0.5" width="9.504950495049505" x="175.84158415841583" y="1025.8640354711679" /><rect fill="#00FF00" height="74.88539987245574" opacity="0.5" width="9.504950495049505" x="194.85148514851485" y="1005.1146001275442" /><rect fill="#00FF00" height="118.34951088551281" opacity="0.5" width="9.504950495049505" x="213.86138613861385" y="961.6504891144872" /><rect fill="#FF0000" height="161.43950423586787" opacity="0.5" width="9.504950495049505" x="232.87128712871285" y="918.5604957641322" /><rect fill="#FF0000" height="134.45382138804396" opacity="0.5" width="9.504950495049505" x="251.88118811881188" y="945.5461786119561" /><rect fill="#00FF00" height="34.97041508904941" opacity="0.5" width="9.504950495049505" x="270.8910891089109" y="1045.0295849109507" /><rect fill="#FF0000" height="78.76551673528323" opacity="0.5" width="9.504950495049505" x="289.9009900990099" y="1001.2344832647168" /><rect fill="#00FF00" height="163.23244429895703" opacity="0.5" width="9.504950495049505" x="308.9108910891089" y="916.767555701043" /><rect fill="#00FF00" height="12.172793895743654" opacity="0.5" width="9.504950495049505" x="327.9207920792079" y="1067.8272061042564" /><rect fill="#FF0000" height="124.10103261788376" opacity="0.5" width="9.504950495049505" x="346.9306930693069" y="955.8989673821162" /><rect fill="#FF0000" height="7.105175334101715" opacity="0.5" width="9.504950495049505" x="365.9405940594059" y="1072.8948246658983" /><rect fill="#FF0000" height="216.85877732849266" opacity="0.5" width="9.504950495049505" x="384.9504950495049" y="863.1412226715073" /><rect fill="#00FF00" height="184.71986034332602" opacity="0.5" width="9.504950495049505" x="403.96039603960395" y="895.280139656674" /><rect fill="#FF0000" height="26.199255224722855" opacity="0.5" width="9.504950495049505" x="422.970297029703" y="1053.800744775277" /><rect fill="#00FF00" height="102.2413687612512" opacity="0.5" width="9.504950495049505" x="441.98019801980195" y="977.7586312387488" /><rect fill="#FF0000" height="67.91487578582172" opacity="0.5" width="9.504950495049505" x="460.990099009901" y="1012.0851242141782" /><rect fill="#FF0000" height="144.02526509721102" opacity="0.5" width="9.504950495049505" x="480.0" y="935.974734902789" /><rect fill="#00FF00" height="101.54183311331622" opacity="0.5" width="9.504950495049505" x="499.00990099009897" y="978.4581668866838" /><rect fill="#00FF00" height="72.19528356832329" opacity="0.5" width="9.504950495049505" x="518.0198019801979" y="1007.8047164316768" /><rect fill="#FF0000" height="111.38123073732237" opacity="0.5" width="9.504950495049505" x="537.029702970297" y="968.6187692626777" /><rect fill="#00FF00" height="185.0775099952602" opacity="0.5" width="9.504950495049505" x="556.039603960396" y="894.9224900047398" /><rect fill="#00FF00" height="124.51789528548255" opacity="0.5" width="9.504950495049505" x="575.049504950495" y="955.4821047145174" /><rect fill="#FF0000" height="214.59460976203565" opacity="0.5" width="9.504950495049505" x="594.059405940594" y="865.4053902379644" /><rect fill="#00FF00" height="28.350501299149517" opacity="0.5" width="9.504950495049505" x="613.0693069306931" y="1051.6494987008505" /><rect fill="#FF0000" height="75.50915587230396" opacity="0.5" width="9.504950495049505" x="632.0792079207921" y="1004.490844127696" /><rect fill="#00FF00" height="158.09760596849358" opacity="0.5" width="9.504950495049505" x="651.089108910891" y="921.9023940315064" /><rect fill="#FF0000" height="7.797219298025379" opacity="0.5" width="9.504950495049505" x="670.09900990099" y="1072.2027807019747" /><rect fill="#00FF00" height="171.38417158468903" opacity="0.5" width="9.504950495049505" x="689.1089108910891" y="908.615828415311" /><rect fill="#00FF00" height="145.2322776619515" opacity="0.5" width="9.504950495049505" x="708.1188118811881" y="934.7677223380485" /><rect fill="#FF0000" height="179.25211941802064" opacity="0.5" width="9.504950495049505" x="727.1287128712871" y="900.7478805819794" /><rect fill="#00FF00" height="5.845453449539127" opacity="0.5" width="9.504950495049505" x="746.1386138613861" y="1074.154546550461" /><rect fill="#FF0000" height="40.41637633863757" opacity="0.5" width="9.504950495049505" x="765.1485148514851" y="1039.5836236613625" /><rect fill="#FF0000" height="3.440567869141069" opacity="0.5" width="9.504950495049505" x="784.1584158415841" y="1076.559432130859" /><rect fill="#00FF00" height="217.56322575832465" opacity="0.5" width="9.504950495049505" x="803.1683168316831" y="862.4367742416754" /><rect fill="#FF0000" height="9.378373051287685" opacity="0.5" width="9.504950495049505" x="822.1782178217821" y="1070.6216269487122" /><rect fill="#FF0000" height="137.27329651829785" opacity="0.5" width="9.504950495049505" x="841.1881188118812" y="942.7267034817021" /><rect fill="#FF0000" height="70.47168088646941" opacity="0.5" width="9.504950495049505" x="860.1980198019802" y="1009.5283191135306" /><rect fill="#00FF00" height="38.578249411016685" opacity="0.5" width="9.504950495049505" x="879.2079207920792" y="1041.4217505889833" /><rect fill="#00FF00" height="98.90641103539502" opacity="0.5" width="9.504950495049505" x="898.2178217821781" y="981.093588964605" /><rect fill="#FF0000" height="54.07577999117898" opacity="0.5" width="9.504950495049505" x="917.2277227722772" y="1025.924220008821" /><rect fill="#FF0000" height="111.46426329644312" opacity="0.5" width="9.504950495049505" x="936.2376237623762" y="968.5357367035568" /><rect fill="#FF0000" height="6.595912209637243" opacity="0.5" width="9.504950495049505" x="955.2475247524752" y="1073.4040877903628" /><rect fill="#FF0000" height="100.51253396771443" opacity="0.5" width="9.504950495049505" x="974.2574257425742" y="979.4874660322855" /><rect fill="#00FF00" height="103.73095253822308" opacity="0.5" width="9.504950495049505" x="993.2673267326733" y="976.269047461777" /><rect fill="#FF0000" height="53.042349213160804" opacity="0.5" width="9.504950495049505" x="1012.2772277227722" y="1026.9576507868392" /><rect fill="#FF0000" height="55.80062335666366" opacity="0.5" width="9.504950495049505" x="1031.2871287128712" y="1024.1993766433363" /><rect fill="#00FF00" height="83.43642175024273" opacity="0.5" width="9.504950495049505" x="1050.2970297029703" y="996.5635782497573" /><rect fill="#FF0000" height="11.263130592793425" opacity="0.5" width="9.504950495049505" x="1069.3069306930693" y="1068.7368694072065" /><rect fill="#FF0000" height="108.94170100471226" opacity="0.5" width="9.504950495049505" x="1088.3168316831682" y="971.0582989952877" /><rect fill="#00FF00" height="58.262201784449154" opacity="0.5" width="9.504950495049505" x="1107.3267326732673" y="1021.7377982155508" /><rect fill="#FF0000" height="126.05633713814143" opacity="0.5" width="9.504950495049505" x="1126.3366336633662" y="953.9436628618586" /><rect fill="#00FF00" height="206.75400662369125" opacity="0.5" width="9.504950495049505" x="1145.3465346534654" y="873.2459933763088" /><rect fill="#FF0000" height="3.710890920968296" opacity="0.5" width="9.504950495049505" x="1164.3564356435643" y="1076.2891090790317" /><rect fill="#FF0000" height="73.63424526438395" opacity="0.5" width="9.504950495049505" x="1183.3663366336634" y="1006.3657547356161" /><rect fill="#00FF00" height="22.517757390118817" opacity="0.5" width="9.504950495049505" x="1202.3762376237623" y="1057.4822426098813" /><rect fill="#FF0000" height="11.82062261061964" opacity="0.5" width="9.504950495049505" x="1221.3861386138612" y="1068.1793773893803" /><rect fill="#FF0000" height="23.25330361998816" opacity="0.5" width="9.504950495049505" x="1240.3960396039604" y="1056.7466963800118" /><rect fill="#FF0000" height="64.63063145140352" opacity="0.5" width="9.504950495049505" x="1259.4059405940593" y="1015.3693685485965" /><rect fill="#FF0000" height="79.71484228337742" opacity="0.5" width="9.504950495049505" x="1278.4158415841584" y="1000.2851577166226" /><rect fill="#00FF00" height="55.82625067972319" opacity="0.5" width="9.504950495049505" x="1297.4257425742574" y="1024.1737493202768" /><rect fill="#00FF00" height="60.59510633101817" opacity="0.5" width="9.504950495049505" x="1316.4356435643563" y="1019.4048936689818" /><rect fill="#00FF00" height="28.94452738553562" opacity="0.5" width="9.504950495049505" x="1335.4455445544554" y="1051.0554726144644" /><rect fill="#00FF00" height="242.2381715219856" opacity="0.5" width="9.504950495049505" x="1354.4554455445543" y="837.7618284780144" /><rect fill="#00FF00" height="159.4481679200308" opacity="0.5" width="9.504950495049505" x="1373.4653465346535" y="920.5518320799692" /><rect fill="#FF0000" height="143.8403401118425" opacity="0.5" width="9.504950495049505" x="1392.4752475247524" y="936.1596598881575" /><rect fill="#FF0000" height="173.10495999415514" opacity="0.5" width="9.504950495049505" x="1411.4851485148515" y="906.8950400058449" /><rect fill="#FF0000" height="26.20682054163373" opacity="0.5" width="9.504950495049505" x="1430.4950495049504" y="1053.7931794583662" /><rect fill="#FF0000" height="60.67284433910692" opacity="0.5" width="9.504950495049505" x="1449.5049504950493" y="1019.327155660893" /><rect fill="#FF0000" height="32.753801249845246" opacity="0.5" width="9.504950495049505" x="1468.5148514851485" y="1047.2461987501547" /><rect fill="#00FF00" height="324.0" opacity="0.5" width="9.504950495049505" x="1487.5247524752474" y="756.0" /><rect fill="#FF0000" height="117.81627606649738" opacity="0.5" width="9.504950495049505" x="1506.5346534653465" y="962.1837239335026" /><rect fill="#FF0000" height="13.461157549831443" opacity="0.5" width="9.504950495049505" x="1525.5445544554455" y="1066.5388424501687" /><rect fill="#00FF00" height="100.55442935768295" opacity="0.5" width="9.504950495049505" x="1544.5544554455446" y="979.4455706423171" /><rect fill="#00FF00" height="169.0512365188302" opacity="0.5" width="9.504950495049505" x="1563.5643564356435" y="910.9487634811699" /><rect fill="#FF0000" height="21.411097772912925" opacity="0.5" width="9.504950495049505" x="1582.5742574257424" y="1058.5889022270871" /><rect fill="#00FF00" height="79.59309135941079" opacity="0.5" width="9.504950495049505" x="1601.5841584158416" y="1000.4069086405892" /><rect fill="#FF0000" height="149.66808739207025" opacity="0.5" width="9.504950495049505" x="1620.5940594059405" y="930.3319126079298" /><rect fill="#FF0000" height="68.04083286344739" opacity="0.5" width="9.504950495049505" x="1639.6039603960396" y="1011.9591671365527" /><rect fill="#00FF00" height="113.8145887975704" opacity="0.5" width="9.504950495049505" x="1658.6138613861385" y="966.1854112024296" /><rect fill="#00FF00" height="177.5430501441765" opacity="0.5" width="9.504950495049505" x="1677.6237623762374" y="902.4569498558235" /><rect fill="#00FF00" height="92.77763545349498" opacity="0.5" width="9.504950495049505" x="1696.6336633663366" y="987.222364546505" /><rect fill="#00FF00" height="0.8389853155374538" opacity="0.5" width="9.504950495049505" x="1715.6435643564355" y="1079.1610146844625" /><rect fill="#FF0000" height="155.73902688391118" opacity="0.5" width="9.504950495049505" x="1734.6534653465346" y="924.2609731160888" /><rect fill="#FF0000" height="8.141702533267381" opacity="0.5" width="9.504950495049505" x="1753.6633663366335" y="1071.8582974667327" /><rect fill="#00FF00" height="90.6355583704352" opacity="0.5" width="9.504950495049505" x="1772.6732673267327" y="989.3644416295648" /><rect fill="#FF0000" height="160.2829832451254" opacity="0.5" width="9.504950495049505" x="1791.6831683168316" y="919.7170167548746" /><rect fill="#FF0000" height="56.71114441141184" opacity="0.5" width="9.504950495049505" x="1810.6930693069305" y="1023.2888555885881" /><rect fill="#00FF00" height="109.15257033622768" opacity="0.5" width="9.504950495049505" x="1829.7029702970297" y="970.8474296637723" /><rect fill="#FF0000" height="20.029918511210738" opacity="0.5" width="9.504950495049505" x="1848.7128712871286" y="1059.9700814887892" /><rect fill="#FF0000" height="92.14397430311759" opacity="0.5" width="9.504950495049505" x="1867.7227722772277" y="987.8560256968824" /><rect fill="#00FF00" height="145.51622511727982" opacity="0.5" width="9.504950495049505" x="1886.7326732673266" y="934.4837748827201" /></g></svg>