<?xml version="1.0" encoding="utf-8" ?>
<svg baseProfile="full" height="1080" version="1.1" width="1920" xmlns="http://www.w3.org/2000/svg" xmlns:ev="http://www.w3.org/2001/xml-events" xmlns:xlink="http://www.w3.org/1999/xlink"><defs /><rect fill="#000000" height="100%" width="100%" x="0" y="0" /><g id="grid" opacity="0.25" stroke="#333333" stroke-width="1"><line x1="0" x2="1920" y1="108" y2="108" /><line x1="0" x2="1920" y1="216" y2="216" /><line x1="0" x2="1920" y1="324" y2="324" /><line x1="0" x2="1920" y1="432" y2="432" /><line x1="0" x2="1920" y1="540" y2="540" /><line x1="0" x2="1920" y1="648" y2="648" /><line x1="0" x2="1920" y1="756" y2="756" /><line x1="0" x2="1920" y1="864" y2="864" /><line x1="0" x2="1920" y1="972" y2="972" /><line x1="0" x2="0" y1="0" y2="1080" /><line x1="384" x2="384" y1="0" y2="1080" /><line x1="768" x2="768" y1="0" y2="1080" /><line x1="1152" x2="1152" y1="0" y2="1080" /><line x1="1536" x2="1536" y1="0" y2="1080" /></g><g id="pnf_symbols"><path d="M 38.39999999999998,222.35294117647067 L 345.6,285.8823529411764 M 38.39999999999998,285.8823529411764 L 345.6,222.35294117647067" fill="none" stroke="#00FF00" stroke-width="2" /><path d="M 38.39999999999998,158.8235294117648 L 345.6,222.35294117647055 M 38.39999999999998,222.35294117647055 L 345.6,158.8235294117648" fill="none" stroke="#00FF00" stroke-width="2" /><path d="M 38.39999999999998,95.29411764705894 L 345.6,158.8235294117647 M 38.39999999999998,158.8235294117647 L 345.6,95.29411764705894" fill="none" stroke="#00FF00" stroke-width="2" /><path d="M 38.39999999999998,31.764705882352974 L 345.6,95.29411764705874 M 38.39999999999998,95.29411764705874 L 345.6,31.764705882352974" fill="none" stroke="#00FF00" stroke-width="2" /><circle cx="576.0" cy="127.05882352941182" fill="none" r="153.60000000000002" stroke="#FF0000" stroke-width="2" /><circle cx="576.0" cy="190.58823529411768" fill="none" r="153.60000000000002" stroke="#FF0000" stroke-width="2" /><circle cx="576.0" cy="254.11764705882354" fill="none" r="153.60000000000002" stroke="#FF0000" stroke-width="2" /><circle cx="576.0" cy="317.6470588235294" fill="none" r="153.60000000000002" stroke="#FF0000" stroke-width="2" /><circle cx="576.0" cy="381.17647058823525" fill="none" r="153.60000000000002" stroke="#FF0000" stroke-width="2" /><circle cx="576.0" cy="444.7058823529411" fill="none" r="153.60000000000002" stroke="#FF0000" stroke-width="2" /><circle cx="576.0" cy="508.2352941176471" fill="none" r="153.60000000000002" stroke="#FF0000" stroke-width="2" /><circle cx="576.0" cy="571.7647058823529" fill="none" r="153.60000000000002" stroke="#FF0000" stroke-width="2" /><circle cx="576.0" cy="635.2941176470588" fill="none" r="153.60000000000002" stroke="#FF0000" stroke-width="2" /><circle cx="576.0" cy="698.8235294117646" fill="none" r="153.60000000000002" stroke="#FF0000" stroke-width="2" /><circle cx="576.0" cy="762.3529411764705" fill="none" r="153.60000000000002" stroke="#FF0000" stroke-width="2" /><circle cx="576.0" cy="825.8823529411765" fill="none" r="153.60000000000002" stroke="#FF0000" stroke-width="2" /><circle cx="576.0" cy="889.4117647058823" fill="none" r="153.60000000000002" stroke="#FF0000" stroke-width="2" /><circle cx="576.0" cy="952.9411764705883" fill="none" r="153.60000000000002" stroke="#FF0000" stroke-width="2" /><circle cx="576.0" cy="1016.4705882352941" fill="none" r="153.60000000000002" stroke="#FF0000" stroke-width="2" /><path d="M 806.4,921.1764705882354 L 1113.6,984.7058823529412 M 806.4,984.7058823529412 L 1113.6,921.1764705882354" fill="none" stroke="#00FF00" stroke-width="2" /><path d="M 806.4,857.6470588235294 L 1113.6,921.1764705882352 M 806.4,921.1764705882352 L 1113.6,857.6470588235294" fill="none" stroke="#00FF00" stroke-width="2" /><path d="M 806.4,794.1176470588235 L 1113.6,857.6470588235294 M 806.4,857.6470588235294 L 1113.6,794.1176470588235" fill="none" stroke="#00FF00" stroke-width="2" /><path d="M 806.4,730.5882352941176 L 1113.6,794.1176470588234 M 806.4,794.1176470588234 L 1113.6,730.5882352941176" fill="none" stroke="#00FF00" stroke-width="2" /><path d="M 806.4,667.0588235294117 L 1113.6,730.5882352941176 M 806.4,730.5882352941176 L 1113.6,667.0588235294117" fill="none" stroke="#00FF00" stroke-width="2" /><circle cx="1344.0" cy="762.3529411764705" fill="none" r="153.60000000000002" stroke="#FF0000" stroke-width="2" /><circle cx="1344.0" cy="825.8823529411765" fill="none" r="153.60000000000002" stroke="#FF0000" stroke-width="2" /><circle cx="1344.0" cy="889.4117647058823" fill="none" r="153.60000000000002" stroke="#FF0000" stroke-width="2" /><circle cx="1344.0" cy="952.9411764705883" fill="none" r="153.60000000000002" stroke="#FF0000" stroke-width="2" /></g></svg>